G04 #@! TF.FileFunction,Other,Fab,Top*
%FSLAX46Y46*%
G04 Gerber Fmt 4.6, Leading zero omitted, Abs format (unit mm)*
G04 Created by KiCad (PCBNEW 4.0.6-e0-6349~53~ubuntu16.04.1) date Tue Jul  4 14:56:25 2017*
%MOMM*%
%LPD*%
G01*
G04 APERTURE LIST*
%ADD10C,0.100000*%
%ADD11C,0.062500*%
%ADD12C,0.150000*%
%ADD13C,0.075000*%
%ADD14C,0.125000*%
G04 APERTURE END LIST*
D10*
X87450000Y-34150000D02*
X87450000Y-33350000D01*
X89050000Y-34150000D02*
X87450000Y-34150000D01*
X89050000Y-33350000D02*
X89050000Y-34150000D01*
X87450000Y-33350000D02*
X89050000Y-33350000D01*
X95750000Y-32900000D02*
X105750000Y-32900000D01*
X105750000Y-32900000D02*
X105750000Y-30900000D01*
X105750000Y-30900000D02*
X95750000Y-30900000D01*
X95750000Y-30900000D02*
X95750000Y-32900000D01*
X109210000Y-87270000D02*
X109210000Y-36470000D01*
X109210000Y-36470000D02*
X104130000Y-36470000D01*
X104130000Y-36470000D02*
X104130000Y-87270000D01*
X104130000Y-87270000D02*
X109210000Y-87270000D01*
X97050000Y-39250000D02*
X97050000Y-38450000D01*
X98650000Y-39250000D02*
X97050000Y-39250000D01*
X98650000Y-38450000D02*
X98650000Y-39250000D01*
X97050000Y-38450000D02*
X98650000Y-38450000D01*
X83400000Y-31850000D02*
X84200000Y-31850000D01*
X83400000Y-33450000D02*
X83400000Y-31850000D01*
X84200000Y-33450000D02*
X83400000Y-33450000D01*
X84200000Y-31850000D02*
X84200000Y-33450000D01*
X97050000Y-37700000D02*
X97050000Y-36900000D01*
X98650000Y-37700000D02*
X97050000Y-37700000D01*
X98650000Y-36900000D02*
X98650000Y-37700000D01*
X97050000Y-36900000D02*
X98650000Y-36900000D01*
X81710000Y-31840000D02*
X82510000Y-31840000D01*
X81710000Y-33440000D02*
X81710000Y-31840000D01*
X82510000Y-33440000D02*
X81710000Y-33440000D01*
X82510000Y-31840000D02*
X82510000Y-33440000D01*
X97500000Y-36150000D02*
X97500000Y-35350000D01*
X99100000Y-36150000D02*
X97500000Y-36150000D01*
X99100000Y-35350000D02*
X99100000Y-36150000D01*
X97500000Y-35350000D02*
X99100000Y-35350000D01*
X93900000Y-31900000D02*
X94700000Y-31900000D01*
X93900000Y-33500000D02*
X93900000Y-31900000D01*
X94700000Y-33500000D02*
X93900000Y-33500000D01*
X94700000Y-31900000D02*
X94700000Y-33500000D01*
X96300000Y-34600000D02*
X96300000Y-33800000D01*
X97900000Y-34600000D02*
X96300000Y-34600000D01*
X97900000Y-33800000D02*
X97900000Y-34600000D01*
X96300000Y-33800000D02*
X97900000Y-33800000D01*
X92290000Y-31900000D02*
X93090000Y-31900000D01*
X92290000Y-33500000D02*
X92290000Y-31900000D01*
X93090000Y-33500000D02*
X92290000Y-33500000D01*
X93090000Y-31900000D02*
X93090000Y-33500000D01*
X64900000Y-83950000D02*
X64100000Y-83950000D01*
X64900000Y-82350000D02*
X64900000Y-83950000D01*
X64100000Y-82350000D02*
X64900000Y-82350000D01*
X64100000Y-83950000D02*
X64100000Y-82350000D01*
X63200000Y-83950000D02*
X62400000Y-83950000D01*
X63200000Y-82350000D02*
X63200000Y-83950000D01*
X62400000Y-82350000D02*
X63200000Y-82350000D01*
X62400000Y-83950000D02*
X62400000Y-82350000D01*
X62270000Y-80270000D02*
X62270000Y-62490000D01*
X62270000Y-62490000D02*
X59730000Y-62490000D01*
X59730000Y-62490000D02*
X59730000Y-80270000D01*
X59730000Y-80270000D02*
X62270000Y-80270000D01*
X71950000Y-33000000D02*
X75950000Y-33000000D01*
X75950000Y-33000000D02*
X75950000Y-31000000D01*
X75950000Y-31000000D02*
X71950000Y-31000000D01*
X71950000Y-31000000D02*
X71950000Y-33000000D01*
X66330000Y-38980000D02*
X66330000Y-87240000D01*
X66330000Y-87240000D02*
X68870000Y-87240000D01*
X68870000Y-87240000D02*
X68870000Y-38980000D01*
X68870000Y-38980000D02*
X66330000Y-38980000D01*
D11*
X88020239Y-32963095D02*
X87877382Y-32963095D01*
X87948811Y-32963095D02*
X87948811Y-32713095D01*
X87925001Y-32748810D01*
X87901192Y-32772619D01*
X87877382Y-32784524D01*
X88175001Y-32713095D02*
X88198810Y-32713095D01*
X88222620Y-32725000D01*
X88234525Y-32736905D01*
X88246429Y-32760714D01*
X88258334Y-32808333D01*
X88258334Y-32867857D01*
X88246429Y-32915476D01*
X88234525Y-32939286D01*
X88222620Y-32951190D01*
X88198810Y-32963095D01*
X88175001Y-32963095D01*
X88151191Y-32951190D01*
X88139287Y-32939286D01*
X88127382Y-32915476D01*
X88115477Y-32867857D01*
X88115477Y-32808333D01*
X88127382Y-32760714D01*
X88139287Y-32736905D01*
X88151191Y-32725000D01*
X88175001Y-32713095D01*
X88413096Y-32713095D02*
X88436905Y-32713095D01*
X88460715Y-32725000D01*
X88472620Y-32736905D01*
X88484524Y-32760714D01*
X88496429Y-32808333D01*
X88496429Y-32867857D01*
X88484524Y-32915476D01*
X88472620Y-32939286D01*
X88460715Y-32951190D01*
X88436905Y-32963095D01*
X88413096Y-32963095D01*
X88389286Y-32951190D01*
X88377382Y-32939286D01*
X88365477Y-32915476D01*
X88353572Y-32867857D01*
X88353572Y-32808333D01*
X88365477Y-32760714D01*
X88377382Y-32736905D01*
X88389286Y-32725000D01*
X88413096Y-32713095D01*
X88603572Y-32796429D02*
X88603572Y-32963095D01*
X88603572Y-32820238D02*
X88615477Y-32808333D01*
X88639286Y-32796429D01*
X88675000Y-32796429D01*
X88698810Y-32808333D01*
X88710715Y-32832143D01*
X88710715Y-32963095D01*
X89558334Y-32939286D02*
X89546429Y-32951190D01*
X89510715Y-32963095D01*
X89486905Y-32963095D01*
X89451191Y-32951190D01*
X89427382Y-32927381D01*
X89415477Y-32903571D01*
X89403572Y-32855952D01*
X89403572Y-32820238D01*
X89415477Y-32772619D01*
X89427382Y-32748810D01*
X89451191Y-32725000D01*
X89486905Y-32713095D01*
X89510715Y-32713095D01*
X89546429Y-32725000D01*
X89558334Y-32736905D01*
X89796429Y-32963095D02*
X89653572Y-32963095D01*
X89725001Y-32963095D02*
X89725001Y-32713095D01*
X89701191Y-32748810D01*
X89677382Y-32772619D01*
X89653572Y-32784524D01*
D10*
X98620000Y-30543333D02*
X98858095Y-30543333D01*
X98572381Y-30686190D02*
X98739048Y-30186190D01*
X98905714Y-30686190D01*
X99072381Y-30686190D02*
X99072381Y-30186190D01*
X99358095Y-30686190D01*
X99358095Y-30186190D01*
X99572381Y-30543333D02*
X99810476Y-30543333D01*
X99524762Y-30686190D02*
X99691429Y-30186190D01*
X99858095Y-30686190D01*
X100262857Y-30686190D02*
X100024762Y-30686190D01*
X100024762Y-30186190D01*
X100524762Y-30186190D02*
X100620000Y-30186190D01*
X100667619Y-30210000D01*
X100715238Y-30257619D01*
X100739047Y-30352857D01*
X100739047Y-30519524D01*
X100715238Y-30614762D01*
X100667619Y-30662381D01*
X100620000Y-30686190D01*
X100524762Y-30686190D01*
X100477143Y-30662381D01*
X100429524Y-30614762D01*
X100405714Y-30519524D01*
X100405714Y-30352857D01*
X100429524Y-30257619D01*
X100477143Y-30210000D01*
X100524762Y-30186190D01*
X101215238Y-30210000D02*
X101167619Y-30186190D01*
X101096191Y-30186190D01*
X101024762Y-30210000D01*
X100977143Y-30257619D01*
X100953334Y-30305238D01*
X100929524Y-30400476D01*
X100929524Y-30471905D01*
X100953334Y-30567143D01*
X100977143Y-30614762D01*
X101024762Y-30662381D01*
X101096191Y-30686190D01*
X101143810Y-30686190D01*
X101215238Y-30662381D01*
X101239048Y-30638571D01*
X101239048Y-30471905D01*
X101143810Y-30471905D01*
X102000952Y-30424286D02*
X102072381Y-30448095D01*
X102096190Y-30471905D01*
X102120000Y-30519524D01*
X102120000Y-30590952D01*
X102096190Y-30638571D01*
X102072381Y-30662381D01*
X102024762Y-30686190D01*
X101834286Y-30686190D01*
X101834286Y-30186190D01*
X102000952Y-30186190D01*
X102048571Y-30210000D01*
X102072381Y-30233810D01*
X102096190Y-30281429D01*
X102096190Y-30329048D01*
X102072381Y-30376667D01*
X102048571Y-30400476D01*
X102000952Y-30424286D01*
X101834286Y-30424286D01*
X102334286Y-30686190D02*
X102334286Y-30186190D01*
X102620000Y-30686190D02*
X102405714Y-30400476D01*
X102620000Y-30186190D02*
X102334286Y-30471905D01*
X106593334Y-31486190D02*
X106593334Y-31843333D01*
X106569524Y-31914762D01*
X106521905Y-31962381D01*
X106450477Y-31986190D01*
X106402858Y-31986190D01*
X107093333Y-31986190D02*
X106807619Y-31986190D01*
X106950476Y-31986190D02*
X106950476Y-31486190D01*
X106902857Y-31557619D01*
X106855238Y-31605238D01*
X106807619Y-31629048D01*
X105729525Y-35636190D02*
X105729525Y-35136190D01*
X105920001Y-35136190D01*
X105967620Y-35160000D01*
X105991429Y-35183810D01*
X106015239Y-35231429D01*
X106015239Y-35302857D01*
X105991429Y-35350476D01*
X105967620Y-35374286D01*
X105920001Y-35398095D01*
X105729525Y-35398095D01*
X106229525Y-35636190D02*
X106229525Y-35136190D01*
X106348572Y-35683810D02*
X106729524Y-35683810D01*
X107015238Y-35374286D02*
X107086667Y-35398095D01*
X107110476Y-35421905D01*
X107134286Y-35469524D01*
X107134286Y-35540952D01*
X107110476Y-35588571D01*
X107086667Y-35612381D01*
X107039048Y-35636190D01*
X106848572Y-35636190D01*
X106848572Y-35136190D01*
X107015238Y-35136190D01*
X107062857Y-35160000D01*
X107086667Y-35183810D01*
X107110476Y-35231429D01*
X107110476Y-35279048D01*
X107086667Y-35326667D01*
X107062857Y-35350476D01*
X107015238Y-35374286D01*
X106848572Y-35374286D01*
X107348572Y-35636190D02*
X107348572Y-35136190D01*
X107634286Y-35636190D02*
X107420000Y-35350476D01*
X107634286Y-35136190D02*
X107348572Y-35421905D01*
D12*
X106336667Y-87782381D02*
X106336667Y-88496667D01*
X106289047Y-88639524D01*
X106193809Y-88734762D01*
X106050952Y-88782381D01*
X105955714Y-88782381D01*
X106765238Y-87877619D02*
X106812857Y-87830000D01*
X106908095Y-87782381D01*
X107146191Y-87782381D01*
X107241429Y-87830000D01*
X107289048Y-87877619D01*
X107336667Y-87972857D01*
X107336667Y-88068095D01*
X107289048Y-88210952D01*
X106717619Y-88782381D01*
X107336667Y-88782381D01*
D11*
X100087381Y-39223095D02*
X99944524Y-39223095D01*
X100015953Y-39223095D02*
X100015953Y-38973095D01*
X99992143Y-39008810D01*
X99968334Y-39032619D01*
X99944524Y-39044524D01*
X100242143Y-38973095D02*
X100265952Y-38973095D01*
X100289762Y-38985000D01*
X100301667Y-38996905D01*
X100313571Y-39020714D01*
X100325476Y-39068333D01*
X100325476Y-39127857D01*
X100313571Y-39175476D01*
X100301667Y-39199286D01*
X100289762Y-39211190D01*
X100265952Y-39223095D01*
X100242143Y-39223095D01*
X100218333Y-39211190D01*
X100206429Y-39199286D01*
X100194524Y-39175476D01*
X100182619Y-39127857D01*
X100182619Y-39068333D01*
X100194524Y-39020714D01*
X100206429Y-38996905D01*
X100218333Y-38985000D01*
X100242143Y-38973095D01*
X100432619Y-39223095D02*
X100432619Y-38973095D01*
X100575476Y-39223095D02*
X100468333Y-39080238D01*
X100575476Y-38973095D02*
X100432619Y-39115952D01*
D13*
X97766667Y-39076190D02*
X97600000Y-38838095D01*
X97480953Y-39076190D02*
X97480953Y-38576190D01*
X97671429Y-38576190D01*
X97719048Y-38600000D01*
X97742857Y-38623810D01*
X97766667Y-38671429D01*
X97766667Y-38742857D01*
X97742857Y-38790476D01*
X97719048Y-38814286D01*
X97671429Y-38838095D01*
X97480953Y-38838095D01*
X98242857Y-39076190D02*
X97957143Y-39076190D01*
X98100000Y-39076190D02*
X98100000Y-38576190D01*
X98052381Y-38647619D01*
X98004762Y-38695238D01*
X97957143Y-38719048D01*
D11*
X83254524Y-30283095D02*
X83135477Y-30283095D01*
X83123572Y-30402143D01*
X83135477Y-30390238D01*
X83159286Y-30378333D01*
X83218810Y-30378333D01*
X83242620Y-30390238D01*
X83254524Y-30402143D01*
X83266429Y-30425952D01*
X83266429Y-30485476D01*
X83254524Y-30509286D01*
X83242620Y-30521190D01*
X83218810Y-30533095D01*
X83159286Y-30533095D01*
X83135477Y-30521190D01*
X83123572Y-30509286D01*
X83373572Y-30533095D02*
X83373572Y-30283095D01*
X83516429Y-30533095D02*
X83409286Y-30390238D01*
X83516429Y-30283095D02*
X83373572Y-30425952D01*
D13*
X84026190Y-32733333D02*
X83788095Y-32900000D01*
X84026190Y-33019047D02*
X83526190Y-33019047D01*
X83526190Y-32828571D01*
X83550000Y-32780952D01*
X83573810Y-32757143D01*
X83621429Y-32733333D01*
X83692857Y-32733333D01*
X83740476Y-32757143D01*
X83764286Y-32780952D01*
X83788095Y-32828571D01*
X83788095Y-33019047D01*
X83573810Y-32542857D02*
X83550000Y-32519047D01*
X83526190Y-32471428D01*
X83526190Y-32352381D01*
X83550000Y-32304762D01*
X83573810Y-32280952D01*
X83621429Y-32257143D01*
X83669048Y-32257143D01*
X83740476Y-32280952D01*
X84026190Y-32566666D01*
X84026190Y-32257143D01*
D11*
X100087381Y-37653095D02*
X99944524Y-37653095D01*
X100015953Y-37653095D02*
X100015953Y-37403095D01*
X99992143Y-37438810D01*
X99968334Y-37462619D01*
X99944524Y-37474524D01*
X100242143Y-37403095D02*
X100265952Y-37403095D01*
X100289762Y-37415000D01*
X100301667Y-37426905D01*
X100313571Y-37450714D01*
X100325476Y-37498333D01*
X100325476Y-37557857D01*
X100313571Y-37605476D01*
X100301667Y-37629286D01*
X100289762Y-37641190D01*
X100265952Y-37653095D01*
X100242143Y-37653095D01*
X100218333Y-37641190D01*
X100206429Y-37629286D01*
X100194524Y-37605476D01*
X100182619Y-37557857D01*
X100182619Y-37498333D01*
X100194524Y-37450714D01*
X100206429Y-37426905D01*
X100218333Y-37415000D01*
X100242143Y-37403095D01*
X100432619Y-37653095D02*
X100432619Y-37403095D01*
X100575476Y-37653095D02*
X100468333Y-37510238D01*
X100575476Y-37403095D02*
X100432619Y-37545952D01*
D13*
X97766667Y-37526190D02*
X97600000Y-37288095D01*
X97480953Y-37526190D02*
X97480953Y-37026190D01*
X97671429Y-37026190D01*
X97719048Y-37050000D01*
X97742857Y-37073810D01*
X97766667Y-37121429D01*
X97766667Y-37192857D01*
X97742857Y-37240476D01*
X97719048Y-37264286D01*
X97671429Y-37288095D01*
X97480953Y-37288095D01*
X97933334Y-37026190D02*
X98242857Y-37026190D01*
X98076191Y-37216667D01*
X98147619Y-37216667D01*
X98195238Y-37240476D01*
X98219048Y-37264286D01*
X98242857Y-37311905D01*
X98242857Y-37430952D01*
X98219048Y-37478571D01*
X98195238Y-37502381D01*
X98147619Y-37526190D01*
X98004762Y-37526190D01*
X97957143Y-37502381D01*
X97933334Y-37478571D01*
D11*
X81574524Y-30263095D02*
X81455477Y-30263095D01*
X81443572Y-30382143D01*
X81455477Y-30370238D01*
X81479286Y-30358333D01*
X81538810Y-30358333D01*
X81562620Y-30370238D01*
X81574524Y-30382143D01*
X81586429Y-30405952D01*
X81586429Y-30465476D01*
X81574524Y-30489286D01*
X81562620Y-30501190D01*
X81538810Y-30513095D01*
X81479286Y-30513095D01*
X81455477Y-30501190D01*
X81443572Y-30489286D01*
X81693572Y-30513095D02*
X81693572Y-30263095D01*
X81836429Y-30513095D02*
X81729286Y-30370238D01*
X81836429Y-30263095D02*
X81693572Y-30405952D01*
D13*
X82336190Y-32723333D02*
X82098095Y-32890000D01*
X82336190Y-33009047D02*
X81836190Y-33009047D01*
X81836190Y-32818571D01*
X81860000Y-32770952D01*
X81883810Y-32747143D01*
X81931429Y-32723333D01*
X82002857Y-32723333D01*
X82050476Y-32747143D01*
X82074286Y-32770952D01*
X82098095Y-32818571D01*
X82098095Y-33009047D01*
X82002857Y-32294762D02*
X82336190Y-32294762D01*
X81812381Y-32413809D02*
X82169524Y-32532857D01*
X82169524Y-32223333D01*
D11*
X100487381Y-36173095D02*
X100344524Y-36173095D01*
X100415953Y-36173095D02*
X100415953Y-35923095D01*
X100392143Y-35958810D01*
X100368334Y-35982619D01*
X100344524Y-35994524D01*
X100642143Y-35923095D02*
X100665952Y-35923095D01*
X100689762Y-35935000D01*
X100701667Y-35946905D01*
X100713571Y-35970714D01*
X100725476Y-36018333D01*
X100725476Y-36077857D01*
X100713571Y-36125476D01*
X100701667Y-36149286D01*
X100689762Y-36161190D01*
X100665952Y-36173095D01*
X100642143Y-36173095D01*
X100618333Y-36161190D01*
X100606429Y-36149286D01*
X100594524Y-36125476D01*
X100582619Y-36077857D01*
X100582619Y-36018333D01*
X100594524Y-35970714D01*
X100606429Y-35946905D01*
X100618333Y-35935000D01*
X100642143Y-35923095D01*
X100832619Y-36173095D02*
X100832619Y-35923095D01*
X100975476Y-36173095D02*
X100868333Y-36030238D01*
X100975476Y-35923095D02*
X100832619Y-36065952D01*
D13*
X98216667Y-35976190D02*
X98050000Y-35738095D01*
X97930953Y-35976190D02*
X97930953Y-35476190D01*
X98121429Y-35476190D01*
X98169048Y-35500000D01*
X98192857Y-35523810D01*
X98216667Y-35571429D01*
X98216667Y-35642857D01*
X98192857Y-35690476D01*
X98169048Y-35714286D01*
X98121429Y-35738095D01*
X97930953Y-35738095D01*
X98669048Y-35476190D02*
X98430953Y-35476190D01*
X98407143Y-35714286D01*
X98430953Y-35690476D01*
X98478572Y-35666667D01*
X98597619Y-35666667D01*
X98645238Y-35690476D01*
X98669048Y-35714286D01*
X98692857Y-35761905D01*
X98692857Y-35880952D01*
X98669048Y-35928571D01*
X98645238Y-35952381D01*
X98597619Y-35976190D01*
X98478572Y-35976190D01*
X98430953Y-35952381D01*
X98407143Y-35928571D01*
D11*
X93664524Y-30263095D02*
X93545477Y-30263095D01*
X93533572Y-30382143D01*
X93545477Y-30370238D01*
X93569286Y-30358333D01*
X93628810Y-30358333D01*
X93652620Y-30370238D01*
X93664524Y-30382143D01*
X93676429Y-30405952D01*
X93676429Y-30465476D01*
X93664524Y-30489286D01*
X93652620Y-30501190D01*
X93628810Y-30513095D01*
X93569286Y-30513095D01*
X93545477Y-30501190D01*
X93533572Y-30489286D01*
X93783572Y-30513095D02*
X93783572Y-30263095D01*
X93926429Y-30513095D02*
X93819286Y-30370238D01*
X93926429Y-30263095D02*
X93783572Y-30405952D01*
D13*
X94526190Y-32783333D02*
X94288095Y-32950000D01*
X94526190Y-33069047D02*
X94026190Y-33069047D01*
X94026190Y-32878571D01*
X94050000Y-32830952D01*
X94073810Y-32807143D01*
X94121429Y-32783333D01*
X94192857Y-32783333D01*
X94240476Y-32807143D01*
X94264286Y-32830952D01*
X94288095Y-32878571D01*
X94288095Y-33069047D01*
X94026190Y-32354762D02*
X94026190Y-32450000D01*
X94050000Y-32497619D01*
X94073810Y-32521428D01*
X94145238Y-32569047D01*
X94240476Y-32592857D01*
X94430952Y-32592857D01*
X94478571Y-32569047D01*
X94502381Y-32545238D01*
X94526190Y-32497619D01*
X94526190Y-32402381D01*
X94502381Y-32354762D01*
X94478571Y-32330952D01*
X94430952Y-32307143D01*
X94311905Y-32307143D01*
X94264286Y-32330952D01*
X94240476Y-32354762D01*
X94216667Y-32402381D01*
X94216667Y-32497619D01*
X94240476Y-32545238D01*
X94264286Y-32569047D01*
X94311905Y-32592857D01*
D11*
X99337381Y-34693095D02*
X99194524Y-34693095D01*
X99265953Y-34693095D02*
X99265953Y-34443095D01*
X99242143Y-34478810D01*
X99218334Y-34502619D01*
X99194524Y-34514524D01*
X99492143Y-34443095D02*
X99515952Y-34443095D01*
X99539762Y-34455000D01*
X99551667Y-34466905D01*
X99563571Y-34490714D01*
X99575476Y-34538333D01*
X99575476Y-34597857D01*
X99563571Y-34645476D01*
X99551667Y-34669286D01*
X99539762Y-34681190D01*
X99515952Y-34693095D01*
X99492143Y-34693095D01*
X99468333Y-34681190D01*
X99456429Y-34669286D01*
X99444524Y-34645476D01*
X99432619Y-34597857D01*
X99432619Y-34538333D01*
X99444524Y-34490714D01*
X99456429Y-34466905D01*
X99468333Y-34455000D01*
X99492143Y-34443095D01*
X99682619Y-34693095D02*
X99682619Y-34443095D01*
X99825476Y-34693095D02*
X99718333Y-34550238D01*
X99825476Y-34443095D02*
X99682619Y-34585952D01*
D13*
X97016667Y-34426190D02*
X96850000Y-34188095D01*
X96730953Y-34426190D02*
X96730953Y-33926190D01*
X96921429Y-33926190D01*
X96969048Y-33950000D01*
X96992857Y-33973810D01*
X97016667Y-34021429D01*
X97016667Y-34092857D01*
X96992857Y-34140476D01*
X96969048Y-34164286D01*
X96921429Y-34188095D01*
X96730953Y-34188095D01*
X97183334Y-33926190D02*
X97516667Y-33926190D01*
X97302381Y-34426190D01*
D11*
X92024524Y-30283095D02*
X91905477Y-30283095D01*
X91893572Y-30402143D01*
X91905477Y-30390238D01*
X91929286Y-30378333D01*
X91988810Y-30378333D01*
X92012620Y-30390238D01*
X92024524Y-30402143D01*
X92036429Y-30425952D01*
X92036429Y-30485476D01*
X92024524Y-30509286D01*
X92012620Y-30521190D01*
X91988810Y-30533095D01*
X91929286Y-30533095D01*
X91905477Y-30521190D01*
X91893572Y-30509286D01*
X92143572Y-30533095D02*
X92143572Y-30283095D01*
X92286429Y-30533095D02*
X92179286Y-30390238D01*
X92286429Y-30283095D02*
X92143572Y-30425952D01*
D13*
X92916190Y-32783333D02*
X92678095Y-32950000D01*
X92916190Y-33069047D02*
X92416190Y-33069047D01*
X92416190Y-32878571D01*
X92440000Y-32830952D01*
X92463810Y-32807143D01*
X92511429Y-32783333D01*
X92582857Y-32783333D01*
X92630476Y-32807143D01*
X92654286Y-32830952D01*
X92678095Y-32878571D01*
X92678095Y-33069047D01*
X92630476Y-32497619D02*
X92606667Y-32545238D01*
X92582857Y-32569047D01*
X92535238Y-32592857D01*
X92511429Y-32592857D01*
X92463810Y-32569047D01*
X92440000Y-32545238D01*
X92416190Y-32497619D01*
X92416190Y-32402381D01*
X92440000Y-32354762D01*
X92463810Y-32330952D01*
X92511429Y-32307143D01*
X92535238Y-32307143D01*
X92582857Y-32330952D01*
X92606667Y-32354762D01*
X92630476Y-32402381D01*
X92630476Y-32497619D01*
X92654286Y-32545238D01*
X92678095Y-32569047D01*
X92725714Y-32592857D01*
X92820952Y-32592857D01*
X92868571Y-32569047D01*
X92892381Y-32545238D01*
X92916190Y-32497619D01*
X92916190Y-32402381D01*
X92892381Y-32354762D01*
X92868571Y-32330952D01*
X92820952Y-32307143D01*
X92725714Y-32307143D01*
X92678095Y-32330952D01*
X92654286Y-32354762D01*
X92630476Y-32402381D01*
D11*
X65001191Y-85583095D02*
X64858334Y-85583095D01*
X64929763Y-85583095D02*
X64929763Y-85333095D01*
X64905953Y-85368810D01*
X64882144Y-85392619D01*
X64858334Y-85404524D01*
X65155953Y-85333095D02*
X65179762Y-85333095D01*
X65203572Y-85345000D01*
X65215477Y-85356905D01*
X65227381Y-85380714D01*
X65239286Y-85428333D01*
X65239286Y-85487857D01*
X65227381Y-85535476D01*
X65215477Y-85559286D01*
X65203572Y-85571190D01*
X65179762Y-85583095D01*
X65155953Y-85583095D01*
X65132143Y-85571190D01*
X65120239Y-85559286D01*
X65108334Y-85535476D01*
X65096429Y-85487857D01*
X65096429Y-85428333D01*
X65108334Y-85380714D01*
X65120239Y-85356905D01*
X65132143Y-85345000D01*
X65155953Y-85333095D01*
X65346429Y-85583095D02*
X65346429Y-85333095D01*
X65370238Y-85487857D02*
X65441667Y-85583095D01*
X65441667Y-85416429D02*
X65346429Y-85511667D01*
D13*
X64726190Y-83233333D02*
X64488095Y-83400000D01*
X64726190Y-83519047D02*
X64226190Y-83519047D01*
X64226190Y-83328571D01*
X64250000Y-83280952D01*
X64273810Y-83257143D01*
X64321429Y-83233333D01*
X64392857Y-83233333D01*
X64440476Y-83257143D01*
X64464286Y-83280952D01*
X64488095Y-83328571D01*
X64488095Y-83519047D01*
X64726190Y-82995238D02*
X64726190Y-82900000D01*
X64702381Y-82852381D01*
X64678571Y-82828571D01*
X64607143Y-82780952D01*
X64511905Y-82757143D01*
X64321429Y-82757143D01*
X64273810Y-82780952D01*
X64250000Y-82804762D01*
X64226190Y-82852381D01*
X64226190Y-82947619D01*
X64250000Y-82995238D01*
X64273810Y-83019047D01*
X64321429Y-83042857D01*
X64440476Y-83042857D01*
X64488095Y-83019047D01*
X64511905Y-82995238D01*
X64535714Y-82947619D01*
X64535714Y-82852381D01*
X64511905Y-82804762D01*
X64488095Y-82780952D01*
X64440476Y-82757143D01*
D11*
X63261191Y-85613095D02*
X63118334Y-85613095D01*
X63189763Y-85613095D02*
X63189763Y-85363095D01*
X63165953Y-85398810D01*
X63142144Y-85422619D01*
X63118334Y-85434524D01*
X63415953Y-85363095D02*
X63439762Y-85363095D01*
X63463572Y-85375000D01*
X63475477Y-85386905D01*
X63487381Y-85410714D01*
X63499286Y-85458333D01*
X63499286Y-85517857D01*
X63487381Y-85565476D01*
X63475477Y-85589286D01*
X63463572Y-85601190D01*
X63439762Y-85613095D01*
X63415953Y-85613095D01*
X63392143Y-85601190D01*
X63380239Y-85589286D01*
X63368334Y-85565476D01*
X63356429Y-85517857D01*
X63356429Y-85458333D01*
X63368334Y-85410714D01*
X63380239Y-85386905D01*
X63392143Y-85375000D01*
X63415953Y-85363095D01*
X63606429Y-85613095D02*
X63606429Y-85363095D01*
X63630238Y-85517857D02*
X63701667Y-85613095D01*
X63701667Y-85446429D02*
X63606429Y-85541667D01*
D13*
X63026190Y-83471428D02*
X62788095Y-83638095D01*
X63026190Y-83757142D02*
X62526190Y-83757142D01*
X62526190Y-83566666D01*
X62550000Y-83519047D01*
X62573810Y-83495238D01*
X62621429Y-83471428D01*
X62692857Y-83471428D01*
X62740476Y-83495238D01*
X62764286Y-83519047D01*
X62788095Y-83566666D01*
X62788095Y-83757142D01*
X63026190Y-82995238D02*
X63026190Y-83280952D01*
X63026190Y-83138095D02*
X62526190Y-83138095D01*
X62597619Y-83185714D01*
X62645238Y-83233333D01*
X62669048Y-83280952D01*
X62526190Y-82685714D02*
X62526190Y-82638095D01*
X62550000Y-82590476D01*
X62573810Y-82566667D01*
X62621429Y-82542857D01*
X62716667Y-82519048D01*
X62835714Y-82519048D01*
X62930952Y-82542857D01*
X62978571Y-82566667D01*
X63002381Y-82590476D01*
X63026190Y-82638095D01*
X63026190Y-82685714D01*
X63002381Y-82733333D01*
X62978571Y-82757143D01*
X62930952Y-82780952D01*
X62835714Y-82804762D01*
X62716667Y-82804762D01*
X62621429Y-82780952D01*
X62573810Y-82757143D01*
X62550000Y-82733333D01*
X62526190Y-82685714D01*
X87933333Y-37085713D02*
X87933333Y-36942856D01*
X88076190Y-37114285D02*
X87576190Y-37014285D01*
X88076190Y-36914285D01*
X88076190Y-36814284D02*
X87576190Y-36814284D01*
X87576190Y-36742856D01*
X87600000Y-36699999D01*
X87647619Y-36671427D01*
X87695238Y-36657142D01*
X87790476Y-36642856D01*
X87861905Y-36642856D01*
X87957143Y-36657142D01*
X88004762Y-36671427D01*
X88052381Y-36699999D01*
X88076190Y-36742856D01*
X88076190Y-36814284D01*
X88052381Y-36528570D02*
X88076190Y-36485713D01*
X88076190Y-36414284D01*
X88052381Y-36385713D01*
X88028571Y-36371427D01*
X87980952Y-36357142D01*
X87933333Y-36357142D01*
X87885714Y-36371427D01*
X87861905Y-36385713D01*
X87838095Y-36414284D01*
X87814286Y-36471427D01*
X87790476Y-36499999D01*
X87766667Y-36514284D01*
X87719048Y-36528570D01*
X87671429Y-36528570D01*
X87623810Y-36514284D01*
X87600000Y-36499999D01*
X87576190Y-36471427D01*
X87576190Y-36399999D01*
X87600000Y-36357142D01*
X88076190Y-36071428D02*
X88076190Y-36242856D01*
X88076190Y-36157142D02*
X87576190Y-36157142D01*
X87647619Y-36185713D01*
X87695238Y-36214285D01*
X87719048Y-36242856D01*
X87576190Y-35885714D02*
X87576190Y-35857142D01*
X87600000Y-35828571D01*
X87623810Y-35814285D01*
X87671429Y-35799999D01*
X87766667Y-35785714D01*
X87885714Y-35785714D01*
X87980952Y-35799999D01*
X88028571Y-35814285D01*
X88052381Y-35828571D01*
X88076190Y-35857142D01*
X88076190Y-35885714D01*
X88052381Y-35914285D01*
X88028571Y-35928571D01*
X87980952Y-35942856D01*
X87885714Y-35957142D01*
X87766667Y-35957142D01*
X87671429Y-35942856D01*
X87623810Y-35928571D01*
X87600000Y-35914285D01*
X87576190Y-35885714D01*
X88076190Y-35500000D02*
X88076190Y-35671428D01*
X88076190Y-35585714D02*
X87576190Y-35585714D01*
X87647619Y-35614285D01*
X87695238Y-35642857D01*
X87719048Y-35671428D01*
X87790476Y-35328571D02*
X87766667Y-35357143D01*
X87742857Y-35371428D01*
X87695238Y-35385714D01*
X87671429Y-35385714D01*
X87623810Y-35371428D01*
X87600000Y-35357143D01*
X87576190Y-35328571D01*
X87576190Y-35271428D01*
X87600000Y-35242857D01*
X87623810Y-35228571D01*
X87671429Y-35214286D01*
X87695238Y-35214286D01*
X87742857Y-35228571D01*
X87766667Y-35242857D01*
X87790476Y-35271428D01*
X87790476Y-35328571D01*
X87814286Y-35357143D01*
X87838095Y-35371428D01*
X87885714Y-35385714D01*
X87980952Y-35385714D01*
X88028571Y-35371428D01*
X88052381Y-35357143D01*
X88076190Y-35328571D01*
X88076190Y-35271428D01*
X88052381Y-35242857D01*
X88028571Y-35228571D01*
X87980952Y-35214286D01*
X87885714Y-35214286D01*
X87838095Y-35228571D01*
X87814286Y-35242857D01*
X87790476Y-35271428D01*
D14*
X62714286Y-68674761D02*
X62714286Y-68508095D01*
X62976190Y-68436666D02*
X62976190Y-68674761D01*
X62476190Y-68674761D01*
X62476190Y-68436666D01*
X62476190Y-68293809D02*
X62476190Y-68008095D01*
X62976190Y-68150952D02*
X62476190Y-68150952D01*
X62976190Y-67841428D02*
X62476190Y-67841428D01*
X62714286Y-67841428D02*
X62714286Y-67555714D01*
X62976190Y-67555714D02*
X62476190Y-67555714D01*
X62714286Y-67317618D02*
X62714286Y-67150952D01*
X62976190Y-67079523D02*
X62976190Y-67317618D01*
X62476190Y-67317618D01*
X62476190Y-67079523D01*
X62976190Y-66579523D02*
X62738095Y-66746190D01*
X62976190Y-66865237D02*
X62476190Y-66865237D01*
X62476190Y-66674761D01*
X62500000Y-66627142D01*
X62523810Y-66603333D01*
X62571429Y-66579523D01*
X62642857Y-66579523D01*
X62690476Y-66603333D01*
X62714286Y-66627142D01*
X62738095Y-66674761D01*
X62738095Y-66865237D01*
X62976190Y-66365237D02*
X62476190Y-66365237D01*
X62976190Y-66079523D01*
X62476190Y-66079523D01*
X62714286Y-65841427D02*
X62714286Y-65674761D01*
X62976190Y-65603332D02*
X62976190Y-65841427D01*
X62476190Y-65841427D01*
X62476190Y-65603332D01*
X62476190Y-65460475D02*
X62476190Y-65174761D01*
X62976190Y-65317618D02*
X62476190Y-65317618D01*
X62714286Y-64460476D02*
X62738095Y-64389047D01*
X62761905Y-64365238D01*
X62809524Y-64341428D01*
X62880952Y-64341428D01*
X62928571Y-64365238D01*
X62952381Y-64389047D01*
X62976190Y-64436666D01*
X62976190Y-64627142D01*
X62476190Y-64627142D01*
X62476190Y-64460476D01*
X62500000Y-64412857D01*
X62523810Y-64389047D01*
X62571429Y-64365238D01*
X62619048Y-64365238D01*
X62666667Y-64389047D01*
X62690476Y-64412857D01*
X62714286Y-64460476D01*
X62714286Y-64627142D01*
X62976190Y-64127142D02*
X62476190Y-64127142D01*
X62976190Y-63841428D02*
X62690476Y-64055714D01*
X62476190Y-63841428D02*
X62761905Y-64127142D01*
D12*
X60666667Y-80782381D02*
X60666667Y-81496667D01*
X60619047Y-81639524D01*
X60523809Y-81734762D01*
X60380952Y-81782381D01*
X60285714Y-81782381D01*
X61571429Y-81115714D02*
X61571429Y-81782381D01*
X61333333Y-80734762D02*
X61095238Y-81449048D01*
X61714286Y-81449048D01*
D10*
X72547619Y-30226190D02*
X72547619Y-30583333D01*
X72523809Y-30654762D01*
X72476190Y-30702381D01*
X72404762Y-30726190D01*
X72357143Y-30726190D01*
X72785714Y-30226190D02*
X72785714Y-30630952D01*
X72809523Y-30678571D01*
X72833333Y-30702381D01*
X72880952Y-30726190D01*
X72976190Y-30726190D01*
X73023809Y-30702381D01*
X73047618Y-30678571D01*
X73071428Y-30630952D01*
X73071428Y-30226190D01*
X73309524Y-30726190D02*
X73309524Y-30226190D01*
X73476190Y-30583333D01*
X73642857Y-30226190D01*
X73642857Y-30726190D01*
X73880953Y-30726190D02*
X73880953Y-30226190D01*
X74071429Y-30226190D01*
X74119048Y-30250000D01*
X74142857Y-30273810D01*
X74166667Y-30321429D01*
X74166667Y-30392857D01*
X74142857Y-30440476D01*
X74119048Y-30464286D01*
X74071429Y-30488095D01*
X73880953Y-30488095D01*
X74380953Y-30464286D02*
X74547619Y-30464286D01*
X74619048Y-30726190D02*
X74380953Y-30726190D01*
X74380953Y-30226190D01*
X74619048Y-30226190D01*
X75119048Y-30726190D02*
X74952381Y-30488095D01*
X74833334Y-30726190D02*
X74833334Y-30226190D01*
X75023810Y-30226190D01*
X75071429Y-30250000D01*
X75095238Y-30273810D01*
X75119048Y-30321429D01*
X75119048Y-30392857D01*
X75095238Y-30440476D01*
X75071429Y-30464286D01*
X75023810Y-30488095D01*
X74833334Y-30488095D01*
D12*
X70342381Y-32333333D02*
X71056667Y-32333333D01*
X71199524Y-32380953D01*
X71294762Y-32476191D01*
X71342381Y-32619048D01*
X71342381Y-32714286D01*
X70342381Y-31380952D02*
X70342381Y-31857143D01*
X70818571Y-31904762D01*
X70770952Y-31857143D01*
X70723333Y-31761905D01*
X70723333Y-31523809D01*
X70770952Y-31428571D01*
X70818571Y-31380952D01*
X70913810Y-31333333D01*
X71151905Y-31333333D01*
X71247143Y-31380952D01*
X71294762Y-31428571D01*
X71342381Y-31523809D01*
X71342381Y-31761905D01*
X71294762Y-31857143D01*
X71247143Y-31904762D01*
X65219048Y-87800000D02*
X65123810Y-87752381D01*
X64980953Y-87752381D01*
X64838095Y-87800000D01*
X64742857Y-87895238D01*
X64695238Y-87990476D01*
X64647619Y-88180952D01*
X64647619Y-88323810D01*
X64695238Y-88514286D01*
X64742857Y-88609524D01*
X64838095Y-88704762D01*
X64980953Y-88752381D01*
X65076191Y-88752381D01*
X65219048Y-88704762D01*
X65266667Y-88657143D01*
X65266667Y-88323810D01*
X65076191Y-88323810D01*
X65695238Y-88752381D02*
X65695238Y-87752381D01*
X66076191Y-87752381D01*
X66171429Y-87800000D01*
X66219048Y-87847619D01*
X66266667Y-87942857D01*
X66266667Y-88085714D01*
X66219048Y-88180952D01*
X66171429Y-88228571D01*
X66076191Y-88276190D01*
X65695238Y-88276190D01*
X66695238Y-88752381D02*
X66695238Y-87752381D01*
X67361904Y-87752381D02*
X67552381Y-87752381D01*
X67647619Y-87800000D01*
X67742857Y-87895238D01*
X67790476Y-88085714D01*
X67790476Y-88419048D01*
X67742857Y-88609524D01*
X67647619Y-88704762D01*
X67552381Y-88752381D01*
X67361904Y-88752381D01*
X67266666Y-88704762D01*
X67171428Y-88609524D01*
X67123809Y-88419048D01*
X67123809Y-88085714D01*
X67171428Y-87895238D01*
X67266666Y-87800000D01*
X67361904Y-87752381D01*
X67980952Y-88847619D02*
X68742857Y-88847619D01*
X69314286Y-88228571D02*
X69457143Y-88276190D01*
X69504762Y-88323810D01*
X69552381Y-88419048D01*
X69552381Y-88561905D01*
X69504762Y-88657143D01*
X69457143Y-88704762D01*
X69361905Y-88752381D01*
X68980952Y-88752381D01*
X68980952Y-87752381D01*
X69314286Y-87752381D01*
X69409524Y-87800000D01*
X69457143Y-87847619D01*
X69504762Y-87942857D01*
X69504762Y-88038095D01*
X69457143Y-88133333D01*
X69409524Y-88180952D01*
X69314286Y-88228571D01*
X68980952Y-88228571D01*
X69980952Y-88752381D02*
X69980952Y-87752381D01*
X70552381Y-88752381D02*
X70123809Y-88180952D01*
X70552381Y-87752381D02*
X69980952Y-88323810D01*
X67266667Y-37372381D02*
X67266667Y-38086667D01*
X67219047Y-38229524D01*
X67123809Y-38324762D01*
X66980952Y-38372381D01*
X66885714Y-38372381D01*
X67647619Y-37372381D02*
X68266667Y-37372381D01*
X67933333Y-37753333D01*
X68076191Y-37753333D01*
X68171429Y-37800952D01*
X68219048Y-37848571D01*
X68266667Y-37943810D01*
X68266667Y-38181905D01*
X68219048Y-38277143D01*
X68171429Y-38324762D01*
X68076191Y-38372381D01*
X67790476Y-38372381D01*
X67695238Y-38324762D01*
X67647619Y-38277143D01*
M02*
