G04 #@! TF.FileFunction,Other,User*
%FSLAX46Y46*%
G04 Gerber Fmt 4.6, Leading zero omitted, Abs format (unit mm)*
G04 Created by KiCad (PCBNEW 4.0.6-e0-6349~53~ubuntu16.04.1) date Tue Jul  4 14:56:25 2017*
%MOMM*%
%LPD*%
G01*
G04 APERTURE LIST*
%ADD10C,0.100000*%
%ADD11C,0.050000*%
G04 APERTURE END LIST*
D10*
D11*
X86450000Y-33100000D02*
X90050000Y-33100000D01*
X86450000Y-33100000D02*
X86450000Y-34400000D01*
X90050000Y-34400000D02*
X90050000Y-33100000D01*
X90050000Y-34400000D02*
X86450000Y-34400000D01*
X95250000Y-33400000D02*
X106250000Y-33400000D01*
X106250000Y-33400000D02*
X106250000Y-30400000D01*
X106250000Y-30400000D02*
X95250000Y-30400000D01*
X95250000Y-30400000D02*
X95250000Y-33400000D01*
X109750000Y-87800000D02*
X109750000Y-35950000D01*
X109750000Y-35950000D02*
X103600000Y-35950000D01*
X103600000Y-35950000D02*
X103600000Y-87800000D01*
X103600000Y-87800000D02*
X109750000Y-87800000D01*
X95890000Y-38150000D02*
X99800000Y-38150000D01*
X95890000Y-38150000D02*
X95890000Y-39550000D01*
X99800000Y-39550000D02*
X99800000Y-38150000D01*
X99800000Y-39550000D02*
X95890000Y-39550000D01*
X84500000Y-30690000D02*
X84500000Y-34600000D01*
X84500000Y-30690000D02*
X83100000Y-30690000D01*
X83100000Y-34600000D02*
X84500000Y-34600000D01*
X83100000Y-34600000D02*
X83100000Y-30690000D01*
X95890000Y-36600000D02*
X99800000Y-36600000D01*
X95890000Y-36600000D02*
X95890000Y-38000000D01*
X99800000Y-38000000D02*
X99800000Y-36600000D01*
X99800000Y-38000000D02*
X95890000Y-38000000D01*
X82810000Y-30680000D02*
X82810000Y-34590000D01*
X82810000Y-30680000D02*
X81410000Y-30680000D01*
X81410000Y-34590000D02*
X82810000Y-34590000D01*
X81410000Y-34590000D02*
X81410000Y-30680000D01*
X96340000Y-35050000D02*
X100250000Y-35050000D01*
X96340000Y-35050000D02*
X96340000Y-36450000D01*
X100250000Y-36450000D02*
X100250000Y-35050000D01*
X100250000Y-36450000D02*
X96340000Y-36450000D01*
X95000000Y-30740000D02*
X95000000Y-34650000D01*
X95000000Y-30740000D02*
X93600000Y-30740000D01*
X93600000Y-34650000D02*
X95000000Y-34650000D01*
X93600000Y-34650000D02*
X93600000Y-30740000D01*
X95140000Y-33500000D02*
X99050000Y-33500000D01*
X95140000Y-33500000D02*
X95140000Y-34900000D01*
X99050000Y-34900000D02*
X99050000Y-33500000D01*
X99050000Y-34900000D02*
X95140000Y-34900000D01*
X93390000Y-30740000D02*
X93390000Y-34650000D01*
X93390000Y-30740000D02*
X91990000Y-30740000D01*
X91990000Y-34650000D02*
X93390000Y-34650000D01*
X91990000Y-34650000D02*
X91990000Y-30740000D01*
X63800000Y-85110000D02*
X63800000Y-81200000D01*
X63800000Y-85110000D02*
X65200000Y-85110000D01*
X65200000Y-81200000D02*
X63800000Y-81200000D01*
X65200000Y-81200000D02*
X65200000Y-85110000D01*
X62100000Y-85110000D02*
X62100000Y-81200000D01*
X62100000Y-85110000D02*
X63500000Y-85110000D01*
X63500000Y-81200000D02*
X62100000Y-81200000D01*
X63500000Y-81200000D02*
X63500000Y-85110000D01*
X62800000Y-80800000D02*
X62800000Y-61950000D01*
X62800000Y-61950000D02*
X59200000Y-61950000D01*
X59200000Y-61950000D02*
X59200000Y-80800000D01*
X59200000Y-80800000D02*
X62800000Y-80800000D01*
X71450000Y-33500000D02*
X76450000Y-33500000D01*
X76450000Y-33500000D02*
X76450000Y-30500000D01*
X76450000Y-30500000D02*
X71450000Y-30500000D01*
X71450000Y-30500000D02*
X71450000Y-33500000D01*
X65800000Y-38450000D02*
X65800000Y-87750000D01*
X65800000Y-87750000D02*
X69400000Y-87750000D01*
X69400000Y-87750000D02*
X69400000Y-38450000D01*
X69400000Y-38450000D02*
X65800000Y-38450000D01*
M02*
