G04 #@! TF.FileFunction,Copper,L2,Bot,Signal*
%FSLAX46Y46*%
G04 Gerber Fmt 4.6, Leading zero omitted, Abs format (unit mm)*
G04 Created by KiCad (PCBNEW 4.0.6-e0-6349~53~ubuntu16.04.1) date Tue Jul  4 14:56:25 2017*
%MOMM*%
%LPD*%
G01*
G04 APERTURE LIST*
%ADD10C,0.100000*%
%ADD11R,1.350000X1.350000*%
%ADD12O,1.350000X1.350000*%
%ADD13R,1.700000X1.700000*%
%ADD14O,1.700000X1.700000*%
%ADD15C,0.600000*%
%ADD16C,0.400000*%
%ADD17C,0.600000*%
%ADD18C,0.350000*%
%ADD19C,0.200000*%
%ADD20C,0.254000*%
G04 APERTURE END LIST*
D10*
D11*
X96750000Y-31900000D03*
D12*
X98750000Y-31900000D03*
X100750000Y-31900000D03*
X102750000Y-31900000D03*
X104750000Y-31900000D03*
D13*
X105400000Y-86000000D03*
D14*
X107940000Y-86000000D03*
X105400000Y-83460000D03*
X107940000Y-83460000D03*
X105400000Y-80920000D03*
X107940000Y-80920000D03*
X105400000Y-78380000D03*
X107940000Y-78380000D03*
X105400000Y-75840000D03*
X107940000Y-75840000D03*
X105400000Y-73300000D03*
X107940000Y-73300000D03*
X105400000Y-70760000D03*
X107940000Y-70760000D03*
X105400000Y-68220000D03*
X107940000Y-68220000D03*
X105400000Y-65680000D03*
X107940000Y-65680000D03*
X105400000Y-63140000D03*
X107940000Y-63140000D03*
X105400000Y-60600000D03*
X107940000Y-60600000D03*
X105400000Y-58060000D03*
X107940000Y-58060000D03*
X105400000Y-55520000D03*
X107940000Y-55520000D03*
X105400000Y-52980000D03*
X107940000Y-52980000D03*
X105400000Y-50440000D03*
X107940000Y-50440000D03*
X105400000Y-47900000D03*
X107940000Y-47900000D03*
X105400000Y-45360000D03*
X107940000Y-45360000D03*
X105400000Y-42820000D03*
X107940000Y-42820000D03*
X105400000Y-40280000D03*
X107940000Y-40280000D03*
X105400000Y-37740000D03*
X107940000Y-37740000D03*
D13*
X61000000Y-79000000D03*
D14*
X61000000Y-76460000D03*
X61000000Y-73920000D03*
X61000000Y-71380000D03*
X61000000Y-68840000D03*
X61000000Y-66300000D03*
X61000000Y-63760000D03*
D11*
X72950000Y-32000000D03*
D12*
X74950000Y-32000000D03*
D13*
X67600000Y-40250000D03*
D14*
X67600000Y-42790000D03*
X67600000Y-45330000D03*
X67600000Y-47870000D03*
X67600000Y-50410000D03*
X67600000Y-52950000D03*
X67600000Y-55490000D03*
X67600000Y-58030000D03*
X67600000Y-60570000D03*
X67600000Y-63110000D03*
X67600000Y-65650000D03*
X67600000Y-68190000D03*
X67600000Y-70730000D03*
X67600000Y-73270000D03*
X67600000Y-75810000D03*
X67600000Y-78350000D03*
X67600000Y-80890000D03*
X67600000Y-83430000D03*
X67600000Y-85970000D03*
D15*
X93950000Y-56875000D03*
X102450000Y-81100000D03*
X67600000Y-80890000D03*
X74250000Y-87550000D03*
X102100000Y-42350000D03*
X105400000Y-37740000D03*
X90950000Y-74250000D03*
X101450000Y-82650000D03*
X100650000Y-80600000D03*
X99850000Y-78700000D03*
D16*
X89750000Y-61750000D03*
X88400000Y-57000000D03*
X90800000Y-59050000D03*
X89950000Y-57000000D03*
D15*
X86600000Y-42950000D03*
X112370000Y-52020000D03*
X102050000Y-46300000D03*
X103050000Y-43750000D03*
X83800000Y-37200000D03*
X93100000Y-39250000D03*
X85000000Y-38350000D03*
X92700000Y-38350000D03*
X94250000Y-35300000D03*
X94250000Y-37000000D03*
X99000000Y-76800000D03*
X100325000Y-73150000D03*
X84600000Y-56900000D03*
D17*
X102450000Y-80275000D02*
X102450000Y-67025000D01*
X102450000Y-67025000D02*
X101105000Y-65680000D01*
X93950000Y-56875000D02*
X94000000Y-56925000D01*
X94000000Y-56925000D02*
X94000000Y-63225000D01*
X94000000Y-63225000D02*
X96455000Y-65680000D01*
X96455000Y-65680000D02*
X101105000Y-65680000D01*
X101105000Y-65680000D02*
X105400000Y-65680000D01*
X67600000Y-83430000D02*
X72480000Y-83430000D01*
X72480000Y-83430000D02*
X73150000Y-84100000D01*
X102450000Y-80275000D02*
X102450000Y-81100000D01*
X75050000Y-86000000D02*
X105400000Y-86000000D01*
X73150000Y-84100000D02*
X75050000Y-86000000D01*
X107940000Y-88260000D02*
X107940000Y-86000000D01*
X107050000Y-89150000D02*
X107940000Y-88260000D01*
X75850000Y-89150000D02*
X107050000Y-89150000D01*
X74250000Y-87550000D02*
X75850000Y-89150000D01*
X107940000Y-83460000D02*
X107940000Y-86000000D01*
D18*
X67600000Y-78350000D02*
X69100000Y-78350000D01*
X69100000Y-78350000D02*
X75950000Y-85200000D01*
X75950000Y-85200000D02*
X102350000Y-85200000D01*
X102350000Y-85200000D02*
X104090000Y-83460000D01*
X104090000Y-83460000D02*
X105400000Y-83460000D01*
X67600000Y-75810000D02*
X68360000Y-75810000D01*
X68360000Y-75810000D02*
X77000000Y-84450000D01*
X101870000Y-84450000D02*
X77000000Y-84450000D01*
X105400000Y-80920000D02*
X101870000Y-84450000D01*
D17*
X67600000Y-85970000D02*
X69570000Y-85970000D01*
X69570000Y-85970000D02*
X70250000Y-86650000D01*
X105400000Y-37740000D02*
X105400000Y-37750000D01*
X105400000Y-37750000D02*
X102500000Y-40650000D01*
X102500000Y-41950000D02*
X102100000Y-42350000D01*
X102500000Y-40650000D02*
X102500000Y-41950000D01*
X89250000Y-55520000D02*
X84330000Y-55520000D01*
X82650000Y-57200000D02*
X82650000Y-65950000D01*
X84330000Y-55520000D02*
X82650000Y-57200000D01*
X105400000Y-55520000D02*
X89250000Y-55520000D01*
X90950000Y-74250000D02*
X82650000Y-65950000D01*
X70250000Y-86650000D02*
X74800000Y-91200000D01*
X74800000Y-91200000D02*
X107800000Y-91200000D01*
X111250000Y-78100000D02*
X111250000Y-87750000D01*
X107800000Y-91200000D02*
X111250000Y-87750000D01*
X107940000Y-45360000D02*
X108490000Y-45360000D01*
X108490000Y-45360000D02*
X111250000Y-42600000D01*
X107940000Y-50440000D02*
X108160000Y-50440000D01*
X108160000Y-50440000D02*
X111250000Y-47350000D01*
X107940000Y-63140000D02*
X108060000Y-63140000D01*
X108060000Y-63140000D02*
X111250000Y-59950000D01*
X107940000Y-70760000D02*
X108090000Y-70760000D01*
X108090000Y-70760000D02*
X111250000Y-67600000D01*
X107940000Y-80920000D02*
X108430000Y-80920000D01*
X108430000Y-80920000D02*
X111250000Y-78100000D01*
X111250000Y-78100000D02*
X111250000Y-67600000D01*
X111250000Y-67600000D02*
X111250000Y-59950000D01*
X111250000Y-59950000D02*
X111250000Y-47350000D01*
X111250000Y-47350000D02*
X111250000Y-42600000D01*
X111250000Y-42600000D02*
X111250000Y-36350000D01*
X111250000Y-36350000D02*
X109800000Y-34900000D01*
X109800000Y-34900000D02*
X106150000Y-34900000D01*
X106150000Y-34900000D02*
X105400000Y-35650000D01*
X105400000Y-35650000D02*
X105400000Y-37740000D01*
D18*
X96250000Y-77500000D02*
X96300000Y-77500000D01*
X74200000Y-77500000D02*
X96250000Y-77500000D01*
X67550000Y-70850000D02*
X74200000Y-77500000D01*
X96300000Y-77500000D02*
X101450000Y-82650000D01*
X67550000Y-70820000D02*
X67550000Y-70850000D01*
X100650000Y-80600000D02*
X100650000Y-80550000D01*
X100650000Y-80550000D02*
X96950000Y-76850000D01*
X96950000Y-76850000D02*
X76120000Y-76850000D01*
X76120000Y-76850000D02*
X67550000Y-68280000D01*
X99100000Y-77950000D02*
X99850000Y-78700000D01*
X77625000Y-75725000D02*
X77625002Y-75725000D01*
X97350000Y-76200000D02*
X99100000Y-77950000D01*
X78100002Y-76200000D02*
X97350000Y-76200000D01*
X77625002Y-75725000D02*
X78100002Y-76200000D01*
X67600000Y-65650000D02*
X67600000Y-65700000D01*
X67600000Y-65700000D02*
X77625000Y-75725000D01*
D19*
X89750000Y-61550000D02*
X89750000Y-61750000D01*
X89750000Y-59450000D02*
X89750000Y-61550000D01*
X88700000Y-57300000D02*
X89750000Y-58350000D01*
X89750000Y-58350000D02*
X89750000Y-59450000D01*
X88400000Y-57000000D02*
X88700000Y-57300000D01*
X90800000Y-57850000D02*
X90800000Y-59050000D01*
X89950000Y-57000000D02*
X90800000Y-57850000D01*
D18*
X103650000Y-38350000D02*
X103650000Y-36340000D01*
X103650000Y-38400000D02*
X103650000Y-38350000D01*
X101774998Y-40275002D02*
X103650000Y-38400000D01*
X101774998Y-41525002D02*
X101774998Y-40275002D01*
X100200000Y-43100000D02*
X101774998Y-41525002D01*
X86750000Y-43100000D02*
X100200000Y-43100000D01*
X86600000Y-42950000D02*
X86750000Y-43100000D01*
X103650000Y-36340000D02*
X103700000Y-36290000D01*
X112370000Y-36330000D02*
X112370000Y-52020000D01*
X110190000Y-34150000D02*
X112370000Y-36330000D01*
X105840000Y-34150000D02*
X110190000Y-34150000D01*
X103700000Y-36290000D02*
X105840000Y-34150000D01*
X67600000Y-52950000D02*
X102890000Y-52950000D01*
X102890000Y-52950000D02*
X105400000Y-50440000D01*
X67600000Y-50410000D02*
X102890000Y-50410000D01*
X102890000Y-50410000D02*
X105400000Y-47900000D01*
X67600000Y-47870000D02*
X100480000Y-47870000D01*
X100480000Y-47870000D02*
X102050000Y-46300000D01*
X67600000Y-45330000D02*
X105370000Y-45330000D01*
X105370000Y-45330000D02*
X105400000Y-45360000D01*
X67600000Y-42790000D02*
X70040000Y-42790000D01*
X71900000Y-44650000D02*
X84600000Y-44650000D01*
X70040000Y-42790000D02*
X71900000Y-44650000D01*
X103570000Y-44650000D02*
X105400000Y-42820000D01*
X84600000Y-44650000D02*
X103570000Y-44650000D01*
X100650000Y-43800000D02*
X103000000Y-43800000D01*
X103000000Y-43800000D02*
X103050000Y-43750000D01*
X67600000Y-40250000D02*
X69500000Y-40250000D01*
X73050000Y-43800000D02*
X100650000Y-43800000D01*
X69500000Y-40250000D02*
X73050000Y-43800000D01*
X83800000Y-37200000D02*
X83800000Y-38650000D01*
X83800000Y-38650000D02*
X84200000Y-39050000D01*
X84200000Y-39050000D02*
X84300000Y-39150000D01*
X84300000Y-39150000D02*
X93000000Y-39150000D01*
X93000000Y-39150000D02*
X93100000Y-39250000D01*
X85000000Y-38350000D02*
X92700000Y-38350000D01*
X94250000Y-35300000D02*
X94250000Y-37000000D01*
X67600000Y-55490000D02*
X69940000Y-55490000D01*
X69940000Y-55490000D02*
X89950000Y-75500000D01*
X99000000Y-76800000D02*
X97700000Y-75500000D01*
X97700000Y-75500000D02*
X89950000Y-75500000D01*
X91425000Y-73150000D02*
X100325000Y-73150000D01*
X84575000Y-66300000D02*
X91425000Y-73150000D01*
X84575000Y-56925000D02*
X84575000Y-66300000D01*
X84600000Y-56900000D02*
X84575000Y-56925000D01*
D20*
G36*
X71915301Y-30786673D02*
X71736673Y-30965302D01*
X71640000Y-31198691D01*
X71640000Y-31714250D01*
X71798750Y-31873000D01*
X72823000Y-31873000D01*
X72823000Y-31853000D01*
X73077000Y-31853000D01*
X73077000Y-31873000D01*
X73097000Y-31873000D01*
X73097000Y-32127000D01*
X73077000Y-32127000D01*
X73077000Y-33151250D01*
X73235750Y-33310000D01*
X73523000Y-33310000D01*
X73523000Y-36700000D01*
X73533006Y-36749410D01*
X73561447Y-36791035D01*
X73603841Y-36818315D01*
X73650000Y-36827000D01*
X78747394Y-36827000D01*
X84910394Y-42990000D01*
X73385513Y-42990000D01*
X70072756Y-39677244D01*
X69897248Y-39559973D01*
X69809974Y-39501658D01*
X69500000Y-39440000D01*
X69097440Y-39440000D01*
X69097440Y-39400000D01*
X69053162Y-39164683D01*
X68914090Y-38948559D01*
X68701890Y-38803569D01*
X68450000Y-38752560D01*
X66750000Y-38752560D01*
X66514683Y-38796838D01*
X66298559Y-38935910D01*
X66153569Y-39148110D01*
X66102560Y-39400000D01*
X66102560Y-41100000D01*
X66146838Y-41335317D01*
X66285910Y-41551441D01*
X66498110Y-41696431D01*
X66565541Y-41710086D01*
X66520853Y-41739946D01*
X66198946Y-42221715D01*
X66085907Y-42790000D01*
X66198946Y-43358285D01*
X66520853Y-43840054D01*
X66850026Y-44060000D01*
X66520853Y-44279946D01*
X66198946Y-44761715D01*
X66085907Y-45330000D01*
X66198946Y-45898285D01*
X66520853Y-46380054D01*
X66850026Y-46600000D01*
X66520853Y-46819946D01*
X66198946Y-47301715D01*
X66085907Y-47870000D01*
X66198946Y-48438285D01*
X66520853Y-48920054D01*
X66850026Y-49140000D01*
X66520853Y-49359946D01*
X66198946Y-49841715D01*
X66085907Y-50410000D01*
X66198946Y-50978285D01*
X66520853Y-51460054D01*
X66850026Y-51680000D01*
X66520853Y-51899946D01*
X66198946Y-52381715D01*
X66085907Y-52950000D01*
X66198946Y-53518285D01*
X66520853Y-54000054D01*
X66850026Y-54220000D01*
X66520853Y-54439946D01*
X66198946Y-54921715D01*
X66085907Y-55490000D01*
X66198946Y-56058285D01*
X66520853Y-56540054D01*
X66850026Y-56760000D01*
X66520853Y-56979946D01*
X66198946Y-57461715D01*
X66085907Y-58030000D01*
X66198946Y-58598285D01*
X66520853Y-59080054D01*
X66850026Y-59300000D01*
X66520853Y-59519946D01*
X66198946Y-60001715D01*
X66085907Y-60570000D01*
X66198946Y-61138285D01*
X66520853Y-61620054D01*
X66850026Y-61840000D01*
X66520853Y-62059946D01*
X66198946Y-62541715D01*
X66085907Y-63110000D01*
X66198946Y-63678285D01*
X66520853Y-64160054D01*
X66850026Y-64380000D01*
X66520853Y-64599946D01*
X66198946Y-65081715D01*
X66085907Y-65650000D01*
X66198946Y-66218285D01*
X66520853Y-66700054D01*
X66850026Y-66920000D01*
X66520853Y-67139946D01*
X66198946Y-67621715D01*
X66085907Y-68190000D01*
X66198946Y-68758285D01*
X66520853Y-69240054D01*
X66850026Y-69460000D01*
X66520853Y-69679946D01*
X66198946Y-70161715D01*
X66085907Y-70730000D01*
X66198946Y-71298285D01*
X66520853Y-71780054D01*
X66850026Y-72000000D01*
X66520853Y-72219946D01*
X66198946Y-72701715D01*
X66085907Y-73270000D01*
X66198946Y-73838285D01*
X66520853Y-74320054D01*
X66850026Y-74540000D01*
X66520853Y-74759946D01*
X66198946Y-75241715D01*
X66085907Y-75810000D01*
X66198946Y-76378285D01*
X66520853Y-76860054D01*
X66850026Y-77080000D01*
X66520853Y-77299946D01*
X66198946Y-77781715D01*
X66085907Y-78350000D01*
X66198946Y-78918285D01*
X66520853Y-79400054D01*
X66850026Y-79620000D01*
X66520853Y-79839946D01*
X66198946Y-80321715D01*
X66085907Y-80890000D01*
X66198946Y-81458285D01*
X66520853Y-81940054D01*
X66850026Y-82160000D01*
X66520853Y-82379946D01*
X66198946Y-82861715D01*
X66085907Y-83430000D01*
X66198946Y-83998285D01*
X66520853Y-84480054D01*
X66861553Y-84707702D01*
X66718642Y-84774817D01*
X66328355Y-85203076D01*
X66158524Y-85613110D01*
X66279845Y-85843000D01*
X67473000Y-85843000D01*
X67473000Y-85823000D01*
X67727000Y-85823000D01*
X67727000Y-85843000D01*
X68920155Y-85843000D01*
X69041476Y-85613110D01*
X68871645Y-85203076D01*
X68481358Y-84774817D01*
X68338447Y-84707702D01*
X68679147Y-84480054D01*
X68756023Y-84365000D01*
X72092710Y-84365000D01*
X74342790Y-86615080D01*
X74064833Y-86614838D01*
X73721057Y-86756883D01*
X73457808Y-87019673D01*
X73315162Y-87363201D01*
X73314838Y-87735167D01*
X73456883Y-88078943D01*
X73719673Y-88342192D01*
X73720065Y-88342355D01*
X75188855Y-89811145D01*
X75492191Y-90013827D01*
X75850000Y-90085000D01*
X107050000Y-90085000D01*
X107407809Y-90013827D01*
X107711145Y-89811145D01*
X108601145Y-88921145D01*
X108803827Y-88617809D01*
X108875000Y-88260000D01*
X108875000Y-87146370D01*
X109019147Y-87050054D01*
X109341054Y-86568285D01*
X109454093Y-86000000D01*
X109341054Y-85431715D01*
X109019147Y-84949946D01*
X108875000Y-84853630D01*
X108875000Y-84606370D01*
X109019147Y-84510054D01*
X109341054Y-84028285D01*
X109454093Y-83460000D01*
X109341054Y-82891715D01*
X109019147Y-82409946D01*
X108678447Y-82182298D01*
X108821358Y-82115183D01*
X109211645Y-81686924D01*
X109381476Y-81276890D01*
X109260155Y-81047000D01*
X108067000Y-81047000D01*
X108067000Y-81067000D01*
X107813000Y-81067000D01*
X107813000Y-81047000D01*
X107793000Y-81047000D01*
X107793000Y-80793000D01*
X107813000Y-80793000D01*
X107813000Y-80773000D01*
X108067000Y-80773000D01*
X108067000Y-80793000D01*
X109260155Y-80793000D01*
X109381476Y-80563110D01*
X109211645Y-80153076D01*
X108821358Y-79724817D01*
X108678447Y-79657702D01*
X109019147Y-79430054D01*
X109341054Y-78948285D01*
X109454093Y-78380000D01*
X109341054Y-77811715D01*
X109019147Y-77329946D01*
X108689974Y-77110000D01*
X109019147Y-76890054D01*
X109341054Y-76408285D01*
X109454093Y-75840000D01*
X109341054Y-75271715D01*
X109019147Y-74789946D01*
X108689974Y-74570000D01*
X109019147Y-74350054D01*
X109341054Y-73868285D01*
X109454093Y-73300000D01*
X109341054Y-72731715D01*
X109019147Y-72249946D01*
X108678447Y-72022298D01*
X108821358Y-71955183D01*
X109211645Y-71526924D01*
X109381476Y-71116890D01*
X109260155Y-70887000D01*
X108067000Y-70887000D01*
X108067000Y-70907000D01*
X107813000Y-70907000D01*
X107813000Y-70887000D01*
X107793000Y-70887000D01*
X107793000Y-70633000D01*
X107813000Y-70633000D01*
X107813000Y-70613000D01*
X108067000Y-70613000D01*
X108067000Y-70633000D01*
X109260155Y-70633000D01*
X109381476Y-70403110D01*
X109211645Y-69993076D01*
X108821358Y-69564817D01*
X108678447Y-69497702D01*
X109019147Y-69270054D01*
X109341054Y-68788285D01*
X109454093Y-68220000D01*
X109341054Y-67651715D01*
X109019147Y-67169946D01*
X108689974Y-66950000D01*
X109019147Y-66730054D01*
X109341054Y-66248285D01*
X109454093Y-65680000D01*
X109341054Y-65111715D01*
X109019147Y-64629946D01*
X108678447Y-64402298D01*
X108821358Y-64335183D01*
X109211645Y-63906924D01*
X109381476Y-63496890D01*
X109260155Y-63267000D01*
X108067000Y-63267000D01*
X108067000Y-63287000D01*
X107813000Y-63287000D01*
X107813000Y-63267000D01*
X107793000Y-63267000D01*
X107793000Y-63013000D01*
X107813000Y-63013000D01*
X107813000Y-62993000D01*
X108067000Y-62993000D01*
X108067000Y-63013000D01*
X109260155Y-63013000D01*
X109381476Y-62783110D01*
X109211645Y-62373076D01*
X108821358Y-61944817D01*
X108678447Y-61877702D01*
X109019147Y-61650054D01*
X109341054Y-61168285D01*
X109454093Y-60600000D01*
X109341054Y-60031715D01*
X109019147Y-59549946D01*
X108689974Y-59330000D01*
X109019147Y-59110054D01*
X109341054Y-58628285D01*
X109454093Y-58060000D01*
X109341054Y-57491715D01*
X109019147Y-57009946D01*
X108689974Y-56790000D01*
X109019147Y-56570054D01*
X109341054Y-56088285D01*
X109454093Y-55520000D01*
X109341054Y-54951715D01*
X109019147Y-54469946D01*
X108689974Y-54250000D01*
X109019147Y-54030054D01*
X109341054Y-53548285D01*
X109454093Y-52980000D01*
X109341054Y-52411715D01*
X109019147Y-51929946D01*
X108678447Y-51702298D01*
X108821358Y-51635183D01*
X109211645Y-51206924D01*
X109381476Y-50796890D01*
X109260155Y-50567000D01*
X108067000Y-50567000D01*
X108067000Y-50587000D01*
X107813000Y-50587000D01*
X107813000Y-50567000D01*
X107793000Y-50567000D01*
X107793000Y-50313000D01*
X107813000Y-50313000D01*
X107813000Y-50293000D01*
X108067000Y-50293000D01*
X108067000Y-50313000D01*
X109260155Y-50313000D01*
X109381476Y-50083110D01*
X109211645Y-49673076D01*
X108821358Y-49244817D01*
X108678447Y-49177702D01*
X109019147Y-48950054D01*
X109341054Y-48468285D01*
X109454093Y-47900000D01*
X109341054Y-47331715D01*
X109019147Y-46849946D01*
X108678447Y-46622298D01*
X108821358Y-46555183D01*
X109211645Y-46126924D01*
X109381476Y-45716890D01*
X109260155Y-45487000D01*
X108067000Y-45487000D01*
X108067000Y-45507000D01*
X107813000Y-45507000D01*
X107813000Y-45487000D01*
X107793000Y-45487000D01*
X107793000Y-45233000D01*
X107813000Y-45233000D01*
X107813000Y-45213000D01*
X108067000Y-45213000D01*
X108067000Y-45233000D01*
X109260155Y-45233000D01*
X109381476Y-45003110D01*
X109211645Y-44593076D01*
X108821358Y-44164817D01*
X108678447Y-44097702D01*
X109019147Y-43870054D01*
X109341054Y-43388285D01*
X109454093Y-42820000D01*
X109341054Y-42251715D01*
X109019147Y-41769946D01*
X108689974Y-41550000D01*
X109019147Y-41330054D01*
X109341054Y-40848285D01*
X109454093Y-40280000D01*
X109341054Y-39711715D01*
X109019147Y-39229946D01*
X108689974Y-39010000D01*
X109019147Y-38790054D01*
X109341054Y-38308285D01*
X109454093Y-37740000D01*
X109341054Y-37171715D01*
X109019147Y-36689946D01*
X108537378Y-36368039D01*
X107969093Y-36255000D01*
X107910907Y-36255000D01*
X107342622Y-36368039D01*
X106860853Y-36689946D01*
X106671655Y-36973101D01*
X106671645Y-36973076D01*
X106281358Y-36544817D01*
X105756892Y-36298514D01*
X105527000Y-36419181D01*
X105527000Y-37613000D01*
X105547000Y-37613000D01*
X105547000Y-37867000D01*
X105527000Y-37867000D01*
X105527000Y-37887000D01*
X105273000Y-37887000D01*
X105273000Y-37867000D01*
X105253000Y-37867000D01*
X105253000Y-37613000D01*
X105273000Y-37613000D01*
X105273000Y-36419181D01*
X105043108Y-36298514D01*
X104654496Y-36481017D01*
X106175513Y-34960000D01*
X109854488Y-34960000D01*
X111560000Y-36665513D01*
X111560000Y-51532559D01*
X111435162Y-51833201D01*
X111434838Y-52205167D01*
X111576883Y-52548943D01*
X111839673Y-52812192D01*
X112183201Y-52954838D01*
X112555167Y-52955162D01*
X112898943Y-52813117D01*
X113162192Y-52550327D01*
X113304838Y-52206799D01*
X113305162Y-51834833D01*
X113180000Y-51531917D01*
X113180000Y-36330000D01*
X113173737Y-36298514D01*
X113118343Y-36020027D01*
X112942757Y-35757244D01*
X111112512Y-33927000D01*
X114373000Y-33927000D01*
X114373000Y-95873000D01*
X53710000Y-95873000D01*
X53710000Y-86326890D01*
X66158524Y-86326890D01*
X66328355Y-86736924D01*
X66718642Y-87165183D01*
X67243108Y-87411486D01*
X67473000Y-87290819D01*
X67473000Y-86097000D01*
X67727000Y-86097000D01*
X67727000Y-87290819D01*
X67956892Y-87411486D01*
X68481358Y-87165183D01*
X68871645Y-86736924D01*
X69041476Y-86326890D01*
X68920155Y-86097000D01*
X67727000Y-86097000D01*
X67473000Y-86097000D01*
X66279845Y-86097000D01*
X66158524Y-86326890D01*
X53710000Y-86326890D01*
X53710000Y-78150000D01*
X59502560Y-78150000D01*
X59502560Y-79850000D01*
X59546838Y-80085317D01*
X59685910Y-80301441D01*
X59898110Y-80446431D01*
X60150000Y-80497440D01*
X61850000Y-80497440D01*
X62085317Y-80453162D01*
X62301441Y-80314090D01*
X62446431Y-80101890D01*
X62497440Y-79850000D01*
X62497440Y-78150000D01*
X62453162Y-77914683D01*
X62314090Y-77698559D01*
X62101890Y-77553569D01*
X61993893Y-77531699D01*
X62271645Y-77226924D01*
X62441476Y-76816890D01*
X62320155Y-76587000D01*
X61127000Y-76587000D01*
X61127000Y-76607000D01*
X60873000Y-76607000D01*
X60873000Y-76587000D01*
X59679845Y-76587000D01*
X59558524Y-76816890D01*
X59728355Y-77226924D01*
X60004501Y-77529937D01*
X59914683Y-77546838D01*
X59698559Y-77685910D01*
X59553569Y-77898110D01*
X59502560Y-78150000D01*
X53710000Y-78150000D01*
X53710000Y-63760000D01*
X59485907Y-63760000D01*
X59598946Y-64328285D01*
X59920853Y-64810054D01*
X60250026Y-65030000D01*
X59920853Y-65249946D01*
X59598946Y-65731715D01*
X59485907Y-66300000D01*
X59598946Y-66868285D01*
X59920853Y-67350054D01*
X60250026Y-67570000D01*
X59920853Y-67789946D01*
X59598946Y-68271715D01*
X59485907Y-68840000D01*
X59598946Y-69408285D01*
X59920853Y-69890054D01*
X60250026Y-70110000D01*
X59920853Y-70329946D01*
X59598946Y-70811715D01*
X59485907Y-71380000D01*
X59598946Y-71948285D01*
X59920853Y-72430054D01*
X60250026Y-72650000D01*
X59920853Y-72869946D01*
X59598946Y-73351715D01*
X59485907Y-73920000D01*
X59598946Y-74488285D01*
X59920853Y-74970054D01*
X60261553Y-75197702D01*
X60118642Y-75264817D01*
X59728355Y-75693076D01*
X59558524Y-76103110D01*
X59679845Y-76333000D01*
X60873000Y-76333000D01*
X60873000Y-76313000D01*
X61127000Y-76313000D01*
X61127000Y-76333000D01*
X62320155Y-76333000D01*
X62441476Y-76103110D01*
X62271645Y-75693076D01*
X61881358Y-75264817D01*
X61738447Y-75197702D01*
X62079147Y-74970054D01*
X62401054Y-74488285D01*
X62514093Y-73920000D01*
X62401054Y-73351715D01*
X62079147Y-72869946D01*
X61749974Y-72650000D01*
X62079147Y-72430054D01*
X62401054Y-71948285D01*
X62514093Y-71380000D01*
X62401054Y-70811715D01*
X62079147Y-70329946D01*
X61749974Y-70110000D01*
X62079147Y-69890054D01*
X62401054Y-69408285D01*
X62514093Y-68840000D01*
X62401054Y-68271715D01*
X62079147Y-67789946D01*
X61749974Y-67570000D01*
X62079147Y-67350054D01*
X62401054Y-66868285D01*
X62514093Y-66300000D01*
X62401054Y-65731715D01*
X62079147Y-65249946D01*
X61749974Y-65030000D01*
X62079147Y-64810054D01*
X62401054Y-64328285D01*
X62514093Y-63760000D01*
X62401054Y-63191715D01*
X62079147Y-62709946D01*
X61597378Y-62388039D01*
X61029093Y-62275000D01*
X60970907Y-62275000D01*
X60402622Y-62388039D01*
X59920853Y-62709946D01*
X59598946Y-63191715D01*
X59485907Y-63760000D01*
X53710000Y-63760000D01*
X53710000Y-32285750D01*
X71640000Y-32285750D01*
X71640000Y-32801309D01*
X71736673Y-33034698D01*
X71915301Y-33213327D01*
X72148690Y-33310000D01*
X72664250Y-33310000D01*
X72823000Y-33151250D01*
X72823000Y-32127000D01*
X71798750Y-32127000D01*
X71640000Y-32285750D01*
X53710000Y-32285750D01*
X53710000Y-30710000D01*
X72100406Y-30710000D01*
X71915301Y-30786673D01*
X71915301Y-30786673D01*
G37*
X71915301Y-30786673D02*
X71736673Y-30965302D01*
X71640000Y-31198691D01*
X71640000Y-31714250D01*
X71798750Y-31873000D01*
X72823000Y-31873000D01*
X72823000Y-31853000D01*
X73077000Y-31853000D01*
X73077000Y-31873000D01*
X73097000Y-31873000D01*
X73097000Y-32127000D01*
X73077000Y-32127000D01*
X73077000Y-33151250D01*
X73235750Y-33310000D01*
X73523000Y-33310000D01*
X73523000Y-36700000D01*
X73533006Y-36749410D01*
X73561447Y-36791035D01*
X73603841Y-36818315D01*
X73650000Y-36827000D01*
X78747394Y-36827000D01*
X84910394Y-42990000D01*
X73385513Y-42990000D01*
X70072756Y-39677244D01*
X69897248Y-39559973D01*
X69809974Y-39501658D01*
X69500000Y-39440000D01*
X69097440Y-39440000D01*
X69097440Y-39400000D01*
X69053162Y-39164683D01*
X68914090Y-38948559D01*
X68701890Y-38803569D01*
X68450000Y-38752560D01*
X66750000Y-38752560D01*
X66514683Y-38796838D01*
X66298559Y-38935910D01*
X66153569Y-39148110D01*
X66102560Y-39400000D01*
X66102560Y-41100000D01*
X66146838Y-41335317D01*
X66285910Y-41551441D01*
X66498110Y-41696431D01*
X66565541Y-41710086D01*
X66520853Y-41739946D01*
X66198946Y-42221715D01*
X66085907Y-42790000D01*
X66198946Y-43358285D01*
X66520853Y-43840054D01*
X66850026Y-44060000D01*
X66520853Y-44279946D01*
X66198946Y-44761715D01*
X66085907Y-45330000D01*
X66198946Y-45898285D01*
X66520853Y-46380054D01*
X66850026Y-46600000D01*
X66520853Y-46819946D01*
X66198946Y-47301715D01*
X66085907Y-47870000D01*
X66198946Y-48438285D01*
X66520853Y-48920054D01*
X66850026Y-49140000D01*
X66520853Y-49359946D01*
X66198946Y-49841715D01*
X66085907Y-50410000D01*
X66198946Y-50978285D01*
X66520853Y-51460054D01*
X66850026Y-51680000D01*
X66520853Y-51899946D01*
X66198946Y-52381715D01*
X66085907Y-52950000D01*
X66198946Y-53518285D01*
X66520853Y-54000054D01*
X66850026Y-54220000D01*
X66520853Y-54439946D01*
X66198946Y-54921715D01*
X66085907Y-55490000D01*
X66198946Y-56058285D01*
X66520853Y-56540054D01*
X66850026Y-56760000D01*
X66520853Y-56979946D01*
X66198946Y-57461715D01*
X66085907Y-58030000D01*
X66198946Y-58598285D01*
X66520853Y-59080054D01*
X66850026Y-59300000D01*
X66520853Y-59519946D01*
X66198946Y-60001715D01*
X66085907Y-60570000D01*
X66198946Y-61138285D01*
X66520853Y-61620054D01*
X66850026Y-61840000D01*
X66520853Y-62059946D01*
X66198946Y-62541715D01*
X66085907Y-63110000D01*
X66198946Y-63678285D01*
X66520853Y-64160054D01*
X66850026Y-64380000D01*
X66520853Y-64599946D01*
X66198946Y-65081715D01*
X66085907Y-65650000D01*
X66198946Y-66218285D01*
X66520853Y-66700054D01*
X66850026Y-66920000D01*
X66520853Y-67139946D01*
X66198946Y-67621715D01*
X66085907Y-68190000D01*
X66198946Y-68758285D01*
X66520853Y-69240054D01*
X66850026Y-69460000D01*
X66520853Y-69679946D01*
X66198946Y-70161715D01*
X66085907Y-70730000D01*
X66198946Y-71298285D01*
X66520853Y-71780054D01*
X66850026Y-72000000D01*
X66520853Y-72219946D01*
X66198946Y-72701715D01*
X66085907Y-73270000D01*
X66198946Y-73838285D01*
X66520853Y-74320054D01*
X66850026Y-74540000D01*
X66520853Y-74759946D01*
X66198946Y-75241715D01*
X66085907Y-75810000D01*
X66198946Y-76378285D01*
X66520853Y-76860054D01*
X66850026Y-77080000D01*
X66520853Y-77299946D01*
X66198946Y-77781715D01*
X66085907Y-78350000D01*
X66198946Y-78918285D01*
X66520853Y-79400054D01*
X66850026Y-79620000D01*
X66520853Y-79839946D01*
X66198946Y-80321715D01*
X66085907Y-80890000D01*
X66198946Y-81458285D01*
X66520853Y-81940054D01*
X66850026Y-82160000D01*
X66520853Y-82379946D01*
X66198946Y-82861715D01*
X66085907Y-83430000D01*
X66198946Y-83998285D01*
X66520853Y-84480054D01*
X66861553Y-84707702D01*
X66718642Y-84774817D01*
X66328355Y-85203076D01*
X66158524Y-85613110D01*
X66279845Y-85843000D01*
X67473000Y-85843000D01*
X67473000Y-85823000D01*
X67727000Y-85823000D01*
X67727000Y-85843000D01*
X68920155Y-85843000D01*
X69041476Y-85613110D01*
X68871645Y-85203076D01*
X68481358Y-84774817D01*
X68338447Y-84707702D01*
X68679147Y-84480054D01*
X68756023Y-84365000D01*
X72092710Y-84365000D01*
X74342790Y-86615080D01*
X74064833Y-86614838D01*
X73721057Y-86756883D01*
X73457808Y-87019673D01*
X73315162Y-87363201D01*
X73314838Y-87735167D01*
X73456883Y-88078943D01*
X73719673Y-88342192D01*
X73720065Y-88342355D01*
X75188855Y-89811145D01*
X75492191Y-90013827D01*
X75850000Y-90085000D01*
X107050000Y-90085000D01*
X107407809Y-90013827D01*
X107711145Y-89811145D01*
X108601145Y-88921145D01*
X108803827Y-88617809D01*
X108875000Y-88260000D01*
X108875000Y-87146370D01*
X109019147Y-87050054D01*
X109341054Y-86568285D01*
X109454093Y-86000000D01*
X109341054Y-85431715D01*
X109019147Y-84949946D01*
X108875000Y-84853630D01*
X108875000Y-84606370D01*
X109019147Y-84510054D01*
X109341054Y-84028285D01*
X109454093Y-83460000D01*
X109341054Y-82891715D01*
X109019147Y-82409946D01*
X108678447Y-82182298D01*
X108821358Y-82115183D01*
X109211645Y-81686924D01*
X109381476Y-81276890D01*
X109260155Y-81047000D01*
X108067000Y-81047000D01*
X108067000Y-81067000D01*
X107813000Y-81067000D01*
X107813000Y-81047000D01*
X107793000Y-81047000D01*
X107793000Y-80793000D01*
X107813000Y-80793000D01*
X107813000Y-80773000D01*
X108067000Y-80773000D01*
X108067000Y-80793000D01*
X109260155Y-80793000D01*
X109381476Y-80563110D01*
X109211645Y-80153076D01*
X108821358Y-79724817D01*
X108678447Y-79657702D01*
X109019147Y-79430054D01*
X109341054Y-78948285D01*
X109454093Y-78380000D01*
X109341054Y-77811715D01*
X109019147Y-77329946D01*
X108689974Y-77110000D01*
X109019147Y-76890054D01*
X109341054Y-76408285D01*
X109454093Y-75840000D01*
X109341054Y-75271715D01*
X109019147Y-74789946D01*
X108689974Y-74570000D01*
X109019147Y-74350054D01*
X109341054Y-73868285D01*
X109454093Y-73300000D01*
X109341054Y-72731715D01*
X109019147Y-72249946D01*
X108678447Y-72022298D01*
X108821358Y-71955183D01*
X109211645Y-71526924D01*
X109381476Y-71116890D01*
X109260155Y-70887000D01*
X108067000Y-70887000D01*
X108067000Y-70907000D01*
X107813000Y-70907000D01*
X107813000Y-70887000D01*
X107793000Y-70887000D01*
X107793000Y-70633000D01*
X107813000Y-70633000D01*
X107813000Y-70613000D01*
X108067000Y-70613000D01*
X108067000Y-70633000D01*
X109260155Y-70633000D01*
X109381476Y-70403110D01*
X109211645Y-69993076D01*
X108821358Y-69564817D01*
X108678447Y-69497702D01*
X109019147Y-69270054D01*
X109341054Y-68788285D01*
X109454093Y-68220000D01*
X109341054Y-67651715D01*
X109019147Y-67169946D01*
X108689974Y-66950000D01*
X109019147Y-66730054D01*
X109341054Y-66248285D01*
X109454093Y-65680000D01*
X109341054Y-65111715D01*
X109019147Y-64629946D01*
X108678447Y-64402298D01*
X108821358Y-64335183D01*
X109211645Y-63906924D01*
X109381476Y-63496890D01*
X109260155Y-63267000D01*
X108067000Y-63267000D01*
X108067000Y-63287000D01*
X107813000Y-63287000D01*
X107813000Y-63267000D01*
X107793000Y-63267000D01*
X107793000Y-63013000D01*
X107813000Y-63013000D01*
X107813000Y-62993000D01*
X108067000Y-62993000D01*
X108067000Y-63013000D01*
X109260155Y-63013000D01*
X109381476Y-62783110D01*
X109211645Y-62373076D01*
X108821358Y-61944817D01*
X108678447Y-61877702D01*
X109019147Y-61650054D01*
X109341054Y-61168285D01*
X109454093Y-60600000D01*
X109341054Y-60031715D01*
X109019147Y-59549946D01*
X108689974Y-59330000D01*
X109019147Y-59110054D01*
X109341054Y-58628285D01*
X109454093Y-58060000D01*
X109341054Y-57491715D01*
X109019147Y-57009946D01*
X108689974Y-56790000D01*
X109019147Y-56570054D01*
X109341054Y-56088285D01*
X109454093Y-55520000D01*
X109341054Y-54951715D01*
X109019147Y-54469946D01*
X108689974Y-54250000D01*
X109019147Y-54030054D01*
X109341054Y-53548285D01*
X109454093Y-52980000D01*
X109341054Y-52411715D01*
X109019147Y-51929946D01*
X108678447Y-51702298D01*
X108821358Y-51635183D01*
X109211645Y-51206924D01*
X109381476Y-50796890D01*
X109260155Y-50567000D01*
X108067000Y-50567000D01*
X108067000Y-50587000D01*
X107813000Y-50587000D01*
X107813000Y-50567000D01*
X107793000Y-50567000D01*
X107793000Y-50313000D01*
X107813000Y-50313000D01*
X107813000Y-50293000D01*
X108067000Y-50293000D01*
X108067000Y-50313000D01*
X109260155Y-50313000D01*
X109381476Y-50083110D01*
X109211645Y-49673076D01*
X108821358Y-49244817D01*
X108678447Y-49177702D01*
X109019147Y-48950054D01*
X109341054Y-48468285D01*
X109454093Y-47900000D01*
X109341054Y-47331715D01*
X109019147Y-46849946D01*
X108678447Y-46622298D01*
X108821358Y-46555183D01*
X109211645Y-46126924D01*
X109381476Y-45716890D01*
X109260155Y-45487000D01*
X108067000Y-45487000D01*
X108067000Y-45507000D01*
X107813000Y-45507000D01*
X107813000Y-45487000D01*
X107793000Y-45487000D01*
X107793000Y-45233000D01*
X107813000Y-45233000D01*
X107813000Y-45213000D01*
X108067000Y-45213000D01*
X108067000Y-45233000D01*
X109260155Y-45233000D01*
X109381476Y-45003110D01*
X109211645Y-44593076D01*
X108821358Y-44164817D01*
X108678447Y-44097702D01*
X109019147Y-43870054D01*
X109341054Y-43388285D01*
X109454093Y-42820000D01*
X109341054Y-42251715D01*
X109019147Y-41769946D01*
X108689974Y-41550000D01*
X109019147Y-41330054D01*
X109341054Y-40848285D01*
X109454093Y-40280000D01*
X109341054Y-39711715D01*
X109019147Y-39229946D01*
X108689974Y-39010000D01*
X109019147Y-38790054D01*
X109341054Y-38308285D01*
X109454093Y-37740000D01*
X109341054Y-37171715D01*
X109019147Y-36689946D01*
X108537378Y-36368039D01*
X107969093Y-36255000D01*
X107910907Y-36255000D01*
X107342622Y-36368039D01*
X106860853Y-36689946D01*
X106671655Y-36973101D01*
X106671645Y-36973076D01*
X106281358Y-36544817D01*
X105756892Y-36298514D01*
X105527000Y-36419181D01*
X105527000Y-37613000D01*
X105547000Y-37613000D01*
X105547000Y-37867000D01*
X105527000Y-37867000D01*
X105527000Y-37887000D01*
X105273000Y-37887000D01*
X105273000Y-37867000D01*
X105253000Y-37867000D01*
X105253000Y-37613000D01*
X105273000Y-37613000D01*
X105273000Y-36419181D01*
X105043108Y-36298514D01*
X104654496Y-36481017D01*
X106175513Y-34960000D01*
X109854488Y-34960000D01*
X111560000Y-36665513D01*
X111560000Y-51532559D01*
X111435162Y-51833201D01*
X111434838Y-52205167D01*
X111576883Y-52548943D01*
X111839673Y-52812192D01*
X112183201Y-52954838D01*
X112555167Y-52955162D01*
X112898943Y-52813117D01*
X113162192Y-52550327D01*
X113304838Y-52206799D01*
X113305162Y-51834833D01*
X113180000Y-51531917D01*
X113180000Y-36330000D01*
X113173737Y-36298514D01*
X113118343Y-36020027D01*
X112942757Y-35757244D01*
X111112512Y-33927000D01*
X114373000Y-33927000D01*
X114373000Y-95873000D01*
X53710000Y-95873000D01*
X53710000Y-86326890D01*
X66158524Y-86326890D01*
X66328355Y-86736924D01*
X66718642Y-87165183D01*
X67243108Y-87411486D01*
X67473000Y-87290819D01*
X67473000Y-86097000D01*
X67727000Y-86097000D01*
X67727000Y-87290819D01*
X67956892Y-87411486D01*
X68481358Y-87165183D01*
X68871645Y-86736924D01*
X69041476Y-86326890D01*
X68920155Y-86097000D01*
X67727000Y-86097000D01*
X67473000Y-86097000D01*
X66279845Y-86097000D01*
X66158524Y-86326890D01*
X53710000Y-86326890D01*
X53710000Y-78150000D01*
X59502560Y-78150000D01*
X59502560Y-79850000D01*
X59546838Y-80085317D01*
X59685910Y-80301441D01*
X59898110Y-80446431D01*
X60150000Y-80497440D01*
X61850000Y-80497440D01*
X62085317Y-80453162D01*
X62301441Y-80314090D01*
X62446431Y-80101890D01*
X62497440Y-79850000D01*
X62497440Y-78150000D01*
X62453162Y-77914683D01*
X62314090Y-77698559D01*
X62101890Y-77553569D01*
X61993893Y-77531699D01*
X62271645Y-77226924D01*
X62441476Y-76816890D01*
X62320155Y-76587000D01*
X61127000Y-76587000D01*
X61127000Y-76607000D01*
X60873000Y-76607000D01*
X60873000Y-76587000D01*
X59679845Y-76587000D01*
X59558524Y-76816890D01*
X59728355Y-77226924D01*
X60004501Y-77529937D01*
X59914683Y-77546838D01*
X59698559Y-77685910D01*
X59553569Y-77898110D01*
X59502560Y-78150000D01*
X53710000Y-78150000D01*
X53710000Y-63760000D01*
X59485907Y-63760000D01*
X59598946Y-64328285D01*
X59920853Y-64810054D01*
X60250026Y-65030000D01*
X59920853Y-65249946D01*
X59598946Y-65731715D01*
X59485907Y-66300000D01*
X59598946Y-66868285D01*
X59920853Y-67350054D01*
X60250026Y-67570000D01*
X59920853Y-67789946D01*
X59598946Y-68271715D01*
X59485907Y-68840000D01*
X59598946Y-69408285D01*
X59920853Y-69890054D01*
X60250026Y-70110000D01*
X59920853Y-70329946D01*
X59598946Y-70811715D01*
X59485907Y-71380000D01*
X59598946Y-71948285D01*
X59920853Y-72430054D01*
X60250026Y-72650000D01*
X59920853Y-72869946D01*
X59598946Y-73351715D01*
X59485907Y-73920000D01*
X59598946Y-74488285D01*
X59920853Y-74970054D01*
X60261553Y-75197702D01*
X60118642Y-75264817D01*
X59728355Y-75693076D01*
X59558524Y-76103110D01*
X59679845Y-76333000D01*
X60873000Y-76333000D01*
X60873000Y-76313000D01*
X61127000Y-76313000D01*
X61127000Y-76333000D01*
X62320155Y-76333000D01*
X62441476Y-76103110D01*
X62271645Y-75693076D01*
X61881358Y-75264817D01*
X61738447Y-75197702D01*
X62079147Y-74970054D01*
X62401054Y-74488285D01*
X62514093Y-73920000D01*
X62401054Y-73351715D01*
X62079147Y-72869946D01*
X61749974Y-72650000D01*
X62079147Y-72430054D01*
X62401054Y-71948285D01*
X62514093Y-71380000D01*
X62401054Y-70811715D01*
X62079147Y-70329946D01*
X61749974Y-70110000D01*
X62079147Y-69890054D01*
X62401054Y-69408285D01*
X62514093Y-68840000D01*
X62401054Y-68271715D01*
X62079147Y-67789946D01*
X61749974Y-67570000D01*
X62079147Y-67350054D01*
X62401054Y-66868285D01*
X62514093Y-66300000D01*
X62401054Y-65731715D01*
X62079147Y-65249946D01*
X61749974Y-65030000D01*
X62079147Y-64810054D01*
X62401054Y-64328285D01*
X62514093Y-63760000D01*
X62401054Y-63191715D01*
X62079147Y-62709946D01*
X61597378Y-62388039D01*
X61029093Y-62275000D01*
X60970907Y-62275000D01*
X60402622Y-62388039D01*
X59920853Y-62709946D01*
X59598946Y-63191715D01*
X59485907Y-63760000D01*
X53710000Y-63760000D01*
X53710000Y-32285750D01*
X71640000Y-32285750D01*
X71640000Y-32801309D01*
X71736673Y-33034698D01*
X71915301Y-33213327D01*
X72148690Y-33310000D01*
X72664250Y-33310000D01*
X72823000Y-33151250D01*
X72823000Y-32127000D01*
X71798750Y-32127000D01*
X71640000Y-32285750D01*
X53710000Y-32285750D01*
X53710000Y-30710000D01*
X72100406Y-30710000D01*
X71915301Y-30786673D01*
G36*
X104320853Y-66730054D02*
X104650026Y-66950000D01*
X104320853Y-67169946D01*
X103998946Y-67651715D01*
X103885907Y-68220000D01*
X103998946Y-68788285D01*
X104320853Y-69270054D01*
X104650026Y-69490000D01*
X104320853Y-69709946D01*
X103998946Y-70191715D01*
X103885907Y-70760000D01*
X103998946Y-71328285D01*
X104320853Y-71810054D01*
X104650026Y-72030000D01*
X104320853Y-72249946D01*
X103998946Y-72731715D01*
X103885907Y-73300000D01*
X103998946Y-73868285D01*
X104320853Y-74350054D01*
X104661553Y-74577702D01*
X104518642Y-74644817D01*
X104128355Y-75073076D01*
X103958524Y-75483110D01*
X104079845Y-75713000D01*
X105273000Y-75713000D01*
X105273000Y-75693000D01*
X105527000Y-75693000D01*
X105527000Y-75713000D01*
X105547000Y-75713000D01*
X105547000Y-75967000D01*
X105527000Y-75967000D01*
X105527000Y-75987000D01*
X105273000Y-75987000D01*
X105273000Y-75967000D01*
X104079845Y-75967000D01*
X103958524Y-76196890D01*
X104128355Y-76606924D01*
X104518642Y-77035183D01*
X104661553Y-77102298D01*
X104320853Y-77329946D01*
X103998946Y-77811715D01*
X103885907Y-78380000D01*
X103998946Y-78948285D01*
X104320853Y-79430054D01*
X104650026Y-79650000D01*
X104320853Y-79869946D01*
X103998946Y-80351715D01*
X103885907Y-80920000D01*
X103947058Y-81227429D01*
X102384879Y-82789609D01*
X102385162Y-82464833D01*
X102243117Y-82121057D01*
X102081894Y-81959552D01*
X102263201Y-82034838D01*
X102635167Y-82035162D01*
X102978943Y-81893117D01*
X103242192Y-81630327D01*
X103384838Y-81286799D01*
X103385162Y-80914833D01*
X103385000Y-80914441D01*
X103385000Y-67025000D01*
X103313827Y-66667191D01*
X103278954Y-66615000D01*
X104243977Y-66615000D01*
X104320853Y-66730054D01*
X104320853Y-66730054D01*
G37*
X104320853Y-66730054D02*
X104650026Y-66950000D01*
X104320853Y-67169946D01*
X103998946Y-67651715D01*
X103885907Y-68220000D01*
X103998946Y-68788285D01*
X104320853Y-69270054D01*
X104650026Y-69490000D01*
X104320853Y-69709946D01*
X103998946Y-70191715D01*
X103885907Y-70760000D01*
X103998946Y-71328285D01*
X104320853Y-71810054D01*
X104650026Y-72030000D01*
X104320853Y-72249946D01*
X103998946Y-72731715D01*
X103885907Y-73300000D01*
X103998946Y-73868285D01*
X104320853Y-74350054D01*
X104661553Y-74577702D01*
X104518642Y-74644817D01*
X104128355Y-75073076D01*
X103958524Y-75483110D01*
X104079845Y-75713000D01*
X105273000Y-75713000D01*
X105273000Y-75693000D01*
X105527000Y-75693000D01*
X105527000Y-75713000D01*
X105547000Y-75713000D01*
X105547000Y-75967000D01*
X105527000Y-75967000D01*
X105527000Y-75987000D01*
X105273000Y-75987000D01*
X105273000Y-75967000D01*
X104079845Y-75967000D01*
X103958524Y-76196890D01*
X104128355Y-76606924D01*
X104518642Y-77035183D01*
X104661553Y-77102298D01*
X104320853Y-77329946D01*
X103998946Y-77811715D01*
X103885907Y-78380000D01*
X103998946Y-78948285D01*
X104320853Y-79430054D01*
X104650026Y-79650000D01*
X104320853Y-79869946D01*
X103998946Y-80351715D01*
X103885907Y-80920000D01*
X103947058Y-81227429D01*
X102384879Y-82789609D01*
X102385162Y-82464833D01*
X102243117Y-82121057D01*
X102081894Y-81959552D01*
X102263201Y-82034838D01*
X102635167Y-82035162D01*
X102978943Y-81893117D01*
X103242192Y-81630327D01*
X103384838Y-81286799D01*
X103385162Y-80914833D01*
X103385000Y-80914441D01*
X103385000Y-67025000D01*
X103313827Y-66667191D01*
X103278954Y-66615000D01*
X104243977Y-66615000D01*
X104320853Y-66730054D01*
G36*
X103998946Y-53548285D02*
X104320853Y-54030054D01*
X104661553Y-54257702D01*
X104518642Y-54324817D01*
X104128355Y-54753076D01*
X103958524Y-55163110D01*
X104079845Y-55393000D01*
X105273000Y-55393000D01*
X105273000Y-55373000D01*
X105527000Y-55373000D01*
X105527000Y-55393000D01*
X105547000Y-55393000D01*
X105547000Y-55647000D01*
X105527000Y-55647000D01*
X105527000Y-55667000D01*
X105273000Y-55667000D01*
X105273000Y-55647000D01*
X104079845Y-55647000D01*
X103958524Y-55876890D01*
X104128355Y-56286924D01*
X104518642Y-56715183D01*
X104661553Y-56782298D01*
X104320853Y-57009946D01*
X103998946Y-57491715D01*
X103885907Y-58060000D01*
X103998946Y-58628285D01*
X104320853Y-59110054D01*
X104650026Y-59330000D01*
X104320853Y-59549946D01*
X103998946Y-60031715D01*
X103885907Y-60600000D01*
X103998946Y-61168285D01*
X104320853Y-61650054D01*
X104650026Y-61870000D01*
X104320853Y-62089946D01*
X103998946Y-62571715D01*
X103885907Y-63140000D01*
X103998946Y-63708285D01*
X104320853Y-64190054D01*
X104650026Y-64410000D01*
X104320853Y-64629946D01*
X104243977Y-64745000D01*
X96842290Y-64745000D01*
X94935000Y-62837710D01*
X94935000Y-56925000D01*
X94863827Y-56567191D01*
X94786944Y-56452128D01*
X94743117Y-56346057D01*
X94661320Y-56264118D01*
X94661145Y-56263855D01*
X94611436Y-56214146D01*
X94480327Y-56082808D01*
X94136799Y-55940162D01*
X93764833Y-55939838D01*
X93421057Y-56081883D01*
X93157808Y-56344673D01*
X93015162Y-56688201D01*
X93014838Y-57060167D01*
X93065000Y-57181569D01*
X93065000Y-63225000D01*
X93136173Y-63582809D01*
X93338855Y-63886145D01*
X95793855Y-66341145D01*
X96097191Y-66543827D01*
X96455000Y-66615000D01*
X100717710Y-66615000D01*
X101515000Y-67412290D01*
X101515000Y-80245028D01*
X101443117Y-80071057D01*
X101180327Y-79807808D01*
X100963134Y-79717621D01*
X100558943Y-79313431D01*
X100642192Y-79230327D01*
X100784838Y-78886799D01*
X100785162Y-78514833D01*
X100643117Y-78171057D01*
X100380327Y-77907808D01*
X100077629Y-77782116D01*
X99708943Y-77413431D01*
X99792192Y-77330327D01*
X99934838Y-76986799D01*
X99935162Y-76614833D01*
X99793117Y-76271057D01*
X99530327Y-76007808D01*
X99227629Y-75882116D01*
X98272756Y-74927244D01*
X98254432Y-74915000D01*
X98009974Y-74751658D01*
X97700000Y-74690000D01*
X90285513Y-74690000D01*
X72680680Y-57085167D01*
X83664838Y-57085167D01*
X83765000Y-57327578D01*
X83765000Y-66300000D01*
X83826658Y-66609974D01*
X83910198Y-66735000D01*
X84002244Y-66872756D01*
X90852244Y-73722757D01*
X91009771Y-73828012D01*
X91115026Y-73898342D01*
X91425000Y-73960000D01*
X99837559Y-73960000D01*
X100138201Y-74084838D01*
X100510167Y-74085162D01*
X100853943Y-73943117D01*
X101117192Y-73680327D01*
X101259838Y-73336799D01*
X101260162Y-72964833D01*
X101118117Y-72621057D01*
X100855327Y-72357808D01*
X100511799Y-72215162D01*
X100139833Y-72214838D01*
X99836917Y-72340000D01*
X91760513Y-72340000D01*
X85385000Y-65964488D01*
X85385000Y-57437506D01*
X85392192Y-57430327D01*
X85502215Y-57165363D01*
X87564855Y-57165363D01*
X87691708Y-57472372D01*
X87926393Y-57707466D01*
X88168587Y-57808034D01*
X88180276Y-57819723D01*
X88180279Y-57819725D01*
X89015000Y-58654447D01*
X89015000Y-61342702D01*
X88915145Y-61583179D01*
X88914855Y-61915363D01*
X89041708Y-62222372D01*
X89276393Y-62457466D01*
X89583179Y-62584855D01*
X89915363Y-62585145D01*
X90222372Y-62458292D01*
X90457466Y-62223607D01*
X90584855Y-61916821D01*
X90585145Y-61584637D01*
X90485000Y-61342267D01*
X90485000Y-59823326D01*
X90633179Y-59884855D01*
X90965363Y-59885145D01*
X91272372Y-59758292D01*
X91507466Y-59523607D01*
X91634855Y-59216821D01*
X91635145Y-58884637D01*
X91535000Y-58642267D01*
X91535000Y-57850000D01*
X91479051Y-57568728D01*
X91427593Y-57491715D01*
X91319724Y-57330277D01*
X90757727Y-56768281D01*
X90658292Y-56527628D01*
X90423607Y-56292534D01*
X90116821Y-56165145D01*
X89784637Y-56164855D01*
X89477628Y-56291708D01*
X89242534Y-56526393D01*
X89174991Y-56689053D01*
X89108292Y-56527628D01*
X88873607Y-56292534D01*
X88566821Y-56165145D01*
X88234637Y-56164855D01*
X87927628Y-56291708D01*
X87692534Y-56526393D01*
X87565145Y-56833179D01*
X87564855Y-57165363D01*
X85502215Y-57165363D01*
X85534838Y-57086799D01*
X85535162Y-56714833D01*
X85393117Y-56371057D01*
X85130327Y-56107808D01*
X84786799Y-55965162D01*
X84414833Y-55964838D01*
X84071057Y-56106883D01*
X83807808Y-56369673D01*
X83665162Y-56713201D01*
X83664838Y-57085167D01*
X72680680Y-57085167D01*
X70512756Y-54917244D01*
X70249974Y-54741658D01*
X69940000Y-54680000D01*
X68839546Y-54680000D01*
X68679147Y-54439946D01*
X68349974Y-54220000D01*
X68679147Y-54000054D01*
X68839546Y-53760000D01*
X102890000Y-53760000D01*
X103199974Y-53698342D01*
X103462756Y-53522756D01*
X103905751Y-53079761D01*
X103998946Y-53548285D01*
X103998946Y-53548285D01*
G37*
X103998946Y-53548285D02*
X104320853Y-54030054D01*
X104661553Y-54257702D01*
X104518642Y-54324817D01*
X104128355Y-54753076D01*
X103958524Y-55163110D01*
X104079845Y-55393000D01*
X105273000Y-55393000D01*
X105273000Y-55373000D01*
X105527000Y-55373000D01*
X105527000Y-55393000D01*
X105547000Y-55393000D01*
X105547000Y-55647000D01*
X105527000Y-55647000D01*
X105527000Y-55667000D01*
X105273000Y-55667000D01*
X105273000Y-55647000D01*
X104079845Y-55647000D01*
X103958524Y-55876890D01*
X104128355Y-56286924D01*
X104518642Y-56715183D01*
X104661553Y-56782298D01*
X104320853Y-57009946D01*
X103998946Y-57491715D01*
X103885907Y-58060000D01*
X103998946Y-58628285D01*
X104320853Y-59110054D01*
X104650026Y-59330000D01*
X104320853Y-59549946D01*
X103998946Y-60031715D01*
X103885907Y-60600000D01*
X103998946Y-61168285D01*
X104320853Y-61650054D01*
X104650026Y-61870000D01*
X104320853Y-62089946D01*
X103998946Y-62571715D01*
X103885907Y-63140000D01*
X103998946Y-63708285D01*
X104320853Y-64190054D01*
X104650026Y-64410000D01*
X104320853Y-64629946D01*
X104243977Y-64745000D01*
X96842290Y-64745000D01*
X94935000Y-62837710D01*
X94935000Y-56925000D01*
X94863827Y-56567191D01*
X94786944Y-56452128D01*
X94743117Y-56346057D01*
X94661320Y-56264118D01*
X94661145Y-56263855D01*
X94611436Y-56214146D01*
X94480327Y-56082808D01*
X94136799Y-55940162D01*
X93764833Y-55939838D01*
X93421057Y-56081883D01*
X93157808Y-56344673D01*
X93015162Y-56688201D01*
X93014838Y-57060167D01*
X93065000Y-57181569D01*
X93065000Y-63225000D01*
X93136173Y-63582809D01*
X93338855Y-63886145D01*
X95793855Y-66341145D01*
X96097191Y-66543827D01*
X96455000Y-66615000D01*
X100717710Y-66615000D01*
X101515000Y-67412290D01*
X101515000Y-80245028D01*
X101443117Y-80071057D01*
X101180327Y-79807808D01*
X100963134Y-79717621D01*
X100558943Y-79313431D01*
X100642192Y-79230327D01*
X100784838Y-78886799D01*
X100785162Y-78514833D01*
X100643117Y-78171057D01*
X100380327Y-77907808D01*
X100077629Y-77782116D01*
X99708943Y-77413431D01*
X99792192Y-77330327D01*
X99934838Y-76986799D01*
X99935162Y-76614833D01*
X99793117Y-76271057D01*
X99530327Y-76007808D01*
X99227629Y-75882116D01*
X98272756Y-74927244D01*
X98254432Y-74915000D01*
X98009974Y-74751658D01*
X97700000Y-74690000D01*
X90285513Y-74690000D01*
X72680680Y-57085167D01*
X83664838Y-57085167D01*
X83765000Y-57327578D01*
X83765000Y-66300000D01*
X83826658Y-66609974D01*
X83910198Y-66735000D01*
X84002244Y-66872756D01*
X90852244Y-73722757D01*
X91009771Y-73828012D01*
X91115026Y-73898342D01*
X91425000Y-73960000D01*
X99837559Y-73960000D01*
X100138201Y-74084838D01*
X100510167Y-74085162D01*
X100853943Y-73943117D01*
X101117192Y-73680327D01*
X101259838Y-73336799D01*
X101260162Y-72964833D01*
X101118117Y-72621057D01*
X100855327Y-72357808D01*
X100511799Y-72215162D01*
X100139833Y-72214838D01*
X99836917Y-72340000D01*
X91760513Y-72340000D01*
X85385000Y-65964488D01*
X85385000Y-57437506D01*
X85392192Y-57430327D01*
X85502215Y-57165363D01*
X87564855Y-57165363D01*
X87691708Y-57472372D01*
X87926393Y-57707466D01*
X88168587Y-57808034D01*
X88180276Y-57819723D01*
X88180279Y-57819725D01*
X89015000Y-58654447D01*
X89015000Y-61342702D01*
X88915145Y-61583179D01*
X88914855Y-61915363D01*
X89041708Y-62222372D01*
X89276393Y-62457466D01*
X89583179Y-62584855D01*
X89915363Y-62585145D01*
X90222372Y-62458292D01*
X90457466Y-62223607D01*
X90584855Y-61916821D01*
X90585145Y-61584637D01*
X90485000Y-61342267D01*
X90485000Y-59823326D01*
X90633179Y-59884855D01*
X90965363Y-59885145D01*
X91272372Y-59758292D01*
X91507466Y-59523607D01*
X91634855Y-59216821D01*
X91635145Y-58884637D01*
X91535000Y-58642267D01*
X91535000Y-57850000D01*
X91479051Y-57568728D01*
X91427593Y-57491715D01*
X91319724Y-57330277D01*
X90757727Y-56768281D01*
X90658292Y-56527628D01*
X90423607Y-56292534D01*
X90116821Y-56165145D01*
X89784637Y-56164855D01*
X89477628Y-56291708D01*
X89242534Y-56526393D01*
X89174991Y-56689053D01*
X89108292Y-56527628D01*
X88873607Y-56292534D01*
X88566821Y-56165145D01*
X88234637Y-56164855D01*
X87927628Y-56291708D01*
X87692534Y-56526393D01*
X87565145Y-56833179D01*
X87564855Y-57165363D01*
X85502215Y-57165363D01*
X85534838Y-57086799D01*
X85535162Y-56714833D01*
X85393117Y-56371057D01*
X85130327Y-56107808D01*
X84786799Y-55965162D01*
X84414833Y-55964838D01*
X84071057Y-56106883D01*
X83807808Y-56369673D01*
X83665162Y-56713201D01*
X83664838Y-57085167D01*
X72680680Y-57085167D01*
X70512756Y-54917244D01*
X70249974Y-54741658D01*
X69940000Y-54680000D01*
X68839546Y-54680000D01*
X68679147Y-54439946D01*
X68349974Y-54220000D01*
X68679147Y-54000054D01*
X68839546Y-53760000D01*
X102890000Y-53760000D01*
X103199974Y-53698342D01*
X103462756Y-53522756D01*
X103905751Y-53079761D01*
X103998946Y-53548285D01*
G36*
X104518642Y-38935183D02*
X104661553Y-39002298D01*
X104320853Y-39229946D01*
X103998946Y-39711715D01*
X103885907Y-40280000D01*
X103998946Y-40848285D01*
X104320853Y-41330054D01*
X104650026Y-41550000D01*
X104320853Y-41769946D01*
X103998946Y-42251715D01*
X103885907Y-42820000D01*
X103947058Y-43127429D01*
X103846132Y-43228355D01*
X103843117Y-43221057D01*
X103580327Y-42957808D01*
X103236799Y-42815162D01*
X102864833Y-42814838D01*
X102521057Y-42956883D01*
X102487882Y-42990000D01*
X101455512Y-42990000D01*
X102347755Y-42097758D01*
X102523341Y-41834975D01*
X102584998Y-41525002D01*
X102584998Y-40610514D01*
X104222756Y-38972757D01*
X104311444Y-38840026D01*
X104362410Y-38763750D01*
X104518642Y-38935183D01*
X104518642Y-38935183D01*
G37*
X104518642Y-38935183D02*
X104661553Y-39002298D01*
X104320853Y-39229946D01*
X103998946Y-39711715D01*
X103885907Y-40280000D01*
X103998946Y-40848285D01*
X104320853Y-41330054D01*
X104650026Y-41550000D01*
X104320853Y-41769946D01*
X103998946Y-42251715D01*
X103885907Y-42820000D01*
X103947058Y-43127429D01*
X103846132Y-43228355D01*
X103843117Y-43221057D01*
X103580327Y-42957808D01*
X103236799Y-42815162D01*
X102864833Y-42814838D01*
X102521057Y-42956883D01*
X102487882Y-42990000D01*
X101455512Y-42990000D01*
X102347755Y-42097758D01*
X102523341Y-41834975D01*
X102584998Y-41525002D01*
X102584998Y-40610514D01*
X104222756Y-38972757D01*
X104311444Y-38840026D01*
X104362410Y-38763750D01*
X104518642Y-38935183D01*
G36*
X95536673Y-30865302D02*
X95440000Y-31098691D01*
X95440000Y-31614250D01*
X95598750Y-31773000D01*
X96623000Y-31773000D01*
X96623000Y-31753000D01*
X96877000Y-31753000D01*
X96877000Y-31773000D01*
X96897000Y-31773000D01*
X96897000Y-32027000D01*
X96877000Y-32027000D01*
X96877000Y-33051250D01*
X97035750Y-33210000D01*
X97551310Y-33210000D01*
X97784699Y-33113327D01*
X97956986Y-32941039D01*
X98248685Y-33135946D01*
X98750000Y-33235664D01*
X99251315Y-33135946D01*
X99676310Y-32851974D01*
X99750000Y-32741689D01*
X99823690Y-32851974D01*
X100248685Y-33135946D01*
X100750000Y-33235664D01*
X101251315Y-33135946D01*
X101676310Y-32851974D01*
X101750000Y-32741689D01*
X101823690Y-32851974D01*
X102248685Y-33135946D01*
X102750000Y-33235664D01*
X103251315Y-33135946D01*
X103676310Y-32851974D01*
X103750000Y-32741689D01*
X103823690Y-32851974D01*
X104248685Y-33135946D01*
X104750000Y-33235664D01*
X105173115Y-33151501D01*
X105160197Y-33160197D01*
X104297394Y-34023000D01*
X103700000Y-34023000D01*
X103650590Y-34033006D01*
X103611548Y-34058867D01*
X101911548Y-35708867D01*
X101883061Y-35750460D01*
X101873000Y-35800000D01*
X101873000Y-38545986D01*
X100561908Y-39808519D01*
X100533257Y-39850000D01*
X100523000Y-39900000D01*
X100523000Y-40947394D01*
X99947394Y-41523000D01*
X85102606Y-41523000D01*
X80964773Y-37385167D01*
X82864838Y-37385167D01*
X82990000Y-37688083D01*
X82990000Y-38650000D01*
X83051658Y-38959974D01*
X83121723Y-39064833D01*
X83227244Y-39222756D01*
X83627243Y-39622756D01*
X83627246Y-39622758D01*
X83727243Y-39722756D01*
X83822154Y-39786173D01*
X83990026Y-39898342D01*
X84300000Y-39960000D01*
X92487624Y-39960000D01*
X92569673Y-40042192D01*
X92913201Y-40184838D01*
X93285167Y-40185162D01*
X93628943Y-40043117D01*
X93892192Y-39780327D01*
X94034838Y-39436799D01*
X94035162Y-39064833D01*
X93893117Y-38721057D01*
X93634903Y-38462392D01*
X93635162Y-38164833D01*
X93493117Y-37821057D01*
X93230327Y-37557808D01*
X92886799Y-37415162D01*
X92514833Y-37414838D01*
X92211917Y-37540000D01*
X85487441Y-37540000D01*
X85186799Y-37415162D01*
X84814833Y-37414838D01*
X84704216Y-37460544D01*
X84734838Y-37386799D01*
X84735162Y-37014833D01*
X84593117Y-36671057D01*
X84330327Y-36407808D01*
X83986799Y-36265162D01*
X83614833Y-36264838D01*
X83271057Y-36406883D01*
X83007808Y-36669673D01*
X82865162Y-37013201D01*
X82864838Y-37385167D01*
X80964773Y-37385167D01*
X79489803Y-35910197D01*
X79447789Y-35882334D01*
X79400000Y-35873000D01*
X74327000Y-35873000D01*
X74327000Y-35485167D01*
X93314838Y-35485167D01*
X93440000Y-35788083D01*
X93440000Y-36512559D01*
X93315162Y-36813201D01*
X93314838Y-37185167D01*
X93456883Y-37528943D01*
X93719673Y-37792192D01*
X94063201Y-37934838D01*
X94435167Y-37935162D01*
X94778943Y-37793117D01*
X95042192Y-37530327D01*
X95184838Y-37186799D01*
X95185162Y-36814833D01*
X95060000Y-36511917D01*
X95060000Y-35787441D01*
X95184838Y-35486799D01*
X95185162Y-35114833D01*
X95043117Y-34771057D01*
X94780327Y-34507808D01*
X94436799Y-34365162D01*
X94064833Y-34364838D01*
X93721057Y-34506883D01*
X93457808Y-34769673D01*
X93315162Y-35113201D01*
X93314838Y-35485167D01*
X74327000Y-35485167D01*
X74327000Y-33146307D01*
X74620600Y-33267910D01*
X74823000Y-33144224D01*
X74823000Y-32127000D01*
X75077000Y-32127000D01*
X75077000Y-33144224D01*
X75279400Y-33267910D01*
X75613633Y-33129478D01*
X75995349Y-32789540D01*
X76217920Y-32329402D01*
X76130744Y-32185750D01*
X95440000Y-32185750D01*
X95440000Y-32701309D01*
X95536673Y-32934698D01*
X95715301Y-33113327D01*
X95948690Y-33210000D01*
X96464250Y-33210000D01*
X96623000Y-33051250D01*
X96623000Y-32027000D01*
X95598750Y-32027000D01*
X95440000Y-32185750D01*
X76130744Y-32185750D01*
X76095090Y-32127000D01*
X75077000Y-32127000D01*
X74823000Y-32127000D01*
X74803000Y-32127000D01*
X74803000Y-31873000D01*
X74823000Y-31873000D01*
X74823000Y-31853000D01*
X75077000Y-31853000D01*
X75077000Y-31873000D01*
X76095090Y-31873000D01*
X76217920Y-31670598D01*
X75995349Y-31210460D01*
X75613633Y-30870522D01*
X75279400Y-30732090D01*
X75077002Y-30855775D01*
X75077002Y-30710000D01*
X95691974Y-30710000D01*
X95536673Y-30865302D01*
X95536673Y-30865302D01*
G37*
X95536673Y-30865302D02*
X95440000Y-31098691D01*
X95440000Y-31614250D01*
X95598750Y-31773000D01*
X96623000Y-31773000D01*
X96623000Y-31753000D01*
X96877000Y-31753000D01*
X96877000Y-31773000D01*
X96897000Y-31773000D01*
X96897000Y-32027000D01*
X96877000Y-32027000D01*
X96877000Y-33051250D01*
X97035750Y-33210000D01*
X97551310Y-33210000D01*
X97784699Y-33113327D01*
X97956986Y-32941039D01*
X98248685Y-33135946D01*
X98750000Y-33235664D01*
X99251315Y-33135946D01*
X99676310Y-32851974D01*
X99750000Y-32741689D01*
X99823690Y-32851974D01*
X100248685Y-33135946D01*
X100750000Y-33235664D01*
X101251315Y-33135946D01*
X101676310Y-32851974D01*
X101750000Y-32741689D01*
X101823690Y-32851974D01*
X102248685Y-33135946D01*
X102750000Y-33235664D01*
X103251315Y-33135946D01*
X103676310Y-32851974D01*
X103750000Y-32741689D01*
X103823690Y-32851974D01*
X104248685Y-33135946D01*
X104750000Y-33235664D01*
X105173115Y-33151501D01*
X105160197Y-33160197D01*
X104297394Y-34023000D01*
X103700000Y-34023000D01*
X103650590Y-34033006D01*
X103611548Y-34058867D01*
X101911548Y-35708867D01*
X101883061Y-35750460D01*
X101873000Y-35800000D01*
X101873000Y-38545986D01*
X100561908Y-39808519D01*
X100533257Y-39850000D01*
X100523000Y-39900000D01*
X100523000Y-40947394D01*
X99947394Y-41523000D01*
X85102606Y-41523000D01*
X80964773Y-37385167D01*
X82864838Y-37385167D01*
X82990000Y-37688083D01*
X82990000Y-38650000D01*
X83051658Y-38959974D01*
X83121723Y-39064833D01*
X83227244Y-39222756D01*
X83627243Y-39622756D01*
X83627246Y-39622758D01*
X83727243Y-39722756D01*
X83822154Y-39786173D01*
X83990026Y-39898342D01*
X84300000Y-39960000D01*
X92487624Y-39960000D01*
X92569673Y-40042192D01*
X92913201Y-40184838D01*
X93285167Y-40185162D01*
X93628943Y-40043117D01*
X93892192Y-39780327D01*
X94034838Y-39436799D01*
X94035162Y-39064833D01*
X93893117Y-38721057D01*
X93634903Y-38462392D01*
X93635162Y-38164833D01*
X93493117Y-37821057D01*
X93230327Y-37557808D01*
X92886799Y-37415162D01*
X92514833Y-37414838D01*
X92211917Y-37540000D01*
X85487441Y-37540000D01*
X85186799Y-37415162D01*
X84814833Y-37414838D01*
X84704216Y-37460544D01*
X84734838Y-37386799D01*
X84735162Y-37014833D01*
X84593117Y-36671057D01*
X84330327Y-36407808D01*
X83986799Y-36265162D01*
X83614833Y-36264838D01*
X83271057Y-36406883D01*
X83007808Y-36669673D01*
X82865162Y-37013201D01*
X82864838Y-37385167D01*
X80964773Y-37385167D01*
X79489803Y-35910197D01*
X79447789Y-35882334D01*
X79400000Y-35873000D01*
X74327000Y-35873000D01*
X74327000Y-35485167D01*
X93314838Y-35485167D01*
X93440000Y-35788083D01*
X93440000Y-36512559D01*
X93315162Y-36813201D01*
X93314838Y-37185167D01*
X93456883Y-37528943D01*
X93719673Y-37792192D01*
X94063201Y-37934838D01*
X94435167Y-37935162D01*
X94778943Y-37793117D01*
X95042192Y-37530327D01*
X95184838Y-37186799D01*
X95185162Y-36814833D01*
X95060000Y-36511917D01*
X95060000Y-35787441D01*
X95184838Y-35486799D01*
X95185162Y-35114833D01*
X95043117Y-34771057D01*
X94780327Y-34507808D01*
X94436799Y-34365162D01*
X94064833Y-34364838D01*
X93721057Y-34506883D01*
X93457808Y-34769673D01*
X93315162Y-35113201D01*
X93314838Y-35485167D01*
X74327000Y-35485167D01*
X74327000Y-33146307D01*
X74620600Y-33267910D01*
X74823000Y-33144224D01*
X74823000Y-32127000D01*
X75077000Y-32127000D01*
X75077000Y-33144224D01*
X75279400Y-33267910D01*
X75613633Y-33129478D01*
X75995349Y-32789540D01*
X76217920Y-32329402D01*
X76130744Y-32185750D01*
X95440000Y-32185750D01*
X95440000Y-32701309D01*
X95536673Y-32934698D01*
X95715301Y-33113327D01*
X95948690Y-33210000D01*
X96464250Y-33210000D01*
X96623000Y-33051250D01*
X96623000Y-32027000D01*
X95598750Y-32027000D01*
X95440000Y-32185750D01*
X76130744Y-32185750D01*
X76095090Y-32127000D01*
X75077000Y-32127000D01*
X74823000Y-32127000D01*
X74803000Y-32127000D01*
X74803000Y-31873000D01*
X74823000Y-31873000D01*
X74823000Y-31853000D01*
X75077000Y-31853000D01*
X75077000Y-31873000D01*
X76095090Y-31873000D01*
X76217920Y-31670598D01*
X75995349Y-31210460D01*
X75613633Y-30870522D01*
X75279400Y-30732090D01*
X75077002Y-30855775D01*
X75077002Y-30710000D01*
X95691974Y-30710000D01*
X95536673Y-30865302D01*
M02*
