G04 #@! TF.FileFunction,Legend,Top*
%FSLAX46Y46*%
G04 Gerber Fmt 4.6, Leading zero omitted, Abs format (unit mm)*
G04 Created by KiCad (PCBNEW 4.0.6-e0-6349~53~ubuntu16.04.1) date Tue Jul  4 14:56:25 2017*
%MOMM*%
%LPD*%
G01*
G04 APERTURE LIST*
%ADD10C,0.100000*%
%ADD11C,0.250000*%
%ADD12C,0.200000*%
%ADD13C,0.120000*%
%ADD14C,0.150000*%
%ADD15C,0.062500*%
G04 APERTURE END LIST*
D10*
X100980000Y-33973333D02*
X101218095Y-33973333D01*
X100932381Y-34116190D02*
X101099048Y-33616190D01*
X101265714Y-34116190D01*
X101432381Y-34116190D02*
X101432381Y-33616190D01*
X101718095Y-34116190D01*
X101718095Y-33616190D01*
X101932381Y-33973333D02*
X102170476Y-33973333D01*
X101884762Y-34116190D02*
X102051429Y-33616190D01*
X102218095Y-34116190D01*
X102622857Y-34116190D02*
X102384762Y-34116190D01*
X102384762Y-33616190D01*
X102884762Y-33616190D02*
X102980000Y-33616190D01*
X103027619Y-33640000D01*
X103075238Y-33687619D01*
X103099047Y-33782857D01*
X103099047Y-33949524D01*
X103075238Y-34044762D01*
X103027619Y-34092381D01*
X102980000Y-34116190D01*
X102884762Y-34116190D01*
X102837143Y-34092381D01*
X102789524Y-34044762D01*
X102765714Y-33949524D01*
X102765714Y-33782857D01*
X102789524Y-33687619D01*
X102837143Y-33640000D01*
X102884762Y-33616190D01*
X103575238Y-33640000D02*
X103527619Y-33616190D01*
X103456191Y-33616190D01*
X103384762Y-33640000D01*
X103337143Y-33687619D01*
X103313334Y-33735238D01*
X103289524Y-33830476D01*
X103289524Y-33901905D01*
X103313334Y-33997143D01*
X103337143Y-34044762D01*
X103384762Y-34092381D01*
X103456191Y-34116190D01*
X103503810Y-34116190D01*
X103575238Y-34092381D01*
X103599048Y-34068571D01*
X103599048Y-33901905D01*
X103503810Y-33901905D01*
X104360952Y-33854286D02*
X104432381Y-33878095D01*
X104456190Y-33901905D01*
X104480000Y-33949524D01*
X104480000Y-34020952D01*
X104456190Y-34068571D01*
X104432381Y-34092381D01*
X104384762Y-34116190D01*
X104194286Y-34116190D01*
X104194286Y-33616190D01*
X104360952Y-33616190D01*
X104408571Y-33640000D01*
X104432381Y-33663810D01*
X104456190Y-33711429D01*
X104456190Y-33759048D01*
X104432381Y-33806667D01*
X104408571Y-33830476D01*
X104360952Y-33854286D01*
X104194286Y-33854286D01*
X104694286Y-34116190D02*
X104694286Y-33616190D01*
X104980000Y-34116190D02*
X104765714Y-33830476D01*
X104980000Y-33616190D02*
X104694286Y-33901905D01*
X65426190Y-43450000D02*
X64926190Y-43450000D01*
X64926190Y-43259524D01*
X64950000Y-43211905D01*
X64973810Y-43188096D01*
X65021429Y-43164286D01*
X65092857Y-43164286D01*
X65140476Y-43188096D01*
X65164286Y-43211905D01*
X65188095Y-43259524D01*
X65188095Y-43450000D01*
X65426190Y-42950000D02*
X64926190Y-42950000D01*
X65235714Y-42711905D02*
X65235714Y-42330953D01*
X64950000Y-41830953D02*
X64926190Y-41878572D01*
X64926190Y-41950000D01*
X64950000Y-42021429D01*
X64997619Y-42069048D01*
X65045238Y-42092857D01*
X65140476Y-42116667D01*
X65211905Y-42116667D01*
X65307143Y-42092857D01*
X65354762Y-42069048D01*
X65402381Y-42021429D01*
X65426190Y-41950000D01*
X65426190Y-41902381D01*
X65402381Y-41830953D01*
X65378571Y-41807143D01*
X65211905Y-41807143D01*
X65211905Y-41902381D01*
X65426190Y-41592857D02*
X64926190Y-41592857D01*
X64926190Y-41402381D01*
X64950000Y-41354762D01*
X64973810Y-41330953D01*
X65021429Y-41307143D01*
X65092857Y-41307143D01*
X65140476Y-41330953D01*
X65164286Y-41354762D01*
X65188095Y-41402381D01*
X65188095Y-41592857D01*
X65426190Y-41092857D02*
X64926190Y-41092857D01*
X64926190Y-40759524D02*
X64926190Y-40664286D01*
X64950000Y-40616667D01*
X64997619Y-40569048D01*
X65092857Y-40545239D01*
X65259524Y-40545239D01*
X65354762Y-40569048D01*
X65402381Y-40616667D01*
X65426190Y-40664286D01*
X65426190Y-40759524D01*
X65402381Y-40807143D01*
X65354762Y-40854762D01*
X65259524Y-40878572D01*
X65092857Y-40878572D01*
X64997619Y-40854762D01*
X64950000Y-40807143D01*
X64926190Y-40759524D01*
X65235714Y-40330952D02*
X65235714Y-39950000D01*
X65164286Y-39545238D02*
X65188095Y-39473809D01*
X65211905Y-39450000D01*
X65259524Y-39426190D01*
X65330952Y-39426190D01*
X65378571Y-39450000D01*
X65402381Y-39473809D01*
X65426190Y-39521428D01*
X65426190Y-39711904D01*
X64926190Y-39711904D01*
X64926190Y-39545238D01*
X64950000Y-39497619D01*
X64973810Y-39473809D01*
X65021429Y-39450000D01*
X65069048Y-39450000D01*
X65116667Y-39473809D01*
X65140476Y-39497619D01*
X65164286Y-39545238D01*
X65164286Y-39711904D01*
X65426190Y-39211904D02*
X64926190Y-39211904D01*
X65426190Y-38926190D02*
X65140476Y-39140476D01*
X64926190Y-38926190D02*
X65211905Y-39211904D01*
X74369048Y-34083333D02*
X74607143Y-34083333D01*
X74321429Y-34226190D02*
X74488096Y-33726190D01*
X74654762Y-34226190D01*
X75083333Y-33750000D02*
X75035714Y-33726190D01*
X74964286Y-33726190D01*
X74892857Y-33750000D01*
X74845238Y-33797619D01*
X74821429Y-33845238D01*
X74797619Y-33940476D01*
X74797619Y-34011905D01*
X74821429Y-34107143D01*
X74845238Y-34154762D01*
X74892857Y-34202381D01*
X74964286Y-34226190D01*
X75011905Y-34226190D01*
X75083333Y-34202381D01*
X75107143Y-34178571D01*
X75107143Y-34011905D01*
X75011905Y-34011905D01*
X75321429Y-34226190D02*
X75321429Y-33726190D01*
X75607143Y-34226190D01*
X75607143Y-33726190D01*
X75845239Y-34226190D02*
X75845239Y-33726190D01*
X75964286Y-33726190D01*
X76035715Y-33750000D01*
X76083334Y-33797619D01*
X76107143Y-33845238D01*
X76130953Y-33940476D01*
X76130953Y-34011905D01*
X76107143Y-34107143D01*
X76083334Y-34154762D01*
X76035715Y-34202381D01*
X75964286Y-34226190D01*
X75845239Y-34226190D01*
X72369047Y-33750000D02*
X72321428Y-33726190D01*
X72250000Y-33726190D01*
X72178571Y-33750000D01*
X72130952Y-33797619D01*
X72107143Y-33845238D01*
X72083333Y-33940476D01*
X72083333Y-34011905D01*
X72107143Y-34107143D01*
X72130952Y-34154762D01*
X72178571Y-34202381D01*
X72250000Y-34226190D01*
X72297619Y-34226190D01*
X72369047Y-34202381D01*
X72392857Y-34178571D01*
X72392857Y-34011905D01*
X72297619Y-34011905D01*
X72607143Y-34226190D02*
X72607143Y-33726190D01*
X72892857Y-34226190D01*
X72892857Y-33726190D01*
X73130953Y-34226190D02*
X73130953Y-33726190D01*
X73250000Y-33726190D01*
X73321429Y-33750000D01*
X73369048Y-33797619D01*
X73392857Y-33845238D01*
X73416667Y-33940476D01*
X73416667Y-34011905D01*
X73392857Y-34107143D01*
X73369048Y-34154762D01*
X73321429Y-34202381D01*
X73250000Y-34226190D01*
X73130953Y-34226190D01*
X63214286Y-74154761D02*
X63214286Y-73988095D01*
X63476190Y-73916666D02*
X63476190Y-74154761D01*
X62976190Y-74154761D01*
X62976190Y-73916666D01*
X62976190Y-73773809D02*
X62976190Y-73488095D01*
X63476190Y-73630952D02*
X62976190Y-73630952D01*
X63476190Y-73321428D02*
X62976190Y-73321428D01*
X63214286Y-73321428D02*
X63214286Y-73035714D01*
X63476190Y-73035714D02*
X62976190Y-73035714D01*
X63214286Y-72797618D02*
X63214286Y-72630952D01*
X63476190Y-72559523D02*
X63476190Y-72797618D01*
X62976190Y-72797618D01*
X62976190Y-72559523D01*
X63476190Y-72059523D02*
X63238095Y-72226190D01*
X63476190Y-72345237D02*
X62976190Y-72345237D01*
X62976190Y-72154761D01*
X63000000Y-72107142D01*
X63023810Y-72083333D01*
X63071429Y-72059523D01*
X63142857Y-72059523D01*
X63190476Y-72083333D01*
X63214286Y-72107142D01*
X63238095Y-72154761D01*
X63238095Y-72345237D01*
X63476190Y-71845237D02*
X62976190Y-71845237D01*
X63476190Y-71559523D01*
X62976190Y-71559523D01*
X63214286Y-71321427D02*
X63214286Y-71154761D01*
X63476190Y-71083332D02*
X63476190Y-71321427D01*
X62976190Y-71321427D01*
X62976190Y-71083332D01*
X62976190Y-70940475D02*
X62976190Y-70654761D01*
X63476190Y-70797618D02*
X62976190Y-70797618D01*
X63214286Y-69940476D02*
X63238095Y-69869047D01*
X63261905Y-69845238D01*
X63309524Y-69821428D01*
X63380952Y-69821428D01*
X63428571Y-69845238D01*
X63452381Y-69869047D01*
X63476190Y-69916666D01*
X63476190Y-70107142D01*
X62976190Y-70107142D01*
X62976190Y-69940476D01*
X63000000Y-69892857D01*
X63023810Y-69869047D01*
X63071429Y-69845238D01*
X63119048Y-69845238D01*
X63166667Y-69869047D01*
X63190476Y-69892857D01*
X63214286Y-69940476D01*
X63214286Y-70107142D01*
X63476190Y-69607142D02*
X62976190Y-69607142D01*
X63476190Y-69321428D02*
X63190476Y-69535714D01*
X62976190Y-69321428D02*
X63261905Y-69607142D01*
D11*
X80833334Y-24952381D02*
X80642857Y-24952381D01*
X80547619Y-25000000D01*
X80500000Y-25047619D01*
X80404762Y-25190476D01*
X80357143Y-25380952D01*
X80357143Y-25761905D01*
X80404762Y-25857143D01*
X80452381Y-25904762D01*
X80547619Y-25952381D01*
X80738096Y-25952381D01*
X80833334Y-25904762D01*
X80880953Y-25857143D01*
X80928572Y-25761905D01*
X80928572Y-25523810D01*
X80880953Y-25428571D01*
X80833334Y-25380952D01*
X80738096Y-25333333D01*
X80547619Y-25333333D01*
X80452381Y-25380952D01*
X80404762Y-25428571D01*
X80357143Y-25523810D01*
X81309524Y-25047619D02*
X81357143Y-25000000D01*
X81452381Y-24952381D01*
X81690477Y-24952381D01*
X81785715Y-25000000D01*
X81833334Y-25047619D01*
X81880953Y-25142857D01*
X81880953Y-25238095D01*
X81833334Y-25380952D01*
X81261905Y-25952381D01*
X81880953Y-25952381D01*
X82309524Y-25857143D02*
X82357143Y-25904762D01*
X82309524Y-25952381D01*
X82261905Y-25904762D01*
X82309524Y-25857143D01*
X82309524Y-25952381D01*
X83261905Y-24952381D02*
X82785714Y-24952381D01*
X82738095Y-25428571D01*
X82785714Y-25380952D01*
X82880952Y-25333333D01*
X83119048Y-25333333D01*
X83214286Y-25380952D01*
X83261905Y-25428571D01*
X83309524Y-25523810D01*
X83309524Y-25761905D01*
X83261905Y-25857143D01*
X83214286Y-25904762D01*
X83119048Y-25952381D01*
X82880952Y-25952381D01*
X82785714Y-25904762D01*
X82738095Y-25857143D01*
X83928571Y-24952381D02*
X84023810Y-24952381D01*
X84119048Y-25000000D01*
X84166667Y-25047619D01*
X84214286Y-25142857D01*
X84261905Y-25333333D01*
X84261905Y-25571429D01*
X84214286Y-25761905D01*
X84166667Y-25857143D01*
X84119048Y-25904762D01*
X84023810Y-25952381D01*
X83928571Y-25952381D01*
X83833333Y-25904762D01*
X83785714Y-25857143D01*
X83738095Y-25761905D01*
X83690476Y-25571429D01*
X83690476Y-25333333D01*
X83738095Y-25142857D01*
X83785714Y-25047619D01*
X83833333Y-25000000D01*
X83928571Y-24952381D01*
X84880952Y-24952381D02*
X84976191Y-24952381D01*
X85071429Y-25000000D01*
X85119048Y-25047619D01*
X85166667Y-25142857D01*
X85214286Y-25333333D01*
X85214286Y-25571429D01*
X85166667Y-25761905D01*
X85119048Y-25857143D01*
X85071429Y-25904762D01*
X84976191Y-25952381D01*
X84880952Y-25952381D01*
X84785714Y-25904762D01*
X84738095Y-25857143D01*
X84690476Y-25761905D01*
X84642857Y-25571429D01*
X84642857Y-25333333D01*
X84690476Y-25142857D01*
X84738095Y-25047619D01*
X84785714Y-25000000D01*
X84880952Y-24952381D01*
X86404762Y-25952381D02*
X86404762Y-25285714D01*
X86404762Y-25380952D02*
X86452381Y-25333333D01*
X86547619Y-25285714D01*
X86690477Y-25285714D01*
X86785715Y-25333333D01*
X86833334Y-25428571D01*
X86833334Y-25952381D01*
X86833334Y-25428571D02*
X86880953Y-25333333D01*
X86976191Y-25285714D01*
X87119048Y-25285714D01*
X87214286Y-25333333D01*
X87261905Y-25428571D01*
X87261905Y-25952381D01*
X87738095Y-25952381D02*
X87738095Y-25285714D01*
X87738095Y-25380952D02*
X87785714Y-25333333D01*
X87880952Y-25285714D01*
X88023810Y-25285714D01*
X88119048Y-25333333D01*
X88166667Y-25428571D01*
X88166667Y-25952381D01*
X88166667Y-25428571D02*
X88214286Y-25333333D01*
X88309524Y-25285714D01*
X88452381Y-25285714D01*
X88547619Y-25333333D01*
X88595238Y-25428571D01*
X88595238Y-25952381D01*
X53000000Y-24000000D02*
X115500000Y-24000000D01*
X53000000Y-26500000D02*
X53000000Y-23100000D01*
X115500000Y-26500000D02*
X115500000Y-23100000D01*
X115500000Y-24000000D02*
X114373496Y-24586421D01*
X115500000Y-24000000D02*
X114373496Y-23413579D01*
X53000000Y-24000000D02*
X54126504Y-24586421D01*
X53000000Y-24000000D02*
X54126504Y-23413579D01*
X119047619Y-61333334D02*
X119047619Y-61142857D01*
X119000000Y-61047619D01*
X118952381Y-61000000D01*
X118809524Y-60904762D01*
X118619048Y-60857143D01*
X118238095Y-60857143D01*
X118142857Y-60904762D01*
X118095238Y-60952381D01*
X118047619Y-61047619D01*
X118047619Y-61238096D01*
X118095238Y-61333334D01*
X118142857Y-61380953D01*
X118238095Y-61428572D01*
X118476190Y-61428572D01*
X118571429Y-61380953D01*
X118619048Y-61333334D01*
X118666667Y-61238096D01*
X118666667Y-61047619D01*
X118619048Y-60952381D01*
X118571429Y-60904762D01*
X118476190Y-60857143D01*
X119047619Y-61761905D02*
X119047619Y-62428572D01*
X118047619Y-62000000D01*
X118142857Y-62809524D02*
X118095238Y-62857143D01*
X118047619Y-62809524D01*
X118095238Y-62761905D01*
X118142857Y-62809524D01*
X118047619Y-62809524D01*
X119047619Y-63476190D02*
X119047619Y-63571429D01*
X119000000Y-63666667D01*
X118952381Y-63714286D01*
X118857143Y-63761905D01*
X118666667Y-63809524D01*
X118428571Y-63809524D01*
X118238095Y-63761905D01*
X118142857Y-63714286D01*
X118095238Y-63666667D01*
X118047619Y-63571429D01*
X118047619Y-63476190D01*
X118095238Y-63380952D01*
X118142857Y-63333333D01*
X118238095Y-63285714D01*
X118428571Y-63238095D01*
X118666667Y-63238095D01*
X118857143Y-63285714D01*
X118952381Y-63333333D01*
X119000000Y-63380952D01*
X119047619Y-63476190D01*
X119047619Y-64428571D02*
X119047619Y-64523810D01*
X119000000Y-64619048D01*
X118952381Y-64666667D01*
X118857143Y-64714286D01*
X118666667Y-64761905D01*
X118428571Y-64761905D01*
X118238095Y-64714286D01*
X118142857Y-64666667D01*
X118095238Y-64619048D01*
X118047619Y-64523810D01*
X118047619Y-64428571D01*
X118095238Y-64333333D01*
X118142857Y-64285714D01*
X118238095Y-64238095D01*
X118428571Y-64190476D01*
X118666667Y-64190476D01*
X118857143Y-64238095D01*
X118952381Y-64285714D01*
X119000000Y-64333333D01*
X119047619Y-64428571D01*
X119047619Y-65380952D02*
X119047619Y-65476191D01*
X119000000Y-65571429D01*
X118952381Y-65619048D01*
X118857143Y-65666667D01*
X118666667Y-65714286D01*
X118428571Y-65714286D01*
X118238095Y-65666667D01*
X118142857Y-65619048D01*
X118095238Y-65571429D01*
X118047619Y-65476191D01*
X118047619Y-65380952D01*
X118095238Y-65285714D01*
X118142857Y-65238095D01*
X118238095Y-65190476D01*
X118428571Y-65142857D01*
X118666667Y-65142857D01*
X118857143Y-65190476D01*
X118952381Y-65238095D01*
X119000000Y-65285714D01*
X119047619Y-65380952D01*
X118047619Y-66904762D02*
X118714286Y-66904762D01*
X118619048Y-66904762D02*
X118666667Y-66952381D01*
X118714286Y-67047619D01*
X118714286Y-67190477D01*
X118666667Y-67285715D01*
X118571429Y-67333334D01*
X118047619Y-67333334D01*
X118571429Y-67333334D02*
X118666667Y-67380953D01*
X118714286Y-67476191D01*
X118714286Y-67619048D01*
X118666667Y-67714286D01*
X118571429Y-67761905D01*
X118047619Y-67761905D01*
X118047619Y-68238095D02*
X118714286Y-68238095D01*
X118619048Y-68238095D02*
X118666667Y-68285714D01*
X118714286Y-68380952D01*
X118714286Y-68523810D01*
X118666667Y-68619048D01*
X118571429Y-68666667D01*
X118047619Y-68666667D01*
X118571429Y-68666667D02*
X118666667Y-68714286D01*
X118714286Y-68809524D01*
X118714286Y-68952381D01*
X118666667Y-69047619D01*
X118571429Y-69095238D01*
X118047619Y-69095238D01*
X120500000Y-30000000D02*
X120500000Y-97000000D01*
X119000000Y-30000000D02*
X121400000Y-30000000D01*
X119000000Y-97000000D02*
X121400000Y-97000000D01*
X120500000Y-97000000D02*
X119913579Y-95873496D01*
X120500000Y-97000000D02*
X121086421Y-95873496D01*
X120500000Y-30000000D02*
X119913579Y-31126504D01*
X120500000Y-30000000D02*
X121086421Y-31126504D01*
D10*
X93443334Y-87122381D02*
X93514763Y-87146190D01*
X93633810Y-87146190D01*
X93681429Y-87122381D01*
X93705239Y-87098571D01*
X93729048Y-87050952D01*
X93729048Y-87003333D01*
X93705239Y-86955714D01*
X93681429Y-86931905D01*
X93633810Y-86908095D01*
X93538572Y-86884286D01*
X93490953Y-86860476D01*
X93467144Y-86836667D01*
X93443334Y-86789048D01*
X93443334Y-86741429D01*
X93467144Y-86693810D01*
X93490953Y-86670000D01*
X93538572Y-86646190D01*
X93657620Y-86646190D01*
X93729048Y-86670000D01*
X93943334Y-87146190D02*
X93943334Y-86646190D01*
X94062381Y-86646190D01*
X94133810Y-86670000D01*
X94181429Y-86717619D01*
X94205238Y-86765238D01*
X94229048Y-86860476D01*
X94229048Y-86931905D01*
X94205238Y-87027143D01*
X94181429Y-87074762D01*
X94133810Y-87122381D01*
X94062381Y-87146190D01*
X93943334Y-87146190D01*
X94443334Y-86955714D02*
X94824286Y-86955714D01*
X95348096Y-87098571D02*
X95324286Y-87122381D01*
X95252858Y-87146190D01*
X95205239Y-87146190D01*
X95133810Y-87122381D01*
X95086191Y-87074762D01*
X95062382Y-87027143D01*
X95038572Y-86931905D01*
X95038572Y-86860476D01*
X95062382Y-86765238D01*
X95086191Y-86717619D01*
X95133810Y-86670000D01*
X95205239Y-86646190D01*
X95252858Y-86646190D01*
X95324286Y-86670000D01*
X95348096Y-86693810D01*
X95538572Y-87003333D02*
X95776667Y-87003333D01*
X95490953Y-87146190D02*
X95657620Y-86646190D01*
X95824286Y-87146190D01*
X96276667Y-87146190D02*
X96110000Y-86908095D01*
X95990953Y-87146190D02*
X95990953Y-86646190D01*
X96181429Y-86646190D01*
X96229048Y-86670000D01*
X96252857Y-86693810D01*
X96276667Y-86741429D01*
X96276667Y-86812857D01*
X96252857Y-86860476D01*
X96229048Y-86884286D01*
X96181429Y-86908095D01*
X95990953Y-86908095D01*
X96490953Y-87146190D02*
X96490953Y-86646190D01*
X96610000Y-86646190D01*
X96681429Y-86670000D01*
X96729048Y-86717619D01*
X96752857Y-86765238D01*
X96776667Y-86860476D01*
X96776667Y-86931905D01*
X96752857Y-87027143D01*
X96729048Y-87074762D01*
X96681429Y-87122381D01*
X96610000Y-87146190D01*
X96490953Y-87146190D01*
D12*
X95190000Y-88020000D02*
X94360000Y-88850000D01*
X95170000Y-88010000D02*
X95980000Y-88820000D01*
X95170000Y-91860000D02*
X95170000Y-88010000D01*
D10*
X69569048Y-40092857D02*
X69926191Y-40092857D01*
X69711905Y-39878571D02*
X69569048Y-40521429D01*
X69878572Y-40307143D02*
X69521429Y-40307143D01*
X69735715Y-40521429D02*
X69878572Y-39878571D01*
X70354762Y-40426190D02*
X70069048Y-40426190D01*
X70211905Y-40426190D02*
X70211905Y-39926190D01*
X70164286Y-39997619D01*
X70116667Y-40045238D01*
X70069048Y-40069048D01*
X70783333Y-39926190D02*
X70688095Y-39926190D01*
X70640476Y-39950000D01*
X70616667Y-39973810D01*
X70569048Y-40045238D01*
X70545238Y-40140476D01*
X70545238Y-40330952D01*
X70569048Y-40378571D01*
X70592857Y-40402381D01*
X70640476Y-40426190D01*
X70735714Y-40426190D01*
X70783333Y-40402381D01*
X70807143Y-40378571D01*
X70830952Y-40330952D01*
X70830952Y-40211905D01*
X70807143Y-40164286D01*
X70783333Y-40140476D01*
X70735714Y-40116667D01*
X70640476Y-40116667D01*
X70592857Y-40140476D01*
X70569048Y-40164286D01*
X70545238Y-40211905D01*
X69619048Y-42652857D02*
X69976191Y-42652857D01*
X69761905Y-42438571D02*
X69619048Y-43081429D01*
X69928572Y-42867143D02*
X69571429Y-42867143D01*
X69785715Y-43081429D02*
X69928572Y-42438571D01*
X70404762Y-42986190D02*
X70119048Y-42986190D01*
X70261905Y-42986190D02*
X70261905Y-42486190D01*
X70214286Y-42557619D01*
X70166667Y-42605238D01*
X70119048Y-42629048D01*
X70642857Y-42986190D02*
X70738095Y-42986190D01*
X70785714Y-42962381D01*
X70809524Y-42938571D01*
X70857143Y-42867143D01*
X70880952Y-42771905D01*
X70880952Y-42581429D01*
X70857143Y-42533810D01*
X70833333Y-42510000D01*
X70785714Y-42486190D01*
X70690476Y-42486190D01*
X70642857Y-42510000D01*
X70619048Y-42533810D01*
X70595238Y-42581429D01*
X70595238Y-42700476D01*
X70619048Y-42748095D01*
X70642857Y-42771905D01*
X70690476Y-42795714D01*
X70785714Y-42795714D01*
X70833333Y-42771905D01*
X70857143Y-42748095D01*
X70880952Y-42700476D01*
X69569048Y-45212857D02*
X69926191Y-45212857D01*
X69711905Y-44998571D02*
X69569048Y-45641429D01*
X69878572Y-45427143D02*
X69521429Y-45427143D01*
X69735715Y-45641429D02*
X69878572Y-44998571D01*
X70354762Y-45546190D02*
X70069048Y-45546190D01*
X70211905Y-45546190D02*
X70211905Y-45046190D01*
X70164286Y-45117619D01*
X70116667Y-45165238D01*
X70069048Y-45189048D01*
X70521429Y-45046190D02*
X70830952Y-45046190D01*
X70664286Y-45236667D01*
X70735714Y-45236667D01*
X70783333Y-45260476D01*
X70807143Y-45284286D01*
X70830952Y-45331905D01*
X70830952Y-45450952D01*
X70807143Y-45498571D01*
X70783333Y-45522381D01*
X70735714Y-45546190D01*
X70592857Y-45546190D01*
X70545238Y-45522381D01*
X70521429Y-45498571D01*
X69609048Y-47702857D02*
X69966191Y-47702857D01*
X69751905Y-47488571D02*
X69609048Y-48131429D01*
X69918572Y-47917143D02*
X69561429Y-47917143D01*
X69775715Y-48131429D02*
X69918572Y-47488571D01*
X70394762Y-48036190D02*
X70109048Y-48036190D01*
X70251905Y-48036190D02*
X70251905Y-47536190D01*
X70204286Y-47607619D01*
X70156667Y-47655238D01*
X70109048Y-47679048D01*
X70585238Y-47583810D02*
X70609048Y-47560000D01*
X70656667Y-47536190D01*
X70775714Y-47536190D01*
X70823333Y-47560000D01*
X70847143Y-47583810D01*
X70870952Y-47631429D01*
X70870952Y-47679048D01*
X70847143Y-47750476D01*
X70561429Y-48036190D01*
X70870952Y-48036190D01*
X69587143Y-50322857D02*
X69944286Y-50322857D01*
X69730000Y-50108571D02*
X69587143Y-50751429D01*
X69896667Y-50537143D02*
X69539524Y-50537143D01*
X69753810Y-50751429D02*
X69896667Y-50108571D01*
X70325238Y-50156190D02*
X70230000Y-50156190D01*
X70182381Y-50180000D01*
X70158572Y-50203810D01*
X70110953Y-50275238D01*
X70087143Y-50370476D01*
X70087143Y-50560952D01*
X70110953Y-50608571D01*
X70134762Y-50632381D01*
X70182381Y-50656190D01*
X70277619Y-50656190D01*
X70325238Y-50632381D01*
X70349048Y-50608571D01*
X70372857Y-50560952D01*
X70372857Y-50441905D01*
X70349048Y-50394286D01*
X70325238Y-50370476D01*
X70277619Y-50346667D01*
X70182381Y-50346667D01*
X70134762Y-50370476D01*
X70110953Y-50394286D01*
X70087143Y-50441905D01*
X69707143Y-52822857D02*
X70064286Y-52822857D01*
X69850000Y-52608571D02*
X69707143Y-53251429D01*
X70016667Y-53037143D02*
X69659524Y-53037143D01*
X69873810Y-53251429D02*
X70016667Y-52608571D01*
X70469048Y-52656190D02*
X70230953Y-52656190D01*
X70207143Y-52894286D01*
X70230953Y-52870476D01*
X70278572Y-52846667D01*
X70397619Y-52846667D01*
X70445238Y-52870476D01*
X70469048Y-52894286D01*
X70492857Y-52941905D01*
X70492857Y-53060952D01*
X70469048Y-53108571D01*
X70445238Y-53132381D01*
X70397619Y-53156190D01*
X70278572Y-53156190D01*
X70230953Y-53132381D01*
X70207143Y-53108571D01*
X69968572Y-55798571D02*
X69944762Y-55822381D01*
X69873334Y-55846190D01*
X69825715Y-55846190D01*
X69754286Y-55822381D01*
X69706667Y-55774762D01*
X69682858Y-55727143D01*
X69659048Y-55631905D01*
X69659048Y-55560476D01*
X69682858Y-55465238D01*
X69706667Y-55417619D01*
X69754286Y-55370000D01*
X69825715Y-55346190D01*
X69873334Y-55346190D01*
X69944762Y-55370000D01*
X69968572Y-55393810D01*
X70159048Y-55822381D02*
X70230477Y-55846190D01*
X70349524Y-55846190D01*
X70397143Y-55822381D01*
X70420953Y-55798571D01*
X70444762Y-55750952D01*
X70444762Y-55703333D01*
X70420953Y-55655714D01*
X70397143Y-55631905D01*
X70349524Y-55608095D01*
X70254286Y-55584286D01*
X70206667Y-55560476D01*
X70182858Y-55536667D01*
X70159048Y-55489048D01*
X70159048Y-55441429D01*
X70182858Y-55393810D01*
X70206667Y-55370000D01*
X70254286Y-55346190D01*
X70373334Y-55346190D01*
X70444762Y-55370000D01*
X70754286Y-55346190D02*
X70801905Y-55346190D01*
X70849524Y-55370000D01*
X70873333Y-55393810D01*
X70897143Y-55441429D01*
X70920952Y-55536667D01*
X70920952Y-55655714D01*
X70897143Y-55750952D01*
X70873333Y-55798571D01*
X70849524Y-55822381D01*
X70801905Y-55846190D01*
X70754286Y-55846190D01*
X70706667Y-55822381D01*
X70682857Y-55798571D01*
X70659048Y-55750952D01*
X70635238Y-55655714D01*
X70635238Y-55536667D01*
X70659048Y-55441429D01*
X70682857Y-55393810D01*
X70706667Y-55370000D01*
X70754286Y-55346190D01*
X69694762Y-58242381D02*
X69766191Y-58266190D01*
X69885238Y-58266190D01*
X69932857Y-58242381D01*
X69956667Y-58218571D01*
X69980476Y-58170952D01*
X69980476Y-58123333D01*
X69956667Y-58075714D01*
X69932857Y-58051905D01*
X69885238Y-58028095D01*
X69790000Y-58004286D01*
X69742381Y-57980476D01*
X69718572Y-57956667D01*
X69694762Y-57909048D01*
X69694762Y-57861429D01*
X69718572Y-57813810D01*
X69742381Y-57790000D01*
X69790000Y-57766190D01*
X69909048Y-57766190D01*
X69980476Y-57790000D01*
X70480476Y-58218571D02*
X70456666Y-58242381D01*
X70385238Y-58266190D01*
X70337619Y-58266190D01*
X70266190Y-58242381D01*
X70218571Y-58194762D01*
X70194762Y-58147143D01*
X70170952Y-58051905D01*
X70170952Y-57980476D01*
X70194762Y-57885238D01*
X70218571Y-57837619D01*
X70266190Y-57790000D01*
X70337619Y-57766190D01*
X70385238Y-57766190D01*
X70456666Y-57790000D01*
X70480476Y-57813810D01*
X70932857Y-58266190D02*
X70694762Y-58266190D01*
X70694762Y-57766190D01*
X71099524Y-58266190D02*
X71099524Y-57766190D01*
X71385238Y-58266190D02*
X71170952Y-57980476D01*
X71385238Y-57766190D02*
X71099524Y-58051905D01*
X69804286Y-60726190D02*
X69804286Y-60226190D01*
X69970952Y-60583333D01*
X70137619Y-60226190D01*
X70137619Y-60726190D01*
X70375715Y-60726190D02*
X70375715Y-60226190D01*
X70590000Y-60702381D02*
X70661429Y-60726190D01*
X70780476Y-60726190D01*
X70828095Y-60702381D01*
X70851905Y-60678571D01*
X70875714Y-60630952D01*
X70875714Y-60583333D01*
X70851905Y-60535714D01*
X70828095Y-60511905D01*
X70780476Y-60488095D01*
X70685238Y-60464286D01*
X70637619Y-60440476D01*
X70613810Y-60416667D01*
X70590000Y-60369048D01*
X70590000Y-60321429D01*
X70613810Y-60273810D01*
X70637619Y-60250000D01*
X70685238Y-60226190D01*
X70804286Y-60226190D01*
X70875714Y-60250000D01*
X71185238Y-60226190D02*
X71280476Y-60226190D01*
X71328095Y-60250000D01*
X71375714Y-60297619D01*
X71399523Y-60392857D01*
X71399523Y-60559524D01*
X71375714Y-60654762D01*
X71328095Y-60702381D01*
X71280476Y-60726190D01*
X71185238Y-60726190D01*
X71137619Y-60702381D01*
X71090000Y-60654762D01*
X71066190Y-60559524D01*
X71066190Y-60392857D01*
X71090000Y-60297619D01*
X71137619Y-60250000D01*
X71185238Y-60226190D01*
X69804286Y-63276190D02*
X69804286Y-62776190D01*
X69970952Y-63133333D01*
X70137619Y-62776190D01*
X70137619Y-63276190D01*
X70470953Y-62776190D02*
X70566191Y-62776190D01*
X70613810Y-62800000D01*
X70661429Y-62847619D01*
X70685238Y-62942857D01*
X70685238Y-63109524D01*
X70661429Y-63204762D01*
X70613810Y-63252381D01*
X70566191Y-63276190D01*
X70470953Y-63276190D01*
X70423334Y-63252381D01*
X70375715Y-63204762D01*
X70351905Y-63109524D01*
X70351905Y-62942857D01*
X70375715Y-62847619D01*
X70423334Y-62800000D01*
X70470953Y-62776190D01*
X70875715Y-63252381D02*
X70947144Y-63276190D01*
X71066191Y-63276190D01*
X71113810Y-63252381D01*
X71137620Y-63228571D01*
X71161429Y-63180952D01*
X71161429Y-63133333D01*
X71137620Y-63085714D01*
X71113810Y-63061905D01*
X71066191Y-63038095D01*
X70970953Y-63014286D01*
X70923334Y-62990476D01*
X70899525Y-62966667D01*
X70875715Y-62919048D01*
X70875715Y-62871429D01*
X70899525Y-62823810D01*
X70923334Y-62800000D01*
X70970953Y-62776190D01*
X71090001Y-62776190D01*
X71161429Y-62800000D01*
X71375715Y-63276190D02*
X71375715Y-62776190D01*
X69639048Y-65602857D02*
X69996191Y-65602857D01*
X69781905Y-65388571D02*
X69639048Y-66031429D01*
X69948572Y-65817143D02*
X69591429Y-65817143D01*
X69805715Y-66031429D02*
X69948572Y-65388571D01*
X70424762Y-65936190D02*
X70139048Y-65936190D01*
X70281905Y-65936190D02*
X70281905Y-65436190D01*
X70234286Y-65507619D01*
X70186667Y-65555238D01*
X70139048Y-65579048D01*
X70710476Y-65650476D02*
X70662857Y-65626667D01*
X70639048Y-65602857D01*
X70615238Y-65555238D01*
X70615238Y-65531429D01*
X70639048Y-65483810D01*
X70662857Y-65460000D01*
X70710476Y-65436190D01*
X70805714Y-65436190D01*
X70853333Y-65460000D01*
X70877143Y-65483810D01*
X70900952Y-65531429D01*
X70900952Y-65555238D01*
X70877143Y-65602857D01*
X70853333Y-65626667D01*
X70805714Y-65650476D01*
X70710476Y-65650476D01*
X70662857Y-65674286D01*
X70639048Y-65698095D01*
X70615238Y-65745714D01*
X70615238Y-65840952D01*
X70639048Y-65888571D01*
X70662857Y-65912381D01*
X70710476Y-65936190D01*
X70805714Y-65936190D01*
X70853333Y-65912381D01*
X70877143Y-65888571D01*
X70900952Y-65840952D01*
X70900952Y-65745714D01*
X70877143Y-65698095D01*
X70853333Y-65674286D01*
X70805714Y-65650476D01*
X69649048Y-68152857D02*
X70006191Y-68152857D01*
X69791905Y-67938571D02*
X69649048Y-68581429D01*
X69958572Y-68367143D02*
X69601429Y-68367143D01*
X69815715Y-68581429D02*
X69958572Y-67938571D01*
X70434762Y-68486190D02*
X70149048Y-68486190D01*
X70291905Y-68486190D02*
X70291905Y-67986190D01*
X70244286Y-68057619D01*
X70196667Y-68105238D01*
X70149048Y-68129048D01*
X70887143Y-67986190D02*
X70649048Y-67986190D01*
X70625238Y-68224286D01*
X70649048Y-68200476D01*
X70696667Y-68176667D01*
X70815714Y-68176667D01*
X70863333Y-68200476D01*
X70887143Y-68224286D01*
X70910952Y-68271905D01*
X70910952Y-68390952D01*
X70887143Y-68438571D01*
X70863333Y-68462381D01*
X70815714Y-68486190D01*
X70696667Y-68486190D01*
X70649048Y-68462381D01*
X70625238Y-68438571D01*
X69619048Y-70552857D02*
X69976191Y-70552857D01*
X69761905Y-70338571D02*
X69619048Y-70981429D01*
X69928572Y-70767143D02*
X69571429Y-70767143D01*
X69785715Y-70981429D02*
X69928572Y-70338571D01*
X70404762Y-70886190D02*
X70119048Y-70886190D01*
X70261905Y-70886190D02*
X70261905Y-70386190D01*
X70214286Y-70457619D01*
X70166667Y-70505238D01*
X70119048Y-70529048D01*
X70833333Y-70552857D02*
X70833333Y-70886190D01*
X70714286Y-70362381D02*
X70595238Y-70719524D01*
X70904762Y-70719524D01*
X69697143Y-73182857D02*
X70054286Y-73182857D01*
X69840000Y-72968571D02*
X69697143Y-73611429D01*
X70006667Y-73397143D02*
X69649524Y-73397143D01*
X69863810Y-73611429D02*
X70006667Y-72968571D01*
X70435238Y-73182857D02*
X70435238Y-73516190D01*
X70316191Y-72992381D02*
X70197143Y-73349524D01*
X70506667Y-73349524D01*
X69634762Y-75892857D02*
X69991905Y-75892857D01*
X69777619Y-75678571D02*
X69634762Y-76321429D01*
X69944286Y-76107143D02*
X69587143Y-76107143D01*
X69801429Y-76321429D02*
X69944286Y-75678571D01*
X70110953Y-75726190D02*
X70420476Y-75726190D01*
X70253810Y-75916667D01*
X70325238Y-75916667D01*
X70372857Y-75940476D01*
X70396667Y-75964286D01*
X70420476Y-76011905D01*
X70420476Y-76130952D01*
X70396667Y-76178571D01*
X70372857Y-76202381D01*
X70325238Y-76226190D01*
X70182381Y-76226190D01*
X70134762Y-76202381D01*
X70110953Y-76178571D01*
X70991904Y-75702381D02*
X70563333Y-76345238D01*
X71134762Y-76202381D02*
X71206191Y-76226190D01*
X71325238Y-76226190D01*
X71372857Y-76202381D01*
X71396667Y-76178571D01*
X71420476Y-76130952D01*
X71420476Y-76083333D01*
X71396667Y-76035714D01*
X71372857Y-76011905D01*
X71325238Y-75988095D01*
X71230000Y-75964286D01*
X71182381Y-75940476D01*
X71158572Y-75916667D01*
X71134762Y-75869048D01*
X71134762Y-75821429D01*
X71158572Y-75773810D01*
X71182381Y-75750000D01*
X71230000Y-75726190D01*
X71349048Y-75726190D01*
X71420476Y-75750000D01*
X71920476Y-76178571D02*
X71896666Y-76202381D01*
X71825238Y-76226190D01*
X71777619Y-76226190D01*
X71706190Y-76202381D01*
X71658571Y-76154762D01*
X71634762Y-76107143D01*
X71610952Y-76011905D01*
X71610952Y-75940476D01*
X71634762Y-75845238D01*
X71658571Y-75797619D01*
X71706190Y-75750000D01*
X71777619Y-75726190D01*
X71825238Y-75726190D01*
X71896666Y-75750000D01*
X71920476Y-75773810D01*
X72372857Y-76226190D02*
X72134762Y-76226190D01*
X72134762Y-75726190D01*
X69662858Y-78392857D02*
X70020001Y-78392857D01*
X69805715Y-78178571D02*
X69662858Y-78821429D01*
X69972382Y-78607143D02*
X69615239Y-78607143D01*
X69829525Y-78821429D02*
X69972382Y-78178571D01*
X70162858Y-78273810D02*
X70186668Y-78250000D01*
X70234287Y-78226190D01*
X70353334Y-78226190D01*
X70400953Y-78250000D01*
X70424763Y-78273810D01*
X70448572Y-78321429D01*
X70448572Y-78369048D01*
X70424763Y-78440476D01*
X70139049Y-78726190D01*
X70448572Y-78726190D01*
X71020000Y-78202381D02*
X70591429Y-78845238D01*
X71162858Y-78702381D02*
X71234287Y-78726190D01*
X71353334Y-78726190D01*
X71400953Y-78702381D01*
X71424763Y-78678571D01*
X71448572Y-78630952D01*
X71448572Y-78583333D01*
X71424763Y-78535714D01*
X71400953Y-78511905D01*
X71353334Y-78488095D01*
X71258096Y-78464286D01*
X71210477Y-78440476D01*
X71186668Y-78416667D01*
X71162858Y-78369048D01*
X71162858Y-78321429D01*
X71186668Y-78273810D01*
X71210477Y-78250000D01*
X71258096Y-78226190D01*
X71377144Y-78226190D01*
X71448572Y-78250000D01*
X71662858Y-78726190D02*
X71662858Y-78226190D01*
X71781905Y-78226190D01*
X71853334Y-78250000D01*
X71900953Y-78297619D01*
X71924762Y-78345238D01*
X71948572Y-78440476D01*
X71948572Y-78511905D01*
X71924762Y-78607143D01*
X71900953Y-78654762D01*
X71853334Y-78702381D01*
X71781905Y-78726190D01*
X71662858Y-78726190D01*
X72139048Y-78583333D02*
X72377143Y-78583333D01*
X72091429Y-78726190D02*
X72258096Y-78226190D01*
X72424762Y-78726190D01*
X69784763Y-80516190D02*
X69546668Y-80516190D01*
X69522858Y-80754286D01*
X69546668Y-80730476D01*
X69594287Y-80706667D01*
X69713334Y-80706667D01*
X69760953Y-80730476D01*
X69784763Y-80754286D01*
X69808572Y-80801905D01*
X69808572Y-80920952D01*
X69784763Y-80968571D01*
X69760953Y-80992381D01*
X69713334Y-81016190D01*
X69594287Y-81016190D01*
X69546668Y-80992381D01*
X69522858Y-80968571D01*
X69951429Y-80516190D02*
X70118096Y-81016190D01*
X70284762Y-80516190D01*
X69621906Y-83206190D02*
X69931429Y-83206190D01*
X69764763Y-83396667D01*
X69836191Y-83396667D01*
X69883810Y-83420476D01*
X69907620Y-83444286D01*
X69931429Y-83491905D01*
X69931429Y-83610952D01*
X69907620Y-83658571D01*
X69883810Y-83682381D01*
X69836191Y-83706190D01*
X69693334Y-83706190D01*
X69645715Y-83682381D01*
X69621906Y-83658571D01*
X70145715Y-83658571D02*
X70169524Y-83682381D01*
X70145715Y-83706190D01*
X70121905Y-83682381D01*
X70145715Y-83658571D01*
X70145715Y-83706190D01*
X70336191Y-83206190D02*
X70645714Y-83206190D01*
X70479048Y-83396667D01*
X70550476Y-83396667D01*
X70598095Y-83420476D01*
X70621905Y-83444286D01*
X70645714Y-83491905D01*
X70645714Y-83610952D01*
X70621905Y-83658571D01*
X70598095Y-83682381D01*
X70550476Y-83706190D01*
X70407619Y-83706190D01*
X70360000Y-83682381D01*
X70336191Y-83658571D01*
X70788571Y-83206190D02*
X70955238Y-83706190D01*
X71121904Y-83206190D01*
X69859047Y-85690000D02*
X69811428Y-85666190D01*
X69740000Y-85666190D01*
X69668571Y-85690000D01*
X69620952Y-85737619D01*
X69597143Y-85785238D01*
X69573333Y-85880476D01*
X69573333Y-85951905D01*
X69597143Y-86047143D01*
X69620952Y-86094762D01*
X69668571Y-86142381D01*
X69740000Y-86166190D01*
X69787619Y-86166190D01*
X69859047Y-86142381D01*
X69882857Y-86118571D01*
X69882857Y-85951905D01*
X69787619Y-85951905D01*
X70097143Y-86166190D02*
X70097143Y-85666190D01*
X70382857Y-86166190D01*
X70382857Y-85666190D01*
X70620953Y-86166190D02*
X70620953Y-85666190D01*
X70740000Y-85666190D01*
X70811429Y-85690000D01*
X70859048Y-85737619D01*
X70882857Y-85785238D01*
X70906667Y-85880476D01*
X70906667Y-85951905D01*
X70882857Y-86047143D01*
X70859048Y-86094762D01*
X70811429Y-86142381D01*
X70740000Y-86166190D01*
X70620953Y-86166190D01*
X57727620Y-64086190D02*
X57727620Y-63586190D01*
X57965715Y-64086190D02*
X57965715Y-63586190D01*
X58251429Y-64086190D01*
X58251429Y-63586190D01*
X58418096Y-63586190D02*
X58703810Y-63586190D01*
X58560953Y-64086190D02*
X58560953Y-63586190D01*
X57838572Y-66668571D02*
X57814762Y-66692381D01*
X57743334Y-66716190D01*
X57695715Y-66716190D01*
X57624286Y-66692381D01*
X57576667Y-66644762D01*
X57552858Y-66597143D01*
X57529048Y-66501905D01*
X57529048Y-66430476D01*
X57552858Y-66335238D01*
X57576667Y-66287619D01*
X57624286Y-66240000D01*
X57695715Y-66216190D01*
X57743334Y-66216190D01*
X57814762Y-66240000D01*
X57838572Y-66263810D01*
X58029048Y-66692381D02*
X58100477Y-66716190D01*
X58219524Y-66716190D01*
X58267143Y-66692381D01*
X58290953Y-66668571D01*
X58314762Y-66620952D01*
X58314762Y-66573333D01*
X58290953Y-66525714D01*
X58267143Y-66501905D01*
X58219524Y-66478095D01*
X58124286Y-66454286D01*
X58076667Y-66430476D01*
X58052858Y-66406667D01*
X58029048Y-66359048D01*
X58029048Y-66311429D01*
X58052858Y-66263810D01*
X58076667Y-66240000D01*
X58124286Y-66216190D01*
X58243334Y-66216190D01*
X58314762Y-66240000D01*
X58624286Y-66216190D02*
X58671905Y-66216190D01*
X58719524Y-66240000D01*
X58743333Y-66263810D01*
X58767143Y-66311429D01*
X58790952Y-66406667D01*
X58790952Y-66525714D01*
X58767143Y-66620952D01*
X58743333Y-66668571D01*
X58719524Y-66692381D01*
X58671905Y-66716190D01*
X58624286Y-66716190D01*
X58576667Y-66692381D01*
X58552857Y-66668571D01*
X58529048Y-66620952D01*
X58505238Y-66525714D01*
X58505238Y-66406667D01*
X58529048Y-66311429D01*
X58552857Y-66263810D01*
X58576667Y-66240000D01*
X58624286Y-66216190D01*
X57314762Y-69142381D02*
X57386191Y-69166190D01*
X57505238Y-69166190D01*
X57552857Y-69142381D01*
X57576667Y-69118571D01*
X57600476Y-69070952D01*
X57600476Y-69023333D01*
X57576667Y-68975714D01*
X57552857Y-68951905D01*
X57505238Y-68928095D01*
X57410000Y-68904286D01*
X57362381Y-68880476D01*
X57338572Y-68856667D01*
X57314762Y-68809048D01*
X57314762Y-68761429D01*
X57338572Y-68713810D01*
X57362381Y-68690000D01*
X57410000Y-68666190D01*
X57529048Y-68666190D01*
X57600476Y-68690000D01*
X58100476Y-69118571D02*
X58076666Y-69142381D01*
X58005238Y-69166190D01*
X57957619Y-69166190D01*
X57886190Y-69142381D01*
X57838571Y-69094762D01*
X57814762Y-69047143D01*
X57790952Y-68951905D01*
X57790952Y-68880476D01*
X57814762Y-68785238D01*
X57838571Y-68737619D01*
X57886190Y-68690000D01*
X57957619Y-68666190D01*
X58005238Y-68666190D01*
X58076666Y-68690000D01*
X58100476Y-68713810D01*
X58552857Y-69166190D02*
X58314762Y-69166190D01*
X58314762Y-68666190D01*
X58719524Y-69166190D02*
X58719524Y-68666190D01*
X59005238Y-69166190D02*
X58790952Y-68880476D01*
X59005238Y-68666190D02*
X58719524Y-68951905D01*
X57444286Y-71736190D02*
X57444286Y-71236190D01*
X57610952Y-71593333D01*
X57777619Y-71236190D01*
X57777619Y-71736190D01*
X58015715Y-71736190D02*
X58015715Y-71236190D01*
X58230000Y-71712381D02*
X58301429Y-71736190D01*
X58420476Y-71736190D01*
X58468095Y-71712381D01*
X58491905Y-71688571D01*
X58515714Y-71640952D01*
X58515714Y-71593333D01*
X58491905Y-71545714D01*
X58468095Y-71521905D01*
X58420476Y-71498095D01*
X58325238Y-71474286D01*
X58277619Y-71450476D01*
X58253810Y-71426667D01*
X58230000Y-71379048D01*
X58230000Y-71331429D01*
X58253810Y-71283810D01*
X58277619Y-71260000D01*
X58325238Y-71236190D01*
X58444286Y-71236190D01*
X58515714Y-71260000D01*
X58825238Y-71236190D02*
X58920476Y-71236190D01*
X58968095Y-71260000D01*
X59015714Y-71307619D01*
X59039523Y-71402857D01*
X59039523Y-71569524D01*
X59015714Y-71664762D01*
X58968095Y-71712381D01*
X58920476Y-71736190D01*
X58825238Y-71736190D01*
X58777619Y-71712381D01*
X58730000Y-71664762D01*
X58706190Y-71569524D01*
X58706190Y-71402857D01*
X58730000Y-71307619D01*
X58777619Y-71260000D01*
X58825238Y-71236190D01*
X57344286Y-74246190D02*
X57344286Y-73746190D01*
X57510952Y-74103333D01*
X57677619Y-73746190D01*
X57677619Y-74246190D01*
X58010953Y-73746190D02*
X58106191Y-73746190D01*
X58153810Y-73770000D01*
X58201429Y-73817619D01*
X58225238Y-73912857D01*
X58225238Y-74079524D01*
X58201429Y-74174762D01*
X58153810Y-74222381D01*
X58106191Y-74246190D01*
X58010953Y-74246190D01*
X57963334Y-74222381D01*
X57915715Y-74174762D01*
X57891905Y-74079524D01*
X57891905Y-73912857D01*
X57915715Y-73817619D01*
X57963334Y-73770000D01*
X58010953Y-73746190D01*
X58415715Y-74222381D02*
X58487144Y-74246190D01*
X58606191Y-74246190D01*
X58653810Y-74222381D01*
X58677620Y-74198571D01*
X58701429Y-74150952D01*
X58701429Y-74103333D01*
X58677620Y-74055714D01*
X58653810Y-74031905D01*
X58606191Y-74008095D01*
X58510953Y-73984286D01*
X58463334Y-73960476D01*
X58439525Y-73936667D01*
X58415715Y-73889048D01*
X58415715Y-73841429D01*
X58439525Y-73793810D01*
X58463334Y-73770000D01*
X58510953Y-73746190D01*
X58630001Y-73746190D01*
X58701429Y-73770000D01*
X58915715Y-74246190D02*
X58915715Y-73746190D01*
X57839047Y-76340000D02*
X57791428Y-76316190D01*
X57720000Y-76316190D01*
X57648571Y-76340000D01*
X57600952Y-76387619D01*
X57577143Y-76435238D01*
X57553333Y-76530476D01*
X57553333Y-76601905D01*
X57577143Y-76697143D01*
X57600952Y-76744762D01*
X57648571Y-76792381D01*
X57720000Y-76816190D01*
X57767619Y-76816190D01*
X57839047Y-76792381D01*
X57862857Y-76768571D01*
X57862857Y-76601905D01*
X57767619Y-76601905D01*
X58077143Y-76816190D02*
X58077143Y-76316190D01*
X58362857Y-76816190D01*
X58362857Y-76316190D01*
X58600953Y-76816190D02*
X58600953Y-76316190D01*
X58720000Y-76316190D01*
X58791429Y-76340000D01*
X58839048Y-76387619D01*
X58862857Y-76435238D01*
X58886667Y-76530476D01*
X58886667Y-76601905D01*
X58862857Y-76697143D01*
X58839048Y-76744762D01*
X58791429Y-76792381D01*
X58720000Y-76816190D01*
X58600953Y-76816190D01*
X57641906Y-78926190D02*
X57951429Y-78926190D01*
X57784763Y-79116667D01*
X57856191Y-79116667D01*
X57903810Y-79140476D01*
X57927620Y-79164286D01*
X57951429Y-79211905D01*
X57951429Y-79330952D01*
X57927620Y-79378571D01*
X57903810Y-79402381D01*
X57856191Y-79426190D01*
X57713334Y-79426190D01*
X57665715Y-79402381D01*
X57641906Y-79378571D01*
X58165715Y-79378571D02*
X58189524Y-79402381D01*
X58165715Y-79426190D01*
X58141905Y-79402381D01*
X58165715Y-79378571D01*
X58165715Y-79426190D01*
X58356191Y-78926190D02*
X58665714Y-78926190D01*
X58499048Y-79116667D01*
X58570476Y-79116667D01*
X58618095Y-79140476D01*
X58641905Y-79164286D01*
X58665714Y-79211905D01*
X58665714Y-79330952D01*
X58641905Y-79378571D01*
X58618095Y-79402381D01*
X58570476Y-79426190D01*
X58427619Y-79426190D01*
X58380000Y-79402381D01*
X58356191Y-79378571D01*
X58808571Y-78926190D02*
X58975238Y-79426190D01*
X59141904Y-78926190D01*
X109889048Y-37522857D02*
X110246191Y-37522857D01*
X110031905Y-37308571D02*
X109889048Y-37951429D01*
X110198572Y-37737143D02*
X109841429Y-37737143D01*
X110055715Y-37951429D02*
X110198572Y-37308571D01*
X110389048Y-37403810D02*
X110412858Y-37380000D01*
X110460477Y-37356190D01*
X110579524Y-37356190D01*
X110627143Y-37380000D01*
X110650953Y-37403810D01*
X110674762Y-37451429D01*
X110674762Y-37499048D01*
X110650953Y-37570476D01*
X110365239Y-37856190D01*
X110674762Y-37856190D01*
X111150952Y-37856190D02*
X110865238Y-37856190D01*
X111008095Y-37856190D02*
X111008095Y-37356190D01*
X110960476Y-37427619D01*
X110912857Y-37475238D01*
X110865238Y-37499048D01*
X102919047Y-37560000D02*
X102871428Y-37536190D01*
X102800000Y-37536190D01*
X102728571Y-37560000D01*
X102680952Y-37607619D01*
X102657143Y-37655238D01*
X102633333Y-37750476D01*
X102633333Y-37821905D01*
X102657143Y-37917143D01*
X102680952Y-37964762D01*
X102728571Y-38012381D01*
X102800000Y-38036190D01*
X102847619Y-38036190D01*
X102919047Y-38012381D01*
X102942857Y-37988571D01*
X102942857Y-37821905D01*
X102847619Y-37821905D01*
X103157143Y-38036190D02*
X103157143Y-37536190D01*
X103442857Y-38036190D01*
X103442857Y-37536190D01*
X103680953Y-38036190D02*
X103680953Y-37536190D01*
X103800000Y-37536190D01*
X103871429Y-37560000D01*
X103919048Y-37607619D01*
X103942857Y-37655238D01*
X103966667Y-37750476D01*
X103966667Y-37821905D01*
X103942857Y-37917143D01*
X103919048Y-37964762D01*
X103871429Y-38012381D01*
X103800000Y-38036190D01*
X103680953Y-38036190D01*
X109814763Y-85756190D02*
X109576668Y-85756190D01*
X109552858Y-85994286D01*
X109576668Y-85970476D01*
X109624287Y-85946667D01*
X109743334Y-85946667D01*
X109790953Y-85970476D01*
X109814763Y-85994286D01*
X109838572Y-86041905D01*
X109838572Y-86160952D01*
X109814763Y-86208571D01*
X109790953Y-86232381D01*
X109743334Y-86256190D01*
X109624287Y-86256190D01*
X109576668Y-86232381D01*
X109552858Y-86208571D01*
X109981429Y-85756190D02*
X110148096Y-86256190D01*
X110314762Y-85756190D01*
X102421906Y-85776190D02*
X102731429Y-85776190D01*
X102564763Y-85966667D01*
X102636191Y-85966667D01*
X102683810Y-85990476D01*
X102707620Y-86014286D01*
X102731429Y-86061905D01*
X102731429Y-86180952D01*
X102707620Y-86228571D01*
X102683810Y-86252381D01*
X102636191Y-86276190D01*
X102493334Y-86276190D01*
X102445715Y-86252381D01*
X102421906Y-86228571D01*
X102945715Y-86228571D02*
X102969524Y-86252381D01*
X102945715Y-86276190D01*
X102921905Y-86252381D01*
X102945715Y-86228571D01*
X102945715Y-86276190D01*
X103136191Y-85776190D02*
X103445714Y-85776190D01*
X103279048Y-85966667D01*
X103350476Y-85966667D01*
X103398095Y-85990476D01*
X103421905Y-86014286D01*
X103445714Y-86061905D01*
X103445714Y-86180952D01*
X103421905Y-86228571D01*
X103398095Y-86252381D01*
X103350476Y-86276190D01*
X103207619Y-86276190D01*
X103160000Y-86252381D01*
X103136191Y-86228571D01*
X103588571Y-85776190D02*
X103755238Y-86276190D01*
X103921904Y-85776190D01*
D13*
X87900000Y-33150000D02*
X88600000Y-33150000D01*
X88600000Y-34350000D02*
X87900000Y-34350000D01*
X97750000Y-32960000D02*
X105810000Y-32960000D01*
X105810000Y-32960000D02*
X105810000Y-30840000D01*
X105810000Y-30840000D02*
X97750000Y-30840000D01*
X97750000Y-30840000D02*
X97750000Y-32960000D01*
X96750000Y-32960000D02*
X95690000Y-32960000D01*
X95690000Y-32960000D02*
X95690000Y-31900000D01*
X104070000Y-84730000D02*
X104070000Y-36410000D01*
X104070000Y-36410000D02*
X109270000Y-36410000D01*
X109270000Y-36410000D02*
X109270000Y-87330000D01*
X109270000Y-87330000D02*
X106670000Y-87330000D01*
X106670000Y-87330000D02*
X106670000Y-84730000D01*
X106670000Y-84730000D02*
X104070000Y-84730000D01*
X104070000Y-86000000D02*
X104070000Y-87330000D01*
X104070000Y-87330000D02*
X105340000Y-87330000D01*
X98350000Y-39530000D02*
X97350000Y-39530000D01*
X97350000Y-38170000D02*
X98350000Y-38170000D01*
X83120000Y-33150000D02*
X83120000Y-32150000D01*
X84480000Y-32150000D02*
X84480000Y-33150000D01*
X98350000Y-37980000D02*
X97350000Y-37980000D01*
X97350000Y-36620000D02*
X98350000Y-36620000D01*
X81430000Y-33140000D02*
X81430000Y-32140000D01*
X82790000Y-32140000D02*
X82790000Y-33140000D01*
X98800000Y-36430000D02*
X97800000Y-36430000D01*
X97800000Y-35070000D02*
X98800000Y-35070000D01*
X93620000Y-33200000D02*
X93620000Y-32200000D01*
X94980000Y-32200000D02*
X94980000Y-33200000D01*
X97600000Y-34880000D02*
X96600000Y-34880000D01*
X96600000Y-33520000D02*
X97600000Y-33520000D01*
X92010000Y-33200000D02*
X92010000Y-32200000D01*
X93370000Y-32200000D02*
X93370000Y-33200000D01*
X65180000Y-82650000D02*
X65180000Y-83650000D01*
X63820000Y-83650000D02*
X63820000Y-82650000D01*
X63480000Y-82650000D02*
X63480000Y-83650000D01*
X62120000Y-83650000D02*
X62120000Y-82650000D01*
D14*
X87231172Y-35060000D02*
G75*
G03X87231172Y-35060000I-171172J0D01*
G01*
X89730000Y-34590000D02*
X86640000Y-34590000D01*
X86640000Y-34620000D02*
X86640000Y-37670000D01*
X86640000Y-37670000D02*
X89680000Y-37680000D01*
X89680000Y-37680000D02*
X89750000Y-37680000D01*
X89750000Y-37680000D02*
X89730000Y-34600000D01*
D13*
X62330000Y-77730000D02*
X62330000Y-62430000D01*
X62330000Y-62430000D02*
X59670000Y-62430000D01*
X59670000Y-62430000D02*
X59670000Y-77730000D01*
X59670000Y-77730000D02*
X62330000Y-77730000D01*
X62330000Y-79000000D02*
X62330000Y-80330000D01*
X62330000Y-80330000D02*
X61000000Y-80330000D01*
X73950000Y-33060000D02*
X76010000Y-33060000D01*
X76010000Y-33060000D02*
X76010000Y-30940000D01*
X76010000Y-30940000D02*
X73950000Y-30940000D01*
X73950000Y-30940000D02*
X73950000Y-33060000D01*
X72950000Y-33060000D02*
X71890000Y-33060000D01*
X71890000Y-33060000D02*
X71890000Y-32000000D01*
X66270000Y-41520000D02*
X66270000Y-87300000D01*
X66270000Y-87300000D02*
X68930000Y-87300000D01*
X68930000Y-87300000D02*
X68930000Y-41520000D01*
X68930000Y-41520000D02*
X66270000Y-41520000D01*
X66270000Y-40250000D02*
X66270000Y-38920000D01*
X66270000Y-38920000D02*
X67600000Y-38920000D01*
D15*
X86958334Y-32989286D02*
X86946429Y-33001190D01*
X86910715Y-33013095D01*
X86886905Y-33013095D01*
X86851191Y-33001190D01*
X86827382Y-32977381D01*
X86815477Y-32953571D01*
X86803572Y-32905952D01*
X86803572Y-32870238D01*
X86815477Y-32822619D01*
X86827382Y-32798810D01*
X86851191Y-32775000D01*
X86886905Y-32763095D01*
X86910715Y-32763095D01*
X86946429Y-32775000D01*
X86958334Y-32786905D01*
X87196429Y-33013095D02*
X87053572Y-33013095D01*
X87125001Y-33013095D02*
X87125001Y-32763095D01*
X87101191Y-32798810D01*
X87077382Y-32822619D01*
X87053572Y-32834524D01*
D10*
X106593334Y-31486190D02*
X106593334Y-31843333D01*
X106569524Y-31914762D01*
X106521905Y-31962381D01*
X106450477Y-31986190D01*
X106402858Y-31986190D01*
X107093333Y-31986190D02*
X106807619Y-31986190D01*
X106950476Y-31986190D02*
X106950476Y-31486190D01*
X106902857Y-31557619D01*
X106855238Y-31605238D01*
X106807619Y-31629048D01*
D14*
X106336667Y-87782381D02*
X106336667Y-88496667D01*
X106289047Y-88639524D01*
X106193809Y-88734762D01*
X106050952Y-88782381D01*
X105955714Y-88782381D01*
X106765238Y-87877619D02*
X106812857Y-87830000D01*
X106908095Y-87782381D01*
X107146191Y-87782381D01*
X107241429Y-87830000D01*
X107289048Y-87877619D01*
X107336667Y-87972857D01*
X107336667Y-88068095D01*
X107289048Y-88210952D01*
X106717619Y-88782381D01*
X107336667Y-88782381D01*
D15*
X100158334Y-38763095D02*
X100075001Y-38644048D01*
X100015477Y-38763095D02*
X100015477Y-38513095D01*
X100110715Y-38513095D01*
X100134524Y-38525000D01*
X100146429Y-38536905D01*
X100158334Y-38560714D01*
X100158334Y-38596429D01*
X100146429Y-38620238D01*
X100134524Y-38632143D01*
X100110715Y-38644048D01*
X100015477Y-38644048D01*
X100396429Y-38763095D02*
X100253572Y-38763095D01*
X100325001Y-38763095D02*
X100325001Y-38513095D01*
X100301191Y-38548810D01*
X100277382Y-38572619D01*
X100253572Y-38584524D01*
X83758334Y-30513095D02*
X83675001Y-30394048D01*
X83615477Y-30513095D02*
X83615477Y-30263095D01*
X83710715Y-30263095D01*
X83734524Y-30275000D01*
X83746429Y-30286905D01*
X83758334Y-30310714D01*
X83758334Y-30346429D01*
X83746429Y-30370238D01*
X83734524Y-30382143D01*
X83710715Y-30394048D01*
X83615477Y-30394048D01*
X83853572Y-30286905D02*
X83865477Y-30275000D01*
X83889286Y-30263095D01*
X83948810Y-30263095D01*
X83972620Y-30275000D01*
X83984524Y-30286905D01*
X83996429Y-30310714D01*
X83996429Y-30334524D01*
X83984524Y-30370238D01*
X83841667Y-30513095D01*
X83996429Y-30513095D01*
X100158334Y-37303095D02*
X100075001Y-37184048D01*
X100015477Y-37303095D02*
X100015477Y-37053095D01*
X100110715Y-37053095D01*
X100134524Y-37065000D01*
X100146429Y-37076905D01*
X100158334Y-37100714D01*
X100158334Y-37136429D01*
X100146429Y-37160238D01*
X100134524Y-37172143D01*
X100110715Y-37184048D01*
X100015477Y-37184048D01*
X100241667Y-37053095D02*
X100396429Y-37053095D01*
X100313096Y-37148333D01*
X100348810Y-37148333D01*
X100372620Y-37160238D01*
X100384524Y-37172143D01*
X100396429Y-37195952D01*
X100396429Y-37255476D01*
X100384524Y-37279286D01*
X100372620Y-37291190D01*
X100348810Y-37303095D01*
X100277382Y-37303095D01*
X100253572Y-37291190D01*
X100241667Y-37279286D01*
X82078334Y-30533095D02*
X81995001Y-30414048D01*
X81935477Y-30533095D02*
X81935477Y-30283095D01*
X82030715Y-30283095D01*
X82054524Y-30295000D01*
X82066429Y-30306905D01*
X82078334Y-30330714D01*
X82078334Y-30366429D01*
X82066429Y-30390238D01*
X82054524Y-30402143D01*
X82030715Y-30414048D01*
X81935477Y-30414048D01*
X82292620Y-30366429D02*
X82292620Y-30533095D01*
X82233096Y-30271190D02*
X82173572Y-30449762D01*
X82328334Y-30449762D01*
X100558334Y-35713095D02*
X100475001Y-35594048D01*
X100415477Y-35713095D02*
X100415477Y-35463095D01*
X100510715Y-35463095D01*
X100534524Y-35475000D01*
X100546429Y-35486905D01*
X100558334Y-35510714D01*
X100558334Y-35546429D01*
X100546429Y-35570238D01*
X100534524Y-35582143D01*
X100510715Y-35594048D01*
X100415477Y-35594048D01*
X100784524Y-35463095D02*
X100665477Y-35463095D01*
X100653572Y-35582143D01*
X100665477Y-35570238D01*
X100689286Y-35558333D01*
X100748810Y-35558333D01*
X100772620Y-35570238D01*
X100784524Y-35582143D01*
X100796429Y-35605952D01*
X100796429Y-35665476D01*
X100784524Y-35689286D01*
X100772620Y-35701190D01*
X100748810Y-35713095D01*
X100689286Y-35713095D01*
X100665477Y-35701190D01*
X100653572Y-35689286D01*
X94158334Y-30513095D02*
X94075001Y-30394048D01*
X94015477Y-30513095D02*
X94015477Y-30263095D01*
X94110715Y-30263095D01*
X94134524Y-30275000D01*
X94146429Y-30286905D01*
X94158334Y-30310714D01*
X94158334Y-30346429D01*
X94146429Y-30370238D01*
X94134524Y-30382143D01*
X94110715Y-30394048D01*
X94015477Y-30394048D01*
X94372620Y-30263095D02*
X94325001Y-30263095D01*
X94301191Y-30275000D01*
X94289286Y-30286905D01*
X94265477Y-30322619D01*
X94253572Y-30370238D01*
X94253572Y-30465476D01*
X94265477Y-30489286D01*
X94277382Y-30501190D01*
X94301191Y-30513095D01*
X94348810Y-30513095D01*
X94372620Y-30501190D01*
X94384524Y-30489286D01*
X94396429Y-30465476D01*
X94396429Y-30405952D01*
X94384524Y-30382143D01*
X94372620Y-30370238D01*
X94348810Y-30358333D01*
X94301191Y-30358333D01*
X94277382Y-30370238D01*
X94265477Y-30382143D01*
X94253572Y-30405952D01*
X99358334Y-34313095D02*
X99275001Y-34194048D01*
X99215477Y-34313095D02*
X99215477Y-34063095D01*
X99310715Y-34063095D01*
X99334524Y-34075000D01*
X99346429Y-34086905D01*
X99358334Y-34110714D01*
X99358334Y-34146429D01*
X99346429Y-34170238D01*
X99334524Y-34182143D01*
X99310715Y-34194048D01*
X99215477Y-34194048D01*
X99441667Y-34063095D02*
X99608334Y-34063095D01*
X99501191Y-34313095D01*
X92558334Y-30513095D02*
X92475001Y-30394048D01*
X92415477Y-30513095D02*
X92415477Y-30263095D01*
X92510715Y-30263095D01*
X92534524Y-30275000D01*
X92546429Y-30286905D01*
X92558334Y-30310714D01*
X92558334Y-30346429D01*
X92546429Y-30370238D01*
X92534524Y-30382143D01*
X92510715Y-30394048D01*
X92415477Y-30394048D01*
X92701191Y-30370238D02*
X92677382Y-30358333D01*
X92665477Y-30346429D01*
X92653572Y-30322619D01*
X92653572Y-30310714D01*
X92665477Y-30286905D01*
X92677382Y-30275000D01*
X92701191Y-30263095D01*
X92748810Y-30263095D01*
X92772620Y-30275000D01*
X92784524Y-30286905D01*
X92796429Y-30310714D01*
X92796429Y-30322619D01*
X92784524Y-30346429D01*
X92772620Y-30358333D01*
X92748810Y-30370238D01*
X92701191Y-30370238D01*
X92677382Y-30382143D01*
X92665477Y-30394048D01*
X92653572Y-30417857D01*
X92653572Y-30465476D01*
X92665477Y-30489286D01*
X92677382Y-30501190D01*
X92701191Y-30513095D01*
X92748810Y-30513095D01*
X92772620Y-30501190D01*
X92784524Y-30489286D01*
X92796429Y-30465476D01*
X92796429Y-30417857D01*
X92784524Y-30394048D01*
X92772620Y-30382143D01*
X92748810Y-30370238D01*
X64458334Y-85613095D02*
X64375001Y-85494048D01*
X64315477Y-85613095D02*
X64315477Y-85363095D01*
X64410715Y-85363095D01*
X64434524Y-85375000D01*
X64446429Y-85386905D01*
X64458334Y-85410714D01*
X64458334Y-85446429D01*
X64446429Y-85470238D01*
X64434524Y-85482143D01*
X64410715Y-85494048D01*
X64315477Y-85494048D01*
X64577382Y-85613095D02*
X64625001Y-85613095D01*
X64648810Y-85601190D01*
X64660715Y-85589286D01*
X64684524Y-85553571D01*
X64696429Y-85505952D01*
X64696429Y-85410714D01*
X64684524Y-85386905D01*
X64672620Y-85375000D01*
X64648810Y-85363095D01*
X64601191Y-85363095D01*
X64577382Y-85375000D01*
X64565477Y-85386905D01*
X64553572Y-85410714D01*
X64553572Y-85470238D01*
X64565477Y-85494048D01*
X64577382Y-85505952D01*
X64601191Y-85517857D01*
X64648810Y-85517857D01*
X64672620Y-85505952D01*
X64684524Y-85494048D01*
X64696429Y-85470238D01*
X62489286Y-85613095D02*
X62405953Y-85494048D01*
X62346429Y-85613095D02*
X62346429Y-85363095D01*
X62441667Y-85363095D01*
X62465476Y-85375000D01*
X62477381Y-85386905D01*
X62489286Y-85410714D01*
X62489286Y-85446429D01*
X62477381Y-85470238D01*
X62465476Y-85482143D01*
X62441667Y-85494048D01*
X62346429Y-85494048D01*
X62727381Y-85613095D02*
X62584524Y-85613095D01*
X62655953Y-85613095D02*
X62655953Y-85363095D01*
X62632143Y-85398810D01*
X62608334Y-85422619D01*
X62584524Y-85434524D01*
X62882143Y-85363095D02*
X62905952Y-85363095D01*
X62929762Y-85375000D01*
X62941667Y-85386905D01*
X62953571Y-85410714D01*
X62965476Y-85458333D01*
X62965476Y-85517857D01*
X62953571Y-85565476D01*
X62941667Y-85589286D01*
X62929762Y-85601190D01*
X62905952Y-85613095D01*
X62882143Y-85613095D01*
X62858333Y-85601190D01*
X62846429Y-85589286D01*
X62834524Y-85565476D01*
X62822619Y-85517857D01*
X62822619Y-85458333D01*
X62834524Y-85410714D01*
X62846429Y-85386905D01*
X62858333Y-85375000D01*
X62882143Y-85363095D01*
D10*
X87126190Y-36354762D02*
X87530952Y-36354762D01*
X87578571Y-36335714D01*
X87602381Y-36316667D01*
X87626190Y-36278571D01*
X87626190Y-36202381D01*
X87602381Y-36164286D01*
X87578571Y-36145238D01*
X87530952Y-36126190D01*
X87126190Y-36126190D01*
X87626190Y-35726190D02*
X87626190Y-35954762D01*
X87626190Y-35840476D02*
X87126190Y-35840476D01*
X87197619Y-35878571D01*
X87245238Y-35916666D01*
X87269048Y-35954762D01*
D14*
X60666667Y-80782381D02*
X60666667Y-81496667D01*
X60619047Y-81639524D01*
X60523809Y-81734762D01*
X60380952Y-81782381D01*
X60285714Y-81782381D01*
X61571429Y-81115714D02*
X61571429Y-81782381D01*
X61333333Y-80734762D02*
X61095238Y-81449048D01*
X61714286Y-81449048D01*
X70342381Y-32333333D02*
X71056667Y-32333333D01*
X71199524Y-32380953D01*
X71294762Y-32476191D01*
X71342381Y-32619048D01*
X71342381Y-32714286D01*
X70342381Y-31380952D02*
X70342381Y-31857143D01*
X70818571Y-31904762D01*
X70770952Y-31857143D01*
X70723333Y-31761905D01*
X70723333Y-31523809D01*
X70770952Y-31428571D01*
X70818571Y-31380952D01*
X70913810Y-31333333D01*
X71151905Y-31333333D01*
X71247143Y-31380952D01*
X71294762Y-31428571D01*
X71342381Y-31523809D01*
X71342381Y-31761905D01*
X71294762Y-31857143D01*
X71247143Y-31904762D01*
X67266667Y-37372381D02*
X67266667Y-38086667D01*
X67219047Y-38229524D01*
X67123809Y-38324762D01*
X66980952Y-38372381D01*
X66885714Y-38372381D01*
X67647619Y-37372381D02*
X68266667Y-37372381D01*
X67933333Y-37753333D01*
X68076191Y-37753333D01*
X68171429Y-37800952D01*
X68219048Y-37848571D01*
X68266667Y-37943810D01*
X68266667Y-38181905D01*
X68219048Y-38277143D01*
X68171429Y-38324762D01*
X68076191Y-38372381D01*
X67790476Y-38372381D01*
X67695238Y-38324762D01*
X67647619Y-38277143D01*
M02*
