M48
;DRILL file {KiCad 4.0.6-e0-6349~53~ubuntu16.04.1} date Tue Jul  4 14:56:29 2017
;FORMAT={-:-/ absolute / metric / decimal}
FMAT,2
METRIC,TZ
T1C0.300
T2C0.400
T3C0.800
T4C1.000
%
G90
G05
M71
T1
X88.4Y-57.
X89.75Y-61.75
X89.95Y-57.
X90.8Y-59.05
T2
X67.6Y-80.89
X74.25Y-87.55
X83.8Y-37.2
X84.6Y-56.9
X85.Y-38.35
X86.6Y-42.95
X90.95Y-74.25
X92.7Y-38.35
X93.1Y-39.25
X93.95Y-56.875
X94.25Y-35.3
X94.25Y-37.
X99.Y-76.8
X99.85Y-78.7
X100.325Y-73.15
X100.65Y-80.6
X101.45Y-82.65
X102.05Y-46.3
X102.1Y-42.35
X102.45Y-81.1
X103.05Y-43.75
X105.4Y-37.74
X112.37Y-52.02
T3
X72.95Y-32.
X74.95Y-32.
X96.75Y-31.9
X98.75Y-31.9
X100.75Y-31.9
X102.75Y-31.9
X104.75Y-31.9
T4
X61.Y-63.76
X61.Y-66.3
X61.Y-68.84
X61.Y-71.38
X61.Y-73.92
X61.Y-76.46
X61.Y-79.
X67.6Y-40.25
X67.6Y-42.79
X67.6Y-45.33
X67.6Y-47.87
X67.6Y-50.41
X67.6Y-52.95
X67.6Y-55.49
X67.6Y-58.03
X67.6Y-60.57
X67.6Y-63.11
X67.6Y-65.65
X67.6Y-68.19
X67.6Y-70.73
X67.6Y-73.27
X67.6Y-75.81
X67.6Y-78.35
X67.6Y-80.89
X67.6Y-83.43
X67.6Y-85.97
X105.4Y-37.74
X105.4Y-40.28
X105.4Y-42.82
X105.4Y-45.36
X105.4Y-47.9
X105.4Y-50.44
X105.4Y-52.98
X105.4Y-55.52
X105.4Y-58.06
X105.4Y-60.6
X105.4Y-63.14
X105.4Y-65.68
X105.4Y-68.22
X105.4Y-70.76
X105.4Y-73.3
X105.4Y-75.84
X105.4Y-78.38
X105.4Y-80.92
X105.4Y-83.46
X105.4Y-86.
X107.94Y-37.74
X107.94Y-40.28
X107.94Y-42.82
X107.94Y-45.36
X107.94Y-47.9
X107.94Y-50.44
X107.94Y-52.98
X107.94Y-55.52
X107.94Y-58.06
X107.94Y-60.6
X107.94Y-63.14
X107.94Y-65.68
X107.94Y-68.22
X107.94Y-70.76
X107.94Y-73.3
X107.94Y-75.84
X107.94Y-78.38
X107.94Y-80.92
X107.94Y-83.46
X107.94Y-86.
T0
M30
