G04 #@! TF.FileFunction,Soldermask,Bot*
%FSLAX46Y46*%
G04 Gerber Fmt 4.6, Leading zero omitted, Abs format (unit mm)*
G04 Created by KiCad (PCBNEW 4.0.6-e0-6349~53~ubuntu16.04.1) date Tue Jul  4 14:55:03 2017*
%MOMM*%
%LPD*%
G01*
G04 APERTURE LIST*
%ADD10C,0.100000*%
%ADD11R,2.398980X2.398980*%
%ADD12C,2.900000*%
%ADD13R,2.900000X2.900000*%
%ADD14R,2.100000X2.100000*%
%ADD15O,2.100000X2.100000*%
%ADD16R,2.000000X2.000000*%
%ADD17O,2.000000X2.000000*%
%ADD18C,1.750000*%
%ADD19C,1.300000*%
G04 APERTURE END LIST*
D10*
D11*
X170025000Y-33751500D03*
X152975000Y-33751500D03*
X170072500Y-73248500D03*
X152927500Y-73248500D03*
D12*
X154500000Y-26000000D03*
X159500000Y-26000000D03*
X164500000Y-26000000D03*
X169500000Y-26000000D03*
X174500000Y-26000000D03*
X179500000Y-26000000D03*
X184500000Y-26000000D03*
X189500000Y-26000000D03*
X194500000Y-26000000D03*
X199500000Y-26000000D03*
D13*
X209500000Y-26000000D03*
D12*
X204500000Y-26000000D03*
D14*
X204300000Y-33400000D03*
D15*
X201760000Y-33400000D03*
X199220000Y-33400000D03*
X196680000Y-33400000D03*
D12*
X209250000Y-123500000D03*
X204250000Y-123500000D03*
X199250000Y-123500000D03*
X194250000Y-123500000D03*
X189250000Y-123500000D03*
X184250000Y-123500000D03*
X179250000Y-123500000D03*
X174250000Y-123500000D03*
X169250000Y-123500000D03*
X164250000Y-123500000D03*
D13*
X154250000Y-123500000D03*
D12*
X159250000Y-123500000D03*
D14*
X205250000Y-88750000D03*
D15*
X207790000Y-88750000D03*
X205250000Y-86210000D03*
X207790000Y-86210000D03*
X205250000Y-83670000D03*
X207790000Y-83670000D03*
X205250000Y-81130000D03*
X207790000Y-81130000D03*
X205250000Y-78590000D03*
X207790000Y-78590000D03*
X205250000Y-76050000D03*
X207790000Y-76050000D03*
X205250000Y-73510000D03*
X207790000Y-73510000D03*
X205250000Y-70970000D03*
X207790000Y-70970000D03*
X205250000Y-68430000D03*
X207790000Y-68430000D03*
X205250000Y-65890000D03*
X207790000Y-65890000D03*
X205250000Y-63350000D03*
X207790000Y-63350000D03*
X205250000Y-60810000D03*
X207790000Y-60810000D03*
X205250000Y-58270000D03*
X207790000Y-58270000D03*
X205250000Y-55730000D03*
X207790000Y-55730000D03*
X205250000Y-53190000D03*
X207790000Y-53190000D03*
X205250000Y-50650000D03*
X207790000Y-50650000D03*
X205250000Y-48110000D03*
X207790000Y-48110000D03*
X205250000Y-45570000D03*
X207790000Y-45570000D03*
X205250000Y-43030000D03*
X207790000Y-43030000D03*
X205250000Y-40490000D03*
X207790000Y-40490000D03*
D16*
X174510000Y-85610000D03*
D17*
X154190000Y-93230000D03*
X171970000Y-85610000D03*
X156730000Y-93230000D03*
X169430000Y-85610000D03*
X159270000Y-93230000D03*
X166890000Y-85610000D03*
X161810000Y-93230000D03*
X164350000Y-85610000D03*
X164350000Y-93230000D03*
X161810000Y-85610000D03*
X166890000Y-93230000D03*
X159270000Y-85610000D03*
X169430000Y-93230000D03*
X156730000Y-85610000D03*
X171970000Y-93230000D03*
X154190000Y-85610000D03*
X174510000Y-93230000D03*
D16*
X187700000Y-39400000D03*
D17*
X185160000Y-47020000D03*
X185160000Y-39400000D03*
X187700000Y-47020000D03*
D16*
X181700000Y-39400000D03*
D17*
X179160000Y-47020000D03*
X179160000Y-39400000D03*
X181700000Y-47020000D03*
D16*
X175700000Y-39400000D03*
D17*
X173160000Y-47020000D03*
X173160000Y-39400000D03*
X175700000Y-47020000D03*
D16*
X193700000Y-39400000D03*
D17*
X191160000Y-47020000D03*
X191160000Y-39400000D03*
X193700000Y-47020000D03*
D18*
X158250000Y-116570000D03*
D19*
X152250000Y-114570000D03*
X164250000Y-114570000D03*
D18*
X164250000Y-102370000D03*
X152250000Y-102370000D03*
X174310000Y-116550000D03*
D19*
X168310000Y-114550000D03*
X180310000Y-114550000D03*
D18*
X180310000Y-102350000D03*
X168310000Y-102350000D03*
X190420000Y-116460000D03*
D19*
X184420000Y-114460000D03*
X196420000Y-114460000D03*
D18*
X196420000Y-102260000D03*
X184420000Y-102260000D03*
X206510000Y-116370000D03*
D19*
X200510000Y-114370000D03*
X212510000Y-114370000D03*
D18*
X212510000Y-102170000D03*
X200510000Y-102170000D03*
M02*
