G04 #@! TF.FileFunction,Copper,L1,Top,Signal*
%FSLAX46Y46*%
G04 Gerber Fmt 4.6, Leading zero omitted, Abs format (unit mm)*
G04 Created by KiCad (PCBNEW 4.0.6-e0-6349~53~ubuntu16.04.1) date Tue Jul  4 14:55:03 2017*
%MOMM*%
%LPD*%
G01*
G04 APERTURE LIST*
%ADD10C,0.100000*%
%ADD11R,1.998980X1.998980*%
%ADD12R,0.750000X1.200000*%
%ADD13C,2.500000*%
%ADD14R,2.500000X2.500000*%
%ADD15R,1.700000X1.700000*%
%ADD16O,1.700000X1.700000*%
%ADD17R,0.900000X1.200000*%
%ADD18R,1.200000X0.900000*%
%ADD19R,1.600000X1.600000*%
%ADD20O,1.600000X1.600000*%
%ADD21R,1.200000X0.750000*%
%ADD22R,3.300000X1.700000*%
%ADD23R,2.000000X3.800000*%
%ADD24R,2.000000X1.500000*%
%ADD25C,1.350000*%
%ADD26C,0.900000*%
%ADD27C,0.600000*%
%ADD28C,0.600000*%
%ADD29C,0.250000*%
%ADD30C,1.000000*%
%ADD31C,0.350000*%
%ADD32C,0.254000*%
G04 APERTURE END LIST*
D10*
D11*
X170025000Y-33751500D03*
X152975000Y-33751500D03*
X170072500Y-73248500D03*
X152927500Y-73248500D03*
D12*
X151580000Y-89200000D03*
X151580000Y-87300000D03*
D13*
X154500000Y-26000000D03*
X159500000Y-26000000D03*
X164500000Y-26000000D03*
X169500000Y-26000000D03*
X174500000Y-26000000D03*
X179500000Y-26000000D03*
X184500000Y-26000000D03*
X189500000Y-26000000D03*
X194500000Y-26000000D03*
X199500000Y-26000000D03*
D14*
X209500000Y-26000000D03*
D13*
X204500000Y-26000000D03*
D15*
X204300000Y-33400000D03*
D16*
X201760000Y-33400000D03*
X199220000Y-33400000D03*
X196680000Y-33400000D03*
D13*
X209250000Y-123500000D03*
X204250000Y-123500000D03*
X199250000Y-123500000D03*
X194250000Y-123500000D03*
X189250000Y-123500000D03*
X184250000Y-123500000D03*
X179250000Y-123500000D03*
X174250000Y-123500000D03*
X169250000Y-123500000D03*
X164250000Y-123500000D03*
D14*
X154250000Y-123500000D03*
D13*
X159250000Y-123500000D03*
D15*
X205250000Y-88750000D03*
D16*
X207790000Y-88750000D03*
X205250000Y-86210000D03*
X207790000Y-86210000D03*
X205250000Y-83670000D03*
X207790000Y-83670000D03*
X205250000Y-81130000D03*
X207790000Y-81130000D03*
X205250000Y-78590000D03*
X207790000Y-78590000D03*
X205250000Y-76050000D03*
X207790000Y-76050000D03*
X205250000Y-73510000D03*
X207790000Y-73510000D03*
X205250000Y-70970000D03*
X207790000Y-70970000D03*
X205250000Y-68430000D03*
X207790000Y-68430000D03*
X205250000Y-65890000D03*
X207790000Y-65890000D03*
X205250000Y-63350000D03*
X207790000Y-63350000D03*
X205250000Y-60810000D03*
X207790000Y-60810000D03*
X205250000Y-58270000D03*
X207790000Y-58270000D03*
X205250000Y-55730000D03*
X207790000Y-55730000D03*
X205250000Y-53190000D03*
X207790000Y-53190000D03*
X205250000Y-50650000D03*
X207790000Y-50650000D03*
X205250000Y-48110000D03*
X207790000Y-48110000D03*
X205250000Y-45570000D03*
X207790000Y-45570000D03*
X205250000Y-43030000D03*
X207790000Y-43030000D03*
X205250000Y-40490000D03*
X207790000Y-40490000D03*
D17*
X187750000Y-36100000D03*
X187750000Y-33900000D03*
X185750000Y-36100000D03*
X185750000Y-33900000D03*
X181750000Y-36100000D03*
X181750000Y-33900000D03*
X183750000Y-36100000D03*
X183750000Y-33900000D03*
X179750000Y-36100000D03*
X179750000Y-33900000D03*
X177750000Y-36100000D03*
X177750000Y-33900000D03*
X173750000Y-36100000D03*
X173750000Y-33900000D03*
X175750000Y-36100000D03*
X175750000Y-33900000D03*
D18*
X191400000Y-49400000D03*
X193600000Y-49400000D03*
X185600000Y-49500000D03*
X187800000Y-49500000D03*
X179550000Y-49550000D03*
X181750000Y-49550000D03*
X173450000Y-49550000D03*
X175650000Y-49550000D03*
D19*
X174510000Y-85610000D03*
D20*
X154190000Y-93230000D03*
X171970000Y-85610000D03*
X156730000Y-93230000D03*
X169430000Y-85610000D03*
X159270000Y-93230000D03*
X166890000Y-85610000D03*
X161810000Y-93230000D03*
X164350000Y-85610000D03*
X164350000Y-93230000D03*
X161810000Y-85610000D03*
X166890000Y-93230000D03*
X159270000Y-85610000D03*
X169430000Y-93230000D03*
X156730000Y-85610000D03*
X171970000Y-93230000D03*
X154190000Y-85610000D03*
X174510000Y-93230000D03*
D19*
X187700000Y-39400000D03*
D20*
X185160000Y-47020000D03*
X185160000Y-39400000D03*
X187700000Y-47020000D03*
D19*
X181700000Y-39400000D03*
D20*
X179160000Y-47020000D03*
X179160000Y-39400000D03*
X181700000Y-47020000D03*
D19*
X175700000Y-39400000D03*
D20*
X173160000Y-47020000D03*
X173160000Y-39400000D03*
X175700000Y-47020000D03*
D19*
X193700000Y-39400000D03*
D20*
X191160000Y-47020000D03*
X191160000Y-39400000D03*
X193700000Y-47020000D03*
D21*
X181550000Y-57500000D03*
X183450000Y-57500000D03*
X181550000Y-60250000D03*
X183450000Y-60250000D03*
D22*
X156000000Y-97500000D03*
X161500000Y-97500000D03*
X172250000Y-97500000D03*
X177750000Y-97500000D03*
X189000000Y-97500000D03*
X194500000Y-97500000D03*
X205000000Y-97500000D03*
X210500000Y-97500000D03*
D23*
X172850000Y-60100000D03*
D24*
X179150000Y-60100000D03*
X179150000Y-57800000D03*
X179150000Y-62400000D03*
D25*
X158250000Y-116570000D03*
D26*
X152250000Y-114570000D03*
X164250000Y-114570000D03*
D25*
X164250000Y-102370000D03*
X152250000Y-102370000D03*
X174310000Y-116550000D03*
D26*
X168310000Y-114550000D03*
X180310000Y-114550000D03*
D25*
X180310000Y-102350000D03*
X168310000Y-102350000D03*
X190420000Y-116460000D03*
D26*
X184420000Y-114460000D03*
X196420000Y-114460000D03*
D25*
X196420000Y-102260000D03*
X184420000Y-102260000D03*
X206510000Y-116370000D03*
D26*
X200510000Y-114370000D03*
X212510000Y-114370000D03*
D25*
X212510000Y-102170000D03*
X200510000Y-102170000D03*
D27*
X199400000Y-84300000D03*
X200850000Y-36650000D03*
X172800000Y-65200000D03*
X174800000Y-70600000D03*
X200400000Y-73000000D03*
X176150000Y-59000000D03*
X176100000Y-53200000D03*
X184700000Y-51050000D03*
X189500000Y-50100000D03*
X181200000Y-51900000D03*
X167525000Y-97275000D03*
X183100000Y-96700000D03*
X176050000Y-51150000D03*
X179350000Y-79000000D03*
X187900000Y-52750000D03*
X204950000Y-92100000D03*
D28*
X205000000Y-97500000D02*
X201320000Y-97500000D01*
X198540000Y-112400000D02*
X200520000Y-114380000D01*
X198540000Y-100280000D02*
X198540000Y-112400000D01*
X201320000Y-97500000D02*
X198540000Y-100280000D01*
X200520000Y-114380000D02*
X200520000Y-118500000D01*
X195950000Y-126250000D02*
X195250000Y-126250000D01*
X196770000Y-125430000D02*
X195950000Y-126250000D01*
X196770000Y-122250000D02*
X196770000Y-125430000D01*
X200520000Y-118500000D02*
X196770000Y-122250000D01*
X184420000Y-114460000D02*
X184420000Y-119880000D01*
X184420000Y-119880000D02*
X181810000Y-122490000D01*
X181810000Y-122490000D02*
X181810000Y-124860000D01*
X181810000Y-124860000D02*
X180420000Y-126250000D01*
X189000000Y-97500000D02*
X184970000Y-97500000D01*
X182610000Y-112650000D02*
X184420000Y-114460000D01*
X182610000Y-99860000D02*
X182610000Y-112650000D01*
X184970000Y-97500000D02*
X182610000Y-99860000D01*
X168310000Y-114550000D02*
X168310000Y-121030000D01*
X166800000Y-125590000D02*
X166140000Y-126250000D01*
X166800000Y-122540000D02*
X166800000Y-125590000D01*
X168310000Y-121030000D02*
X166800000Y-122540000D01*
X172250000Y-97500000D02*
X169310000Y-97500000D01*
X168310000Y-113500000D02*
X168310000Y-114550000D01*
X166730000Y-111920000D02*
X168310000Y-113500000D01*
X166730000Y-111320000D02*
X166730000Y-111920000D01*
X166730000Y-100080000D02*
X166730000Y-111320000D01*
X169310000Y-97500000D02*
X166730000Y-100080000D01*
X156000000Y-97500000D02*
X152510000Y-97500000D01*
X150480000Y-112800000D02*
X152250000Y-114570000D01*
X150480000Y-99530000D02*
X150480000Y-112800000D01*
X152510000Y-97500000D02*
X150480000Y-99530000D01*
X152250000Y-114570000D02*
X152250000Y-120360000D01*
X152250000Y-120360000D02*
X151300000Y-121310000D01*
X151300000Y-121310000D02*
X151300000Y-125540000D01*
X151300000Y-125540000D02*
X152010000Y-126250000D01*
X152010000Y-126250000D02*
X165250000Y-126250000D01*
X152200000Y-114520000D02*
X152250000Y-114570000D01*
X172250000Y-97500000D02*
X170675000Y-97500000D01*
X179150000Y-57800000D02*
X176100000Y-57800000D01*
X176100000Y-57800000D02*
X175100000Y-58800000D01*
X175100000Y-58800000D02*
X175100000Y-68200000D01*
X175100000Y-68200000D02*
X173700000Y-69600000D01*
X173700000Y-69600000D02*
X173700000Y-69621000D01*
X181550000Y-57500000D02*
X179450000Y-57500000D01*
X179450000Y-57500000D02*
X179150000Y-57800000D01*
X179450000Y-57500000D02*
X179150000Y-57800000D01*
X180420000Y-126250000D02*
X195250000Y-126250000D01*
X172250000Y-97500000D02*
X171100000Y-97500000D01*
X154190000Y-93230000D02*
X154190000Y-93290000D01*
X154190000Y-93290000D02*
X156000000Y-95100000D01*
X156000000Y-95100000D02*
X156000000Y-97500000D01*
X180250000Y-126250000D02*
X180420000Y-126250000D01*
X204320000Y-93220000D02*
X205780000Y-93220000D01*
X205780000Y-93220000D02*
X207790000Y-91210000D01*
X154190000Y-93230000D02*
X154190000Y-90300000D01*
X154190000Y-90300000D02*
X153090000Y-89200000D01*
X172390000Y-89200000D02*
X174990000Y-89200000D01*
X204320000Y-93220000D02*
X179010000Y-93220000D01*
X207790000Y-88750000D02*
X207790000Y-91210000D01*
X172390000Y-89200000D02*
X153090000Y-89200000D01*
X174990000Y-89200000D02*
X179010000Y-93220000D01*
X153090000Y-89200000D02*
X151580000Y-89200000D01*
X170072500Y-73248500D02*
X173700000Y-69621000D01*
D29*
X207790000Y-86210000D02*
X207790000Y-88750000D01*
D28*
X165250000Y-126250000D02*
X166140000Y-126250000D01*
X166140000Y-126250000D02*
X180250000Y-126250000D01*
X209890000Y-42700000D02*
X209890000Y-43140000D01*
X209890000Y-43140000D02*
X210450000Y-43700000D01*
X206875308Y-36650000D02*
X206880000Y-36650000D01*
X209875002Y-42700000D02*
X209890000Y-42700000D01*
X209875002Y-39645002D02*
X209875002Y-42700000D01*
X206880000Y-36650000D02*
X209875002Y-39645002D01*
X205825000Y-36650000D02*
X206875308Y-36650000D01*
X205825000Y-36650000D02*
X201350000Y-36650000D01*
X210500000Y-43700000D02*
X210450000Y-43700000D01*
X210500000Y-49650000D02*
X210500000Y-43700000D01*
X183450000Y-57500000D02*
X183450000Y-56250000D01*
X171800000Y-54800000D02*
X170500000Y-56100000D01*
X182000000Y-54800000D02*
X171800000Y-54800000D01*
X183450000Y-56250000D02*
X182000000Y-54800000D01*
X179150000Y-62400000D02*
X182100000Y-62400000D01*
X183450000Y-61050000D02*
X183450000Y-60250000D01*
X182100000Y-62400000D02*
X183450000Y-61050000D01*
X183450000Y-57500000D02*
X183450000Y-60250000D01*
X193840000Y-45660000D02*
X191160000Y-45660000D01*
X195900000Y-39550000D02*
X195900000Y-43600000D01*
X198800000Y-36650000D02*
X195900000Y-39550000D01*
X195900000Y-43600000D02*
X193840000Y-45660000D01*
X158240000Y-84065000D02*
X154750000Y-84065000D01*
X154190000Y-84750000D02*
X154190000Y-85610000D01*
X154750000Y-84065000D02*
X154190000Y-84750000D01*
X160210000Y-79580000D02*
X160210000Y-82220000D01*
X160210000Y-82220000D02*
X158240000Y-84065000D01*
X166490000Y-73248500D02*
X166490000Y-73300000D01*
X166490000Y-73300000D02*
X160210000Y-79580000D01*
X154190000Y-85610000D02*
X154190000Y-86390000D01*
X153280000Y-87300000D02*
X151580000Y-87300000D01*
X154190000Y-86390000D02*
X153280000Y-87300000D01*
X154190000Y-85610000D02*
X154190000Y-85600000D01*
X207790000Y-48110000D02*
X208960000Y-48110000D01*
X208960000Y-48110000D02*
X210500000Y-49650000D01*
X201350000Y-36650000D02*
X200850000Y-36650000D01*
X203100000Y-80740000D02*
X205250000Y-78590000D01*
X203100000Y-85100000D02*
X203100000Y-80740000D01*
X202600000Y-85600000D02*
X203100000Y-85100000D01*
X200700000Y-85600000D02*
X202600000Y-85600000D01*
X199400000Y-84300000D02*
X200700000Y-85600000D01*
X207790000Y-53190000D02*
X208790000Y-53190000D01*
X208790000Y-53190000D02*
X210500000Y-54900000D01*
X207790000Y-65890000D02*
X209140000Y-65890000D01*
X209140000Y-65890000D02*
X210500000Y-67250000D01*
X207790000Y-73510000D02*
X209360000Y-73510000D01*
X209360000Y-73510000D02*
X210500000Y-74650000D01*
X207790000Y-83670000D02*
X208880000Y-83670000D01*
X201350000Y-36650000D02*
X198800000Y-36650000D01*
X210500000Y-82050000D02*
X210500000Y-74650000D01*
X210500000Y-74650000D02*
X210500000Y-67250000D01*
X210500000Y-67250000D02*
X210500000Y-54900000D01*
X210500000Y-54900000D02*
X210500000Y-49650000D01*
X208880000Y-83670000D02*
X210500000Y-82050000D01*
D30*
X152975000Y-33751500D02*
X152975000Y-73201000D01*
X152975000Y-73201000D02*
X152927500Y-73248500D01*
X154500000Y-26000000D02*
X154500000Y-32226500D01*
X154500000Y-32226500D02*
X152975000Y-33751500D01*
D28*
X173160000Y-47020000D02*
X171480000Y-47020000D01*
X171480000Y-47020000D02*
X170500000Y-48000000D01*
X170500000Y-48000000D02*
X170500000Y-56100000D01*
X170500000Y-56100000D02*
X170500000Y-59000000D01*
X166501500Y-73248500D02*
X170500000Y-69250000D01*
X170500000Y-69250000D02*
X170500000Y-59000000D01*
X166490000Y-73248500D02*
X166501500Y-73248500D01*
X185160000Y-47020000D02*
X185160000Y-46960000D01*
X185160000Y-46960000D02*
X183300000Y-45100000D01*
X179160000Y-47020000D02*
X179160000Y-46940000D01*
X179160000Y-46940000D02*
X181000000Y-45100000D01*
X173160000Y-47020000D02*
X173160000Y-45940000D01*
X191160000Y-45660000D02*
X191160000Y-47020000D01*
X190600000Y-45100000D02*
X191160000Y-45660000D01*
X189800000Y-45100000D02*
X190600000Y-45100000D01*
X189300000Y-45100000D02*
X189800000Y-45100000D01*
X174000000Y-45100000D02*
X181000000Y-45100000D01*
X181000000Y-45100000D02*
X183300000Y-45100000D01*
X183300000Y-45100000D02*
X189300000Y-45100000D01*
X173160000Y-45940000D02*
X174000000Y-45100000D01*
D29*
X205250000Y-78590000D02*
X205340000Y-78590000D01*
D28*
X152927500Y-73248500D02*
X159060000Y-73248500D01*
X159060000Y-73248500D02*
X159790000Y-73248500D01*
X159790000Y-73248500D02*
X161501500Y-73248500D01*
X161501500Y-73248500D02*
X166490000Y-73248500D01*
X152975000Y-73201000D02*
X152927500Y-73248500D01*
X176650000Y-71000000D02*
X175200000Y-71000000D01*
X172850000Y-65150000D02*
X172850000Y-60100000D01*
X172800000Y-65200000D02*
X172850000Y-65150000D01*
X175200000Y-71000000D02*
X174800000Y-70600000D01*
X178250000Y-59960000D02*
X180835000Y-59960000D01*
X180835000Y-59960000D02*
X181125000Y-60250000D01*
X178550000Y-73000000D02*
X178500000Y-73000000D01*
X178550000Y-73000000D02*
X200400000Y-73000000D01*
X176650000Y-60500000D02*
X176650000Y-71000000D01*
X176650000Y-71000000D02*
X176650000Y-71150000D01*
X177190000Y-59960000D02*
X176650000Y-60500000D01*
X178250000Y-59960000D02*
X177190000Y-59960000D01*
X178500000Y-73000000D02*
X176650000Y-71150000D01*
X177110000Y-59960000D02*
X178250000Y-59960000D01*
X176150000Y-59000000D02*
X177110000Y-59960000D01*
X175050000Y-52150000D02*
X176100000Y-53200000D01*
X173450000Y-50550000D02*
X175050000Y-52150000D01*
X179150000Y-52150000D02*
X180950000Y-52150000D01*
X179150000Y-52150000D02*
X179550000Y-51750000D01*
X175050000Y-52150000D02*
X179150000Y-52150000D01*
X185600000Y-50150000D02*
X185600000Y-49500000D01*
X184700000Y-51050000D02*
X185600000Y-50150000D01*
X180950000Y-52150000D02*
X181200000Y-51900000D01*
X190200000Y-49400000D02*
X191400000Y-49400000D01*
X189500000Y-50100000D02*
X190200000Y-49400000D01*
X173450000Y-49550000D02*
X173450000Y-50550000D01*
X179550000Y-51750000D02*
X179550000Y-49550000D01*
X161500000Y-97500000D02*
X161500000Y-111820000D01*
X161500000Y-111820000D02*
X164250000Y-114570000D01*
X159600000Y-97500000D02*
X159600000Y-95680000D01*
X159600000Y-95680000D02*
X156730000Y-93230000D01*
X156730000Y-92990000D02*
X156730000Y-93090000D01*
X159600000Y-97500000D02*
X160750000Y-97500000D01*
X160750000Y-97500000D02*
X161250000Y-98000000D01*
X177750000Y-97500000D02*
X177750000Y-111990000D01*
X177750000Y-111990000D02*
X180310000Y-114550000D01*
X159270000Y-93230000D02*
X159280000Y-93230000D01*
X159280000Y-93230000D02*
X161075000Y-95025000D01*
X161075000Y-95025000D02*
X162700000Y-95025000D01*
X162700000Y-95025000D02*
X164950000Y-97275000D01*
X164950000Y-97275000D02*
X167525000Y-97275000D01*
X183100000Y-96700000D02*
X182300000Y-97500000D01*
X182300000Y-97500000D02*
X177750000Y-97500000D01*
X159270000Y-92990000D02*
X159270000Y-93130000D01*
X177250000Y-97500000D02*
X178000000Y-98250000D01*
X194500000Y-97500000D02*
X194500000Y-112540000D01*
X194500000Y-112540000D02*
X196420000Y-114460000D01*
X161810000Y-93230000D02*
X162205000Y-93230000D01*
X162205000Y-93230000D02*
X164645000Y-95670000D01*
X165300000Y-95670000D02*
X164645000Y-95670000D01*
X165300000Y-95670000D02*
X190736878Y-95670000D01*
X190736878Y-95670000D02*
X192600000Y-97500000D01*
X192600000Y-97500000D02*
X193500000Y-97500000D01*
X210500000Y-97500000D02*
X210500000Y-112360000D01*
X210500000Y-112360000D02*
X212510000Y-114370000D01*
X210500000Y-97500000D02*
X210300000Y-97500000D01*
X210300000Y-97500000D02*
X207590000Y-94790000D01*
X207590000Y-94790000D02*
X205830346Y-94790000D01*
X167430000Y-94790000D02*
X165910000Y-94790000D01*
X165910000Y-94790000D02*
X164350000Y-93230000D01*
X167430000Y-94790000D02*
X205830346Y-94790000D01*
X209750000Y-97500000D02*
X210250000Y-98000000D01*
D30*
X212510000Y-102170000D02*
X212510000Y-112170000D01*
X214050000Y-118700000D02*
X209250000Y-123500000D01*
X214050000Y-113710000D02*
X214050000Y-118700000D01*
X212510000Y-112170000D02*
X214050000Y-113710000D01*
X206510000Y-116370000D02*
X206510000Y-121240000D01*
X206510000Y-121240000D02*
X204250000Y-123500000D01*
X200510000Y-102170000D02*
X200520000Y-102170000D01*
X200520000Y-102170000D02*
X202430000Y-104080000D01*
X202430000Y-104080000D02*
X202430000Y-120320000D01*
X202430000Y-120320000D02*
X199250000Y-123500000D01*
X196420000Y-102260000D02*
X196420000Y-111990000D01*
X194250000Y-121330000D02*
X194250000Y-123500000D01*
X198230000Y-117350000D02*
X194250000Y-121330000D01*
X198230000Y-113800000D02*
X198230000Y-117350000D01*
X196420000Y-111990000D02*
X198230000Y-113800000D01*
X190420000Y-116460000D02*
X190420000Y-122330000D01*
X190420000Y-122330000D02*
X189250000Y-123500000D01*
X184420000Y-102260000D02*
X184420000Y-102360000D01*
X184420000Y-102360000D02*
X186330000Y-104270000D01*
X186330000Y-104270000D02*
X186330000Y-121420000D01*
X186330000Y-121420000D02*
X184250000Y-123500000D01*
X180310000Y-102350000D02*
X180310000Y-111940000D01*
X181950000Y-120800000D02*
X179250000Y-123500000D01*
X181950000Y-113580000D02*
X181950000Y-120800000D01*
X180310000Y-111940000D02*
X181950000Y-113580000D01*
X174310000Y-116550000D02*
X174310000Y-123440000D01*
X174310000Y-123440000D02*
X174250000Y-123500000D01*
X168310000Y-102350000D02*
X168310000Y-102370000D01*
X168310000Y-102370000D02*
X170550000Y-104610000D01*
X170550000Y-104610000D02*
X170550000Y-122200000D01*
X170550000Y-122200000D02*
X169250000Y-123500000D01*
X164250000Y-102370000D02*
X164250000Y-111860000D01*
X166080000Y-121670000D02*
X164250000Y-123500000D01*
X166080000Y-113690000D02*
X166080000Y-121670000D01*
X164250000Y-111860000D02*
X166080000Y-113690000D01*
X152250000Y-102370000D02*
X152330000Y-102370000D01*
X152330000Y-102370000D02*
X154250000Y-104290000D01*
X154250000Y-104290000D02*
X154250000Y-123500000D01*
X158250000Y-116570000D02*
X158250000Y-122500000D01*
X158250000Y-122500000D02*
X159250000Y-123500000D01*
X158250000Y-122500000D02*
X159250000Y-123500000D01*
X159500000Y-26000000D02*
X164500000Y-26000000D01*
X164500000Y-26000000D02*
X164500000Y-31500000D01*
X166751500Y-33751500D02*
X170025000Y-33751500D01*
X164500000Y-31500000D02*
X166751500Y-33751500D01*
D31*
X174500000Y-26000000D02*
X174500000Y-33150000D01*
X174500000Y-33150000D02*
X173750000Y-33900000D01*
X179500000Y-26000000D02*
X179500000Y-33650000D01*
X179500000Y-33650000D02*
X179750000Y-33900000D01*
X184500000Y-26000000D02*
X184500000Y-31150000D01*
X184500000Y-31150000D02*
X181750000Y-33900000D01*
X189500000Y-26000000D02*
X189500000Y-32150000D01*
X189500000Y-32150000D02*
X187750000Y-33900000D01*
X196680000Y-33400000D02*
X196680000Y-28180000D01*
X196680000Y-28180000D02*
X194500000Y-26000000D01*
X199220000Y-33400000D02*
X199220000Y-26280000D01*
X199220000Y-26280000D02*
X199500000Y-26000000D01*
X199550000Y-33070000D02*
X199220000Y-33400000D01*
X204300000Y-33400000D02*
X204300000Y-31200000D01*
X204300000Y-31200000D02*
X209500000Y-26000000D01*
X201760000Y-33400000D02*
X201760000Y-28740000D01*
X201760000Y-28740000D02*
X204500000Y-26000000D01*
X187750000Y-36100000D02*
X192500000Y-36100000D01*
X193700000Y-37300000D02*
X193700000Y-39400000D01*
X192500000Y-36100000D02*
X193700000Y-37300000D01*
X185750000Y-36100000D02*
X187750000Y-36100000D01*
X183750000Y-36100000D02*
X183750000Y-37150000D01*
X186300000Y-38000000D02*
X187700000Y-39400000D01*
X184600000Y-38000000D02*
X186300000Y-38000000D01*
X183750000Y-37150000D02*
X184600000Y-38000000D01*
X181750000Y-36100000D02*
X183750000Y-36100000D01*
X179750000Y-36100000D02*
X179750000Y-37450000D01*
X179750000Y-37450000D02*
X181700000Y-39400000D01*
X177750000Y-36100000D02*
X179750000Y-36100000D01*
X175750000Y-36100000D02*
X175750000Y-39350000D01*
X175750000Y-39350000D02*
X175700000Y-39400000D01*
X173750000Y-36100000D02*
X175750000Y-36100000D01*
X206800000Y-37600000D02*
X209150000Y-39950000D01*
X209150000Y-42800000D02*
X208920000Y-43030000D01*
X209150000Y-39950000D02*
X209150000Y-42800000D01*
X206800000Y-37600000D02*
X206750000Y-37550000D01*
X207790000Y-43030000D02*
X208920000Y-43030000D01*
X196700000Y-39900000D02*
X199050000Y-37550000D01*
X193730000Y-47020000D02*
X196700000Y-44050000D01*
X199050000Y-37550000D02*
X206750000Y-37550000D01*
X196700000Y-44050000D02*
X196700000Y-39900000D01*
X193700000Y-47020000D02*
X193730000Y-47020000D01*
X193700000Y-47020000D02*
X193700000Y-49300000D01*
X193700000Y-49300000D02*
X193600000Y-49400000D01*
X199150000Y-38300000D02*
X197350000Y-40100000D01*
X207790000Y-40490000D02*
X207790000Y-40440000D01*
X207790000Y-40440000D02*
X205650000Y-38300000D01*
X205650000Y-38300000D02*
X199150000Y-38300000D01*
X197350000Y-40100000D02*
X197350000Y-50150000D01*
X197350000Y-50150000D02*
X196350000Y-51150000D01*
X196350000Y-51150000D02*
X188600000Y-51150000D01*
X188600000Y-51150000D02*
X187800000Y-50350000D01*
X187800000Y-50350000D02*
X187800000Y-49500000D01*
X187700000Y-47020000D02*
X187700000Y-49400000D01*
X187700000Y-49400000D02*
X187800000Y-49500000D01*
X181750000Y-49550000D02*
X181750000Y-51400000D01*
X201320000Y-70970000D02*
X201870000Y-70970000D01*
X181750000Y-51400000D02*
X201320000Y-70970000D01*
X201870000Y-70970000D02*
X205250000Y-70970000D01*
X181700000Y-47020000D02*
X181700000Y-49500000D01*
X181700000Y-49500000D02*
X181750000Y-49550000D01*
X176050000Y-51150000D02*
X175650000Y-50750000D01*
X175650000Y-50750000D02*
X175650000Y-49550000D01*
X175700000Y-47020000D02*
X175700000Y-49500000D01*
X175700000Y-49500000D02*
X175650000Y-49550000D01*
X167940000Y-82000000D02*
X167460000Y-82000000D01*
X167460000Y-82000000D02*
X164350000Y-85610000D01*
X168130000Y-82000000D02*
X167940000Y-82000000D01*
X168130000Y-82000000D02*
X200500000Y-82000000D01*
X200500000Y-82000000D02*
X201750000Y-80750000D01*
X201750000Y-80750000D02*
X201750000Y-75250000D01*
X201750000Y-75250000D02*
X203490000Y-73510000D01*
X203490000Y-73510000D02*
X205250000Y-73510000D01*
X164350000Y-85370000D02*
X164350000Y-85280000D01*
X167090000Y-81050000D02*
X165870000Y-81050000D01*
X165870000Y-81050000D02*
X161810000Y-85610000D01*
X167550000Y-81050000D02*
X167090000Y-81050000D01*
X205250000Y-43030000D02*
X199020002Y-43030000D01*
X177300000Y-81050000D02*
X167550000Y-81050000D01*
X179350000Y-79000000D02*
X177300000Y-81050000D01*
X188700000Y-51950000D02*
X187900000Y-52750000D01*
X196650000Y-51950000D02*
X188700000Y-51950000D01*
X198000000Y-50600000D02*
X196650000Y-51950000D01*
X198000000Y-44050002D02*
X198000000Y-50600000D01*
X199020002Y-43030000D02*
X198000000Y-44050002D01*
X203670000Y-92360000D02*
X204690000Y-92360000D01*
X204690000Y-92360000D02*
X204950000Y-92100000D01*
X160230000Y-88350000D02*
X159470000Y-88350000D01*
X159470000Y-88350000D02*
X156730000Y-85610000D01*
X173930000Y-88350000D02*
X175165308Y-88350000D01*
X179197654Y-92382346D02*
X179197654Y-92336543D01*
X175165308Y-88350000D02*
X179197654Y-92382346D01*
X173930000Y-88350000D02*
X160230000Y-88350000D01*
X179197654Y-92336543D02*
X179220000Y-92360000D01*
X179220000Y-92360000D02*
X203670000Y-92360000D01*
D28*
X173160000Y-39400000D02*
X173160000Y-38360000D01*
X171900000Y-28400000D02*
X169500000Y-26000000D01*
X171900000Y-37100000D02*
X171900000Y-28400000D01*
X173160000Y-38360000D02*
X171900000Y-37100000D01*
X185160000Y-39400000D02*
X185160000Y-39940000D01*
X185160000Y-39940000D02*
X183600000Y-41500000D01*
X179160000Y-39400000D02*
X179160000Y-39760000D01*
X179160000Y-39760000D02*
X180900000Y-41500000D01*
X173160000Y-39400000D02*
X173160000Y-40860000D01*
X191160000Y-41040000D02*
X191160000Y-39400000D01*
X190700000Y-41500000D02*
X191160000Y-41040000D01*
X173800000Y-41500000D02*
X180900000Y-41500000D01*
X180900000Y-41500000D02*
X183600000Y-41500000D01*
X183600000Y-41500000D02*
X190700000Y-41500000D01*
X173160000Y-40860000D02*
X173800000Y-41500000D01*
X183750000Y-33900000D02*
X183750000Y-33250000D01*
X185300000Y-22700000D02*
X175600000Y-22700000D01*
X187000000Y-24400000D02*
X185300000Y-22700000D01*
X187000000Y-30000000D02*
X187000000Y-24400000D01*
X183750000Y-33250000D02*
X187000000Y-30000000D01*
X185750000Y-33900000D02*
X183750000Y-33900000D01*
X175750000Y-33900000D02*
X177750000Y-33900000D01*
X169500000Y-26000000D02*
X169500000Y-23500000D01*
X170300000Y-22700000D02*
X175600000Y-22700000D01*
X169500000Y-23500000D02*
X170300000Y-22700000D01*
X177000000Y-32650000D02*
X175750000Y-33900000D01*
X175600000Y-22700000D02*
X177000000Y-24100000D01*
X177000000Y-24100000D02*
X177000000Y-32650000D01*
D32*
G36*
X191348265Y-22426868D02*
X191354805Y-25552828D01*
X191098957Y-24933628D01*
X190569161Y-24402907D01*
X189876595Y-24115328D01*
X189126695Y-24114674D01*
X188433628Y-24401043D01*
X187902907Y-24930839D01*
X187615328Y-25623405D01*
X187614674Y-26373305D01*
X187901043Y-27066372D01*
X188430839Y-27597093D01*
X188690000Y-27704706D01*
X188690000Y-31814487D01*
X187851928Y-32652560D01*
X187300000Y-32652560D01*
X187064683Y-32696838D01*
X186848559Y-32835910D01*
X186753010Y-32975750D01*
X186738327Y-32940302D01*
X186559699Y-32761673D01*
X186326310Y-32665000D01*
X186035750Y-32665000D01*
X185877000Y-32823750D01*
X185877000Y-33773000D01*
X185897000Y-33773000D01*
X185897000Y-34027000D01*
X185877000Y-34027000D01*
X185877000Y-34047000D01*
X185623000Y-34047000D01*
X185623000Y-34027000D01*
X184823750Y-34027000D01*
X184750000Y-34100750D01*
X184676250Y-34027000D01*
X183877000Y-34027000D01*
X183877000Y-34047000D01*
X183623000Y-34047000D01*
X183623000Y-34027000D01*
X183603000Y-34027000D01*
X183603000Y-33773000D01*
X183623000Y-33773000D01*
X183623000Y-33753000D01*
X183877000Y-33753000D01*
X183877000Y-33773000D01*
X184676250Y-33773000D01*
X184750000Y-33699250D01*
X184823750Y-33773000D01*
X185623000Y-33773000D01*
X185623000Y-32823750D01*
X185464250Y-32665000D01*
X185173690Y-32665000D01*
X184940301Y-32761673D01*
X184761673Y-32940302D01*
X184750000Y-32968483D01*
X184738327Y-32940302D01*
X184559699Y-32761673D01*
X184326310Y-32665000D01*
X184130513Y-32665000D01*
X185072756Y-31722757D01*
X185221597Y-31500000D01*
X185248342Y-31459974D01*
X185310000Y-31150000D01*
X185310000Y-27704888D01*
X185566372Y-27598957D01*
X186097093Y-27069161D01*
X186384672Y-26376595D01*
X186385326Y-25626695D01*
X186098957Y-24933628D01*
X185569161Y-24402907D01*
X184876595Y-24115328D01*
X184126695Y-24114674D01*
X183433628Y-24401043D01*
X182902907Y-24930839D01*
X182615328Y-25623405D01*
X182614674Y-26373305D01*
X182901043Y-27066372D01*
X183430839Y-27597093D01*
X183690000Y-27704706D01*
X183690000Y-30814487D01*
X181851928Y-32652560D01*
X181300000Y-32652560D01*
X181064683Y-32696838D01*
X180848559Y-32835910D01*
X180749367Y-32981083D01*
X180664090Y-32848559D01*
X180451890Y-32703569D01*
X180310000Y-32674836D01*
X180310000Y-27704888D01*
X180566372Y-27598957D01*
X181097093Y-27069161D01*
X181384672Y-26376595D01*
X181385326Y-25626695D01*
X181098957Y-24933628D01*
X180569161Y-24402907D01*
X179876595Y-24115328D01*
X179126695Y-24114674D01*
X178433628Y-24401043D01*
X177902907Y-24930839D01*
X177615328Y-25623405D01*
X177614674Y-26373305D01*
X177901043Y-27066372D01*
X178430839Y-27597093D01*
X178690000Y-27704706D01*
X178690000Y-32891975D01*
X178559699Y-32761673D01*
X178326310Y-32665000D01*
X178035750Y-32665000D01*
X177877000Y-32823750D01*
X177877000Y-33773000D01*
X177897000Y-33773000D01*
X177897000Y-34027000D01*
X177877000Y-34027000D01*
X177877000Y-34047000D01*
X177623000Y-34047000D01*
X177623000Y-34027000D01*
X176823750Y-34027000D01*
X176750000Y-34100750D01*
X176676250Y-34027000D01*
X175877000Y-34027000D01*
X175877000Y-34047000D01*
X175623000Y-34047000D01*
X175623000Y-34027000D01*
X175603000Y-34027000D01*
X175603000Y-33773000D01*
X175623000Y-33773000D01*
X175623000Y-32823750D01*
X175877000Y-32823750D01*
X175877000Y-33773000D01*
X176676250Y-33773000D01*
X176750000Y-33699250D01*
X176823750Y-33773000D01*
X177623000Y-33773000D01*
X177623000Y-32823750D01*
X177464250Y-32665000D01*
X177173690Y-32665000D01*
X176940301Y-32761673D01*
X176761673Y-32940302D01*
X176750000Y-32968483D01*
X176738327Y-32940302D01*
X176559699Y-32761673D01*
X176326310Y-32665000D01*
X176035750Y-32665000D01*
X175877000Y-32823750D01*
X175623000Y-32823750D01*
X175464250Y-32665000D01*
X175310000Y-32665000D01*
X175310000Y-27704888D01*
X175566372Y-27598957D01*
X176097093Y-27069161D01*
X176384672Y-26376595D01*
X176385326Y-25626695D01*
X176098957Y-24933628D01*
X175569161Y-24402907D01*
X174876595Y-24115328D01*
X174126695Y-24114674D01*
X173433628Y-24401043D01*
X172902907Y-24930839D01*
X172615328Y-25623405D01*
X172614674Y-26373305D01*
X172901043Y-27066372D01*
X173430839Y-27597093D01*
X173690000Y-27704706D01*
X173690000Y-32652560D01*
X173300000Y-32652560D01*
X173064683Y-32696838D01*
X172848559Y-32835910D01*
X172703569Y-33048110D01*
X172652560Y-33300000D01*
X172652560Y-34500000D01*
X172696838Y-34735317D01*
X172835910Y-34951441D01*
X172905711Y-34999134D01*
X172848559Y-35035910D01*
X172703569Y-35248110D01*
X172652560Y-35500000D01*
X172652560Y-36700000D01*
X172696838Y-36935317D01*
X172835910Y-37151441D01*
X173048110Y-37296431D01*
X173300000Y-37347440D01*
X174200000Y-37347440D01*
X174435317Y-37303162D01*
X174651441Y-37164090D01*
X174750633Y-37018917D01*
X174835910Y-37151441D01*
X174940000Y-37222563D01*
X174940000Y-37952560D01*
X174900000Y-37952560D01*
X174664683Y-37996838D01*
X174448559Y-38135910D01*
X174303569Y-38348110D01*
X174271268Y-38507616D01*
X173897423Y-38168959D01*
X173509039Y-38008096D01*
X173287000Y-38130085D01*
X173287000Y-39273000D01*
X173307000Y-39273000D01*
X173307000Y-39527000D01*
X173287000Y-39527000D01*
X173287000Y-40669915D01*
X173509039Y-40791904D01*
X173897423Y-40631041D01*
X174270136Y-40293410D01*
X174296838Y-40435317D01*
X174435910Y-40651441D01*
X174648110Y-40796431D01*
X174900000Y-40847440D01*
X176500000Y-40847440D01*
X176735317Y-40803162D01*
X176951441Y-40664090D01*
X177096431Y-40451890D01*
X177147440Y-40200000D01*
X177147440Y-39749041D01*
X177768086Y-39749041D01*
X178007611Y-40255134D01*
X178422577Y-40631041D01*
X178810961Y-40791904D01*
X179033000Y-40669915D01*
X179033000Y-39527000D01*
X177889371Y-39527000D01*
X177768086Y-39749041D01*
X177147440Y-39749041D01*
X177147440Y-38600000D01*
X177103162Y-38364683D01*
X176964090Y-38148559D01*
X176751890Y-38003569D01*
X176560000Y-37964710D01*
X176560000Y-37222931D01*
X176651441Y-37164090D01*
X176750633Y-37018917D01*
X176835910Y-37151441D01*
X177048110Y-37296431D01*
X177300000Y-37347440D01*
X178200000Y-37347440D01*
X178435317Y-37303162D01*
X178651441Y-37164090D01*
X178750633Y-37018917D01*
X178835910Y-37151441D01*
X178940000Y-37222563D01*
X178940000Y-37450000D01*
X179001658Y-37759974D01*
X179138653Y-37965000D01*
X179032998Y-37965000D01*
X179032998Y-38130084D01*
X178810961Y-38008096D01*
X178422577Y-38168959D01*
X178007611Y-38544866D01*
X177768086Y-39050959D01*
X177889371Y-39273000D01*
X179033000Y-39273000D01*
X179033000Y-39253000D01*
X179287000Y-39253000D01*
X179287000Y-39273000D01*
X179307000Y-39273000D01*
X179307000Y-39527000D01*
X179287000Y-39527000D01*
X179287000Y-40669915D01*
X179509039Y-40791904D01*
X179897423Y-40631041D01*
X180270136Y-40293410D01*
X180296838Y-40435317D01*
X180435910Y-40651441D01*
X180648110Y-40796431D01*
X180900000Y-40847440D01*
X182500000Y-40847440D01*
X182735317Y-40803162D01*
X182951441Y-40664090D01*
X183096431Y-40451890D01*
X183147440Y-40200000D01*
X183147440Y-39749041D01*
X183768086Y-39749041D01*
X184007611Y-40255134D01*
X184422577Y-40631041D01*
X184810961Y-40791904D01*
X185033000Y-40669915D01*
X185033000Y-39527000D01*
X183889371Y-39527000D01*
X183768086Y-39749041D01*
X183147440Y-39749041D01*
X183147440Y-38600000D01*
X183103162Y-38364683D01*
X182964090Y-38148559D01*
X182751890Y-38003569D01*
X182500000Y-37952560D01*
X181398073Y-37952560D01*
X180625984Y-37180471D01*
X180651441Y-37164090D01*
X180750633Y-37018917D01*
X180835910Y-37151441D01*
X181048110Y-37296431D01*
X181300000Y-37347440D01*
X182200000Y-37347440D01*
X182435317Y-37303162D01*
X182651441Y-37164090D01*
X182750633Y-37018917D01*
X182835910Y-37151441D01*
X182956704Y-37233976D01*
X183001658Y-37459974D01*
X183155375Y-37690027D01*
X183177244Y-37722756D01*
X184004958Y-38550471D01*
X183768086Y-39050959D01*
X183889371Y-39273000D01*
X185033000Y-39273000D01*
X185033000Y-39253000D01*
X185287000Y-39253000D01*
X185287000Y-39273000D01*
X185307000Y-39273000D01*
X185307000Y-39527000D01*
X185287000Y-39527000D01*
X185287000Y-40669915D01*
X185509039Y-40791904D01*
X185897423Y-40631041D01*
X186270136Y-40293410D01*
X186296838Y-40435317D01*
X186435910Y-40651441D01*
X186648110Y-40796431D01*
X186900000Y-40847440D01*
X188500000Y-40847440D01*
X188735317Y-40803162D01*
X188951441Y-40664090D01*
X189096431Y-40451890D01*
X189147440Y-40200000D01*
X189147440Y-39749041D01*
X189768086Y-39749041D01*
X190007611Y-40255134D01*
X190422577Y-40631041D01*
X190810961Y-40791904D01*
X191033000Y-40669915D01*
X191033000Y-39527000D01*
X189889371Y-39527000D01*
X189768086Y-39749041D01*
X189147440Y-39749041D01*
X189147440Y-39050959D01*
X189768086Y-39050959D01*
X189889371Y-39273000D01*
X191033000Y-39273000D01*
X191033000Y-38130085D01*
X190810961Y-38008096D01*
X190422577Y-38168959D01*
X190007611Y-38544866D01*
X189768086Y-39050959D01*
X189147440Y-39050959D01*
X189147440Y-38600000D01*
X189103162Y-38364683D01*
X188964090Y-38148559D01*
X188751890Y-38003569D01*
X188500000Y-37952560D01*
X187398072Y-37952560D01*
X186872756Y-37427244D01*
X186753321Y-37347440D01*
X186609974Y-37251658D01*
X186537698Y-37237281D01*
X186651441Y-37164090D01*
X186750633Y-37018917D01*
X186835910Y-37151441D01*
X187048110Y-37296431D01*
X187300000Y-37347440D01*
X188200000Y-37347440D01*
X188435317Y-37303162D01*
X188651441Y-37164090D01*
X188796431Y-36951890D01*
X188804914Y-36910000D01*
X192164488Y-36910000D01*
X192890000Y-37635513D01*
X192890000Y-37954442D01*
X192664683Y-37996838D01*
X192448559Y-38135910D01*
X192303569Y-38348110D01*
X192271268Y-38507616D01*
X191897423Y-38168959D01*
X191509039Y-38008096D01*
X191287000Y-38130085D01*
X191287000Y-39273000D01*
X191307000Y-39273000D01*
X191307000Y-39527000D01*
X191287000Y-39527000D01*
X191287000Y-40669915D01*
X191509039Y-40791904D01*
X191897423Y-40631041D01*
X192270136Y-40293410D01*
X192296838Y-40435317D01*
X192435910Y-40651441D01*
X192648110Y-40796431D01*
X192900000Y-40847440D01*
X194373000Y-40847440D01*
X194373000Y-41922863D01*
X171502000Y-41898137D01*
X171502000Y-39749041D01*
X171768086Y-39749041D01*
X172007611Y-40255134D01*
X172422577Y-40631041D01*
X172810961Y-40791904D01*
X173033000Y-40669915D01*
X173033000Y-39527000D01*
X171889371Y-39527000D01*
X171768086Y-39749041D01*
X171502000Y-39749041D01*
X171502000Y-39050959D01*
X171768086Y-39050959D01*
X171889371Y-39273000D01*
X173033000Y-39273000D01*
X173033000Y-38130085D01*
X172810961Y-38008096D01*
X172422577Y-38168959D01*
X172007611Y-38544866D01*
X171768086Y-39050959D01*
X171502000Y-39050959D01*
X171502000Y-35176927D01*
X171620921Y-35002880D01*
X171671930Y-34750990D01*
X171671930Y-32752010D01*
X171627652Y-32516693D01*
X171502000Y-32321424D01*
X171502000Y-28475000D01*
X171491994Y-28425590D01*
X171463553Y-28383965D01*
X171421159Y-28356685D01*
X171375000Y-28348000D01*
X167651489Y-28348000D01*
X167647398Y-27333320D01*
X168346285Y-27333320D01*
X168475533Y-27626123D01*
X169175806Y-27894388D01*
X169925435Y-27874250D01*
X170524467Y-27626123D01*
X170653715Y-27333320D01*
X169500000Y-26179605D01*
X168346285Y-27333320D01*
X167647398Y-27333320D01*
X167643914Y-26469286D01*
X167873877Y-27024467D01*
X168166680Y-27153715D01*
X169320395Y-26000000D01*
X169679605Y-26000000D01*
X170833320Y-27153715D01*
X171126123Y-27024467D01*
X171394388Y-26324194D01*
X171374250Y-25574565D01*
X171126123Y-24975533D01*
X170833320Y-24846285D01*
X169679605Y-26000000D01*
X169320395Y-26000000D01*
X168166680Y-24846285D01*
X167873877Y-24975533D01*
X167640349Y-25585131D01*
X167636646Y-24666680D01*
X168346285Y-24666680D01*
X169500000Y-25820395D01*
X170653715Y-24666680D01*
X170524467Y-24373877D01*
X169824194Y-24105612D01*
X169074565Y-24125750D01*
X168475533Y-24373877D01*
X168346285Y-24666680D01*
X167636646Y-24666680D01*
X167627514Y-22402133D01*
X191348265Y-22426868D01*
X191348265Y-22426868D01*
G37*
X191348265Y-22426868D02*
X191354805Y-25552828D01*
X191098957Y-24933628D01*
X190569161Y-24402907D01*
X189876595Y-24115328D01*
X189126695Y-24114674D01*
X188433628Y-24401043D01*
X187902907Y-24930839D01*
X187615328Y-25623405D01*
X187614674Y-26373305D01*
X187901043Y-27066372D01*
X188430839Y-27597093D01*
X188690000Y-27704706D01*
X188690000Y-31814487D01*
X187851928Y-32652560D01*
X187300000Y-32652560D01*
X187064683Y-32696838D01*
X186848559Y-32835910D01*
X186753010Y-32975750D01*
X186738327Y-32940302D01*
X186559699Y-32761673D01*
X186326310Y-32665000D01*
X186035750Y-32665000D01*
X185877000Y-32823750D01*
X185877000Y-33773000D01*
X185897000Y-33773000D01*
X185897000Y-34027000D01*
X185877000Y-34027000D01*
X185877000Y-34047000D01*
X185623000Y-34047000D01*
X185623000Y-34027000D01*
X184823750Y-34027000D01*
X184750000Y-34100750D01*
X184676250Y-34027000D01*
X183877000Y-34027000D01*
X183877000Y-34047000D01*
X183623000Y-34047000D01*
X183623000Y-34027000D01*
X183603000Y-34027000D01*
X183603000Y-33773000D01*
X183623000Y-33773000D01*
X183623000Y-33753000D01*
X183877000Y-33753000D01*
X183877000Y-33773000D01*
X184676250Y-33773000D01*
X184750000Y-33699250D01*
X184823750Y-33773000D01*
X185623000Y-33773000D01*
X185623000Y-32823750D01*
X185464250Y-32665000D01*
X185173690Y-32665000D01*
X184940301Y-32761673D01*
X184761673Y-32940302D01*
X184750000Y-32968483D01*
X184738327Y-32940302D01*
X184559699Y-32761673D01*
X184326310Y-32665000D01*
X184130513Y-32665000D01*
X185072756Y-31722757D01*
X185221597Y-31500000D01*
X185248342Y-31459974D01*
X185310000Y-31150000D01*
X185310000Y-27704888D01*
X185566372Y-27598957D01*
X186097093Y-27069161D01*
X186384672Y-26376595D01*
X186385326Y-25626695D01*
X186098957Y-24933628D01*
X185569161Y-24402907D01*
X184876595Y-24115328D01*
X184126695Y-24114674D01*
X183433628Y-24401043D01*
X182902907Y-24930839D01*
X182615328Y-25623405D01*
X182614674Y-26373305D01*
X182901043Y-27066372D01*
X183430839Y-27597093D01*
X183690000Y-27704706D01*
X183690000Y-30814487D01*
X181851928Y-32652560D01*
X181300000Y-32652560D01*
X181064683Y-32696838D01*
X180848559Y-32835910D01*
X180749367Y-32981083D01*
X180664090Y-32848559D01*
X180451890Y-32703569D01*
X180310000Y-32674836D01*
X180310000Y-27704888D01*
X180566372Y-27598957D01*
X181097093Y-27069161D01*
X181384672Y-26376595D01*
X181385326Y-25626695D01*
X181098957Y-24933628D01*
X180569161Y-24402907D01*
X179876595Y-24115328D01*
X179126695Y-24114674D01*
X178433628Y-24401043D01*
X177902907Y-24930839D01*
X177615328Y-25623405D01*
X177614674Y-26373305D01*
X177901043Y-27066372D01*
X178430839Y-27597093D01*
X178690000Y-27704706D01*
X178690000Y-32891975D01*
X178559699Y-32761673D01*
X178326310Y-32665000D01*
X178035750Y-32665000D01*
X177877000Y-32823750D01*
X177877000Y-33773000D01*
X177897000Y-33773000D01*
X177897000Y-34027000D01*
X177877000Y-34027000D01*
X177877000Y-34047000D01*
X177623000Y-34047000D01*
X177623000Y-34027000D01*
X176823750Y-34027000D01*
X176750000Y-34100750D01*
X176676250Y-34027000D01*
X175877000Y-34027000D01*
X175877000Y-34047000D01*
X175623000Y-34047000D01*
X175623000Y-34027000D01*
X175603000Y-34027000D01*
X175603000Y-33773000D01*
X175623000Y-33773000D01*
X175623000Y-32823750D01*
X175877000Y-32823750D01*
X175877000Y-33773000D01*
X176676250Y-33773000D01*
X176750000Y-33699250D01*
X176823750Y-33773000D01*
X177623000Y-33773000D01*
X177623000Y-32823750D01*
X177464250Y-32665000D01*
X177173690Y-32665000D01*
X176940301Y-32761673D01*
X176761673Y-32940302D01*
X176750000Y-32968483D01*
X176738327Y-32940302D01*
X176559699Y-32761673D01*
X176326310Y-32665000D01*
X176035750Y-32665000D01*
X175877000Y-32823750D01*
X175623000Y-32823750D01*
X175464250Y-32665000D01*
X175310000Y-32665000D01*
X175310000Y-27704888D01*
X175566372Y-27598957D01*
X176097093Y-27069161D01*
X176384672Y-26376595D01*
X176385326Y-25626695D01*
X176098957Y-24933628D01*
X175569161Y-24402907D01*
X174876595Y-24115328D01*
X174126695Y-24114674D01*
X173433628Y-24401043D01*
X172902907Y-24930839D01*
X172615328Y-25623405D01*
X172614674Y-26373305D01*
X172901043Y-27066372D01*
X173430839Y-27597093D01*
X173690000Y-27704706D01*
X173690000Y-32652560D01*
X173300000Y-32652560D01*
X173064683Y-32696838D01*
X172848559Y-32835910D01*
X172703569Y-33048110D01*
X172652560Y-33300000D01*
X172652560Y-34500000D01*
X172696838Y-34735317D01*
X172835910Y-34951441D01*
X172905711Y-34999134D01*
X172848559Y-35035910D01*
X172703569Y-35248110D01*
X172652560Y-35500000D01*
X172652560Y-36700000D01*
X172696838Y-36935317D01*
X172835910Y-37151441D01*
X173048110Y-37296431D01*
X173300000Y-37347440D01*
X174200000Y-37347440D01*
X174435317Y-37303162D01*
X174651441Y-37164090D01*
X174750633Y-37018917D01*
X174835910Y-37151441D01*
X174940000Y-37222563D01*
X174940000Y-37952560D01*
X174900000Y-37952560D01*
X174664683Y-37996838D01*
X174448559Y-38135910D01*
X174303569Y-38348110D01*
X174271268Y-38507616D01*
X173897423Y-38168959D01*
X173509039Y-38008096D01*
X173287000Y-38130085D01*
X173287000Y-39273000D01*
X173307000Y-39273000D01*
X173307000Y-39527000D01*
X173287000Y-39527000D01*
X173287000Y-40669915D01*
X173509039Y-40791904D01*
X173897423Y-40631041D01*
X174270136Y-40293410D01*
X174296838Y-40435317D01*
X174435910Y-40651441D01*
X174648110Y-40796431D01*
X174900000Y-40847440D01*
X176500000Y-40847440D01*
X176735317Y-40803162D01*
X176951441Y-40664090D01*
X177096431Y-40451890D01*
X177147440Y-40200000D01*
X177147440Y-39749041D01*
X177768086Y-39749041D01*
X178007611Y-40255134D01*
X178422577Y-40631041D01*
X178810961Y-40791904D01*
X179033000Y-40669915D01*
X179033000Y-39527000D01*
X177889371Y-39527000D01*
X177768086Y-39749041D01*
X177147440Y-39749041D01*
X177147440Y-38600000D01*
X177103162Y-38364683D01*
X176964090Y-38148559D01*
X176751890Y-38003569D01*
X176560000Y-37964710D01*
X176560000Y-37222931D01*
X176651441Y-37164090D01*
X176750633Y-37018917D01*
X176835910Y-37151441D01*
X177048110Y-37296431D01*
X177300000Y-37347440D01*
X178200000Y-37347440D01*
X178435317Y-37303162D01*
X178651441Y-37164090D01*
X178750633Y-37018917D01*
X178835910Y-37151441D01*
X178940000Y-37222563D01*
X178940000Y-37450000D01*
X179001658Y-37759974D01*
X179138653Y-37965000D01*
X179032998Y-37965000D01*
X179032998Y-38130084D01*
X178810961Y-38008096D01*
X178422577Y-38168959D01*
X178007611Y-38544866D01*
X177768086Y-39050959D01*
X177889371Y-39273000D01*
X179033000Y-39273000D01*
X179033000Y-39253000D01*
X179287000Y-39253000D01*
X179287000Y-39273000D01*
X179307000Y-39273000D01*
X179307000Y-39527000D01*
X179287000Y-39527000D01*
X179287000Y-40669915D01*
X179509039Y-40791904D01*
X179897423Y-40631041D01*
X180270136Y-40293410D01*
X180296838Y-40435317D01*
X180435910Y-40651441D01*
X180648110Y-40796431D01*
X180900000Y-40847440D01*
X182500000Y-40847440D01*
X182735317Y-40803162D01*
X182951441Y-40664090D01*
X183096431Y-40451890D01*
X183147440Y-40200000D01*
X183147440Y-39749041D01*
X183768086Y-39749041D01*
X184007611Y-40255134D01*
X184422577Y-40631041D01*
X184810961Y-40791904D01*
X185033000Y-40669915D01*
X185033000Y-39527000D01*
X183889371Y-39527000D01*
X183768086Y-39749041D01*
X183147440Y-39749041D01*
X183147440Y-38600000D01*
X183103162Y-38364683D01*
X182964090Y-38148559D01*
X182751890Y-38003569D01*
X182500000Y-37952560D01*
X181398073Y-37952560D01*
X180625984Y-37180471D01*
X180651441Y-37164090D01*
X180750633Y-37018917D01*
X180835910Y-37151441D01*
X181048110Y-37296431D01*
X181300000Y-37347440D01*
X182200000Y-37347440D01*
X182435317Y-37303162D01*
X182651441Y-37164090D01*
X182750633Y-37018917D01*
X182835910Y-37151441D01*
X182956704Y-37233976D01*
X183001658Y-37459974D01*
X183155375Y-37690027D01*
X183177244Y-37722756D01*
X184004958Y-38550471D01*
X183768086Y-39050959D01*
X183889371Y-39273000D01*
X185033000Y-39273000D01*
X185033000Y-39253000D01*
X185287000Y-39253000D01*
X185287000Y-39273000D01*
X185307000Y-39273000D01*
X185307000Y-39527000D01*
X185287000Y-39527000D01*
X185287000Y-40669915D01*
X185509039Y-40791904D01*
X185897423Y-40631041D01*
X186270136Y-40293410D01*
X186296838Y-40435317D01*
X186435910Y-40651441D01*
X186648110Y-40796431D01*
X186900000Y-40847440D01*
X188500000Y-40847440D01*
X188735317Y-40803162D01*
X188951441Y-40664090D01*
X189096431Y-40451890D01*
X189147440Y-40200000D01*
X189147440Y-39749041D01*
X189768086Y-39749041D01*
X190007611Y-40255134D01*
X190422577Y-40631041D01*
X190810961Y-40791904D01*
X191033000Y-40669915D01*
X191033000Y-39527000D01*
X189889371Y-39527000D01*
X189768086Y-39749041D01*
X189147440Y-39749041D01*
X189147440Y-39050959D01*
X189768086Y-39050959D01*
X189889371Y-39273000D01*
X191033000Y-39273000D01*
X191033000Y-38130085D01*
X190810961Y-38008096D01*
X190422577Y-38168959D01*
X190007611Y-38544866D01*
X189768086Y-39050959D01*
X189147440Y-39050959D01*
X189147440Y-38600000D01*
X189103162Y-38364683D01*
X188964090Y-38148559D01*
X188751890Y-38003569D01*
X188500000Y-37952560D01*
X187398072Y-37952560D01*
X186872756Y-37427244D01*
X186753321Y-37347440D01*
X186609974Y-37251658D01*
X186537698Y-37237281D01*
X186651441Y-37164090D01*
X186750633Y-37018917D01*
X186835910Y-37151441D01*
X187048110Y-37296431D01*
X187300000Y-37347440D01*
X188200000Y-37347440D01*
X188435317Y-37303162D01*
X188651441Y-37164090D01*
X188796431Y-36951890D01*
X188804914Y-36910000D01*
X192164488Y-36910000D01*
X192890000Y-37635513D01*
X192890000Y-37954442D01*
X192664683Y-37996838D01*
X192448559Y-38135910D01*
X192303569Y-38348110D01*
X192271268Y-38507616D01*
X191897423Y-38168959D01*
X191509039Y-38008096D01*
X191287000Y-38130085D01*
X191287000Y-39273000D01*
X191307000Y-39273000D01*
X191307000Y-39527000D01*
X191287000Y-39527000D01*
X191287000Y-40669915D01*
X191509039Y-40791904D01*
X191897423Y-40631041D01*
X192270136Y-40293410D01*
X192296838Y-40435317D01*
X192435910Y-40651441D01*
X192648110Y-40796431D01*
X192900000Y-40847440D01*
X194373000Y-40847440D01*
X194373000Y-41922863D01*
X171502000Y-41898137D01*
X171502000Y-39749041D01*
X171768086Y-39749041D01*
X172007611Y-40255134D01*
X172422577Y-40631041D01*
X172810961Y-40791904D01*
X173033000Y-40669915D01*
X173033000Y-39527000D01*
X171889371Y-39527000D01*
X171768086Y-39749041D01*
X171502000Y-39749041D01*
X171502000Y-39050959D01*
X171768086Y-39050959D01*
X171889371Y-39273000D01*
X173033000Y-39273000D01*
X173033000Y-38130085D01*
X172810961Y-38008096D01*
X172422577Y-38168959D01*
X172007611Y-38544866D01*
X171768086Y-39050959D01*
X171502000Y-39050959D01*
X171502000Y-35176927D01*
X171620921Y-35002880D01*
X171671930Y-34750990D01*
X171671930Y-32752010D01*
X171627652Y-32516693D01*
X171502000Y-32321424D01*
X171502000Y-28475000D01*
X171491994Y-28425590D01*
X171463553Y-28383965D01*
X171421159Y-28356685D01*
X171375000Y-28348000D01*
X167651489Y-28348000D01*
X167647398Y-27333320D01*
X168346285Y-27333320D01*
X168475533Y-27626123D01*
X169175806Y-27894388D01*
X169925435Y-27874250D01*
X170524467Y-27626123D01*
X170653715Y-27333320D01*
X169500000Y-26179605D01*
X168346285Y-27333320D01*
X167647398Y-27333320D01*
X167643914Y-26469286D01*
X167873877Y-27024467D01*
X168166680Y-27153715D01*
X169320395Y-26000000D01*
X169679605Y-26000000D01*
X170833320Y-27153715D01*
X171126123Y-27024467D01*
X171394388Y-26324194D01*
X171374250Y-25574565D01*
X171126123Y-24975533D01*
X170833320Y-24846285D01*
X169679605Y-26000000D01*
X169320395Y-26000000D01*
X168166680Y-24846285D01*
X167873877Y-24975533D01*
X167640349Y-25585131D01*
X167636646Y-24666680D01*
X168346285Y-24666680D01*
X169500000Y-25820395D01*
X170653715Y-24666680D01*
X170524467Y-24373877D01*
X169824194Y-24105612D01*
X169074565Y-24125750D01*
X168475533Y-24373877D01*
X168346285Y-24666680D01*
X167636646Y-24666680D01*
X167627514Y-22402133D01*
X191348265Y-22426868D01*
G36*
X166148000Y-25052321D02*
X166098957Y-24933628D01*
X165569161Y-24402907D01*
X164876595Y-24115328D01*
X164126695Y-24114674D01*
X163433628Y-24401043D01*
X162968861Y-24865000D01*
X161030449Y-24865000D01*
X160569161Y-24402907D01*
X159876595Y-24115328D01*
X159126695Y-24114674D01*
X158433628Y-24401043D01*
X157902907Y-24930839D01*
X157615328Y-25623405D01*
X157614674Y-26373305D01*
X157901043Y-27066372D01*
X158430839Y-27597093D01*
X159123405Y-27884672D01*
X159873305Y-27885326D01*
X160566372Y-27598957D01*
X161031139Y-27135000D01*
X162969551Y-27135000D01*
X163365000Y-27531139D01*
X163365000Y-31500000D01*
X163451397Y-31934346D01*
X163638044Y-32213683D01*
X163697434Y-32302566D01*
X165948934Y-34554066D01*
X166317154Y-34800103D01*
X166751500Y-34886500D01*
X168403568Y-34886500D01*
X168422348Y-34986307D01*
X168561420Y-35202431D01*
X168773620Y-35347421D01*
X169025510Y-35398430D01*
X170598000Y-35398430D01*
X170598000Y-44625000D01*
X170608006Y-44674410D01*
X170636447Y-44716035D01*
X170678841Y-44743315D01*
X170725000Y-44752000D01*
X194125000Y-44752000D01*
X194174410Y-44741994D01*
X194214803Y-44714803D01*
X195489803Y-43439803D01*
X195517666Y-43397789D01*
X195527000Y-43350000D01*
X195527000Y-39152606D01*
X198352606Y-36327000D01*
X214648105Y-36327000D01*
X214672895Y-66348000D01*
X212850000Y-66348000D01*
X212800590Y-66358006D01*
X212758965Y-66386447D01*
X212731685Y-66428841D01*
X212723000Y-66474805D01*
X212698000Y-82724805D01*
X212707930Y-82774230D01*
X212736307Y-82815898D01*
X212778659Y-82843243D01*
X212825000Y-82852000D01*
X214747801Y-82852000D01*
X214723000Y-98724802D01*
X214723000Y-100598059D01*
X211435000Y-100600589D01*
X211435000Y-98997440D01*
X212150000Y-98997440D01*
X212385317Y-98953162D01*
X212601441Y-98814090D01*
X212746431Y-98601890D01*
X212797440Y-98350000D01*
X212797440Y-96650000D01*
X212753162Y-96414683D01*
X212614090Y-96198559D01*
X212401890Y-96053569D01*
X212150000Y-96002560D01*
X210124850Y-96002560D01*
X208251145Y-94128855D01*
X207947809Y-93926173D01*
X207590000Y-93855000D01*
X206467290Y-93855000D01*
X208451145Y-91871145D01*
X208653827Y-91567809D01*
X208725000Y-91210000D01*
X208725000Y-89896370D01*
X208869147Y-89800054D01*
X209191054Y-89318285D01*
X209304093Y-88750000D01*
X209191054Y-88181715D01*
X208869147Y-87699946D01*
X208550000Y-87486699D01*
X208550000Y-87473301D01*
X208869147Y-87260054D01*
X209191054Y-86778285D01*
X209304093Y-86210000D01*
X209191054Y-85641715D01*
X208869147Y-85159946D01*
X208528447Y-84932298D01*
X208671358Y-84865183D01*
X209061645Y-84436924D01*
X209231476Y-84026890D01*
X209110155Y-83797000D01*
X207917000Y-83797000D01*
X207917000Y-83817000D01*
X207663000Y-83817000D01*
X207663000Y-83797000D01*
X207643000Y-83797000D01*
X207643000Y-83543000D01*
X207663000Y-83543000D01*
X207663000Y-83523000D01*
X207917000Y-83523000D01*
X207917000Y-83543000D01*
X209110155Y-83543000D01*
X209231476Y-83313110D01*
X209061645Y-82903076D01*
X208671358Y-82474817D01*
X208528447Y-82407702D01*
X208869147Y-82180054D01*
X209191054Y-81698285D01*
X209304093Y-81130000D01*
X209191054Y-80561715D01*
X208869147Y-80079946D01*
X208539974Y-79860000D01*
X208869147Y-79640054D01*
X209191054Y-79158285D01*
X209304093Y-78590000D01*
X209191054Y-78021715D01*
X208869147Y-77539946D01*
X208539974Y-77320000D01*
X208869147Y-77100054D01*
X209191054Y-76618285D01*
X209304093Y-76050000D01*
X209191054Y-75481715D01*
X208869147Y-74999946D01*
X208528447Y-74772298D01*
X208671358Y-74705183D01*
X209061645Y-74276924D01*
X209231476Y-73866890D01*
X209110155Y-73637000D01*
X207917000Y-73637000D01*
X207917000Y-73657000D01*
X207663000Y-73657000D01*
X207663000Y-73637000D01*
X207643000Y-73637000D01*
X207643000Y-73383000D01*
X207663000Y-73383000D01*
X207663000Y-73363000D01*
X207917000Y-73363000D01*
X207917000Y-73383000D01*
X209110155Y-73383000D01*
X209231476Y-73153110D01*
X209061645Y-72743076D01*
X208671358Y-72314817D01*
X208528447Y-72247702D01*
X208869147Y-72020054D01*
X209191054Y-71538285D01*
X209304093Y-70970000D01*
X209191054Y-70401715D01*
X208869147Y-69919946D01*
X208539974Y-69700000D01*
X208869147Y-69480054D01*
X209191054Y-68998285D01*
X209304093Y-68430000D01*
X209191054Y-67861715D01*
X208869147Y-67379946D01*
X208528447Y-67152298D01*
X208671358Y-67085183D01*
X209061645Y-66656924D01*
X209231476Y-66246890D01*
X209110155Y-66017000D01*
X207917000Y-66017000D01*
X207917000Y-66037000D01*
X207663000Y-66037000D01*
X207663000Y-66017000D01*
X207643000Y-66017000D01*
X207643000Y-65763000D01*
X207663000Y-65763000D01*
X207663000Y-65743000D01*
X207917000Y-65743000D01*
X207917000Y-65763000D01*
X209110155Y-65763000D01*
X209231476Y-65533110D01*
X209061645Y-65123076D01*
X208671358Y-64694817D01*
X208528447Y-64627702D01*
X208869147Y-64400054D01*
X209191054Y-63918285D01*
X209304093Y-63350000D01*
X209191054Y-62781715D01*
X208869147Y-62299946D01*
X208539974Y-62080000D01*
X208869147Y-61860054D01*
X209191054Y-61378285D01*
X209304093Y-60810000D01*
X209191054Y-60241715D01*
X208869147Y-59759946D01*
X208539974Y-59540000D01*
X208869147Y-59320054D01*
X209191054Y-58838285D01*
X209304093Y-58270000D01*
X209191054Y-57701715D01*
X208869147Y-57219946D01*
X208539974Y-57000000D01*
X208869147Y-56780054D01*
X209191054Y-56298285D01*
X209304093Y-55730000D01*
X209191054Y-55161715D01*
X208869147Y-54679946D01*
X208528447Y-54452298D01*
X208671358Y-54385183D01*
X209061645Y-53956924D01*
X209231476Y-53546890D01*
X209110155Y-53317000D01*
X207917000Y-53317000D01*
X207917000Y-53337000D01*
X207663000Y-53337000D01*
X207663000Y-53317000D01*
X207643000Y-53317000D01*
X207643000Y-53063000D01*
X207663000Y-53063000D01*
X207663000Y-53043000D01*
X207917000Y-53043000D01*
X207917000Y-53063000D01*
X209110155Y-53063000D01*
X209231476Y-52833110D01*
X209061645Y-52423076D01*
X208671358Y-51994817D01*
X208528447Y-51927702D01*
X208869147Y-51700054D01*
X209191054Y-51218285D01*
X209304093Y-50650000D01*
X209191054Y-50081715D01*
X208869147Y-49599946D01*
X208528447Y-49372298D01*
X208671358Y-49305183D01*
X209061645Y-48876924D01*
X209231476Y-48466890D01*
X209110155Y-48237000D01*
X207917000Y-48237000D01*
X207917000Y-48257000D01*
X207663000Y-48257000D01*
X207663000Y-48237000D01*
X207643000Y-48237000D01*
X207643000Y-47983000D01*
X207663000Y-47983000D01*
X207663000Y-47963000D01*
X207917000Y-47963000D01*
X207917000Y-47983000D01*
X209110155Y-47983000D01*
X209231476Y-47753110D01*
X209061645Y-47343076D01*
X208671358Y-46914817D01*
X208528447Y-46847702D01*
X208869147Y-46620054D01*
X209191054Y-46138285D01*
X209304093Y-45570000D01*
X209191054Y-45001715D01*
X208869147Y-44519946D01*
X208539974Y-44300000D01*
X208869147Y-44080054D01*
X209046337Y-43814870D01*
X209229974Y-43778342D01*
X209492756Y-43602756D01*
X209722756Y-43372757D01*
X209811460Y-43240001D01*
X209898342Y-43109974D01*
X209960000Y-42800000D01*
X209960000Y-40612733D01*
X210241289Y-41033711D01*
X210967902Y-41519219D01*
X211825000Y-41689706D01*
X212682098Y-41519219D01*
X213408711Y-41033711D01*
X213894219Y-40307098D01*
X214064706Y-39450000D01*
X213894219Y-38592902D01*
X213408711Y-37866289D01*
X212682098Y-37380781D01*
X211825000Y-37210294D01*
X210967902Y-37380781D01*
X210241289Y-37866289D01*
X209755781Y-38592902D01*
X209620172Y-39274659D01*
X207372759Y-37027247D01*
X207372757Y-37027244D01*
X207322756Y-36977244D01*
X207260008Y-36935317D01*
X207059974Y-36801658D01*
X206750000Y-36740000D01*
X199050000Y-36740000D01*
X198877897Y-36774234D01*
X198740027Y-36801657D01*
X198477244Y-36977243D01*
X196127244Y-39327244D01*
X195951658Y-39590026D01*
X195890000Y-39900000D01*
X195890000Y-43714487D01*
X193989930Y-45614558D01*
X193700000Y-45556887D01*
X193150849Y-45666120D01*
X192685302Y-45977189D01*
X192415014Y-46381703D01*
X192312389Y-46164866D01*
X191897423Y-45788959D01*
X191509039Y-45628096D01*
X191287000Y-45750085D01*
X191287000Y-46893000D01*
X191307000Y-46893000D01*
X191307000Y-47147000D01*
X191287000Y-47147000D01*
X191287000Y-47167000D01*
X191033000Y-47167000D01*
X191033000Y-47147000D01*
X189889371Y-47147000D01*
X189768086Y-47369041D01*
X190007611Y-47875134D01*
X190422577Y-48251041D01*
X190626008Y-48335299D01*
X190564683Y-48346838D01*
X190381054Y-48465000D01*
X190200000Y-48465000D01*
X189842191Y-48536173D01*
X189538855Y-48738855D01*
X189538853Y-48738858D01*
X189047440Y-49230270D01*
X189047440Y-49050000D01*
X189003162Y-48814683D01*
X188864090Y-48598559D01*
X188651890Y-48453569D01*
X188510000Y-48424836D01*
X188510000Y-48199586D01*
X188714698Y-48062811D01*
X189025767Y-47597264D01*
X189135000Y-47048113D01*
X189135000Y-46991887D01*
X189071164Y-46670959D01*
X189768086Y-46670959D01*
X189889371Y-46893000D01*
X191033000Y-46893000D01*
X191033000Y-45750085D01*
X190810961Y-45628096D01*
X190422577Y-45788959D01*
X190007611Y-46164866D01*
X189768086Y-46670959D01*
X189071164Y-46670959D01*
X189025767Y-46442736D01*
X188714698Y-45977189D01*
X188249151Y-45666120D01*
X187700000Y-45556887D01*
X187150849Y-45666120D01*
X186685302Y-45977189D01*
X186415014Y-46381703D01*
X186312389Y-46164866D01*
X185897423Y-45788959D01*
X185509039Y-45628096D01*
X185287000Y-45750085D01*
X185287000Y-46893000D01*
X185307000Y-46893000D01*
X185307000Y-47147000D01*
X185287000Y-47147000D01*
X185287000Y-47167000D01*
X185033000Y-47167000D01*
X185033000Y-47147000D01*
X183889371Y-47147000D01*
X183768086Y-47369041D01*
X184007611Y-47875134D01*
X184422577Y-48251041D01*
X184810961Y-48411904D01*
X185032998Y-48289916D01*
X185032998Y-48402560D01*
X185000000Y-48402560D01*
X184764683Y-48446838D01*
X184548559Y-48585910D01*
X184403569Y-48798110D01*
X184352560Y-49050000D01*
X184352560Y-49950000D01*
X184372379Y-50055331D01*
X184039146Y-50388564D01*
X183907808Y-50519673D01*
X183765162Y-50863201D01*
X183764838Y-51235167D01*
X183906883Y-51578943D01*
X184169673Y-51842192D01*
X184513201Y-51984838D01*
X184885167Y-51985162D01*
X185228943Y-51843117D01*
X185492192Y-51580327D01*
X185492355Y-51579935D01*
X186261145Y-50811145D01*
X186433265Y-50553548D01*
X186435317Y-50553162D01*
X186651441Y-50414090D01*
X186699134Y-50344289D01*
X186735910Y-50401441D01*
X186948110Y-50546431D01*
X187032471Y-50563515D01*
X187051658Y-50659974D01*
X187188541Y-50864833D01*
X187227244Y-50922756D01*
X187904487Y-51600000D01*
X187671917Y-51832570D01*
X187371057Y-51956883D01*
X187107808Y-52219673D01*
X186965162Y-52563201D01*
X186964838Y-52935167D01*
X187106883Y-53278943D01*
X187369673Y-53542192D01*
X187713201Y-53684838D01*
X188085167Y-53685162D01*
X188428943Y-53543117D01*
X188692192Y-53280327D01*
X188817884Y-52977628D01*
X189035513Y-52760000D01*
X196650000Y-52760000D01*
X196959974Y-52698342D01*
X197222756Y-52522756D01*
X198572756Y-51172757D01*
X198711466Y-50965162D01*
X198748342Y-50909974D01*
X198810000Y-50600000D01*
X198810000Y-44385514D01*
X199355515Y-43840000D01*
X204010454Y-43840000D01*
X204170853Y-44080054D01*
X204500026Y-44300000D01*
X204170853Y-44519946D01*
X203848946Y-45001715D01*
X203735907Y-45570000D01*
X203848946Y-46138285D01*
X204170853Y-46620054D01*
X204500026Y-46840000D01*
X204170853Y-47059946D01*
X203848946Y-47541715D01*
X203735907Y-48110000D01*
X203848946Y-48678285D01*
X204170853Y-49160054D01*
X204500026Y-49380000D01*
X204170853Y-49599946D01*
X203848946Y-50081715D01*
X203735907Y-50650000D01*
X203848946Y-51218285D01*
X204170853Y-51700054D01*
X204500026Y-51920000D01*
X204170853Y-52139946D01*
X203848946Y-52621715D01*
X203735907Y-53190000D01*
X203848946Y-53758285D01*
X204170853Y-54240054D01*
X204500026Y-54460000D01*
X204170853Y-54679946D01*
X203848946Y-55161715D01*
X203735907Y-55730000D01*
X203848946Y-56298285D01*
X204170853Y-56780054D01*
X204511553Y-57007702D01*
X204368642Y-57074817D01*
X203978355Y-57503076D01*
X203808524Y-57913110D01*
X203929845Y-58143000D01*
X205123000Y-58143000D01*
X205123000Y-58123000D01*
X205377000Y-58123000D01*
X205377000Y-58143000D01*
X205397000Y-58143000D01*
X205397000Y-58397000D01*
X205377000Y-58397000D01*
X205377000Y-58417000D01*
X205123000Y-58417000D01*
X205123000Y-58397000D01*
X203929845Y-58397000D01*
X203808524Y-58626890D01*
X203978355Y-59036924D01*
X204368642Y-59465183D01*
X204511553Y-59532298D01*
X204170853Y-59759946D01*
X203848946Y-60241715D01*
X203735907Y-60810000D01*
X203848946Y-61378285D01*
X204170853Y-61860054D01*
X204500026Y-62080000D01*
X204170853Y-62299946D01*
X203848946Y-62781715D01*
X203735907Y-63350000D01*
X203848946Y-63918285D01*
X204170853Y-64400054D01*
X204500026Y-64620000D01*
X204170853Y-64839946D01*
X203848946Y-65321715D01*
X203735907Y-65890000D01*
X203848946Y-66458285D01*
X204170853Y-66940054D01*
X204500026Y-67160000D01*
X204170853Y-67379946D01*
X203848946Y-67861715D01*
X203735907Y-68430000D01*
X203848946Y-68998285D01*
X204170853Y-69480054D01*
X204500026Y-69700000D01*
X204170853Y-69919946D01*
X204010454Y-70160000D01*
X201655513Y-70160000D01*
X182560000Y-51064488D01*
X182560000Y-50607926D01*
X182585317Y-50603162D01*
X182801441Y-50464090D01*
X182946431Y-50251890D01*
X182997440Y-50000000D01*
X182997440Y-49100000D01*
X182953162Y-48864683D01*
X182814090Y-48648559D01*
X182601890Y-48503569D01*
X182510000Y-48484961D01*
X182510000Y-48199586D01*
X182714698Y-48062811D01*
X183025767Y-47597264D01*
X183135000Y-47048113D01*
X183135000Y-46991887D01*
X183071164Y-46670959D01*
X183768086Y-46670959D01*
X183889371Y-46893000D01*
X185033000Y-46893000D01*
X185033000Y-45750085D01*
X184810961Y-45628096D01*
X184422577Y-45788959D01*
X184007611Y-46164866D01*
X183768086Y-46670959D01*
X183071164Y-46670959D01*
X183025767Y-46442736D01*
X182714698Y-45977189D01*
X182249151Y-45666120D01*
X181700000Y-45556887D01*
X181150849Y-45666120D01*
X180685302Y-45977189D01*
X180415014Y-46381703D01*
X180312389Y-46164866D01*
X179897423Y-45788959D01*
X179509039Y-45628096D01*
X179287000Y-45750085D01*
X179287000Y-46893000D01*
X179307000Y-46893000D01*
X179307000Y-47147000D01*
X179287000Y-47147000D01*
X179287000Y-47167000D01*
X179033000Y-47167000D01*
X179033000Y-47147000D01*
X177889371Y-47147000D01*
X177768086Y-47369041D01*
X178007611Y-47875134D01*
X178422577Y-48251041D01*
X178810961Y-48411904D01*
X179032998Y-48289916D01*
X179032998Y-48452560D01*
X178950000Y-48452560D01*
X178714683Y-48496838D01*
X178498559Y-48635910D01*
X178353569Y-48848110D01*
X178302560Y-49100000D01*
X178302560Y-50000000D01*
X178346838Y-50235317D01*
X178485910Y-50451441D01*
X178615000Y-50539644D01*
X178615000Y-51215000D01*
X176984944Y-51215000D01*
X176985162Y-50964833D01*
X176843117Y-50621057D01*
X176692297Y-50469974D01*
X176701441Y-50464090D01*
X176846431Y-50251890D01*
X176897440Y-50000000D01*
X176897440Y-49100000D01*
X176853162Y-48864683D01*
X176714090Y-48648559D01*
X176510000Y-48509110D01*
X176510000Y-48199586D01*
X176714698Y-48062811D01*
X177025767Y-47597264D01*
X177135000Y-47048113D01*
X177135000Y-46991887D01*
X177071164Y-46670959D01*
X177768086Y-46670959D01*
X177889371Y-46893000D01*
X179033000Y-46893000D01*
X179033000Y-45750085D01*
X178810961Y-45628096D01*
X178422577Y-45788959D01*
X178007611Y-46164866D01*
X177768086Y-46670959D01*
X177071164Y-46670959D01*
X177025767Y-46442736D01*
X176714698Y-45977189D01*
X176249151Y-45666120D01*
X175700000Y-45556887D01*
X175150849Y-45666120D01*
X174685302Y-45977189D01*
X174415014Y-46381703D01*
X174312389Y-46164866D01*
X173897423Y-45788959D01*
X173509039Y-45628096D01*
X173287000Y-45750085D01*
X173287000Y-46893000D01*
X173307000Y-46893000D01*
X173307000Y-47147000D01*
X173287000Y-47147000D01*
X173287000Y-47167000D01*
X173033000Y-47167000D01*
X173033000Y-47147000D01*
X171889371Y-47147000D01*
X171768086Y-47369041D01*
X172007611Y-47875134D01*
X172422577Y-48251041D01*
X172810961Y-48411904D01*
X173032998Y-48289916D01*
X173032998Y-48452560D01*
X172850000Y-48452560D01*
X172614683Y-48496838D01*
X172398559Y-48635910D01*
X172253569Y-48848110D01*
X172202560Y-49100000D01*
X172202560Y-50000000D01*
X172246838Y-50235317D01*
X172385910Y-50451441D01*
X172515000Y-50539644D01*
X172515000Y-50550000D01*
X172586173Y-50907809D01*
X172788855Y-51211145D01*
X175438564Y-53860854D01*
X175569673Y-53992192D01*
X175913201Y-54134838D01*
X176285167Y-54135162D01*
X176628943Y-53993117D01*
X176892192Y-53730327D01*
X177034838Y-53386799D01*
X177035101Y-53085000D01*
X180950000Y-53085000D01*
X181307809Y-53013827D01*
X181611145Y-52811145D01*
X181813389Y-52608901D01*
X200747243Y-71542756D01*
X200835265Y-71601570D01*
X201010026Y-71718342D01*
X201320000Y-71780000D01*
X204010454Y-71780000D01*
X204170853Y-72020054D01*
X204500026Y-72240000D01*
X204170853Y-72459946D01*
X204010454Y-72700000D01*
X203490000Y-72700000D01*
X203180027Y-72761657D01*
X202917244Y-72937243D01*
X201177244Y-74677244D01*
X201001658Y-74940026D01*
X200940000Y-75250000D01*
X200940000Y-80414487D01*
X200164488Y-81190000D01*
X178305512Y-81190000D01*
X179578084Y-79917429D01*
X179878943Y-79793117D01*
X180142192Y-79530327D01*
X180284838Y-79186799D01*
X180285162Y-78814833D01*
X180143117Y-78471057D01*
X179880327Y-78207808D01*
X179536799Y-78065162D01*
X179164833Y-78064838D01*
X178821057Y-78206883D01*
X178557808Y-78469673D01*
X178432116Y-78772371D01*
X176964488Y-80240000D01*
X165870000Y-80240000D01*
X165846660Y-80244643D01*
X165823095Y-80241360D01*
X165692440Y-80275319D01*
X165560026Y-80301658D01*
X165540242Y-80314878D01*
X165517213Y-80320863D01*
X165409490Y-80402243D01*
X165297244Y-80477244D01*
X165284026Y-80497027D01*
X165265038Y-80511371D01*
X161995331Y-84183752D01*
X161810000Y-84146887D01*
X161260849Y-84256120D01*
X160795302Y-84567189D01*
X160540000Y-84949275D01*
X160284698Y-84567189D01*
X159819151Y-84256120D01*
X159270000Y-84146887D01*
X158720849Y-84256120D01*
X158255302Y-84567189D01*
X158000000Y-84949275D01*
X157744698Y-84567189D01*
X157279151Y-84256120D01*
X156730000Y-84146887D01*
X156180849Y-84256120D01*
X155715302Y-84567189D01*
X155445014Y-84971703D01*
X155342389Y-84754866D01*
X154927423Y-84378959D01*
X154539039Y-84218096D01*
X154317000Y-84340085D01*
X154317000Y-85483000D01*
X154337000Y-85483000D01*
X154337000Y-85737000D01*
X154317000Y-85737000D01*
X154317000Y-86879915D01*
X154539039Y-87001904D01*
X154927423Y-86841041D01*
X155342389Y-86465134D01*
X155445014Y-86248297D01*
X155715302Y-86652811D01*
X156180849Y-86963880D01*
X156730000Y-87073113D01*
X156994907Y-87020420D01*
X158239487Y-88265000D01*
X152494018Y-88265000D01*
X152491671Y-88261354D01*
X152493327Y-88259698D01*
X152590000Y-88026309D01*
X152590000Y-87585750D01*
X152431250Y-87427000D01*
X151707000Y-87427000D01*
X151707000Y-87447000D01*
X151453000Y-87447000D01*
X151453000Y-87427000D01*
X150728750Y-87427000D01*
X150570000Y-87585750D01*
X150570000Y-88026309D01*
X150666673Y-88259698D01*
X150668043Y-88261068D01*
X150608569Y-88348110D01*
X150557560Y-88600000D01*
X150557560Y-89800000D01*
X150601838Y-90035317D01*
X150740910Y-90251441D01*
X150953110Y-90396431D01*
X151205000Y-90447440D01*
X151955000Y-90447440D01*
X152190317Y-90403162D01*
X152406441Y-90264090D01*
X152494644Y-90135000D01*
X152702710Y-90135000D01*
X153255000Y-90687290D01*
X153255000Y-92133936D01*
X153175302Y-92187189D01*
X152864233Y-92652736D01*
X152755000Y-93201887D01*
X152755000Y-93258113D01*
X152864233Y-93807264D01*
X153175302Y-94272811D01*
X153640849Y-94583880D01*
X154190000Y-94693113D01*
X154257414Y-94679704D01*
X155065000Y-95487290D01*
X155065000Y-96002560D01*
X154350000Y-96002560D01*
X154114683Y-96046838D01*
X153898559Y-96185910D01*
X153753569Y-96398110D01*
X153719773Y-96565000D01*
X152510005Y-96565000D01*
X152510000Y-96564999D01*
X152211556Y-96624364D01*
X152152191Y-96636173D01*
X151857688Y-96832953D01*
X151848855Y-96838855D01*
X149952000Y-98735710D01*
X149952000Y-86573691D01*
X150570000Y-86573691D01*
X150570000Y-87014250D01*
X150728750Y-87173000D01*
X151453000Y-87173000D01*
X151453000Y-86223750D01*
X151707000Y-86223750D01*
X151707000Y-87173000D01*
X152431250Y-87173000D01*
X152590000Y-87014250D01*
X152590000Y-86573691D01*
X152493327Y-86340302D01*
X152314699Y-86161673D01*
X152081310Y-86065000D01*
X151865750Y-86065000D01*
X151707000Y-86223750D01*
X151453000Y-86223750D01*
X151294250Y-86065000D01*
X151078690Y-86065000D01*
X150845301Y-86161673D01*
X150666673Y-86340302D01*
X150570000Y-86573691D01*
X149952000Y-86573691D01*
X149952000Y-85959041D01*
X152798086Y-85959041D01*
X153037611Y-86465134D01*
X153452577Y-86841041D01*
X153840961Y-87001904D01*
X154063000Y-86879915D01*
X154063000Y-85737000D01*
X152919371Y-85737000D01*
X152798086Y-85959041D01*
X149952000Y-85959041D01*
X149952000Y-85260959D01*
X152798086Y-85260959D01*
X152919371Y-85483000D01*
X154063000Y-85483000D01*
X154063000Y-84340085D01*
X153840961Y-84218096D01*
X153452577Y-84378959D01*
X153037611Y-84754866D01*
X152798086Y-85260959D01*
X149952000Y-85260959D01*
X149952000Y-82877000D01*
X151477942Y-82877000D01*
X151716289Y-83233711D01*
X152442902Y-83719219D01*
X153300000Y-83889706D01*
X154157098Y-83719219D01*
X154883711Y-83233711D01*
X155369219Y-82507098D01*
X155539706Y-81650000D01*
X155369219Y-80792902D01*
X154883711Y-80066289D01*
X154157098Y-79580781D01*
X153300000Y-79410294D01*
X152442902Y-79580781D01*
X152402000Y-79608111D01*
X152402000Y-74882990D01*
X152641750Y-74882990D01*
X152800500Y-74724240D01*
X152800500Y-73375500D01*
X153054500Y-73375500D01*
X153054500Y-74724240D01*
X153213250Y-74882990D01*
X154053300Y-74882990D01*
X154286689Y-74786317D01*
X154465317Y-74607688D01*
X154561990Y-74374299D01*
X154561990Y-73534250D01*
X154403240Y-73375500D01*
X153054500Y-73375500D01*
X152800500Y-73375500D01*
X152780500Y-73375500D01*
X152780500Y-73121500D01*
X152800500Y-73121500D01*
X152800500Y-71772760D01*
X153054500Y-71772760D01*
X153054500Y-73121500D01*
X154403240Y-73121500D01*
X154561990Y-72962750D01*
X154561990Y-72249010D01*
X168425570Y-72249010D01*
X168425570Y-74247990D01*
X168469848Y-74483307D01*
X168608920Y-74699431D01*
X168821120Y-74844421D01*
X169073010Y-74895430D01*
X171071990Y-74895430D01*
X171307307Y-74851152D01*
X171523431Y-74712080D01*
X171668421Y-74499880D01*
X171719430Y-74247990D01*
X171719430Y-72923860D01*
X173864844Y-70778446D01*
X173864838Y-70785167D01*
X174006883Y-71128943D01*
X174269673Y-71392192D01*
X174270065Y-71392355D01*
X174538855Y-71661145D01*
X174842191Y-71863827D01*
X175200000Y-71935000D01*
X176112710Y-71935000D01*
X177838855Y-73661145D01*
X178142191Y-73863827D01*
X178500000Y-73935000D01*
X200399184Y-73935000D01*
X200585167Y-73935162D01*
X200928943Y-73793117D01*
X201192192Y-73530327D01*
X201334838Y-73186799D01*
X201335162Y-72814833D01*
X201193117Y-72471057D01*
X200930327Y-72207808D01*
X200586799Y-72065162D01*
X200214833Y-72064838D01*
X200214441Y-72065000D01*
X178887290Y-72065000D01*
X177585000Y-70762710D01*
X177585000Y-63445305D01*
X177611673Y-63509699D01*
X177790302Y-63688327D01*
X178023691Y-63785000D01*
X178864250Y-63785000D01*
X179023000Y-63626250D01*
X179023000Y-62527000D01*
X179277000Y-62527000D01*
X179277000Y-63626250D01*
X179435750Y-63785000D01*
X180276309Y-63785000D01*
X180509698Y-63688327D01*
X180688327Y-63509699D01*
X180785000Y-63276310D01*
X180785000Y-62685750D01*
X180626250Y-62527000D01*
X179277000Y-62527000D01*
X179023000Y-62527000D01*
X179003000Y-62527000D01*
X179003000Y-62273000D01*
X179023000Y-62273000D01*
X179023000Y-62253000D01*
X179277000Y-62253000D01*
X179277000Y-62273000D01*
X180626250Y-62273000D01*
X180785000Y-62114250D01*
X180785000Y-61523690D01*
X180688327Y-61290301D01*
X180646366Y-61248340D01*
X180675369Y-61205893D01*
X180698110Y-61221431D01*
X180950000Y-61272440D01*
X182150000Y-61272440D01*
X182385317Y-61228162D01*
X182488646Y-61161671D01*
X182490302Y-61163327D01*
X182723691Y-61260000D01*
X183164250Y-61260000D01*
X183323000Y-61101250D01*
X183323000Y-60377000D01*
X183577000Y-60377000D01*
X183577000Y-61101250D01*
X183735750Y-61260000D01*
X184176309Y-61260000D01*
X184409698Y-61163327D01*
X184588327Y-60984699D01*
X184685000Y-60751310D01*
X184685000Y-60535750D01*
X184526250Y-60377000D01*
X183577000Y-60377000D01*
X183323000Y-60377000D01*
X183303000Y-60377000D01*
X183303000Y-60123000D01*
X183323000Y-60123000D01*
X183323000Y-59398750D01*
X183577000Y-59398750D01*
X183577000Y-60123000D01*
X184526250Y-60123000D01*
X184685000Y-59964250D01*
X184685000Y-59748690D01*
X184588327Y-59515301D01*
X184409698Y-59336673D01*
X184176309Y-59240000D01*
X183735750Y-59240000D01*
X183577000Y-59398750D01*
X183323000Y-59398750D01*
X183164250Y-59240000D01*
X182723691Y-59240000D01*
X182490302Y-59336673D01*
X182488932Y-59338043D01*
X182401890Y-59278569D01*
X182150000Y-59227560D01*
X181389444Y-59227560D01*
X181192809Y-59096173D01*
X180835000Y-59025000D01*
X180695453Y-59025000D01*
X180646241Y-58948523D01*
X180746431Y-58801890D01*
X180797440Y-58550000D01*
X180797440Y-58491546D01*
X180950000Y-58522440D01*
X182150000Y-58522440D01*
X182385317Y-58478162D01*
X182488646Y-58411671D01*
X182490302Y-58413327D01*
X182723691Y-58510000D01*
X183164250Y-58510000D01*
X183323000Y-58351250D01*
X183323000Y-57627000D01*
X183577000Y-57627000D01*
X183577000Y-58351250D01*
X183735750Y-58510000D01*
X184176309Y-58510000D01*
X184409698Y-58413327D01*
X184588327Y-58234699D01*
X184685000Y-58001310D01*
X184685000Y-57785750D01*
X184526250Y-57627000D01*
X183577000Y-57627000D01*
X183323000Y-57627000D01*
X183303000Y-57627000D01*
X183303000Y-57373000D01*
X183323000Y-57373000D01*
X183323000Y-56648750D01*
X183577000Y-56648750D01*
X183577000Y-57373000D01*
X184526250Y-57373000D01*
X184685000Y-57214250D01*
X184685000Y-56998690D01*
X184588327Y-56765301D01*
X184409698Y-56586673D01*
X184176309Y-56490000D01*
X183735750Y-56490000D01*
X183577000Y-56648750D01*
X183323000Y-56648750D01*
X183164250Y-56490000D01*
X182723691Y-56490000D01*
X182490302Y-56586673D01*
X182488932Y-56588043D01*
X182401890Y-56528569D01*
X182150000Y-56477560D01*
X180950000Y-56477560D01*
X180714683Y-56521838D01*
X180647607Y-56565000D01*
X180564975Y-56565000D01*
X180401890Y-56453569D01*
X180150000Y-56402560D01*
X178150000Y-56402560D01*
X177914683Y-56446838D01*
X177698559Y-56585910D01*
X177553569Y-56798110D01*
X177540023Y-56865000D01*
X176100005Y-56865000D01*
X176100000Y-56864999D01*
X175801556Y-56924364D01*
X175742191Y-56936173D01*
X175534695Y-57074817D01*
X175438855Y-57138855D01*
X174478479Y-58099231D01*
X174453162Y-57964683D01*
X174314090Y-57748559D01*
X174101890Y-57603569D01*
X173850000Y-57552560D01*
X171850000Y-57552560D01*
X171614683Y-57596838D01*
X171398559Y-57735910D01*
X171253569Y-57948110D01*
X171202560Y-58200000D01*
X171202560Y-62000000D01*
X171246838Y-62235317D01*
X171385910Y-62451441D01*
X171598110Y-62596431D01*
X171850000Y-62647440D01*
X171915000Y-62647440D01*
X171915000Y-64893178D01*
X171865162Y-65013201D01*
X171864838Y-65385167D01*
X172006883Y-65728943D01*
X172269673Y-65992192D01*
X172613201Y-66134838D01*
X172985167Y-66135162D01*
X173328943Y-65993117D01*
X173592192Y-65730327D01*
X173636593Y-65623398D01*
X173713827Y-65507809D01*
X173785000Y-65150000D01*
X173785000Y-62647440D01*
X173850000Y-62647440D01*
X174085317Y-62603162D01*
X174165000Y-62551887D01*
X174165000Y-67812710D01*
X173038855Y-68938855D01*
X172996568Y-69002142D01*
X170397140Y-71601570D01*
X169073010Y-71601570D01*
X168837693Y-71645848D01*
X168621569Y-71784920D01*
X168476579Y-71997120D01*
X168425570Y-72249010D01*
X154561990Y-72249010D01*
X154561990Y-72122701D01*
X154465317Y-71889312D01*
X154286689Y-71710683D01*
X154053300Y-71614010D01*
X153213250Y-71614010D01*
X153054500Y-71772760D01*
X152800500Y-71772760D01*
X152641750Y-71614010D01*
X152402000Y-71614010D01*
X152402000Y-66375000D01*
X152391994Y-66325590D01*
X152363553Y-66283965D01*
X152321159Y-66256685D01*
X152275000Y-66248000D01*
X150051856Y-66248000D01*
X150029648Y-46670959D01*
X171768086Y-46670959D01*
X171889371Y-46893000D01*
X173033000Y-46893000D01*
X173033000Y-45750085D01*
X172810961Y-45628096D01*
X172422577Y-45788959D01*
X172007611Y-46164866D01*
X171768086Y-46670959D01*
X150029648Y-46670959D01*
X150015316Y-34037250D01*
X151340510Y-34037250D01*
X151340510Y-34877299D01*
X151437183Y-35110688D01*
X151615811Y-35289317D01*
X151849200Y-35385990D01*
X152689250Y-35385990D01*
X152848000Y-35227240D01*
X152848000Y-33878500D01*
X153102000Y-33878500D01*
X153102000Y-35227240D01*
X153260750Y-35385990D01*
X154100800Y-35385990D01*
X154334189Y-35289317D01*
X154512817Y-35110688D01*
X154609490Y-34877299D01*
X154609490Y-34037250D01*
X154450740Y-33878500D01*
X153102000Y-33878500D01*
X152848000Y-33878500D01*
X151499260Y-33878500D01*
X151340510Y-34037250D01*
X150015316Y-34037250D01*
X150013715Y-32625701D01*
X151340510Y-32625701D01*
X151340510Y-33465750D01*
X151499260Y-33624500D01*
X152848000Y-33624500D01*
X152848000Y-32275760D01*
X153102000Y-32275760D01*
X153102000Y-33624500D01*
X154450740Y-33624500D01*
X154609490Y-33465750D01*
X154609490Y-32625701D01*
X154512817Y-32392312D01*
X154334189Y-32213683D01*
X154100800Y-32117010D01*
X153260750Y-32117010D01*
X153102000Y-32275760D01*
X152848000Y-32275760D01*
X152689250Y-32117010D01*
X151849200Y-32117010D01*
X151615811Y-32213683D01*
X151437183Y-32392312D01*
X151340510Y-32625701D01*
X150013715Y-32625701D01*
X150007712Y-27333320D01*
X153346285Y-27333320D01*
X153475533Y-27626123D01*
X154175806Y-27894388D01*
X154925435Y-27874250D01*
X155524467Y-27626123D01*
X155653715Y-27333320D01*
X154500000Y-26179605D01*
X153346285Y-27333320D01*
X150007712Y-27333320D01*
X150005831Y-25675806D01*
X152605612Y-25675806D01*
X152625750Y-26425435D01*
X152873877Y-27024467D01*
X153166680Y-27153715D01*
X154320395Y-26000000D01*
X154679605Y-26000000D01*
X155833320Y-27153715D01*
X156126123Y-27024467D01*
X156394388Y-26324194D01*
X156374250Y-25574565D01*
X156126123Y-24975533D01*
X155833320Y-24846285D01*
X154679605Y-26000000D01*
X154320395Y-26000000D01*
X153166680Y-24846285D01*
X152873877Y-24975533D01*
X152605612Y-25675806D01*
X150005831Y-25675806D01*
X150004686Y-24666680D01*
X153346285Y-24666680D01*
X154500000Y-25820395D01*
X155653715Y-24666680D01*
X155524467Y-24373877D01*
X154824194Y-24105612D01*
X154074565Y-24125750D01*
X153475533Y-24373877D01*
X153346285Y-24666680D01*
X150004686Y-24666680D01*
X150002144Y-22426806D01*
X166148000Y-22402194D01*
X166148000Y-25052321D01*
X166148000Y-25052321D01*
G37*
X166148000Y-25052321D02*
X166098957Y-24933628D01*
X165569161Y-24402907D01*
X164876595Y-24115328D01*
X164126695Y-24114674D01*
X163433628Y-24401043D01*
X162968861Y-24865000D01*
X161030449Y-24865000D01*
X160569161Y-24402907D01*
X159876595Y-24115328D01*
X159126695Y-24114674D01*
X158433628Y-24401043D01*
X157902907Y-24930839D01*
X157615328Y-25623405D01*
X157614674Y-26373305D01*
X157901043Y-27066372D01*
X158430839Y-27597093D01*
X159123405Y-27884672D01*
X159873305Y-27885326D01*
X160566372Y-27598957D01*
X161031139Y-27135000D01*
X162969551Y-27135000D01*
X163365000Y-27531139D01*
X163365000Y-31500000D01*
X163451397Y-31934346D01*
X163638044Y-32213683D01*
X163697434Y-32302566D01*
X165948934Y-34554066D01*
X166317154Y-34800103D01*
X166751500Y-34886500D01*
X168403568Y-34886500D01*
X168422348Y-34986307D01*
X168561420Y-35202431D01*
X168773620Y-35347421D01*
X169025510Y-35398430D01*
X170598000Y-35398430D01*
X170598000Y-44625000D01*
X170608006Y-44674410D01*
X170636447Y-44716035D01*
X170678841Y-44743315D01*
X170725000Y-44752000D01*
X194125000Y-44752000D01*
X194174410Y-44741994D01*
X194214803Y-44714803D01*
X195489803Y-43439803D01*
X195517666Y-43397789D01*
X195527000Y-43350000D01*
X195527000Y-39152606D01*
X198352606Y-36327000D01*
X214648105Y-36327000D01*
X214672895Y-66348000D01*
X212850000Y-66348000D01*
X212800590Y-66358006D01*
X212758965Y-66386447D01*
X212731685Y-66428841D01*
X212723000Y-66474805D01*
X212698000Y-82724805D01*
X212707930Y-82774230D01*
X212736307Y-82815898D01*
X212778659Y-82843243D01*
X212825000Y-82852000D01*
X214747801Y-82852000D01*
X214723000Y-98724802D01*
X214723000Y-100598059D01*
X211435000Y-100600589D01*
X211435000Y-98997440D01*
X212150000Y-98997440D01*
X212385317Y-98953162D01*
X212601441Y-98814090D01*
X212746431Y-98601890D01*
X212797440Y-98350000D01*
X212797440Y-96650000D01*
X212753162Y-96414683D01*
X212614090Y-96198559D01*
X212401890Y-96053569D01*
X212150000Y-96002560D01*
X210124850Y-96002560D01*
X208251145Y-94128855D01*
X207947809Y-93926173D01*
X207590000Y-93855000D01*
X206467290Y-93855000D01*
X208451145Y-91871145D01*
X208653827Y-91567809D01*
X208725000Y-91210000D01*
X208725000Y-89896370D01*
X208869147Y-89800054D01*
X209191054Y-89318285D01*
X209304093Y-88750000D01*
X209191054Y-88181715D01*
X208869147Y-87699946D01*
X208550000Y-87486699D01*
X208550000Y-87473301D01*
X208869147Y-87260054D01*
X209191054Y-86778285D01*
X209304093Y-86210000D01*
X209191054Y-85641715D01*
X208869147Y-85159946D01*
X208528447Y-84932298D01*
X208671358Y-84865183D01*
X209061645Y-84436924D01*
X209231476Y-84026890D01*
X209110155Y-83797000D01*
X207917000Y-83797000D01*
X207917000Y-83817000D01*
X207663000Y-83817000D01*
X207663000Y-83797000D01*
X207643000Y-83797000D01*
X207643000Y-83543000D01*
X207663000Y-83543000D01*
X207663000Y-83523000D01*
X207917000Y-83523000D01*
X207917000Y-83543000D01*
X209110155Y-83543000D01*
X209231476Y-83313110D01*
X209061645Y-82903076D01*
X208671358Y-82474817D01*
X208528447Y-82407702D01*
X208869147Y-82180054D01*
X209191054Y-81698285D01*
X209304093Y-81130000D01*
X209191054Y-80561715D01*
X208869147Y-80079946D01*
X208539974Y-79860000D01*
X208869147Y-79640054D01*
X209191054Y-79158285D01*
X209304093Y-78590000D01*
X209191054Y-78021715D01*
X208869147Y-77539946D01*
X208539974Y-77320000D01*
X208869147Y-77100054D01*
X209191054Y-76618285D01*
X209304093Y-76050000D01*
X209191054Y-75481715D01*
X208869147Y-74999946D01*
X208528447Y-74772298D01*
X208671358Y-74705183D01*
X209061645Y-74276924D01*
X209231476Y-73866890D01*
X209110155Y-73637000D01*
X207917000Y-73637000D01*
X207917000Y-73657000D01*
X207663000Y-73657000D01*
X207663000Y-73637000D01*
X207643000Y-73637000D01*
X207643000Y-73383000D01*
X207663000Y-73383000D01*
X207663000Y-73363000D01*
X207917000Y-73363000D01*
X207917000Y-73383000D01*
X209110155Y-73383000D01*
X209231476Y-73153110D01*
X209061645Y-72743076D01*
X208671358Y-72314817D01*
X208528447Y-72247702D01*
X208869147Y-72020054D01*
X209191054Y-71538285D01*
X209304093Y-70970000D01*
X209191054Y-70401715D01*
X208869147Y-69919946D01*
X208539974Y-69700000D01*
X208869147Y-69480054D01*
X209191054Y-68998285D01*
X209304093Y-68430000D01*
X209191054Y-67861715D01*
X208869147Y-67379946D01*
X208528447Y-67152298D01*
X208671358Y-67085183D01*
X209061645Y-66656924D01*
X209231476Y-66246890D01*
X209110155Y-66017000D01*
X207917000Y-66017000D01*
X207917000Y-66037000D01*
X207663000Y-66037000D01*
X207663000Y-66017000D01*
X207643000Y-66017000D01*
X207643000Y-65763000D01*
X207663000Y-65763000D01*
X207663000Y-65743000D01*
X207917000Y-65743000D01*
X207917000Y-65763000D01*
X209110155Y-65763000D01*
X209231476Y-65533110D01*
X209061645Y-65123076D01*
X208671358Y-64694817D01*
X208528447Y-64627702D01*
X208869147Y-64400054D01*
X209191054Y-63918285D01*
X209304093Y-63350000D01*
X209191054Y-62781715D01*
X208869147Y-62299946D01*
X208539974Y-62080000D01*
X208869147Y-61860054D01*
X209191054Y-61378285D01*
X209304093Y-60810000D01*
X209191054Y-60241715D01*
X208869147Y-59759946D01*
X208539974Y-59540000D01*
X208869147Y-59320054D01*
X209191054Y-58838285D01*
X209304093Y-58270000D01*
X209191054Y-57701715D01*
X208869147Y-57219946D01*
X208539974Y-57000000D01*
X208869147Y-56780054D01*
X209191054Y-56298285D01*
X209304093Y-55730000D01*
X209191054Y-55161715D01*
X208869147Y-54679946D01*
X208528447Y-54452298D01*
X208671358Y-54385183D01*
X209061645Y-53956924D01*
X209231476Y-53546890D01*
X209110155Y-53317000D01*
X207917000Y-53317000D01*
X207917000Y-53337000D01*
X207663000Y-53337000D01*
X207663000Y-53317000D01*
X207643000Y-53317000D01*
X207643000Y-53063000D01*
X207663000Y-53063000D01*
X207663000Y-53043000D01*
X207917000Y-53043000D01*
X207917000Y-53063000D01*
X209110155Y-53063000D01*
X209231476Y-52833110D01*
X209061645Y-52423076D01*
X208671358Y-51994817D01*
X208528447Y-51927702D01*
X208869147Y-51700054D01*
X209191054Y-51218285D01*
X209304093Y-50650000D01*
X209191054Y-50081715D01*
X208869147Y-49599946D01*
X208528447Y-49372298D01*
X208671358Y-49305183D01*
X209061645Y-48876924D01*
X209231476Y-48466890D01*
X209110155Y-48237000D01*
X207917000Y-48237000D01*
X207917000Y-48257000D01*
X207663000Y-48257000D01*
X207663000Y-48237000D01*
X207643000Y-48237000D01*
X207643000Y-47983000D01*
X207663000Y-47983000D01*
X207663000Y-47963000D01*
X207917000Y-47963000D01*
X207917000Y-47983000D01*
X209110155Y-47983000D01*
X209231476Y-47753110D01*
X209061645Y-47343076D01*
X208671358Y-46914817D01*
X208528447Y-46847702D01*
X208869147Y-46620054D01*
X209191054Y-46138285D01*
X209304093Y-45570000D01*
X209191054Y-45001715D01*
X208869147Y-44519946D01*
X208539974Y-44300000D01*
X208869147Y-44080054D01*
X209046337Y-43814870D01*
X209229974Y-43778342D01*
X209492756Y-43602756D01*
X209722756Y-43372757D01*
X209811460Y-43240001D01*
X209898342Y-43109974D01*
X209960000Y-42800000D01*
X209960000Y-40612733D01*
X210241289Y-41033711D01*
X210967902Y-41519219D01*
X211825000Y-41689706D01*
X212682098Y-41519219D01*
X213408711Y-41033711D01*
X213894219Y-40307098D01*
X214064706Y-39450000D01*
X213894219Y-38592902D01*
X213408711Y-37866289D01*
X212682098Y-37380781D01*
X211825000Y-37210294D01*
X210967902Y-37380781D01*
X210241289Y-37866289D01*
X209755781Y-38592902D01*
X209620172Y-39274659D01*
X207372759Y-37027247D01*
X207372757Y-37027244D01*
X207322756Y-36977244D01*
X207260008Y-36935317D01*
X207059974Y-36801658D01*
X206750000Y-36740000D01*
X199050000Y-36740000D01*
X198877897Y-36774234D01*
X198740027Y-36801657D01*
X198477244Y-36977243D01*
X196127244Y-39327244D01*
X195951658Y-39590026D01*
X195890000Y-39900000D01*
X195890000Y-43714487D01*
X193989930Y-45614558D01*
X193700000Y-45556887D01*
X193150849Y-45666120D01*
X192685302Y-45977189D01*
X192415014Y-46381703D01*
X192312389Y-46164866D01*
X191897423Y-45788959D01*
X191509039Y-45628096D01*
X191287000Y-45750085D01*
X191287000Y-46893000D01*
X191307000Y-46893000D01*
X191307000Y-47147000D01*
X191287000Y-47147000D01*
X191287000Y-47167000D01*
X191033000Y-47167000D01*
X191033000Y-47147000D01*
X189889371Y-47147000D01*
X189768086Y-47369041D01*
X190007611Y-47875134D01*
X190422577Y-48251041D01*
X190626008Y-48335299D01*
X190564683Y-48346838D01*
X190381054Y-48465000D01*
X190200000Y-48465000D01*
X189842191Y-48536173D01*
X189538855Y-48738855D01*
X189538853Y-48738858D01*
X189047440Y-49230270D01*
X189047440Y-49050000D01*
X189003162Y-48814683D01*
X188864090Y-48598559D01*
X188651890Y-48453569D01*
X188510000Y-48424836D01*
X188510000Y-48199586D01*
X188714698Y-48062811D01*
X189025767Y-47597264D01*
X189135000Y-47048113D01*
X189135000Y-46991887D01*
X189071164Y-46670959D01*
X189768086Y-46670959D01*
X189889371Y-46893000D01*
X191033000Y-46893000D01*
X191033000Y-45750085D01*
X190810961Y-45628096D01*
X190422577Y-45788959D01*
X190007611Y-46164866D01*
X189768086Y-46670959D01*
X189071164Y-46670959D01*
X189025767Y-46442736D01*
X188714698Y-45977189D01*
X188249151Y-45666120D01*
X187700000Y-45556887D01*
X187150849Y-45666120D01*
X186685302Y-45977189D01*
X186415014Y-46381703D01*
X186312389Y-46164866D01*
X185897423Y-45788959D01*
X185509039Y-45628096D01*
X185287000Y-45750085D01*
X185287000Y-46893000D01*
X185307000Y-46893000D01*
X185307000Y-47147000D01*
X185287000Y-47147000D01*
X185287000Y-47167000D01*
X185033000Y-47167000D01*
X185033000Y-47147000D01*
X183889371Y-47147000D01*
X183768086Y-47369041D01*
X184007611Y-47875134D01*
X184422577Y-48251041D01*
X184810961Y-48411904D01*
X185032998Y-48289916D01*
X185032998Y-48402560D01*
X185000000Y-48402560D01*
X184764683Y-48446838D01*
X184548559Y-48585910D01*
X184403569Y-48798110D01*
X184352560Y-49050000D01*
X184352560Y-49950000D01*
X184372379Y-50055331D01*
X184039146Y-50388564D01*
X183907808Y-50519673D01*
X183765162Y-50863201D01*
X183764838Y-51235167D01*
X183906883Y-51578943D01*
X184169673Y-51842192D01*
X184513201Y-51984838D01*
X184885167Y-51985162D01*
X185228943Y-51843117D01*
X185492192Y-51580327D01*
X185492355Y-51579935D01*
X186261145Y-50811145D01*
X186433265Y-50553548D01*
X186435317Y-50553162D01*
X186651441Y-50414090D01*
X186699134Y-50344289D01*
X186735910Y-50401441D01*
X186948110Y-50546431D01*
X187032471Y-50563515D01*
X187051658Y-50659974D01*
X187188541Y-50864833D01*
X187227244Y-50922756D01*
X187904487Y-51600000D01*
X187671917Y-51832570D01*
X187371057Y-51956883D01*
X187107808Y-52219673D01*
X186965162Y-52563201D01*
X186964838Y-52935167D01*
X187106883Y-53278943D01*
X187369673Y-53542192D01*
X187713201Y-53684838D01*
X188085167Y-53685162D01*
X188428943Y-53543117D01*
X188692192Y-53280327D01*
X188817884Y-52977628D01*
X189035513Y-52760000D01*
X196650000Y-52760000D01*
X196959974Y-52698342D01*
X197222756Y-52522756D01*
X198572756Y-51172757D01*
X198711466Y-50965162D01*
X198748342Y-50909974D01*
X198810000Y-50600000D01*
X198810000Y-44385514D01*
X199355515Y-43840000D01*
X204010454Y-43840000D01*
X204170853Y-44080054D01*
X204500026Y-44300000D01*
X204170853Y-44519946D01*
X203848946Y-45001715D01*
X203735907Y-45570000D01*
X203848946Y-46138285D01*
X204170853Y-46620054D01*
X204500026Y-46840000D01*
X204170853Y-47059946D01*
X203848946Y-47541715D01*
X203735907Y-48110000D01*
X203848946Y-48678285D01*
X204170853Y-49160054D01*
X204500026Y-49380000D01*
X204170853Y-49599946D01*
X203848946Y-50081715D01*
X203735907Y-50650000D01*
X203848946Y-51218285D01*
X204170853Y-51700054D01*
X204500026Y-51920000D01*
X204170853Y-52139946D01*
X203848946Y-52621715D01*
X203735907Y-53190000D01*
X203848946Y-53758285D01*
X204170853Y-54240054D01*
X204500026Y-54460000D01*
X204170853Y-54679946D01*
X203848946Y-55161715D01*
X203735907Y-55730000D01*
X203848946Y-56298285D01*
X204170853Y-56780054D01*
X204511553Y-57007702D01*
X204368642Y-57074817D01*
X203978355Y-57503076D01*
X203808524Y-57913110D01*
X203929845Y-58143000D01*
X205123000Y-58143000D01*
X205123000Y-58123000D01*
X205377000Y-58123000D01*
X205377000Y-58143000D01*
X205397000Y-58143000D01*
X205397000Y-58397000D01*
X205377000Y-58397000D01*
X205377000Y-58417000D01*
X205123000Y-58417000D01*
X205123000Y-58397000D01*
X203929845Y-58397000D01*
X203808524Y-58626890D01*
X203978355Y-59036924D01*
X204368642Y-59465183D01*
X204511553Y-59532298D01*
X204170853Y-59759946D01*
X203848946Y-60241715D01*
X203735907Y-60810000D01*
X203848946Y-61378285D01*
X204170853Y-61860054D01*
X204500026Y-62080000D01*
X204170853Y-62299946D01*
X203848946Y-62781715D01*
X203735907Y-63350000D01*
X203848946Y-63918285D01*
X204170853Y-64400054D01*
X204500026Y-64620000D01*
X204170853Y-64839946D01*
X203848946Y-65321715D01*
X203735907Y-65890000D01*
X203848946Y-66458285D01*
X204170853Y-66940054D01*
X204500026Y-67160000D01*
X204170853Y-67379946D01*
X203848946Y-67861715D01*
X203735907Y-68430000D01*
X203848946Y-68998285D01*
X204170853Y-69480054D01*
X204500026Y-69700000D01*
X204170853Y-69919946D01*
X204010454Y-70160000D01*
X201655513Y-70160000D01*
X182560000Y-51064488D01*
X182560000Y-50607926D01*
X182585317Y-50603162D01*
X182801441Y-50464090D01*
X182946431Y-50251890D01*
X182997440Y-50000000D01*
X182997440Y-49100000D01*
X182953162Y-48864683D01*
X182814090Y-48648559D01*
X182601890Y-48503569D01*
X182510000Y-48484961D01*
X182510000Y-48199586D01*
X182714698Y-48062811D01*
X183025767Y-47597264D01*
X183135000Y-47048113D01*
X183135000Y-46991887D01*
X183071164Y-46670959D01*
X183768086Y-46670959D01*
X183889371Y-46893000D01*
X185033000Y-46893000D01*
X185033000Y-45750085D01*
X184810961Y-45628096D01*
X184422577Y-45788959D01*
X184007611Y-46164866D01*
X183768086Y-46670959D01*
X183071164Y-46670959D01*
X183025767Y-46442736D01*
X182714698Y-45977189D01*
X182249151Y-45666120D01*
X181700000Y-45556887D01*
X181150849Y-45666120D01*
X180685302Y-45977189D01*
X180415014Y-46381703D01*
X180312389Y-46164866D01*
X179897423Y-45788959D01*
X179509039Y-45628096D01*
X179287000Y-45750085D01*
X179287000Y-46893000D01*
X179307000Y-46893000D01*
X179307000Y-47147000D01*
X179287000Y-47147000D01*
X179287000Y-47167000D01*
X179033000Y-47167000D01*
X179033000Y-47147000D01*
X177889371Y-47147000D01*
X177768086Y-47369041D01*
X178007611Y-47875134D01*
X178422577Y-48251041D01*
X178810961Y-48411904D01*
X179032998Y-48289916D01*
X179032998Y-48452560D01*
X178950000Y-48452560D01*
X178714683Y-48496838D01*
X178498559Y-48635910D01*
X178353569Y-48848110D01*
X178302560Y-49100000D01*
X178302560Y-50000000D01*
X178346838Y-50235317D01*
X178485910Y-50451441D01*
X178615000Y-50539644D01*
X178615000Y-51215000D01*
X176984944Y-51215000D01*
X176985162Y-50964833D01*
X176843117Y-50621057D01*
X176692297Y-50469974D01*
X176701441Y-50464090D01*
X176846431Y-50251890D01*
X176897440Y-50000000D01*
X176897440Y-49100000D01*
X176853162Y-48864683D01*
X176714090Y-48648559D01*
X176510000Y-48509110D01*
X176510000Y-48199586D01*
X176714698Y-48062811D01*
X177025767Y-47597264D01*
X177135000Y-47048113D01*
X177135000Y-46991887D01*
X177071164Y-46670959D01*
X177768086Y-46670959D01*
X177889371Y-46893000D01*
X179033000Y-46893000D01*
X179033000Y-45750085D01*
X178810961Y-45628096D01*
X178422577Y-45788959D01*
X178007611Y-46164866D01*
X177768086Y-46670959D01*
X177071164Y-46670959D01*
X177025767Y-46442736D01*
X176714698Y-45977189D01*
X176249151Y-45666120D01*
X175700000Y-45556887D01*
X175150849Y-45666120D01*
X174685302Y-45977189D01*
X174415014Y-46381703D01*
X174312389Y-46164866D01*
X173897423Y-45788959D01*
X173509039Y-45628096D01*
X173287000Y-45750085D01*
X173287000Y-46893000D01*
X173307000Y-46893000D01*
X173307000Y-47147000D01*
X173287000Y-47147000D01*
X173287000Y-47167000D01*
X173033000Y-47167000D01*
X173033000Y-47147000D01*
X171889371Y-47147000D01*
X171768086Y-47369041D01*
X172007611Y-47875134D01*
X172422577Y-48251041D01*
X172810961Y-48411904D01*
X173032998Y-48289916D01*
X173032998Y-48452560D01*
X172850000Y-48452560D01*
X172614683Y-48496838D01*
X172398559Y-48635910D01*
X172253569Y-48848110D01*
X172202560Y-49100000D01*
X172202560Y-50000000D01*
X172246838Y-50235317D01*
X172385910Y-50451441D01*
X172515000Y-50539644D01*
X172515000Y-50550000D01*
X172586173Y-50907809D01*
X172788855Y-51211145D01*
X175438564Y-53860854D01*
X175569673Y-53992192D01*
X175913201Y-54134838D01*
X176285167Y-54135162D01*
X176628943Y-53993117D01*
X176892192Y-53730327D01*
X177034838Y-53386799D01*
X177035101Y-53085000D01*
X180950000Y-53085000D01*
X181307809Y-53013827D01*
X181611145Y-52811145D01*
X181813389Y-52608901D01*
X200747243Y-71542756D01*
X200835265Y-71601570D01*
X201010026Y-71718342D01*
X201320000Y-71780000D01*
X204010454Y-71780000D01*
X204170853Y-72020054D01*
X204500026Y-72240000D01*
X204170853Y-72459946D01*
X204010454Y-72700000D01*
X203490000Y-72700000D01*
X203180027Y-72761657D01*
X202917244Y-72937243D01*
X201177244Y-74677244D01*
X201001658Y-74940026D01*
X200940000Y-75250000D01*
X200940000Y-80414487D01*
X200164488Y-81190000D01*
X178305512Y-81190000D01*
X179578084Y-79917429D01*
X179878943Y-79793117D01*
X180142192Y-79530327D01*
X180284838Y-79186799D01*
X180285162Y-78814833D01*
X180143117Y-78471057D01*
X179880327Y-78207808D01*
X179536799Y-78065162D01*
X179164833Y-78064838D01*
X178821057Y-78206883D01*
X178557808Y-78469673D01*
X178432116Y-78772371D01*
X176964488Y-80240000D01*
X165870000Y-80240000D01*
X165846660Y-80244643D01*
X165823095Y-80241360D01*
X165692440Y-80275319D01*
X165560026Y-80301658D01*
X165540242Y-80314878D01*
X165517213Y-80320863D01*
X165409490Y-80402243D01*
X165297244Y-80477244D01*
X165284026Y-80497027D01*
X165265038Y-80511371D01*
X161995331Y-84183752D01*
X161810000Y-84146887D01*
X161260849Y-84256120D01*
X160795302Y-84567189D01*
X160540000Y-84949275D01*
X160284698Y-84567189D01*
X159819151Y-84256120D01*
X159270000Y-84146887D01*
X158720849Y-84256120D01*
X158255302Y-84567189D01*
X158000000Y-84949275D01*
X157744698Y-84567189D01*
X157279151Y-84256120D01*
X156730000Y-84146887D01*
X156180849Y-84256120D01*
X155715302Y-84567189D01*
X155445014Y-84971703D01*
X155342389Y-84754866D01*
X154927423Y-84378959D01*
X154539039Y-84218096D01*
X154317000Y-84340085D01*
X154317000Y-85483000D01*
X154337000Y-85483000D01*
X154337000Y-85737000D01*
X154317000Y-85737000D01*
X154317000Y-86879915D01*
X154539039Y-87001904D01*
X154927423Y-86841041D01*
X155342389Y-86465134D01*
X155445014Y-86248297D01*
X155715302Y-86652811D01*
X156180849Y-86963880D01*
X156730000Y-87073113D01*
X156994907Y-87020420D01*
X158239487Y-88265000D01*
X152494018Y-88265000D01*
X152491671Y-88261354D01*
X152493327Y-88259698D01*
X152590000Y-88026309D01*
X152590000Y-87585750D01*
X152431250Y-87427000D01*
X151707000Y-87427000D01*
X151707000Y-87447000D01*
X151453000Y-87447000D01*
X151453000Y-87427000D01*
X150728750Y-87427000D01*
X150570000Y-87585750D01*
X150570000Y-88026309D01*
X150666673Y-88259698D01*
X150668043Y-88261068D01*
X150608569Y-88348110D01*
X150557560Y-88600000D01*
X150557560Y-89800000D01*
X150601838Y-90035317D01*
X150740910Y-90251441D01*
X150953110Y-90396431D01*
X151205000Y-90447440D01*
X151955000Y-90447440D01*
X152190317Y-90403162D01*
X152406441Y-90264090D01*
X152494644Y-90135000D01*
X152702710Y-90135000D01*
X153255000Y-90687290D01*
X153255000Y-92133936D01*
X153175302Y-92187189D01*
X152864233Y-92652736D01*
X152755000Y-93201887D01*
X152755000Y-93258113D01*
X152864233Y-93807264D01*
X153175302Y-94272811D01*
X153640849Y-94583880D01*
X154190000Y-94693113D01*
X154257414Y-94679704D01*
X155065000Y-95487290D01*
X155065000Y-96002560D01*
X154350000Y-96002560D01*
X154114683Y-96046838D01*
X153898559Y-96185910D01*
X153753569Y-96398110D01*
X153719773Y-96565000D01*
X152510005Y-96565000D01*
X152510000Y-96564999D01*
X152211556Y-96624364D01*
X152152191Y-96636173D01*
X151857688Y-96832953D01*
X151848855Y-96838855D01*
X149952000Y-98735710D01*
X149952000Y-86573691D01*
X150570000Y-86573691D01*
X150570000Y-87014250D01*
X150728750Y-87173000D01*
X151453000Y-87173000D01*
X151453000Y-86223750D01*
X151707000Y-86223750D01*
X151707000Y-87173000D01*
X152431250Y-87173000D01*
X152590000Y-87014250D01*
X152590000Y-86573691D01*
X152493327Y-86340302D01*
X152314699Y-86161673D01*
X152081310Y-86065000D01*
X151865750Y-86065000D01*
X151707000Y-86223750D01*
X151453000Y-86223750D01*
X151294250Y-86065000D01*
X151078690Y-86065000D01*
X150845301Y-86161673D01*
X150666673Y-86340302D01*
X150570000Y-86573691D01*
X149952000Y-86573691D01*
X149952000Y-85959041D01*
X152798086Y-85959041D01*
X153037611Y-86465134D01*
X153452577Y-86841041D01*
X153840961Y-87001904D01*
X154063000Y-86879915D01*
X154063000Y-85737000D01*
X152919371Y-85737000D01*
X152798086Y-85959041D01*
X149952000Y-85959041D01*
X149952000Y-85260959D01*
X152798086Y-85260959D01*
X152919371Y-85483000D01*
X154063000Y-85483000D01*
X154063000Y-84340085D01*
X153840961Y-84218096D01*
X153452577Y-84378959D01*
X153037611Y-84754866D01*
X152798086Y-85260959D01*
X149952000Y-85260959D01*
X149952000Y-82877000D01*
X151477942Y-82877000D01*
X151716289Y-83233711D01*
X152442902Y-83719219D01*
X153300000Y-83889706D01*
X154157098Y-83719219D01*
X154883711Y-83233711D01*
X155369219Y-82507098D01*
X155539706Y-81650000D01*
X155369219Y-80792902D01*
X154883711Y-80066289D01*
X154157098Y-79580781D01*
X153300000Y-79410294D01*
X152442902Y-79580781D01*
X152402000Y-79608111D01*
X152402000Y-74882990D01*
X152641750Y-74882990D01*
X152800500Y-74724240D01*
X152800500Y-73375500D01*
X153054500Y-73375500D01*
X153054500Y-74724240D01*
X153213250Y-74882990D01*
X154053300Y-74882990D01*
X154286689Y-74786317D01*
X154465317Y-74607688D01*
X154561990Y-74374299D01*
X154561990Y-73534250D01*
X154403240Y-73375500D01*
X153054500Y-73375500D01*
X152800500Y-73375500D01*
X152780500Y-73375500D01*
X152780500Y-73121500D01*
X152800500Y-73121500D01*
X152800500Y-71772760D01*
X153054500Y-71772760D01*
X153054500Y-73121500D01*
X154403240Y-73121500D01*
X154561990Y-72962750D01*
X154561990Y-72249010D01*
X168425570Y-72249010D01*
X168425570Y-74247990D01*
X168469848Y-74483307D01*
X168608920Y-74699431D01*
X168821120Y-74844421D01*
X169073010Y-74895430D01*
X171071990Y-74895430D01*
X171307307Y-74851152D01*
X171523431Y-74712080D01*
X171668421Y-74499880D01*
X171719430Y-74247990D01*
X171719430Y-72923860D01*
X173864844Y-70778446D01*
X173864838Y-70785167D01*
X174006883Y-71128943D01*
X174269673Y-71392192D01*
X174270065Y-71392355D01*
X174538855Y-71661145D01*
X174842191Y-71863827D01*
X175200000Y-71935000D01*
X176112710Y-71935000D01*
X177838855Y-73661145D01*
X178142191Y-73863827D01*
X178500000Y-73935000D01*
X200399184Y-73935000D01*
X200585167Y-73935162D01*
X200928943Y-73793117D01*
X201192192Y-73530327D01*
X201334838Y-73186799D01*
X201335162Y-72814833D01*
X201193117Y-72471057D01*
X200930327Y-72207808D01*
X200586799Y-72065162D01*
X200214833Y-72064838D01*
X200214441Y-72065000D01*
X178887290Y-72065000D01*
X177585000Y-70762710D01*
X177585000Y-63445305D01*
X177611673Y-63509699D01*
X177790302Y-63688327D01*
X178023691Y-63785000D01*
X178864250Y-63785000D01*
X179023000Y-63626250D01*
X179023000Y-62527000D01*
X179277000Y-62527000D01*
X179277000Y-63626250D01*
X179435750Y-63785000D01*
X180276309Y-63785000D01*
X180509698Y-63688327D01*
X180688327Y-63509699D01*
X180785000Y-63276310D01*
X180785000Y-62685750D01*
X180626250Y-62527000D01*
X179277000Y-62527000D01*
X179023000Y-62527000D01*
X179003000Y-62527000D01*
X179003000Y-62273000D01*
X179023000Y-62273000D01*
X179023000Y-62253000D01*
X179277000Y-62253000D01*
X179277000Y-62273000D01*
X180626250Y-62273000D01*
X180785000Y-62114250D01*
X180785000Y-61523690D01*
X180688327Y-61290301D01*
X180646366Y-61248340D01*
X180675369Y-61205893D01*
X180698110Y-61221431D01*
X180950000Y-61272440D01*
X182150000Y-61272440D01*
X182385317Y-61228162D01*
X182488646Y-61161671D01*
X182490302Y-61163327D01*
X182723691Y-61260000D01*
X183164250Y-61260000D01*
X183323000Y-61101250D01*
X183323000Y-60377000D01*
X183577000Y-60377000D01*
X183577000Y-61101250D01*
X183735750Y-61260000D01*
X184176309Y-61260000D01*
X184409698Y-61163327D01*
X184588327Y-60984699D01*
X184685000Y-60751310D01*
X184685000Y-60535750D01*
X184526250Y-60377000D01*
X183577000Y-60377000D01*
X183323000Y-60377000D01*
X183303000Y-60377000D01*
X183303000Y-60123000D01*
X183323000Y-60123000D01*
X183323000Y-59398750D01*
X183577000Y-59398750D01*
X183577000Y-60123000D01*
X184526250Y-60123000D01*
X184685000Y-59964250D01*
X184685000Y-59748690D01*
X184588327Y-59515301D01*
X184409698Y-59336673D01*
X184176309Y-59240000D01*
X183735750Y-59240000D01*
X183577000Y-59398750D01*
X183323000Y-59398750D01*
X183164250Y-59240000D01*
X182723691Y-59240000D01*
X182490302Y-59336673D01*
X182488932Y-59338043D01*
X182401890Y-59278569D01*
X182150000Y-59227560D01*
X181389444Y-59227560D01*
X181192809Y-59096173D01*
X180835000Y-59025000D01*
X180695453Y-59025000D01*
X180646241Y-58948523D01*
X180746431Y-58801890D01*
X180797440Y-58550000D01*
X180797440Y-58491546D01*
X180950000Y-58522440D01*
X182150000Y-58522440D01*
X182385317Y-58478162D01*
X182488646Y-58411671D01*
X182490302Y-58413327D01*
X182723691Y-58510000D01*
X183164250Y-58510000D01*
X183323000Y-58351250D01*
X183323000Y-57627000D01*
X183577000Y-57627000D01*
X183577000Y-58351250D01*
X183735750Y-58510000D01*
X184176309Y-58510000D01*
X184409698Y-58413327D01*
X184588327Y-58234699D01*
X184685000Y-58001310D01*
X184685000Y-57785750D01*
X184526250Y-57627000D01*
X183577000Y-57627000D01*
X183323000Y-57627000D01*
X183303000Y-57627000D01*
X183303000Y-57373000D01*
X183323000Y-57373000D01*
X183323000Y-56648750D01*
X183577000Y-56648750D01*
X183577000Y-57373000D01*
X184526250Y-57373000D01*
X184685000Y-57214250D01*
X184685000Y-56998690D01*
X184588327Y-56765301D01*
X184409698Y-56586673D01*
X184176309Y-56490000D01*
X183735750Y-56490000D01*
X183577000Y-56648750D01*
X183323000Y-56648750D01*
X183164250Y-56490000D01*
X182723691Y-56490000D01*
X182490302Y-56586673D01*
X182488932Y-56588043D01*
X182401890Y-56528569D01*
X182150000Y-56477560D01*
X180950000Y-56477560D01*
X180714683Y-56521838D01*
X180647607Y-56565000D01*
X180564975Y-56565000D01*
X180401890Y-56453569D01*
X180150000Y-56402560D01*
X178150000Y-56402560D01*
X177914683Y-56446838D01*
X177698559Y-56585910D01*
X177553569Y-56798110D01*
X177540023Y-56865000D01*
X176100005Y-56865000D01*
X176100000Y-56864999D01*
X175801556Y-56924364D01*
X175742191Y-56936173D01*
X175534695Y-57074817D01*
X175438855Y-57138855D01*
X174478479Y-58099231D01*
X174453162Y-57964683D01*
X174314090Y-57748559D01*
X174101890Y-57603569D01*
X173850000Y-57552560D01*
X171850000Y-57552560D01*
X171614683Y-57596838D01*
X171398559Y-57735910D01*
X171253569Y-57948110D01*
X171202560Y-58200000D01*
X171202560Y-62000000D01*
X171246838Y-62235317D01*
X171385910Y-62451441D01*
X171598110Y-62596431D01*
X171850000Y-62647440D01*
X171915000Y-62647440D01*
X171915000Y-64893178D01*
X171865162Y-65013201D01*
X171864838Y-65385167D01*
X172006883Y-65728943D01*
X172269673Y-65992192D01*
X172613201Y-66134838D01*
X172985167Y-66135162D01*
X173328943Y-65993117D01*
X173592192Y-65730327D01*
X173636593Y-65623398D01*
X173713827Y-65507809D01*
X173785000Y-65150000D01*
X173785000Y-62647440D01*
X173850000Y-62647440D01*
X174085317Y-62603162D01*
X174165000Y-62551887D01*
X174165000Y-67812710D01*
X173038855Y-68938855D01*
X172996568Y-69002142D01*
X170397140Y-71601570D01*
X169073010Y-71601570D01*
X168837693Y-71645848D01*
X168621569Y-71784920D01*
X168476579Y-71997120D01*
X168425570Y-72249010D01*
X154561990Y-72249010D01*
X154561990Y-72122701D01*
X154465317Y-71889312D01*
X154286689Y-71710683D01*
X154053300Y-71614010D01*
X153213250Y-71614010D01*
X153054500Y-71772760D01*
X152800500Y-71772760D01*
X152641750Y-71614010D01*
X152402000Y-71614010D01*
X152402000Y-66375000D01*
X152391994Y-66325590D01*
X152363553Y-66283965D01*
X152321159Y-66256685D01*
X152275000Y-66248000D01*
X150051856Y-66248000D01*
X150029648Y-46670959D01*
X171768086Y-46670959D01*
X171889371Y-46893000D01*
X173033000Y-46893000D01*
X173033000Y-45750085D01*
X172810961Y-45628096D01*
X172422577Y-45788959D01*
X172007611Y-46164866D01*
X171768086Y-46670959D01*
X150029648Y-46670959D01*
X150015316Y-34037250D01*
X151340510Y-34037250D01*
X151340510Y-34877299D01*
X151437183Y-35110688D01*
X151615811Y-35289317D01*
X151849200Y-35385990D01*
X152689250Y-35385990D01*
X152848000Y-35227240D01*
X152848000Y-33878500D01*
X153102000Y-33878500D01*
X153102000Y-35227240D01*
X153260750Y-35385990D01*
X154100800Y-35385990D01*
X154334189Y-35289317D01*
X154512817Y-35110688D01*
X154609490Y-34877299D01*
X154609490Y-34037250D01*
X154450740Y-33878500D01*
X153102000Y-33878500D01*
X152848000Y-33878500D01*
X151499260Y-33878500D01*
X151340510Y-34037250D01*
X150015316Y-34037250D01*
X150013715Y-32625701D01*
X151340510Y-32625701D01*
X151340510Y-33465750D01*
X151499260Y-33624500D01*
X152848000Y-33624500D01*
X152848000Y-32275760D01*
X153102000Y-32275760D01*
X153102000Y-33624500D01*
X154450740Y-33624500D01*
X154609490Y-33465750D01*
X154609490Y-32625701D01*
X154512817Y-32392312D01*
X154334189Y-32213683D01*
X154100800Y-32117010D01*
X153260750Y-32117010D01*
X153102000Y-32275760D01*
X152848000Y-32275760D01*
X152689250Y-32117010D01*
X151849200Y-32117010D01*
X151615811Y-32213683D01*
X151437183Y-32392312D01*
X151340510Y-32625701D01*
X150013715Y-32625701D01*
X150007712Y-27333320D01*
X153346285Y-27333320D01*
X153475533Y-27626123D01*
X154175806Y-27894388D01*
X154925435Y-27874250D01*
X155524467Y-27626123D01*
X155653715Y-27333320D01*
X154500000Y-26179605D01*
X153346285Y-27333320D01*
X150007712Y-27333320D01*
X150005831Y-25675806D01*
X152605612Y-25675806D01*
X152625750Y-26425435D01*
X152873877Y-27024467D01*
X153166680Y-27153715D01*
X154320395Y-26000000D01*
X154679605Y-26000000D01*
X155833320Y-27153715D01*
X156126123Y-27024467D01*
X156394388Y-26324194D01*
X156374250Y-25574565D01*
X156126123Y-24975533D01*
X155833320Y-24846285D01*
X154679605Y-26000000D01*
X154320395Y-26000000D01*
X153166680Y-24846285D01*
X152873877Y-24975533D01*
X152605612Y-25675806D01*
X150005831Y-25675806D01*
X150004686Y-24666680D01*
X153346285Y-24666680D01*
X154500000Y-25820395D01*
X155653715Y-24666680D01*
X155524467Y-24373877D01*
X154824194Y-24105612D01*
X154074565Y-24125750D01*
X153475533Y-24373877D01*
X153346285Y-24666680D01*
X150004686Y-24666680D01*
X150002144Y-22426806D01*
X166148000Y-22402194D01*
X166148000Y-25052321D01*
G36*
X204170853Y-74560054D02*
X204500026Y-74780000D01*
X204170853Y-74999946D01*
X203848946Y-75481715D01*
X203735907Y-76050000D01*
X203848946Y-76618285D01*
X204170853Y-77100054D01*
X204511553Y-77327702D01*
X204368642Y-77394817D01*
X203978355Y-77823076D01*
X203808524Y-78233110D01*
X203929845Y-78463000D01*
X205123000Y-78463000D01*
X205123000Y-78443000D01*
X205377000Y-78443000D01*
X205377000Y-78463000D01*
X205397000Y-78463000D01*
X205397000Y-78717000D01*
X205377000Y-78717000D01*
X205377000Y-78737000D01*
X205123000Y-78737000D01*
X205123000Y-78717000D01*
X203929845Y-78717000D01*
X203808524Y-78946890D01*
X203978355Y-79356924D01*
X204368642Y-79785183D01*
X204511553Y-79852298D01*
X204170853Y-80079946D01*
X203848946Y-80561715D01*
X203735907Y-81130000D01*
X203848946Y-81698285D01*
X204170853Y-82180054D01*
X204500026Y-82400000D01*
X204170853Y-82619946D01*
X203848946Y-83101715D01*
X203735907Y-83670000D01*
X203848946Y-84238285D01*
X204170853Y-84720054D01*
X204500026Y-84940000D01*
X204170853Y-85159946D01*
X203848946Y-85641715D01*
X203735907Y-86210000D01*
X203848946Y-86778285D01*
X204170853Y-87260054D01*
X204212452Y-87287850D01*
X204164683Y-87296838D01*
X203948559Y-87435910D01*
X203803569Y-87648110D01*
X203752560Y-87900000D01*
X203752560Y-89600000D01*
X203796838Y-89835317D01*
X203935910Y-90051441D01*
X204148110Y-90196431D01*
X204400000Y-90247440D01*
X206100000Y-90247440D01*
X206335317Y-90203162D01*
X206551441Y-90064090D01*
X206696431Y-89851890D01*
X206707841Y-89795546D01*
X206710853Y-89800054D01*
X206855000Y-89896370D01*
X206855000Y-90822710D01*
X205849408Y-91828302D01*
X205743117Y-91571057D01*
X205480327Y-91307808D01*
X205136799Y-91165162D01*
X204764833Y-91164838D01*
X204421057Y-91306883D01*
X204177515Y-91550000D01*
X182210522Y-91550000D01*
X182758711Y-91183711D01*
X183244219Y-90457098D01*
X183414706Y-89600000D01*
X183244219Y-88742902D01*
X182758711Y-88016289D01*
X182032098Y-87530781D01*
X181175000Y-87360294D01*
X180317902Y-87530781D01*
X179591289Y-88016289D01*
X179105781Y-88742902D01*
X178935294Y-89600000D01*
X179105781Y-90457098D01*
X179591289Y-91183711D01*
X180139478Y-91550000D01*
X179510821Y-91550000D01*
X175738064Y-87777244D01*
X175738063Y-87777243D01*
X175475282Y-87601658D01*
X175165308Y-87540000D01*
X159805513Y-87540000D01*
X159327240Y-87061727D01*
X159819151Y-86963880D01*
X160284698Y-86652811D01*
X160540000Y-86270725D01*
X160795302Y-86652811D01*
X161260849Y-86963880D01*
X161810000Y-87073113D01*
X162359151Y-86963880D01*
X162824698Y-86652811D01*
X163080000Y-86270725D01*
X163335302Y-86652811D01*
X163800849Y-86963880D01*
X164350000Y-87073113D01*
X164899151Y-86963880D01*
X165364698Y-86652811D01*
X165620000Y-86270725D01*
X165875302Y-86652811D01*
X166340849Y-86963880D01*
X166890000Y-87073113D01*
X167439151Y-86963880D01*
X167904698Y-86652811D01*
X168160000Y-86270725D01*
X168415302Y-86652811D01*
X168880849Y-86963880D01*
X169430000Y-87073113D01*
X169979151Y-86963880D01*
X170444698Y-86652811D01*
X170700000Y-86270725D01*
X170955302Y-86652811D01*
X171420849Y-86963880D01*
X171970000Y-87073113D01*
X172519151Y-86963880D01*
X172984698Y-86652811D01*
X173081101Y-86508535D01*
X173106838Y-86645317D01*
X173245910Y-86861441D01*
X173458110Y-87006431D01*
X173710000Y-87057440D01*
X175310000Y-87057440D01*
X175545317Y-87013162D01*
X175761441Y-86874090D01*
X175906431Y-86661890D01*
X175957440Y-86410000D01*
X175957440Y-84810000D01*
X175913162Y-84574683D01*
X175774090Y-84358559D01*
X175561890Y-84213569D01*
X175310000Y-84162560D01*
X173710000Y-84162560D01*
X173474683Y-84206838D01*
X173258559Y-84345910D01*
X173113569Y-84558110D01*
X173082185Y-84713089D01*
X172984698Y-84567189D01*
X172519151Y-84256120D01*
X171970000Y-84146887D01*
X171420849Y-84256120D01*
X170955302Y-84567189D01*
X170700000Y-84949275D01*
X170444698Y-84567189D01*
X169979151Y-84256120D01*
X169430000Y-84146887D01*
X168880849Y-84256120D01*
X168415302Y-84567189D01*
X168160000Y-84949275D01*
X167904698Y-84567189D01*
X167439151Y-84256120D01*
X166890000Y-84146887D01*
X166636086Y-84197394D01*
X167831320Y-82810000D01*
X200500000Y-82810000D01*
X200809974Y-82748342D01*
X201072756Y-82572756D01*
X202322757Y-81322756D01*
X202478279Y-81090000D01*
X202498342Y-81059974D01*
X202560000Y-80750000D01*
X202560000Y-75585512D01*
X203825513Y-74320000D01*
X204010454Y-74320000D01*
X204170853Y-74560054D01*
X204170853Y-74560054D01*
G37*
X204170853Y-74560054D02*
X204500026Y-74780000D01*
X204170853Y-74999946D01*
X203848946Y-75481715D01*
X203735907Y-76050000D01*
X203848946Y-76618285D01*
X204170853Y-77100054D01*
X204511553Y-77327702D01*
X204368642Y-77394817D01*
X203978355Y-77823076D01*
X203808524Y-78233110D01*
X203929845Y-78463000D01*
X205123000Y-78463000D01*
X205123000Y-78443000D01*
X205377000Y-78443000D01*
X205377000Y-78463000D01*
X205397000Y-78463000D01*
X205397000Y-78717000D01*
X205377000Y-78717000D01*
X205377000Y-78737000D01*
X205123000Y-78737000D01*
X205123000Y-78717000D01*
X203929845Y-78717000D01*
X203808524Y-78946890D01*
X203978355Y-79356924D01*
X204368642Y-79785183D01*
X204511553Y-79852298D01*
X204170853Y-80079946D01*
X203848946Y-80561715D01*
X203735907Y-81130000D01*
X203848946Y-81698285D01*
X204170853Y-82180054D01*
X204500026Y-82400000D01*
X204170853Y-82619946D01*
X203848946Y-83101715D01*
X203735907Y-83670000D01*
X203848946Y-84238285D01*
X204170853Y-84720054D01*
X204500026Y-84940000D01*
X204170853Y-85159946D01*
X203848946Y-85641715D01*
X203735907Y-86210000D01*
X203848946Y-86778285D01*
X204170853Y-87260054D01*
X204212452Y-87287850D01*
X204164683Y-87296838D01*
X203948559Y-87435910D01*
X203803569Y-87648110D01*
X203752560Y-87900000D01*
X203752560Y-89600000D01*
X203796838Y-89835317D01*
X203935910Y-90051441D01*
X204148110Y-90196431D01*
X204400000Y-90247440D01*
X206100000Y-90247440D01*
X206335317Y-90203162D01*
X206551441Y-90064090D01*
X206696431Y-89851890D01*
X206707841Y-89795546D01*
X206710853Y-89800054D01*
X206855000Y-89896370D01*
X206855000Y-90822710D01*
X205849408Y-91828302D01*
X205743117Y-91571057D01*
X205480327Y-91307808D01*
X205136799Y-91165162D01*
X204764833Y-91164838D01*
X204421057Y-91306883D01*
X204177515Y-91550000D01*
X182210522Y-91550000D01*
X182758711Y-91183711D01*
X183244219Y-90457098D01*
X183414706Y-89600000D01*
X183244219Y-88742902D01*
X182758711Y-88016289D01*
X182032098Y-87530781D01*
X181175000Y-87360294D01*
X180317902Y-87530781D01*
X179591289Y-88016289D01*
X179105781Y-88742902D01*
X178935294Y-89600000D01*
X179105781Y-90457098D01*
X179591289Y-91183711D01*
X180139478Y-91550000D01*
X179510821Y-91550000D01*
X175738064Y-87777244D01*
X175738063Y-87777243D01*
X175475282Y-87601658D01*
X175165308Y-87540000D01*
X159805513Y-87540000D01*
X159327240Y-87061727D01*
X159819151Y-86963880D01*
X160284698Y-86652811D01*
X160540000Y-86270725D01*
X160795302Y-86652811D01*
X161260849Y-86963880D01*
X161810000Y-87073113D01*
X162359151Y-86963880D01*
X162824698Y-86652811D01*
X163080000Y-86270725D01*
X163335302Y-86652811D01*
X163800849Y-86963880D01*
X164350000Y-87073113D01*
X164899151Y-86963880D01*
X165364698Y-86652811D01*
X165620000Y-86270725D01*
X165875302Y-86652811D01*
X166340849Y-86963880D01*
X166890000Y-87073113D01*
X167439151Y-86963880D01*
X167904698Y-86652811D01*
X168160000Y-86270725D01*
X168415302Y-86652811D01*
X168880849Y-86963880D01*
X169430000Y-87073113D01*
X169979151Y-86963880D01*
X170444698Y-86652811D01*
X170700000Y-86270725D01*
X170955302Y-86652811D01*
X171420849Y-86963880D01*
X171970000Y-87073113D01*
X172519151Y-86963880D01*
X172984698Y-86652811D01*
X173081101Y-86508535D01*
X173106838Y-86645317D01*
X173245910Y-86861441D01*
X173458110Y-87006431D01*
X173710000Y-87057440D01*
X175310000Y-87057440D01*
X175545317Y-87013162D01*
X175761441Y-86874090D01*
X175906431Y-86661890D01*
X175957440Y-86410000D01*
X175957440Y-84810000D01*
X175913162Y-84574683D01*
X175774090Y-84358559D01*
X175561890Y-84213569D01*
X175310000Y-84162560D01*
X173710000Y-84162560D01*
X173474683Y-84206838D01*
X173258559Y-84345910D01*
X173113569Y-84558110D01*
X173082185Y-84713089D01*
X172984698Y-84567189D01*
X172519151Y-84256120D01*
X171970000Y-84146887D01*
X171420849Y-84256120D01*
X170955302Y-84567189D01*
X170700000Y-84949275D01*
X170444698Y-84567189D01*
X169979151Y-84256120D01*
X169430000Y-84146887D01*
X168880849Y-84256120D01*
X168415302Y-84567189D01*
X168160000Y-84949275D01*
X167904698Y-84567189D01*
X167439151Y-84256120D01*
X166890000Y-84146887D01*
X166636086Y-84197394D01*
X167831320Y-82810000D01*
X200500000Y-82810000D01*
X200809974Y-82748342D01*
X201072756Y-82572756D01*
X202322757Y-81322756D01*
X202478279Y-81090000D01*
X202498342Y-81059974D01*
X202560000Y-80750000D01*
X202560000Y-75585512D01*
X203825513Y-74320000D01*
X204010454Y-74320000D01*
X204170853Y-74560054D01*
G36*
X204368642Y-39294817D02*
X203978355Y-39723076D01*
X203808524Y-40133110D01*
X203929845Y-40363000D01*
X205123000Y-40363000D01*
X205123000Y-40343000D01*
X205377000Y-40343000D01*
X205377000Y-40363000D01*
X205397000Y-40363000D01*
X205397000Y-40617000D01*
X205377000Y-40617000D01*
X205377000Y-40637000D01*
X205123000Y-40637000D01*
X205123000Y-40617000D01*
X203929845Y-40617000D01*
X203808524Y-40846890D01*
X203978355Y-41256924D01*
X204368642Y-41685183D01*
X204511553Y-41752298D01*
X204170853Y-41979946D01*
X204010454Y-42220000D01*
X199020002Y-42220000D01*
X198710029Y-42281657D01*
X198447246Y-42457243D01*
X198160000Y-42744489D01*
X198160000Y-40435512D01*
X199485513Y-39110000D01*
X204762183Y-39110000D01*
X204368642Y-39294817D01*
X204368642Y-39294817D01*
G37*
X204368642Y-39294817D02*
X203978355Y-39723076D01*
X203808524Y-40133110D01*
X203929845Y-40363000D01*
X205123000Y-40363000D01*
X205123000Y-40343000D01*
X205377000Y-40343000D01*
X205377000Y-40363000D01*
X205397000Y-40363000D01*
X205397000Y-40617000D01*
X205377000Y-40617000D01*
X205377000Y-40637000D01*
X205123000Y-40637000D01*
X205123000Y-40617000D01*
X203929845Y-40617000D01*
X203808524Y-40846890D01*
X203978355Y-41256924D01*
X204368642Y-41685183D01*
X204511553Y-41752298D01*
X204170853Y-41979946D01*
X204010454Y-42220000D01*
X199020002Y-42220000D01*
X198710029Y-42281657D01*
X198447246Y-42457243D01*
X198160000Y-42744489D01*
X198160000Y-40435512D01*
X199485513Y-39110000D01*
X204762183Y-39110000D01*
X204368642Y-39294817D01*
M02*
