G04 #@! TF.FileFunction,Other,User*
%FSLAX46Y46*%
G04 Gerber Fmt 4.6, Leading zero omitted, Abs format (unit mm)*
G04 Created by KiCad (PCBNEW 4.0.6-e0-6349~53~ubuntu16.04.1) date Tue Jul  4 14:55:03 2017*
%MOMM*%
%LPD*%
G01*
G04 APERTURE LIST*
%ADD10C,0.100000*%
%ADD11C,0.050000*%
G04 APERTURE END LIST*
D10*
D11*
X150930000Y-90050000D02*
X150930000Y-86450000D01*
X150930000Y-90050000D02*
X152230000Y-90050000D01*
X152230000Y-86450000D02*
X150930000Y-86450000D01*
X152230000Y-86450000D02*
X152230000Y-90050000D01*
X212200000Y-31400000D02*
X151800000Y-31400000D01*
X212200000Y-21200000D02*
X212200000Y-31400000D01*
X151800000Y-21200000D02*
X212200000Y-21200000D01*
X151800000Y-31400000D02*
X151800000Y-21200000D01*
X206100000Y-31600000D02*
X194900000Y-31600000D01*
X194900000Y-31600000D02*
X194900000Y-35200000D01*
X194900000Y-35200000D02*
X206100000Y-35200000D01*
X206100000Y-35200000D02*
X206100000Y-31600000D01*
X151550000Y-118100000D02*
X211950000Y-118100000D01*
X151550000Y-128300000D02*
X151550000Y-118100000D01*
X211950000Y-128300000D02*
X151550000Y-128300000D01*
X211950000Y-118100000D02*
X211950000Y-128300000D01*
X209600000Y-90550000D02*
X209600000Y-38700000D01*
X209600000Y-38700000D02*
X203450000Y-38700000D01*
X203450000Y-38700000D02*
X203450000Y-90550000D01*
X203450000Y-90550000D02*
X209600000Y-90550000D01*
X187050000Y-36960000D02*
X187050000Y-33050000D01*
X187050000Y-36960000D02*
X188450000Y-36960000D01*
X188450000Y-33050000D02*
X187050000Y-33050000D01*
X188450000Y-33050000D02*
X188450000Y-36960000D01*
X185050000Y-36960000D02*
X185050000Y-33050000D01*
X185050000Y-36960000D02*
X186450000Y-36960000D01*
X186450000Y-33050000D02*
X185050000Y-33050000D01*
X186450000Y-33050000D02*
X186450000Y-36960000D01*
X181050000Y-36960000D02*
X181050000Y-33050000D01*
X181050000Y-36960000D02*
X182450000Y-36960000D01*
X182450000Y-33050000D02*
X181050000Y-33050000D01*
X182450000Y-33050000D02*
X182450000Y-36960000D01*
X183050000Y-36960000D02*
X183050000Y-33050000D01*
X183050000Y-36960000D02*
X184450000Y-36960000D01*
X184450000Y-33050000D02*
X183050000Y-33050000D01*
X184450000Y-33050000D02*
X184450000Y-36960000D01*
X179050000Y-36960000D02*
X179050000Y-33050000D01*
X179050000Y-36960000D02*
X180450000Y-36960000D01*
X180450000Y-33050000D02*
X179050000Y-33050000D01*
X180450000Y-33050000D02*
X180450000Y-36960000D01*
X177050000Y-36960000D02*
X177050000Y-33050000D01*
X177050000Y-36960000D02*
X178450000Y-36960000D01*
X178450000Y-33050000D02*
X177050000Y-33050000D01*
X178450000Y-33050000D02*
X178450000Y-36960000D01*
X173050000Y-36960000D02*
X173050000Y-33050000D01*
X173050000Y-36960000D02*
X174450000Y-36960000D01*
X174450000Y-33050000D02*
X173050000Y-33050000D01*
X174450000Y-33050000D02*
X174450000Y-36960000D01*
X175050000Y-36960000D02*
X175050000Y-33050000D01*
X175050000Y-36960000D02*
X176450000Y-36960000D01*
X176450000Y-33050000D02*
X175050000Y-33050000D01*
X176450000Y-33050000D02*
X176450000Y-36960000D01*
X190540000Y-48700000D02*
X194450000Y-48700000D01*
X190540000Y-48700000D02*
X190540000Y-50100000D01*
X194450000Y-50100000D02*
X194450000Y-48700000D01*
X194450000Y-50100000D02*
X190540000Y-50100000D01*
X184740000Y-48800000D02*
X188650000Y-48800000D01*
X184740000Y-48800000D02*
X184740000Y-50200000D01*
X188650000Y-50200000D02*
X188650000Y-48800000D01*
X188650000Y-50200000D02*
X184740000Y-50200000D01*
X178690000Y-48850000D02*
X182600000Y-48850000D01*
X178690000Y-48850000D02*
X178690000Y-50250000D01*
X182600000Y-50250000D02*
X182600000Y-48850000D01*
X182600000Y-50250000D02*
X178690000Y-50250000D01*
X172590000Y-48850000D02*
X176500000Y-48850000D01*
X172590000Y-48850000D02*
X172590000Y-50250000D01*
X176500000Y-50250000D02*
X176500000Y-48850000D01*
X176500000Y-50250000D02*
X172590000Y-50250000D01*
X176110000Y-84510000D02*
X152610000Y-84510000D01*
X152610000Y-84510000D02*
X152610000Y-94310000D01*
X152610000Y-94310000D02*
X176110000Y-94310000D01*
X176110000Y-94310000D02*
X176110000Y-84510000D01*
X189300000Y-38300000D02*
X183600000Y-38300000D01*
X183600000Y-38300000D02*
X183600000Y-48100000D01*
X183600000Y-48100000D02*
X189300000Y-48100000D01*
X189300000Y-48100000D02*
X189300000Y-38300000D01*
X183300000Y-38300000D02*
X177600000Y-38300000D01*
X177600000Y-38300000D02*
X177600000Y-48100000D01*
X177600000Y-48100000D02*
X183300000Y-48100000D01*
X183300000Y-48100000D02*
X183300000Y-38300000D01*
X177300000Y-38300000D02*
X171600000Y-38300000D01*
X171600000Y-38300000D02*
X171600000Y-48100000D01*
X171600000Y-48100000D02*
X177300000Y-48100000D01*
X177300000Y-48100000D02*
X177300000Y-38300000D01*
X195300000Y-38300000D02*
X189600000Y-38300000D01*
X189600000Y-38300000D02*
X189600000Y-48100000D01*
X189600000Y-48100000D02*
X195300000Y-48100000D01*
X195300000Y-48100000D02*
X195300000Y-38300000D01*
X180700000Y-56850000D02*
X184300000Y-56850000D01*
X180700000Y-56850000D02*
X180700000Y-58150000D01*
X184300000Y-58150000D02*
X184300000Y-56850000D01*
X184300000Y-58150000D02*
X180700000Y-58150000D01*
X180700000Y-59600000D02*
X184300000Y-59600000D01*
X180700000Y-59600000D02*
X180700000Y-60900000D01*
X184300000Y-60900000D02*
X184300000Y-59600000D01*
X184300000Y-60900000D02*
X180700000Y-60900000D01*
X154100000Y-96400000D02*
X163400000Y-96400000D01*
X163400000Y-96400000D02*
X163400000Y-98600000D01*
X163400000Y-98600000D02*
X154100000Y-98600000D01*
X154100000Y-98600000D02*
X154100000Y-96400000D01*
X170350000Y-96400000D02*
X179650000Y-96400000D01*
X179650000Y-96400000D02*
X179650000Y-98600000D01*
X179650000Y-98600000D02*
X170350000Y-98600000D01*
X170350000Y-98600000D02*
X170350000Y-96400000D01*
X187100000Y-96400000D02*
X196400000Y-96400000D01*
X196400000Y-96400000D02*
X196400000Y-98600000D01*
X196400000Y-98600000D02*
X187100000Y-98600000D01*
X187100000Y-98600000D02*
X187100000Y-96400000D01*
X203100000Y-96400000D02*
X212400000Y-96400000D01*
X212400000Y-96400000D02*
X212400000Y-98600000D01*
X212400000Y-98600000D02*
X203100000Y-98600000D01*
X203100000Y-98600000D02*
X203100000Y-96400000D01*
X171600000Y-63700000D02*
X180400000Y-63700000D01*
X171600000Y-56500000D02*
X171600000Y-63700000D01*
X180400000Y-56500000D02*
X171600000Y-56500000D01*
X180400000Y-63700000D02*
X180400000Y-56500000D01*
M02*
