M48
;DRILL file {KiCad 4.0.6-e0-6349~53~ubuntu16.04.1} date Tue Jul  4 14:55:07 2017
;FORMAT={-:-/ absolute / metric / decimal}
FMAT,2
METRIC,TZ
T1C0.400
T2C0.700
T3C0.800
T4C1.000
T5C1.001
T6C1.050
T7C1.300
%
G90
G05
M71
T1
X167.525Y-97.275
X172.8Y-65.2
X174.8Y-70.6
X176.05Y-51.15
X176.1Y-53.2
X176.15Y-59.
X179.35Y-79.
X181.2Y-51.9
X183.1Y-96.7
X184.7Y-51.05
X187.9Y-52.75
X189.5Y-50.1
X199.4Y-84.3
X200.4Y-73.
X200.85Y-36.65
X204.95Y-92.1
T2
X152.25Y-114.57
X164.25Y-114.57
X168.31Y-114.55
X180.31Y-114.55
X184.42Y-114.46
X196.42Y-114.46
X200.51Y-114.37
X212.51Y-114.37
T3
X154.19Y-85.61
X154.19Y-93.23
X156.73Y-85.61
X156.73Y-93.23
X159.27Y-85.61
X159.27Y-93.23
X161.81Y-85.61
X161.81Y-93.23
X164.35Y-85.61
X164.35Y-93.23
X166.89Y-85.61
X166.89Y-93.23
X169.43Y-85.61
X169.43Y-93.23
X171.97Y-85.61
X171.97Y-93.23
X173.16Y-39.4
X173.16Y-47.02
X174.51Y-85.61
X174.51Y-93.23
X175.7Y-39.4
X175.7Y-47.02
X179.16Y-39.4
X179.16Y-47.02
X181.7Y-39.4
X181.7Y-47.02
X185.16Y-39.4
X185.16Y-47.02
X187.7Y-39.4
X187.7Y-47.02
X191.16Y-39.4
X191.16Y-47.02
X193.7Y-39.4
X193.7Y-47.02
T4
X196.68Y-33.4
X199.22Y-33.4
X201.76Y-33.4
X204.3Y-33.4
X205.25Y-40.49
X205.25Y-43.03
X205.25Y-45.57
X205.25Y-48.11
X205.25Y-50.65
X205.25Y-53.19
X205.25Y-55.73
X205.25Y-58.27
X205.25Y-60.81
X205.25Y-63.35
X205.25Y-65.89
X205.25Y-68.43
X205.25Y-70.97
X205.25Y-73.51
X205.25Y-76.05
X205.25Y-78.59
X205.25Y-81.13
X205.25Y-83.67
X205.25Y-86.21
X205.25Y-88.75
X207.79Y-40.49
X207.79Y-43.03
X207.79Y-45.57
X207.79Y-48.11
X207.79Y-50.65
X207.79Y-53.19
X207.79Y-55.73
X207.79Y-58.27
X207.79Y-60.81
X207.79Y-63.35
X207.79Y-65.89
X207.79Y-68.43
X207.79Y-70.97
X207.79Y-73.51
X207.79Y-76.05
X207.79Y-78.59
X207.79Y-81.13
X207.79Y-83.67
X207.79Y-86.21
X207.79Y-88.75
T5
X152.927Y-73.248
X152.975Y-33.752
X170.025Y-33.752
X170.072Y-73.248
T6
X152.25Y-102.37
X158.25Y-116.57
X164.25Y-102.37
X168.31Y-102.35
X174.31Y-116.55
X180.31Y-102.35
X184.42Y-102.26
X190.42Y-116.46
X196.42Y-102.26
X200.51Y-102.17
X206.51Y-116.37
X212.51Y-102.17
T7
X154.25Y-123.5
X154.5Y-26.
X159.25Y-123.5
X159.5Y-26.
X164.25Y-123.5
X164.5Y-26.
X169.25Y-123.5
X169.5Y-26.
X174.25Y-123.5
X174.5Y-26.
X179.25Y-123.5
X179.5Y-26.
X184.25Y-123.5
X184.5Y-26.
X189.25Y-123.5
X189.5Y-26.
X194.25Y-123.5
X194.5Y-26.
X199.25Y-123.5
X199.5Y-26.
X204.25Y-123.5
X204.5Y-26.
X209.25Y-123.5
X209.5Y-26.
T0
M30
