G04 #@! TF.FileFunction,Copper,L2,Bot,Signal*
%FSLAX46Y46*%
G04 Gerber Fmt 4.6, Leading zero omitted, Abs format (unit mm)*
G04 Created by KiCad (PCBNEW 4.0.6-e0-6349~53~ubuntu16.04.1) date Tue Jul  4 14:55:03 2017*
%MOMM*%
%LPD*%
G01*
G04 APERTURE LIST*
%ADD10C,0.100000*%
%ADD11R,1.998980X1.998980*%
%ADD12C,2.500000*%
%ADD13R,2.500000X2.500000*%
%ADD14R,1.700000X1.700000*%
%ADD15O,1.700000X1.700000*%
%ADD16R,1.600000X1.600000*%
%ADD17O,1.600000X1.600000*%
%ADD18C,1.350000*%
%ADD19C,0.900000*%
%ADD20C,0.600000*%
%ADD21C,0.600000*%
%ADD22C,0.350000*%
%ADD23C,0.254000*%
G04 APERTURE END LIST*
D10*
D11*
X170025000Y-33751500D03*
X152975000Y-33751500D03*
X170072500Y-73248500D03*
X152927500Y-73248500D03*
D12*
X154500000Y-26000000D03*
X159500000Y-26000000D03*
X164500000Y-26000000D03*
X169500000Y-26000000D03*
X174500000Y-26000000D03*
X179500000Y-26000000D03*
X184500000Y-26000000D03*
X189500000Y-26000000D03*
X194500000Y-26000000D03*
X199500000Y-26000000D03*
D13*
X209500000Y-26000000D03*
D12*
X204500000Y-26000000D03*
D14*
X204300000Y-33400000D03*
D15*
X201760000Y-33400000D03*
X199220000Y-33400000D03*
X196680000Y-33400000D03*
D12*
X209250000Y-123500000D03*
X204250000Y-123500000D03*
X199250000Y-123500000D03*
X194250000Y-123500000D03*
X189250000Y-123500000D03*
X184250000Y-123500000D03*
X179250000Y-123500000D03*
X174250000Y-123500000D03*
X169250000Y-123500000D03*
X164250000Y-123500000D03*
D13*
X154250000Y-123500000D03*
D12*
X159250000Y-123500000D03*
D14*
X205250000Y-88750000D03*
D15*
X207790000Y-88750000D03*
X205250000Y-86210000D03*
X207790000Y-86210000D03*
X205250000Y-83670000D03*
X207790000Y-83670000D03*
X205250000Y-81130000D03*
X207790000Y-81130000D03*
X205250000Y-78590000D03*
X207790000Y-78590000D03*
X205250000Y-76050000D03*
X207790000Y-76050000D03*
X205250000Y-73510000D03*
X207790000Y-73510000D03*
X205250000Y-70970000D03*
X207790000Y-70970000D03*
X205250000Y-68430000D03*
X207790000Y-68430000D03*
X205250000Y-65890000D03*
X207790000Y-65890000D03*
X205250000Y-63350000D03*
X207790000Y-63350000D03*
X205250000Y-60810000D03*
X207790000Y-60810000D03*
X205250000Y-58270000D03*
X207790000Y-58270000D03*
X205250000Y-55730000D03*
X207790000Y-55730000D03*
X205250000Y-53190000D03*
X207790000Y-53190000D03*
X205250000Y-50650000D03*
X207790000Y-50650000D03*
X205250000Y-48110000D03*
X207790000Y-48110000D03*
X205250000Y-45570000D03*
X207790000Y-45570000D03*
X205250000Y-43030000D03*
X207790000Y-43030000D03*
X205250000Y-40490000D03*
X207790000Y-40490000D03*
D16*
X174510000Y-85610000D03*
D17*
X154190000Y-93230000D03*
X171970000Y-85610000D03*
X156730000Y-93230000D03*
X169430000Y-85610000D03*
X159270000Y-93230000D03*
X166890000Y-85610000D03*
X161810000Y-93230000D03*
X164350000Y-85610000D03*
X164350000Y-93230000D03*
X161810000Y-85610000D03*
X166890000Y-93230000D03*
X159270000Y-85610000D03*
X169430000Y-93230000D03*
X156730000Y-85610000D03*
X171970000Y-93230000D03*
X154190000Y-85610000D03*
X174510000Y-93230000D03*
D16*
X187700000Y-39400000D03*
D17*
X185160000Y-47020000D03*
X185160000Y-39400000D03*
X187700000Y-47020000D03*
D16*
X181700000Y-39400000D03*
D17*
X179160000Y-47020000D03*
X179160000Y-39400000D03*
X181700000Y-47020000D03*
D16*
X175700000Y-39400000D03*
D17*
X173160000Y-47020000D03*
X173160000Y-39400000D03*
X175700000Y-47020000D03*
D16*
X193700000Y-39400000D03*
D17*
X191160000Y-47020000D03*
X191160000Y-39400000D03*
X193700000Y-47020000D03*
D18*
X158250000Y-116570000D03*
D19*
X152250000Y-114570000D03*
X164250000Y-114570000D03*
D18*
X164250000Y-102370000D03*
X152250000Y-102370000D03*
X174310000Y-116550000D03*
D19*
X168310000Y-114550000D03*
X180310000Y-114550000D03*
D18*
X180310000Y-102350000D03*
X168310000Y-102350000D03*
X190420000Y-116460000D03*
D19*
X184420000Y-114460000D03*
X196420000Y-114460000D03*
D18*
X196420000Y-102260000D03*
X184420000Y-102260000D03*
X206510000Y-116370000D03*
D19*
X200510000Y-114370000D03*
X212510000Y-114370000D03*
D18*
X212510000Y-102170000D03*
X200510000Y-102170000D03*
D20*
X199400000Y-84300000D03*
X200850000Y-36650000D03*
X172800000Y-65200000D03*
X174800000Y-70600000D03*
X200400000Y-73000000D03*
X176150000Y-59000000D03*
X176100000Y-53200000D03*
X184700000Y-51050000D03*
X189500000Y-50100000D03*
X181200000Y-51900000D03*
X167525000Y-97275000D03*
X183100000Y-96700000D03*
X176050000Y-51150000D03*
X179350000Y-79000000D03*
X187900000Y-52750000D03*
X204950000Y-92100000D03*
D21*
X170072500Y-73248500D02*
X170072500Y-75037500D01*
X151560000Y-93230000D02*
X154190000Y-93230000D01*
X150340000Y-92010000D02*
X151560000Y-93230000D01*
X150340000Y-86730000D02*
X150340000Y-92010000D01*
X151660000Y-85410000D02*
X150340000Y-86730000D01*
X151690000Y-85410000D02*
X151660000Y-85410000D01*
X152970000Y-84005000D02*
X151690000Y-85410000D01*
X160980000Y-84005000D02*
X152970000Y-84005000D01*
X170072500Y-75037500D02*
X160980000Y-84005000D01*
X170072500Y-73607500D02*
X170072500Y-73248500D01*
X170072500Y-73248500D02*
X170001500Y-73248500D01*
X205250000Y-40490000D02*
X203560000Y-40490000D01*
X203560000Y-40490000D02*
X202450000Y-41600000D01*
X205250000Y-58270000D02*
X203880000Y-58270000D01*
X203880000Y-58270000D02*
X202450000Y-59700000D01*
X199400000Y-71050000D02*
X199400000Y-84300000D01*
X202450000Y-68000000D02*
X199400000Y-71050000D01*
X202450000Y-38250000D02*
X202450000Y-41600000D01*
X202450000Y-41600000D02*
X202450000Y-59700000D01*
X202450000Y-59700000D02*
X202450000Y-68000000D01*
X200850000Y-36650000D02*
X202450000Y-38250000D01*
X200400000Y-73000000D02*
X200600000Y-73000000D01*
X200600000Y-73000000D02*
X201800000Y-71800000D01*
X201800000Y-71800000D02*
X202600000Y-71000000D01*
X205250000Y-68430000D02*
X205170000Y-68430000D01*
X205170000Y-68430000D02*
X202600000Y-71000000D01*
X202600000Y-71000000D02*
X202600000Y-74300000D01*
X202600000Y-86400000D02*
X202600000Y-87450000D01*
X202600000Y-87450000D02*
X203900000Y-88750000D01*
X203900000Y-88750000D02*
X205250000Y-88750000D01*
X172800000Y-68600000D02*
X172800000Y-65200000D01*
X174800000Y-70600000D02*
X172800000Y-68600000D01*
X176150000Y-53250000D02*
X176150000Y-59000000D01*
X176100000Y-53200000D02*
X176150000Y-53250000D01*
X183950000Y-51850000D02*
X183950000Y-51800000D01*
X183950000Y-51800000D02*
X184700000Y-51050000D01*
X181200000Y-51900000D02*
X181250000Y-51850000D01*
X181250000Y-51850000D02*
X183950000Y-51850000D01*
X183950000Y-51850000D02*
X187750000Y-51850000D01*
X187750000Y-51850000D02*
X189500000Y-50100000D01*
X205250000Y-88750000D02*
X203900000Y-88750000D01*
X202600000Y-86400000D02*
X202600000Y-74300000D01*
X167525000Y-97275000D02*
X169475000Y-95325000D01*
X169475000Y-95325000D02*
X181725000Y-95325000D01*
X181725000Y-95325000D02*
X183100000Y-96700000D01*
D22*
X179000000Y-91820000D02*
X179000000Y-91800000D01*
X176800000Y-76600000D02*
X178400000Y-75000000D01*
X176800000Y-89600000D02*
X176800000Y-76600000D01*
X179000000Y-91800000D02*
X176800000Y-89600000D01*
X202710000Y-92190000D02*
X203700000Y-92190000D01*
X203700000Y-92190000D02*
X204590000Y-91300000D01*
X179000000Y-91820000D02*
X179370000Y-92190000D01*
X210600000Y-91300000D02*
X211250000Y-90650000D01*
X211250000Y-90650000D02*
X211250000Y-71900000D01*
X211250000Y-71900000D02*
X210320000Y-70970000D01*
X210320000Y-70970000D02*
X207790000Y-70970000D01*
X204590000Y-91300000D02*
X210600000Y-91300000D01*
X179370000Y-92190000D02*
X202710000Y-92190000D01*
X178400000Y-56200000D02*
X178400000Y-53400000D01*
X178400000Y-56200000D02*
X178400000Y-75000000D01*
X178400000Y-53400000D02*
X176150000Y-51150000D01*
X176150000Y-51150000D02*
X176050000Y-51150000D01*
X179350000Y-54150000D02*
X179350000Y-79000000D01*
X180700000Y-52800000D02*
X179350000Y-54150000D01*
X187850000Y-52800000D02*
X180700000Y-52800000D01*
X187900000Y-52750000D02*
X187850000Y-52800000D01*
X209850000Y-94100000D02*
X209950000Y-94100000D01*
X209950000Y-94100000D02*
X212550000Y-91500000D01*
X164520000Y-87850000D02*
X161510000Y-87850000D01*
X161510000Y-87850000D02*
X159270000Y-85610000D01*
X170980000Y-87850000D02*
X172350000Y-87850000D01*
X172350000Y-87850000D02*
X178600000Y-94100000D01*
X178600000Y-94100000D02*
X209850000Y-94100000D01*
X170980000Y-87850000D02*
X164520000Y-87850000D01*
X211350000Y-63350000D02*
X209750000Y-63350000D01*
X209750000Y-63350000D02*
X207790000Y-63350000D01*
X212550000Y-91500000D02*
X212550000Y-64550000D01*
X212550000Y-64550000D02*
X211350000Y-63350000D01*
X159270000Y-85370000D02*
X159270000Y-85310000D01*
X159270000Y-85370000D02*
X159310000Y-85370000D01*
X210830000Y-68430000D02*
X207790000Y-68430000D01*
X204950000Y-92100000D02*
X210800000Y-92100000D01*
X210800000Y-92100000D02*
X211900000Y-91000000D01*
X211900000Y-91000000D02*
X211900000Y-69500000D01*
X211900000Y-69500000D02*
X210830000Y-68430000D01*
D23*
G36*
X191348264Y-22426868D02*
X191354790Y-25552792D01*
X191098957Y-24933628D01*
X190569161Y-24402907D01*
X189876595Y-24115328D01*
X189126695Y-24114674D01*
X188433628Y-24401043D01*
X187902907Y-24930839D01*
X187615328Y-25623405D01*
X187614674Y-26373305D01*
X187901043Y-27066372D01*
X188430839Y-27597093D01*
X189123405Y-27884672D01*
X189873305Y-27885326D01*
X190566372Y-27598957D01*
X191097093Y-27069161D01*
X191356651Y-26444078D01*
X191373000Y-34275265D01*
X191383109Y-34324654D01*
X191411637Y-34366219D01*
X191454088Y-34393411D01*
X191465820Y-34395426D01*
X194373000Y-37302606D01*
X194373000Y-37952560D01*
X192900000Y-37952560D01*
X192664683Y-37996838D01*
X192448559Y-38135910D01*
X192303569Y-38348110D01*
X192271268Y-38507616D01*
X191897423Y-38168959D01*
X191509039Y-38008096D01*
X191287000Y-38130085D01*
X191287000Y-39273000D01*
X191307000Y-39273000D01*
X191307000Y-39527000D01*
X191287000Y-39527000D01*
X191287000Y-40669915D01*
X191509039Y-40791904D01*
X191897423Y-40631041D01*
X192270136Y-40293410D01*
X192296838Y-40435317D01*
X192435910Y-40651441D01*
X192648110Y-40796431D01*
X192900000Y-40847440D01*
X194373000Y-40847440D01*
X194373000Y-41922863D01*
X171502000Y-41898137D01*
X171502000Y-39749041D01*
X171768086Y-39749041D01*
X172007611Y-40255134D01*
X172422577Y-40631041D01*
X172810961Y-40791904D01*
X173033000Y-40669915D01*
X173033000Y-39527000D01*
X171889371Y-39527000D01*
X171768086Y-39749041D01*
X171502000Y-39749041D01*
X171502000Y-39050959D01*
X171768086Y-39050959D01*
X171889371Y-39273000D01*
X173033000Y-39273000D01*
X173033000Y-38130085D01*
X173287000Y-38130085D01*
X173287000Y-39273000D01*
X173307000Y-39273000D01*
X173307000Y-39527000D01*
X173287000Y-39527000D01*
X173287000Y-40669915D01*
X173509039Y-40791904D01*
X173897423Y-40631041D01*
X174270136Y-40293410D01*
X174296838Y-40435317D01*
X174435910Y-40651441D01*
X174648110Y-40796431D01*
X174900000Y-40847440D01*
X176500000Y-40847440D01*
X176735317Y-40803162D01*
X176951441Y-40664090D01*
X177096431Y-40451890D01*
X177147440Y-40200000D01*
X177147440Y-39749041D01*
X177768086Y-39749041D01*
X178007611Y-40255134D01*
X178422577Y-40631041D01*
X178810961Y-40791904D01*
X179033000Y-40669915D01*
X179033000Y-39527000D01*
X177889371Y-39527000D01*
X177768086Y-39749041D01*
X177147440Y-39749041D01*
X177147440Y-39050959D01*
X177768086Y-39050959D01*
X177889371Y-39273000D01*
X179033000Y-39273000D01*
X179033000Y-38130085D01*
X179287000Y-38130085D01*
X179287000Y-39273000D01*
X179307000Y-39273000D01*
X179307000Y-39527000D01*
X179287000Y-39527000D01*
X179287000Y-40669915D01*
X179509039Y-40791904D01*
X179897423Y-40631041D01*
X180270136Y-40293410D01*
X180296838Y-40435317D01*
X180435910Y-40651441D01*
X180648110Y-40796431D01*
X180900000Y-40847440D01*
X182500000Y-40847440D01*
X182735317Y-40803162D01*
X182951441Y-40664090D01*
X183096431Y-40451890D01*
X183147440Y-40200000D01*
X183147440Y-39749041D01*
X183768086Y-39749041D01*
X184007611Y-40255134D01*
X184422577Y-40631041D01*
X184810961Y-40791904D01*
X185033000Y-40669915D01*
X185033000Y-39527000D01*
X183889371Y-39527000D01*
X183768086Y-39749041D01*
X183147440Y-39749041D01*
X183147440Y-39050959D01*
X183768086Y-39050959D01*
X183889371Y-39273000D01*
X185033000Y-39273000D01*
X185033000Y-38130085D01*
X185287000Y-38130085D01*
X185287000Y-39273000D01*
X185307000Y-39273000D01*
X185307000Y-39527000D01*
X185287000Y-39527000D01*
X185287000Y-40669915D01*
X185509039Y-40791904D01*
X185897423Y-40631041D01*
X186270136Y-40293410D01*
X186296838Y-40435317D01*
X186435910Y-40651441D01*
X186648110Y-40796431D01*
X186900000Y-40847440D01*
X188500000Y-40847440D01*
X188735317Y-40803162D01*
X188951441Y-40664090D01*
X189096431Y-40451890D01*
X189147440Y-40200000D01*
X189147440Y-39749041D01*
X189768086Y-39749041D01*
X190007611Y-40255134D01*
X190422577Y-40631041D01*
X190810961Y-40791904D01*
X191033000Y-40669915D01*
X191033000Y-39527000D01*
X189889371Y-39527000D01*
X189768086Y-39749041D01*
X189147440Y-39749041D01*
X189147440Y-39050959D01*
X189768086Y-39050959D01*
X189889371Y-39273000D01*
X191033000Y-39273000D01*
X191033000Y-38130085D01*
X190810961Y-38008096D01*
X190422577Y-38168959D01*
X190007611Y-38544866D01*
X189768086Y-39050959D01*
X189147440Y-39050959D01*
X189147440Y-38600000D01*
X189103162Y-38364683D01*
X188964090Y-38148559D01*
X188751890Y-38003569D01*
X188500000Y-37952560D01*
X186900000Y-37952560D01*
X186664683Y-37996838D01*
X186448559Y-38135910D01*
X186303569Y-38348110D01*
X186271268Y-38507616D01*
X185897423Y-38168959D01*
X185509039Y-38008096D01*
X185287000Y-38130085D01*
X185033000Y-38130085D01*
X184810961Y-38008096D01*
X184422577Y-38168959D01*
X184007611Y-38544866D01*
X183768086Y-39050959D01*
X183147440Y-39050959D01*
X183147440Y-38600000D01*
X183103162Y-38364683D01*
X182964090Y-38148559D01*
X182751890Y-38003569D01*
X182500000Y-37952560D01*
X180900000Y-37952560D01*
X180664683Y-37996838D01*
X180448559Y-38135910D01*
X180303569Y-38348110D01*
X180271268Y-38507616D01*
X179897423Y-38168959D01*
X179509039Y-38008096D01*
X179287000Y-38130085D01*
X179033000Y-38130085D01*
X178810961Y-38008096D01*
X178422577Y-38168959D01*
X178007611Y-38544866D01*
X177768086Y-39050959D01*
X177147440Y-39050959D01*
X177147440Y-38600000D01*
X177103162Y-38364683D01*
X176964090Y-38148559D01*
X176751890Y-38003569D01*
X176500000Y-37952560D01*
X174900000Y-37952560D01*
X174664683Y-37996838D01*
X174448559Y-38135910D01*
X174303569Y-38348110D01*
X174271268Y-38507616D01*
X173897423Y-38168959D01*
X173509039Y-38008096D01*
X173287000Y-38130085D01*
X173033000Y-38130085D01*
X172810961Y-38008096D01*
X172422577Y-38168959D01*
X172007611Y-38544866D01*
X171768086Y-39050959D01*
X171502000Y-39050959D01*
X171502000Y-35176927D01*
X171620921Y-35002880D01*
X171671930Y-34750990D01*
X171671930Y-32752010D01*
X171627652Y-32516693D01*
X171502000Y-32321424D01*
X171502000Y-28475000D01*
X171491994Y-28425590D01*
X171463553Y-28383965D01*
X171421159Y-28356685D01*
X171375000Y-28348000D01*
X167651489Y-28348000D01*
X167647398Y-27333320D01*
X168346285Y-27333320D01*
X168475533Y-27626123D01*
X169175806Y-27894388D01*
X169925435Y-27874250D01*
X170524467Y-27626123D01*
X170653715Y-27333320D01*
X169500000Y-26179605D01*
X168346285Y-27333320D01*
X167647398Y-27333320D01*
X167643914Y-26469286D01*
X167873877Y-27024467D01*
X168166680Y-27153715D01*
X169320395Y-26000000D01*
X169679605Y-26000000D01*
X170833320Y-27153715D01*
X171126123Y-27024467D01*
X171375574Y-26373305D01*
X172614674Y-26373305D01*
X172901043Y-27066372D01*
X173430839Y-27597093D01*
X174123405Y-27884672D01*
X174873305Y-27885326D01*
X175566372Y-27598957D01*
X176097093Y-27069161D01*
X176384672Y-26376595D01*
X176384674Y-26373305D01*
X177614674Y-26373305D01*
X177901043Y-27066372D01*
X178430839Y-27597093D01*
X179123405Y-27884672D01*
X179873305Y-27885326D01*
X180566372Y-27598957D01*
X181097093Y-27069161D01*
X181384672Y-26376595D01*
X181384674Y-26373305D01*
X182614674Y-26373305D01*
X182901043Y-27066372D01*
X183430839Y-27597093D01*
X184123405Y-27884672D01*
X184873305Y-27885326D01*
X185566372Y-27598957D01*
X186097093Y-27069161D01*
X186384672Y-26376595D01*
X186385326Y-25626695D01*
X186098957Y-24933628D01*
X185569161Y-24402907D01*
X184876595Y-24115328D01*
X184126695Y-24114674D01*
X183433628Y-24401043D01*
X182902907Y-24930839D01*
X182615328Y-25623405D01*
X182614674Y-26373305D01*
X181384674Y-26373305D01*
X181385326Y-25626695D01*
X181098957Y-24933628D01*
X180569161Y-24402907D01*
X179876595Y-24115328D01*
X179126695Y-24114674D01*
X178433628Y-24401043D01*
X177902907Y-24930839D01*
X177615328Y-25623405D01*
X177614674Y-26373305D01*
X176384674Y-26373305D01*
X176385326Y-25626695D01*
X176098957Y-24933628D01*
X175569161Y-24402907D01*
X174876595Y-24115328D01*
X174126695Y-24114674D01*
X173433628Y-24401043D01*
X172902907Y-24930839D01*
X172615328Y-25623405D01*
X172614674Y-26373305D01*
X171375574Y-26373305D01*
X171394388Y-26324194D01*
X171374250Y-25574565D01*
X171126123Y-24975533D01*
X170833320Y-24846285D01*
X169679605Y-26000000D01*
X169320395Y-26000000D01*
X168166680Y-24846285D01*
X167873877Y-24975533D01*
X167640349Y-25585131D01*
X167636646Y-24666680D01*
X168346285Y-24666680D01*
X169500000Y-25820395D01*
X170653715Y-24666680D01*
X170524467Y-24373877D01*
X169824194Y-24105612D01*
X169074565Y-24125750D01*
X168475533Y-24373877D01*
X168346285Y-24666680D01*
X167636646Y-24666680D01*
X167627514Y-22402133D01*
X191348264Y-22426868D01*
X191348264Y-22426868D01*
G37*
X191348264Y-22426868D02*
X191354790Y-25552792D01*
X191098957Y-24933628D01*
X190569161Y-24402907D01*
X189876595Y-24115328D01*
X189126695Y-24114674D01*
X188433628Y-24401043D01*
X187902907Y-24930839D01*
X187615328Y-25623405D01*
X187614674Y-26373305D01*
X187901043Y-27066372D01*
X188430839Y-27597093D01*
X189123405Y-27884672D01*
X189873305Y-27885326D01*
X190566372Y-27598957D01*
X191097093Y-27069161D01*
X191356651Y-26444078D01*
X191373000Y-34275265D01*
X191383109Y-34324654D01*
X191411637Y-34366219D01*
X191454088Y-34393411D01*
X191465820Y-34395426D01*
X194373000Y-37302606D01*
X194373000Y-37952560D01*
X192900000Y-37952560D01*
X192664683Y-37996838D01*
X192448559Y-38135910D01*
X192303569Y-38348110D01*
X192271268Y-38507616D01*
X191897423Y-38168959D01*
X191509039Y-38008096D01*
X191287000Y-38130085D01*
X191287000Y-39273000D01*
X191307000Y-39273000D01*
X191307000Y-39527000D01*
X191287000Y-39527000D01*
X191287000Y-40669915D01*
X191509039Y-40791904D01*
X191897423Y-40631041D01*
X192270136Y-40293410D01*
X192296838Y-40435317D01*
X192435910Y-40651441D01*
X192648110Y-40796431D01*
X192900000Y-40847440D01*
X194373000Y-40847440D01*
X194373000Y-41922863D01*
X171502000Y-41898137D01*
X171502000Y-39749041D01*
X171768086Y-39749041D01*
X172007611Y-40255134D01*
X172422577Y-40631041D01*
X172810961Y-40791904D01*
X173033000Y-40669915D01*
X173033000Y-39527000D01*
X171889371Y-39527000D01*
X171768086Y-39749041D01*
X171502000Y-39749041D01*
X171502000Y-39050959D01*
X171768086Y-39050959D01*
X171889371Y-39273000D01*
X173033000Y-39273000D01*
X173033000Y-38130085D01*
X173287000Y-38130085D01*
X173287000Y-39273000D01*
X173307000Y-39273000D01*
X173307000Y-39527000D01*
X173287000Y-39527000D01*
X173287000Y-40669915D01*
X173509039Y-40791904D01*
X173897423Y-40631041D01*
X174270136Y-40293410D01*
X174296838Y-40435317D01*
X174435910Y-40651441D01*
X174648110Y-40796431D01*
X174900000Y-40847440D01*
X176500000Y-40847440D01*
X176735317Y-40803162D01*
X176951441Y-40664090D01*
X177096431Y-40451890D01*
X177147440Y-40200000D01*
X177147440Y-39749041D01*
X177768086Y-39749041D01*
X178007611Y-40255134D01*
X178422577Y-40631041D01*
X178810961Y-40791904D01*
X179033000Y-40669915D01*
X179033000Y-39527000D01*
X177889371Y-39527000D01*
X177768086Y-39749041D01*
X177147440Y-39749041D01*
X177147440Y-39050959D01*
X177768086Y-39050959D01*
X177889371Y-39273000D01*
X179033000Y-39273000D01*
X179033000Y-38130085D01*
X179287000Y-38130085D01*
X179287000Y-39273000D01*
X179307000Y-39273000D01*
X179307000Y-39527000D01*
X179287000Y-39527000D01*
X179287000Y-40669915D01*
X179509039Y-40791904D01*
X179897423Y-40631041D01*
X180270136Y-40293410D01*
X180296838Y-40435317D01*
X180435910Y-40651441D01*
X180648110Y-40796431D01*
X180900000Y-40847440D01*
X182500000Y-40847440D01*
X182735317Y-40803162D01*
X182951441Y-40664090D01*
X183096431Y-40451890D01*
X183147440Y-40200000D01*
X183147440Y-39749041D01*
X183768086Y-39749041D01*
X184007611Y-40255134D01*
X184422577Y-40631041D01*
X184810961Y-40791904D01*
X185033000Y-40669915D01*
X185033000Y-39527000D01*
X183889371Y-39527000D01*
X183768086Y-39749041D01*
X183147440Y-39749041D01*
X183147440Y-39050959D01*
X183768086Y-39050959D01*
X183889371Y-39273000D01*
X185033000Y-39273000D01*
X185033000Y-38130085D01*
X185287000Y-38130085D01*
X185287000Y-39273000D01*
X185307000Y-39273000D01*
X185307000Y-39527000D01*
X185287000Y-39527000D01*
X185287000Y-40669915D01*
X185509039Y-40791904D01*
X185897423Y-40631041D01*
X186270136Y-40293410D01*
X186296838Y-40435317D01*
X186435910Y-40651441D01*
X186648110Y-40796431D01*
X186900000Y-40847440D01*
X188500000Y-40847440D01*
X188735317Y-40803162D01*
X188951441Y-40664090D01*
X189096431Y-40451890D01*
X189147440Y-40200000D01*
X189147440Y-39749041D01*
X189768086Y-39749041D01*
X190007611Y-40255134D01*
X190422577Y-40631041D01*
X190810961Y-40791904D01*
X191033000Y-40669915D01*
X191033000Y-39527000D01*
X189889371Y-39527000D01*
X189768086Y-39749041D01*
X189147440Y-39749041D01*
X189147440Y-39050959D01*
X189768086Y-39050959D01*
X189889371Y-39273000D01*
X191033000Y-39273000D01*
X191033000Y-38130085D01*
X190810961Y-38008096D01*
X190422577Y-38168959D01*
X190007611Y-38544866D01*
X189768086Y-39050959D01*
X189147440Y-39050959D01*
X189147440Y-38600000D01*
X189103162Y-38364683D01*
X188964090Y-38148559D01*
X188751890Y-38003569D01*
X188500000Y-37952560D01*
X186900000Y-37952560D01*
X186664683Y-37996838D01*
X186448559Y-38135910D01*
X186303569Y-38348110D01*
X186271268Y-38507616D01*
X185897423Y-38168959D01*
X185509039Y-38008096D01*
X185287000Y-38130085D01*
X185033000Y-38130085D01*
X184810961Y-38008096D01*
X184422577Y-38168959D01*
X184007611Y-38544866D01*
X183768086Y-39050959D01*
X183147440Y-39050959D01*
X183147440Y-38600000D01*
X183103162Y-38364683D01*
X182964090Y-38148559D01*
X182751890Y-38003569D01*
X182500000Y-37952560D01*
X180900000Y-37952560D01*
X180664683Y-37996838D01*
X180448559Y-38135910D01*
X180303569Y-38348110D01*
X180271268Y-38507616D01*
X179897423Y-38168959D01*
X179509039Y-38008096D01*
X179287000Y-38130085D01*
X179033000Y-38130085D01*
X178810961Y-38008096D01*
X178422577Y-38168959D01*
X178007611Y-38544866D01*
X177768086Y-39050959D01*
X177147440Y-39050959D01*
X177147440Y-38600000D01*
X177103162Y-38364683D01*
X176964090Y-38148559D01*
X176751890Y-38003569D01*
X176500000Y-37952560D01*
X174900000Y-37952560D01*
X174664683Y-37996838D01*
X174448559Y-38135910D01*
X174303569Y-38348110D01*
X174271268Y-38507616D01*
X173897423Y-38168959D01*
X173509039Y-38008096D01*
X173287000Y-38130085D01*
X173033000Y-38130085D01*
X172810961Y-38008096D01*
X172422577Y-38168959D01*
X172007611Y-38544866D01*
X171768086Y-39050959D01*
X171502000Y-39050959D01*
X171502000Y-35176927D01*
X171620921Y-35002880D01*
X171671930Y-34750990D01*
X171671930Y-32752010D01*
X171627652Y-32516693D01*
X171502000Y-32321424D01*
X171502000Y-28475000D01*
X171491994Y-28425590D01*
X171463553Y-28383965D01*
X171421159Y-28356685D01*
X171375000Y-28348000D01*
X167651489Y-28348000D01*
X167647398Y-27333320D01*
X168346285Y-27333320D01*
X168475533Y-27626123D01*
X169175806Y-27894388D01*
X169925435Y-27874250D01*
X170524467Y-27626123D01*
X170653715Y-27333320D01*
X169500000Y-26179605D01*
X168346285Y-27333320D01*
X167647398Y-27333320D01*
X167643914Y-26469286D01*
X167873877Y-27024467D01*
X168166680Y-27153715D01*
X169320395Y-26000000D01*
X169679605Y-26000000D01*
X170833320Y-27153715D01*
X171126123Y-27024467D01*
X171375574Y-26373305D01*
X172614674Y-26373305D01*
X172901043Y-27066372D01*
X173430839Y-27597093D01*
X174123405Y-27884672D01*
X174873305Y-27885326D01*
X175566372Y-27598957D01*
X176097093Y-27069161D01*
X176384672Y-26376595D01*
X176384674Y-26373305D01*
X177614674Y-26373305D01*
X177901043Y-27066372D01*
X178430839Y-27597093D01*
X179123405Y-27884672D01*
X179873305Y-27885326D01*
X180566372Y-27598957D01*
X181097093Y-27069161D01*
X181384672Y-26376595D01*
X181384674Y-26373305D01*
X182614674Y-26373305D01*
X182901043Y-27066372D01*
X183430839Y-27597093D01*
X184123405Y-27884672D01*
X184873305Y-27885326D01*
X185566372Y-27598957D01*
X186097093Y-27069161D01*
X186384672Y-26376595D01*
X186385326Y-25626695D01*
X186098957Y-24933628D01*
X185569161Y-24402907D01*
X184876595Y-24115328D01*
X184126695Y-24114674D01*
X183433628Y-24401043D01*
X182902907Y-24930839D01*
X182615328Y-25623405D01*
X182614674Y-26373305D01*
X181384674Y-26373305D01*
X181385326Y-25626695D01*
X181098957Y-24933628D01*
X180569161Y-24402907D01*
X179876595Y-24115328D01*
X179126695Y-24114674D01*
X178433628Y-24401043D01*
X177902907Y-24930839D01*
X177615328Y-25623405D01*
X177614674Y-26373305D01*
X176384674Y-26373305D01*
X176385326Y-25626695D01*
X176098957Y-24933628D01*
X175569161Y-24402907D01*
X174876595Y-24115328D01*
X174126695Y-24114674D01*
X173433628Y-24401043D01*
X172902907Y-24930839D01*
X172615328Y-25623405D01*
X172614674Y-26373305D01*
X171375574Y-26373305D01*
X171394388Y-26324194D01*
X171374250Y-25574565D01*
X171126123Y-24975533D01*
X170833320Y-24846285D01*
X169679605Y-26000000D01*
X169320395Y-26000000D01*
X168166680Y-24846285D01*
X167873877Y-24975533D01*
X167640349Y-25585131D01*
X167636646Y-24666680D01*
X168346285Y-24666680D01*
X169500000Y-25820395D01*
X170653715Y-24666680D01*
X170524467Y-24373877D01*
X169824194Y-24105612D01*
X169074565Y-24125750D01*
X168475533Y-24373877D01*
X168346285Y-24666680D01*
X167636646Y-24666680D01*
X167627514Y-22402133D01*
X191348264Y-22426868D01*
G36*
X154317000Y-85483000D02*
X154337000Y-85483000D01*
X154337000Y-85737000D01*
X154317000Y-85737000D01*
X154317000Y-86879915D01*
X154539039Y-87001904D01*
X154927423Y-86841041D01*
X155342389Y-86465134D01*
X155445014Y-86248297D01*
X155715302Y-86652811D01*
X156180849Y-86963880D01*
X156730000Y-87073113D01*
X157279151Y-86963880D01*
X157744698Y-86652811D01*
X158000000Y-86270725D01*
X158255302Y-86652811D01*
X158720849Y-86963880D01*
X159270000Y-87073113D01*
X159534907Y-87020420D01*
X160937243Y-88422756D01*
X161068635Y-88510549D01*
X161200026Y-88598342D01*
X161510000Y-88660000D01*
X172014488Y-88660000D01*
X177744487Y-94390000D01*
X175349313Y-94390000D01*
X175524698Y-94272811D01*
X175835767Y-93807264D01*
X175945000Y-93258113D01*
X175945000Y-93201887D01*
X175835767Y-92652736D01*
X175524698Y-92187189D01*
X175059151Y-91876120D01*
X174510000Y-91766887D01*
X173960849Y-91876120D01*
X173495302Y-92187189D01*
X173240000Y-92569275D01*
X172984698Y-92187189D01*
X172519151Y-91876120D01*
X171970000Y-91766887D01*
X171420849Y-91876120D01*
X170955302Y-92187189D01*
X170700000Y-92569275D01*
X170444698Y-92187189D01*
X169979151Y-91876120D01*
X169430000Y-91766887D01*
X168880849Y-91876120D01*
X168415302Y-92187189D01*
X168160000Y-92569275D01*
X167904698Y-92187189D01*
X167439151Y-91876120D01*
X166890000Y-91766887D01*
X166340849Y-91876120D01*
X165875302Y-92187189D01*
X165620000Y-92569275D01*
X165364698Y-92187189D01*
X164899151Y-91876120D01*
X164350000Y-91766887D01*
X163800849Y-91876120D01*
X163335302Y-92187189D01*
X163080000Y-92569275D01*
X162824698Y-92187189D01*
X162359151Y-91876120D01*
X161810000Y-91766887D01*
X161260849Y-91876120D01*
X160795302Y-92187189D01*
X160540000Y-92569275D01*
X160284698Y-92187189D01*
X159819151Y-91876120D01*
X159270000Y-91766887D01*
X158720849Y-91876120D01*
X158255302Y-92187189D01*
X158000000Y-92569275D01*
X157744698Y-92187189D01*
X157279151Y-91876120D01*
X156730000Y-91766887D01*
X156180849Y-91876120D01*
X155715302Y-92187189D01*
X155460000Y-92569275D01*
X155204698Y-92187189D01*
X154739151Y-91876120D01*
X154190000Y-91766887D01*
X153640849Y-91876120D01*
X153175302Y-92187189D01*
X153103265Y-92295000D01*
X151947290Y-92295000D01*
X151275000Y-91622710D01*
X151275000Y-87117290D01*
X152260735Y-86131555D01*
X152351145Y-86071145D01*
X152363411Y-86052788D01*
X152381176Y-86039683D01*
X152755000Y-85629353D01*
X152755000Y-85737002D01*
X152919370Y-85737002D01*
X152798086Y-85959041D01*
X153037611Y-86465134D01*
X153452577Y-86841041D01*
X153840961Y-87001904D01*
X154063000Y-86879915D01*
X154063000Y-85737000D01*
X154043000Y-85737000D01*
X154043000Y-85483000D01*
X154063000Y-85483000D01*
X154063000Y-85463000D01*
X154317000Y-85463000D01*
X154317000Y-85483000D01*
X154317000Y-85483000D01*
G37*
X154317000Y-85483000D02*
X154337000Y-85483000D01*
X154337000Y-85737000D01*
X154317000Y-85737000D01*
X154317000Y-86879915D01*
X154539039Y-87001904D01*
X154927423Y-86841041D01*
X155342389Y-86465134D01*
X155445014Y-86248297D01*
X155715302Y-86652811D01*
X156180849Y-86963880D01*
X156730000Y-87073113D01*
X157279151Y-86963880D01*
X157744698Y-86652811D01*
X158000000Y-86270725D01*
X158255302Y-86652811D01*
X158720849Y-86963880D01*
X159270000Y-87073113D01*
X159534907Y-87020420D01*
X160937243Y-88422756D01*
X161068635Y-88510549D01*
X161200026Y-88598342D01*
X161510000Y-88660000D01*
X172014488Y-88660000D01*
X177744487Y-94390000D01*
X175349313Y-94390000D01*
X175524698Y-94272811D01*
X175835767Y-93807264D01*
X175945000Y-93258113D01*
X175945000Y-93201887D01*
X175835767Y-92652736D01*
X175524698Y-92187189D01*
X175059151Y-91876120D01*
X174510000Y-91766887D01*
X173960849Y-91876120D01*
X173495302Y-92187189D01*
X173240000Y-92569275D01*
X172984698Y-92187189D01*
X172519151Y-91876120D01*
X171970000Y-91766887D01*
X171420849Y-91876120D01*
X170955302Y-92187189D01*
X170700000Y-92569275D01*
X170444698Y-92187189D01*
X169979151Y-91876120D01*
X169430000Y-91766887D01*
X168880849Y-91876120D01*
X168415302Y-92187189D01*
X168160000Y-92569275D01*
X167904698Y-92187189D01*
X167439151Y-91876120D01*
X166890000Y-91766887D01*
X166340849Y-91876120D01*
X165875302Y-92187189D01*
X165620000Y-92569275D01*
X165364698Y-92187189D01*
X164899151Y-91876120D01*
X164350000Y-91766887D01*
X163800849Y-91876120D01*
X163335302Y-92187189D01*
X163080000Y-92569275D01*
X162824698Y-92187189D01*
X162359151Y-91876120D01*
X161810000Y-91766887D01*
X161260849Y-91876120D01*
X160795302Y-92187189D01*
X160540000Y-92569275D01*
X160284698Y-92187189D01*
X159819151Y-91876120D01*
X159270000Y-91766887D01*
X158720849Y-91876120D01*
X158255302Y-92187189D01*
X158000000Y-92569275D01*
X157744698Y-92187189D01*
X157279151Y-91876120D01*
X156730000Y-91766887D01*
X156180849Y-91876120D01*
X155715302Y-92187189D01*
X155460000Y-92569275D01*
X155204698Y-92187189D01*
X154739151Y-91876120D01*
X154190000Y-91766887D01*
X153640849Y-91876120D01*
X153175302Y-92187189D01*
X153103265Y-92295000D01*
X151947290Y-92295000D01*
X151275000Y-91622710D01*
X151275000Y-87117290D01*
X152260735Y-86131555D01*
X152351145Y-86071145D01*
X152363411Y-86052788D01*
X152381176Y-86039683D01*
X152755000Y-85629353D01*
X152755000Y-85737002D01*
X152919370Y-85737002D01*
X152798086Y-85959041D01*
X153037611Y-86465134D01*
X153452577Y-86841041D01*
X153840961Y-87001904D01*
X154063000Y-86879915D01*
X154063000Y-85737000D01*
X154043000Y-85737000D01*
X154043000Y-85483000D01*
X154063000Y-85483000D01*
X154063000Y-85463000D01*
X154317000Y-85463000D01*
X154317000Y-85483000D01*
G36*
X166148000Y-25052321D02*
X166098957Y-24933628D01*
X165569161Y-24402907D01*
X164876595Y-24115328D01*
X164126695Y-24114674D01*
X163433628Y-24401043D01*
X162902907Y-24930839D01*
X162615328Y-25623405D01*
X162614674Y-26373305D01*
X162901043Y-27066372D01*
X163430839Y-27597093D01*
X164123405Y-27884672D01*
X164873305Y-27885326D01*
X165566372Y-27598957D01*
X166097093Y-27069161D01*
X166148000Y-26946564D01*
X166148000Y-31250000D01*
X166158006Y-31299410D01*
X166186447Y-31341035D01*
X166228841Y-31368315D01*
X166275000Y-31377000D01*
X170598000Y-31377000D01*
X170598000Y-32104570D01*
X169025510Y-32104570D01*
X168790193Y-32148848D01*
X168574069Y-32287920D01*
X168429079Y-32500120D01*
X168378070Y-32752010D01*
X168378070Y-34750990D01*
X168422348Y-34986307D01*
X168561420Y-35202431D01*
X168773620Y-35347421D01*
X169025510Y-35398430D01*
X170598000Y-35398430D01*
X170598000Y-44625000D01*
X170608006Y-44674410D01*
X170636447Y-44716035D01*
X170678841Y-44743315D01*
X170725000Y-44752000D01*
X194125000Y-44752000D01*
X194174410Y-44741994D01*
X194214803Y-44714803D01*
X195489803Y-43439803D01*
X195517666Y-43397789D01*
X195527000Y-43350000D01*
X195527000Y-40133110D01*
X203808524Y-40133110D01*
X203929845Y-40363000D01*
X205123000Y-40363000D01*
X205123000Y-39169181D01*
X204893108Y-39048514D01*
X204368642Y-39294817D01*
X203978355Y-39723076D01*
X203808524Y-40133110D01*
X195527000Y-40133110D01*
X195527000Y-39152606D01*
X198352606Y-36327000D01*
X214648105Y-36327000D01*
X214672895Y-66348000D01*
X213360000Y-66348000D01*
X213360000Y-64550000D01*
X213298342Y-64240026D01*
X213203671Y-64098342D01*
X213122756Y-63977243D01*
X211922756Y-62777244D01*
X211659974Y-62601658D01*
X211350000Y-62540000D01*
X209029546Y-62540000D01*
X208869147Y-62299946D01*
X208539974Y-62080000D01*
X208869147Y-61860054D01*
X209191054Y-61378285D01*
X209304093Y-60810000D01*
X209191054Y-60241715D01*
X208869147Y-59759946D01*
X208539974Y-59540000D01*
X208869147Y-59320054D01*
X209191054Y-58838285D01*
X209304093Y-58270000D01*
X209191054Y-57701715D01*
X208869147Y-57219946D01*
X208539974Y-57000000D01*
X208869147Y-56780054D01*
X209191054Y-56298285D01*
X209304093Y-55730000D01*
X209191054Y-55161715D01*
X208869147Y-54679946D01*
X208528447Y-54452298D01*
X208671358Y-54385183D01*
X209061645Y-53956924D01*
X209231476Y-53546890D01*
X209110155Y-53317000D01*
X207917000Y-53317000D01*
X207917000Y-53337000D01*
X207663000Y-53337000D01*
X207663000Y-53317000D01*
X207643000Y-53317000D01*
X207643000Y-53063000D01*
X207663000Y-53063000D01*
X207663000Y-53043000D01*
X207917000Y-53043000D01*
X207917000Y-53063000D01*
X209110155Y-53063000D01*
X209231476Y-52833110D01*
X209061645Y-52423076D01*
X208671358Y-51994817D01*
X208528447Y-51927702D01*
X208869147Y-51700054D01*
X209191054Y-51218285D01*
X209304093Y-50650000D01*
X209191054Y-50081715D01*
X208869147Y-49599946D01*
X208528447Y-49372298D01*
X208671358Y-49305183D01*
X209061645Y-48876924D01*
X209231476Y-48466890D01*
X209110155Y-48237000D01*
X207917000Y-48237000D01*
X207917000Y-48257000D01*
X207663000Y-48257000D01*
X207663000Y-48237000D01*
X207643000Y-48237000D01*
X207643000Y-47983000D01*
X207663000Y-47983000D01*
X207663000Y-47963000D01*
X207917000Y-47963000D01*
X207917000Y-47983000D01*
X209110155Y-47983000D01*
X209231476Y-47753110D01*
X209061645Y-47343076D01*
X208671358Y-46914817D01*
X208528447Y-46847702D01*
X208869147Y-46620054D01*
X209191054Y-46138285D01*
X209304093Y-45570000D01*
X209191054Y-45001715D01*
X208869147Y-44519946D01*
X208539974Y-44300000D01*
X208869147Y-44080054D01*
X209191054Y-43598285D01*
X209304093Y-43030000D01*
X209191054Y-42461715D01*
X208869147Y-41979946D01*
X208539974Y-41760000D01*
X208869147Y-41540054D01*
X209191054Y-41058285D01*
X209304093Y-40490000D01*
X209191054Y-39921715D01*
X208875865Y-39450000D01*
X209585294Y-39450000D01*
X209755781Y-40307098D01*
X210241289Y-41033711D01*
X210967902Y-41519219D01*
X211825000Y-41689706D01*
X212682098Y-41519219D01*
X213408711Y-41033711D01*
X213894219Y-40307098D01*
X214064706Y-39450000D01*
X213894219Y-38592902D01*
X213408711Y-37866289D01*
X212682098Y-37380781D01*
X211825000Y-37210294D01*
X210967902Y-37380781D01*
X210241289Y-37866289D01*
X209755781Y-38592902D01*
X209585294Y-39450000D01*
X208875865Y-39450000D01*
X208869147Y-39439946D01*
X208387378Y-39118039D01*
X207819093Y-39005000D01*
X207760907Y-39005000D01*
X207192622Y-39118039D01*
X206710853Y-39439946D01*
X206521655Y-39723101D01*
X206521645Y-39723076D01*
X206131358Y-39294817D01*
X205606892Y-39048514D01*
X205377000Y-39169181D01*
X205377000Y-40363000D01*
X205397000Y-40363000D01*
X205397000Y-40617000D01*
X205377000Y-40617000D01*
X205377000Y-40637000D01*
X205123000Y-40637000D01*
X205123000Y-40617000D01*
X203929845Y-40617000D01*
X203808524Y-40846890D01*
X203978355Y-41256924D01*
X204368642Y-41685183D01*
X204511553Y-41752298D01*
X204170853Y-41979946D01*
X203848946Y-42461715D01*
X203735907Y-43030000D01*
X203848946Y-43598285D01*
X204170853Y-44080054D01*
X204500026Y-44300000D01*
X204170853Y-44519946D01*
X203848946Y-45001715D01*
X203735907Y-45570000D01*
X203848946Y-46138285D01*
X204170853Y-46620054D01*
X204500026Y-46840000D01*
X204170853Y-47059946D01*
X203848946Y-47541715D01*
X203735907Y-48110000D01*
X203848946Y-48678285D01*
X204170853Y-49160054D01*
X204500026Y-49380000D01*
X204170853Y-49599946D01*
X203848946Y-50081715D01*
X203735907Y-50650000D01*
X203848946Y-51218285D01*
X204170853Y-51700054D01*
X204500026Y-51920000D01*
X204170853Y-52139946D01*
X203848946Y-52621715D01*
X203735907Y-53190000D01*
X203848946Y-53758285D01*
X204170853Y-54240054D01*
X204500026Y-54460000D01*
X204170853Y-54679946D01*
X203848946Y-55161715D01*
X203735907Y-55730000D01*
X203848946Y-56298285D01*
X204170853Y-56780054D01*
X204511553Y-57007702D01*
X204368642Y-57074817D01*
X203978355Y-57503076D01*
X203808524Y-57913110D01*
X203929845Y-58143000D01*
X205123000Y-58143000D01*
X205123000Y-58123000D01*
X205377000Y-58123000D01*
X205377000Y-58143000D01*
X205397000Y-58143000D01*
X205397000Y-58397000D01*
X205377000Y-58397000D01*
X205377000Y-58417000D01*
X205123000Y-58417000D01*
X205123000Y-58397000D01*
X203929845Y-58397000D01*
X203808524Y-58626890D01*
X203978355Y-59036924D01*
X204368642Y-59465183D01*
X204511553Y-59532298D01*
X204170853Y-59759946D01*
X203848946Y-60241715D01*
X203735907Y-60810000D01*
X203848946Y-61378285D01*
X204170853Y-61860054D01*
X204500026Y-62080000D01*
X204170853Y-62299946D01*
X203848946Y-62781715D01*
X203735907Y-63350000D01*
X203848946Y-63918285D01*
X204170853Y-64400054D01*
X204500026Y-64620000D01*
X204170853Y-64839946D01*
X203848946Y-65321715D01*
X203735907Y-65890000D01*
X203848946Y-66458285D01*
X204170853Y-66940054D01*
X204500026Y-67160000D01*
X204170853Y-67379946D01*
X203848946Y-67861715D01*
X203735907Y-68430000D01*
X203754456Y-68523254D01*
X200211491Y-72066219D01*
X199871057Y-72206883D01*
X199607808Y-72469673D01*
X199465162Y-72813201D01*
X199464838Y-73185167D01*
X199606883Y-73528943D01*
X199869673Y-73792192D01*
X200213201Y-73934838D01*
X200585167Y-73935162D01*
X200585559Y-73935000D01*
X200600000Y-73935000D01*
X200957809Y-73863827D01*
X201261145Y-73661145D01*
X201665000Y-73257290D01*
X201665000Y-87450000D01*
X201736173Y-87807809D01*
X201938855Y-88111145D01*
X203238855Y-89411145D01*
X203542191Y-89613827D01*
X203763443Y-89657837D01*
X203796838Y-89835317D01*
X203935910Y-90051441D01*
X204148110Y-90196431D01*
X204400000Y-90247440D01*
X206100000Y-90247440D01*
X206335317Y-90203162D01*
X206551441Y-90064090D01*
X206696431Y-89851890D01*
X206707841Y-89795546D01*
X206710853Y-89800054D01*
X207192622Y-90121961D01*
X207760907Y-90235000D01*
X207819093Y-90235000D01*
X208387378Y-90121961D01*
X208869147Y-89800054D01*
X209191054Y-89318285D01*
X209304093Y-88750000D01*
X209191054Y-88181715D01*
X208869147Y-87699946D01*
X208539974Y-87480000D01*
X208869147Y-87260054D01*
X209191054Y-86778285D01*
X209304093Y-86210000D01*
X209191054Y-85641715D01*
X208869147Y-85159946D01*
X208528447Y-84932298D01*
X208671358Y-84865183D01*
X209061645Y-84436924D01*
X209231476Y-84026890D01*
X209110155Y-83797000D01*
X207917000Y-83797000D01*
X207917000Y-83817000D01*
X207663000Y-83817000D01*
X207663000Y-83797000D01*
X207643000Y-83797000D01*
X207643000Y-83543000D01*
X207663000Y-83543000D01*
X207663000Y-83523000D01*
X207917000Y-83523000D01*
X207917000Y-83543000D01*
X209110155Y-83543000D01*
X209231476Y-83313110D01*
X209061645Y-82903076D01*
X208671358Y-82474817D01*
X208528447Y-82407702D01*
X208869147Y-82180054D01*
X209191054Y-81698285D01*
X209304093Y-81130000D01*
X209191054Y-80561715D01*
X208869147Y-80079946D01*
X208539974Y-79860000D01*
X208869147Y-79640054D01*
X209191054Y-79158285D01*
X209304093Y-78590000D01*
X209191054Y-78021715D01*
X208869147Y-77539946D01*
X208539974Y-77320000D01*
X208869147Y-77100054D01*
X209191054Y-76618285D01*
X209304093Y-76050000D01*
X209191054Y-75481715D01*
X208869147Y-74999946D01*
X208528447Y-74772298D01*
X208671358Y-74705183D01*
X209061645Y-74276924D01*
X209231476Y-73866890D01*
X209110155Y-73637000D01*
X207917000Y-73637000D01*
X207917000Y-73657000D01*
X207663000Y-73657000D01*
X207663000Y-73637000D01*
X207643000Y-73637000D01*
X207643000Y-73383000D01*
X207663000Y-73383000D01*
X207663000Y-73363000D01*
X207917000Y-73363000D01*
X207917000Y-73383000D01*
X209110155Y-73383000D01*
X209231476Y-73153110D01*
X209061645Y-72743076D01*
X208671358Y-72314817D01*
X208528447Y-72247702D01*
X208869147Y-72020054D01*
X209029546Y-71780000D01*
X209984488Y-71780000D01*
X210440000Y-72235513D01*
X210440000Y-90314487D01*
X210264488Y-90490000D01*
X204590000Y-90490000D01*
X204280026Y-90551658D01*
X204148635Y-90639451D01*
X204017243Y-90727244D01*
X203364488Y-91380000D01*
X182464944Y-91380000D01*
X182758711Y-91183711D01*
X183244219Y-90457098D01*
X183414706Y-89600000D01*
X183244219Y-88742902D01*
X182758711Y-88016289D01*
X182032098Y-87530781D01*
X181175000Y-87360294D01*
X180317902Y-87530781D01*
X179591289Y-88016289D01*
X179105781Y-88742902D01*
X178935294Y-89600000D01*
X179105781Y-90457098D01*
X179591289Y-91183711D01*
X179885056Y-91380000D01*
X179705512Y-91380000D01*
X179613032Y-91287520D01*
X179572757Y-91227244D01*
X177610000Y-89264488D01*
X177610000Y-76935512D01*
X178540000Y-76005513D01*
X178540000Y-78512559D01*
X178415162Y-78813201D01*
X178414838Y-79185167D01*
X178556883Y-79528943D01*
X178819673Y-79792192D01*
X179163201Y-79934838D01*
X179535167Y-79935162D01*
X179878943Y-79793117D01*
X180142192Y-79530327D01*
X180284838Y-79186799D01*
X180285162Y-78814833D01*
X180160000Y-78511917D01*
X180160000Y-54485512D01*
X181035513Y-53610000D01*
X187532972Y-53610000D01*
X187713201Y-53684838D01*
X188085167Y-53685162D01*
X188428943Y-53543117D01*
X188692192Y-53280327D01*
X188834838Y-52936799D01*
X188835162Y-52564833D01*
X188695490Y-52226800D01*
X190160854Y-50761436D01*
X190292192Y-50630327D01*
X190434838Y-50286799D01*
X190435162Y-49914833D01*
X190293117Y-49571057D01*
X190030327Y-49307808D01*
X189686799Y-49165162D01*
X189314833Y-49164838D01*
X188971057Y-49306883D01*
X188707808Y-49569673D01*
X188707645Y-49570065D01*
X187362710Y-50915000D01*
X185635118Y-50915000D01*
X185635162Y-50864833D01*
X185493117Y-50521057D01*
X185230327Y-50257808D01*
X184886799Y-50115162D01*
X184514833Y-50114838D01*
X184171057Y-50256883D01*
X183907808Y-50519673D01*
X183907645Y-50520065D01*
X183512710Y-50915000D01*
X181250000Y-50915000D01*
X180892191Y-50986173D01*
X180777128Y-51063056D01*
X180671057Y-51106883D01*
X180589118Y-51188680D01*
X180588855Y-51188855D01*
X180539146Y-51238564D01*
X180407808Y-51369673D01*
X180265162Y-51713201D01*
X180264838Y-52085167D01*
X180281073Y-52124458D01*
X180265296Y-52135000D01*
X180127243Y-52227244D01*
X179167608Y-53186880D01*
X179148343Y-53090027D01*
X178972757Y-52827244D01*
X176897017Y-50751505D01*
X176843117Y-50621057D01*
X176580327Y-50357808D01*
X176236799Y-50215162D01*
X175864833Y-50214838D01*
X175521057Y-50356883D01*
X175257808Y-50619673D01*
X175115162Y-50963201D01*
X175114838Y-51335167D01*
X175256883Y-51678943D01*
X175519673Y-51942192D01*
X175863201Y-52084838D01*
X175939392Y-52084904D01*
X176119504Y-52265016D01*
X175914833Y-52264838D01*
X175571057Y-52406883D01*
X175307808Y-52669673D01*
X175165162Y-53013201D01*
X175164838Y-53385167D01*
X175215000Y-53506569D01*
X175215000Y-58999184D01*
X175214838Y-59185167D01*
X175356883Y-59528943D01*
X175619673Y-59792192D01*
X175963201Y-59934838D01*
X176335167Y-59935162D01*
X176678943Y-59793117D01*
X176942192Y-59530327D01*
X177084838Y-59186799D01*
X177085162Y-58814833D01*
X177085000Y-58814441D01*
X177085000Y-53250000D01*
X177080161Y-53225674D01*
X177590000Y-53735513D01*
X177590000Y-74664487D01*
X176227244Y-76027244D01*
X176051658Y-76290026D01*
X175990000Y-76600000D01*
X175990000Y-89600000D01*
X176051658Y-89909974D01*
X176163424Y-90077243D01*
X176227244Y-90172756D01*
X178386973Y-92332486D01*
X178427244Y-92392756D01*
X178797243Y-92762756D01*
X178925332Y-92848342D01*
X179060026Y-92938342D01*
X179370000Y-93000000D01*
X203700000Y-93000000D01*
X204009974Y-92938342D01*
X204272756Y-92762756D01*
X204281617Y-92753895D01*
X204419673Y-92892192D01*
X204763201Y-93034838D01*
X205135167Y-93035162D01*
X205438083Y-92910000D01*
X209994488Y-92910000D01*
X209614488Y-93290000D01*
X178935513Y-93290000D01*
X172922756Y-87277244D01*
X172885814Y-87252560D01*
X172659974Y-87101658D01*
X172350000Y-87040000D01*
X172136470Y-87040000D01*
X172519151Y-86963880D01*
X172984698Y-86652811D01*
X173081101Y-86508535D01*
X173106838Y-86645317D01*
X173245910Y-86861441D01*
X173458110Y-87006431D01*
X173710000Y-87057440D01*
X175310000Y-87057440D01*
X175545317Y-87013162D01*
X175761441Y-86874090D01*
X175906431Y-86661890D01*
X175957440Y-86410000D01*
X175957440Y-84810000D01*
X175913162Y-84574683D01*
X175774090Y-84358559D01*
X175561890Y-84213569D01*
X175310000Y-84162560D01*
X173710000Y-84162560D01*
X173474683Y-84206838D01*
X173258559Y-84345910D01*
X173113569Y-84558110D01*
X173082185Y-84713089D01*
X172984698Y-84567189D01*
X172519151Y-84256120D01*
X171970000Y-84146887D01*
X171420849Y-84256120D01*
X170955302Y-84567189D01*
X170700000Y-84949275D01*
X170444698Y-84567189D01*
X169979151Y-84256120D01*
X169430000Y-84146887D01*
X168880849Y-84256120D01*
X168415302Y-84567189D01*
X168160000Y-84949275D01*
X167904698Y-84567189D01*
X167439151Y-84256120D01*
X166890000Y-84146887D01*
X166340849Y-84256120D01*
X165875302Y-84567189D01*
X165620000Y-84949275D01*
X165364698Y-84567189D01*
X164899151Y-84256120D01*
X164350000Y-84146887D01*
X163800849Y-84256120D01*
X163335302Y-84567189D01*
X163080000Y-84949275D01*
X162824698Y-84567189D01*
X162359151Y-84256120D01*
X162107643Y-84206092D01*
X170729053Y-75703205D01*
X170730903Y-75700477D01*
X170733645Y-75698645D01*
X170833232Y-75549603D01*
X170933830Y-75401279D01*
X170934496Y-75398050D01*
X170936327Y-75395309D01*
X170971285Y-75219564D01*
X171007478Y-75043972D01*
X171006857Y-75040733D01*
X171007500Y-75037500D01*
X171007500Y-74895430D01*
X171071990Y-74895430D01*
X171307307Y-74851152D01*
X171523431Y-74712080D01*
X171668421Y-74499880D01*
X171719430Y-74247990D01*
X171719430Y-72249010D01*
X171675152Y-72013693D01*
X171536080Y-71797569D01*
X171323880Y-71652579D01*
X171071990Y-71601570D01*
X169073010Y-71601570D01*
X168837693Y-71645848D01*
X168621569Y-71784920D01*
X168476579Y-71997120D01*
X168425570Y-72249010D01*
X168425570Y-74247990D01*
X168469848Y-74483307D01*
X168608920Y-74699431D01*
X168821120Y-74844421D01*
X168917038Y-74863845D01*
X160596496Y-83070000D01*
X154993099Y-83070000D01*
X155369219Y-82507098D01*
X155539706Y-81650000D01*
X155369219Y-80792902D01*
X154883711Y-80066289D01*
X154157098Y-79580781D01*
X153300000Y-79410294D01*
X152442902Y-79580781D01*
X152402000Y-79608111D01*
X152402000Y-74882990D01*
X152641750Y-74882990D01*
X152800500Y-74724240D01*
X152800500Y-73375500D01*
X153054500Y-73375500D01*
X153054500Y-74724240D01*
X153213250Y-74882990D01*
X154053300Y-74882990D01*
X154286689Y-74786317D01*
X154465317Y-74607688D01*
X154561990Y-74374299D01*
X154561990Y-73534250D01*
X154403240Y-73375500D01*
X153054500Y-73375500D01*
X152800500Y-73375500D01*
X152780500Y-73375500D01*
X152780500Y-73121500D01*
X152800500Y-73121500D01*
X152800500Y-71772760D01*
X153054500Y-71772760D01*
X153054500Y-73121500D01*
X154403240Y-73121500D01*
X154561990Y-72962750D01*
X154561990Y-72122701D01*
X154465317Y-71889312D01*
X154286689Y-71710683D01*
X154053300Y-71614010D01*
X153213250Y-71614010D01*
X153054500Y-71772760D01*
X152800500Y-71772760D01*
X152641750Y-71614010D01*
X152402000Y-71614010D01*
X152402000Y-66375000D01*
X152391994Y-66325590D01*
X152363553Y-66283965D01*
X152321159Y-66256685D01*
X152275000Y-66248000D01*
X150051856Y-66248000D01*
X150050878Y-65385167D01*
X171864838Y-65385167D01*
X171865000Y-65385559D01*
X171865000Y-68600000D01*
X171936173Y-68957809D01*
X172138855Y-69261145D01*
X174138564Y-71260854D01*
X174269673Y-71392192D01*
X174613201Y-71534838D01*
X174985167Y-71535162D01*
X175328943Y-71393117D01*
X175592192Y-71130327D01*
X175734838Y-70786799D01*
X175735162Y-70414833D01*
X175593117Y-70071057D01*
X175330327Y-69807808D01*
X175329935Y-69807645D01*
X173735000Y-68212710D01*
X173735000Y-65200816D01*
X173735162Y-65014833D01*
X173593117Y-64671057D01*
X173330327Y-64407808D01*
X172986799Y-64265162D01*
X172614833Y-64264838D01*
X172271057Y-64406883D01*
X172007808Y-64669673D01*
X171865162Y-65013201D01*
X171864838Y-65385167D01*
X150050878Y-65385167D01*
X150030440Y-47369041D01*
X171768086Y-47369041D01*
X172007611Y-47875134D01*
X172422577Y-48251041D01*
X172810961Y-48411904D01*
X173033000Y-48289915D01*
X173033000Y-47147000D01*
X171889371Y-47147000D01*
X171768086Y-47369041D01*
X150030440Y-47369041D01*
X150029649Y-46670959D01*
X171768086Y-46670959D01*
X171889371Y-46893000D01*
X173033000Y-46893000D01*
X173033000Y-45750085D01*
X173287000Y-45750085D01*
X173287000Y-46893000D01*
X173307000Y-46893000D01*
X173307000Y-47147000D01*
X173287000Y-47147000D01*
X173287000Y-48289915D01*
X173509039Y-48411904D01*
X173897423Y-48251041D01*
X174312389Y-47875134D01*
X174415014Y-47658297D01*
X174685302Y-48062811D01*
X175150849Y-48373880D01*
X175700000Y-48483113D01*
X176249151Y-48373880D01*
X176714698Y-48062811D01*
X177025767Y-47597264D01*
X177071163Y-47369041D01*
X177768086Y-47369041D01*
X178007611Y-47875134D01*
X178422577Y-48251041D01*
X178810961Y-48411904D01*
X179033000Y-48289915D01*
X179033000Y-47147000D01*
X177889371Y-47147000D01*
X177768086Y-47369041D01*
X177071163Y-47369041D01*
X177135000Y-47048113D01*
X177135000Y-46991887D01*
X177071164Y-46670959D01*
X177768086Y-46670959D01*
X177889371Y-46893000D01*
X179033000Y-46893000D01*
X179033000Y-45750085D01*
X179287000Y-45750085D01*
X179287000Y-46893000D01*
X179307000Y-46893000D01*
X179307000Y-47147000D01*
X179287000Y-47147000D01*
X179287000Y-48289915D01*
X179509039Y-48411904D01*
X179897423Y-48251041D01*
X180312389Y-47875134D01*
X180415014Y-47658297D01*
X180685302Y-48062811D01*
X181150849Y-48373880D01*
X181700000Y-48483113D01*
X182249151Y-48373880D01*
X182714698Y-48062811D01*
X183025767Y-47597264D01*
X183071163Y-47369041D01*
X183768086Y-47369041D01*
X184007611Y-47875134D01*
X184422577Y-48251041D01*
X184810961Y-48411904D01*
X185033000Y-48289915D01*
X185033000Y-47147000D01*
X183889371Y-47147000D01*
X183768086Y-47369041D01*
X183071163Y-47369041D01*
X183135000Y-47048113D01*
X183135000Y-46991887D01*
X183071164Y-46670959D01*
X183768086Y-46670959D01*
X183889371Y-46893000D01*
X185033000Y-46893000D01*
X185033000Y-45750085D01*
X185287000Y-45750085D01*
X185287000Y-46893000D01*
X185307000Y-46893000D01*
X185307000Y-47147000D01*
X185287000Y-47147000D01*
X185287000Y-48289915D01*
X185509039Y-48411904D01*
X185897423Y-48251041D01*
X186312389Y-47875134D01*
X186415014Y-47658297D01*
X186685302Y-48062811D01*
X187150849Y-48373880D01*
X187700000Y-48483113D01*
X188249151Y-48373880D01*
X188714698Y-48062811D01*
X189025767Y-47597264D01*
X189071163Y-47369041D01*
X189768086Y-47369041D01*
X190007611Y-47875134D01*
X190422577Y-48251041D01*
X190810961Y-48411904D01*
X191033000Y-48289915D01*
X191033000Y-47147000D01*
X189889371Y-47147000D01*
X189768086Y-47369041D01*
X189071163Y-47369041D01*
X189135000Y-47048113D01*
X189135000Y-46991887D01*
X189071164Y-46670959D01*
X189768086Y-46670959D01*
X189889371Y-46893000D01*
X191033000Y-46893000D01*
X191033000Y-45750085D01*
X191287000Y-45750085D01*
X191287000Y-46893000D01*
X191307000Y-46893000D01*
X191307000Y-47147000D01*
X191287000Y-47147000D01*
X191287000Y-48289915D01*
X191509039Y-48411904D01*
X191897423Y-48251041D01*
X192312389Y-47875134D01*
X192415014Y-47658297D01*
X192685302Y-48062811D01*
X193150849Y-48373880D01*
X193700000Y-48483113D01*
X194249151Y-48373880D01*
X194714698Y-48062811D01*
X195025767Y-47597264D01*
X195135000Y-47048113D01*
X195135000Y-46991887D01*
X195025767Y-46442736D01*
X194714698Y-45977189D01*
X194249151Y-45666120D01*
X193700000Y-45556887D01*
X193150849Y-45666120D01*
X192685302Y-45977189D01*
X192415014Y-46381703D01*
X192312389Y-46164866D01*
X191897423Y-45788959D01*
X191509039Y-45628096D01*
X191287000Y-45750085D01*
X191033000Y-45750085D01*
X190810961Y-45628096D01*
X190422577Y-45788959D01*
X190007611Y-46164866D01*
X189768086Y-46670959D01*
X189071164Y-46670959D01*
X189025767Y-46442736D01*
X188714698Y-45977189D01*
X188249151Y-45666120D01*
X187700000Y-45556887D01*
X187150849Y-45666120D01*
X186685302Y-45977189D01*
X186415014Y-46381703D01*
X186312389Y-46164866D01*
X185897423Y-45788959D01*
X185509039Y-45628096D01*
X185287000Y-45750085D01*
X185033000Y-45750085D01*
X184810961Y-45628096D01*
X184422577Y-45788959D01*
X184007611Y-46164866D01*
X183768086Y-46670959D01*
X183071164Y-46670959D01*
X183025767Y-46442736D01*
X182714698Y-45977189D01*
X182249151Y-45666120D01*
X181700000Y-45556887D01*
X181150849Y-45666120D01*
X180685302Y-45977189D01*
X180415014Y-46381703D01*
X180312389Y-46164866D01*
X179897423Y-45788959D01*
X179509039Y-45628096D01*
X179287000Y-45750085D01*
X179033000Y-45750085D01*
X178810961Y-45628096D01*
X178422577Y-45788959D01*
X178007611Y-46164866D01*
X177768086Y-46670959D01*
X177071164Y-46670959D01*
X177025767Y-46442736D01*
X176714698Y-45977189D01*
X176249151Y-45666120D01*
X175700000Y-45556887D01*
X175150849Y-45666120D01*
X174685302Y-45977189D01*
X174415014Y-46381703D01*
X174312389Y-46164866D01*
X173897423Y-45788959D01*
X173509039Y-45628096D01*
X173287000Y-45750085D01*
X173033000Y-45750085D01*
X172810961Y-45628096D01*
X172422577Y-45788959D01*
X172007611Y-46164866D01*
X171768086Y-46670959D01*
X150029649Y-46670959D01*
X150015316Y-34037250D01*
X151340510Y-34037250D01*
X151340510Y-34877299D01*
X151437183Y-35110688D01*
X151615811Y-35289317D01*
X151849200Y-35385990D01*
X152689250Y-35385990D01*
X152848000Y-35227240D01*
X152848000Y-33878500D01*
X153102000Y-33878500D01*
X153102000Y-35227240D01*
X153260750Y-35385990D01*
X154100800Y-35385990D01*
X154334189Y-35289317D01*
X154512817Y-35110688D01*
X154609490Y-34877299D01*
X154609490Y-34037250D01*
X154450740Y-33878500D01*
X153102000Y-33878500D01*
X152848000Y-33878500D01*
X151499260Y-33878500D01*
X151340510Y-34037250D01*
X150015316Y-34037250D01*
X150013715Y-32625701D01*
X151340510Y-32625701D01*
X151340510Y-33465750D01*
X151499260Y-33624500D01*
X152848000Y-33624500D01*
X152848000Y-32275760D01*
X153102000Y-32275760D01*
X153102000Y-33624500D01*
X154450740Y-33624500D01*
X154609490Y-33465750D01*
X154609490Y-32625701D01*
X154512817Y-32392312D01*
X154334189Y-32213683D01*
X154100800Y-32117010D01*
X153260750Y-32117010D01*
X153102000Y-32275760D01*
X152848000Y-32275760D01*
X152689250Y-32117010D01*
X151849200Y-32117010D01*
X151615811Y-32213683D01*
X151437183Y-32392312D01*
X151340510Y-32625701D01*
X150013715Y-32625701D01*
X150007711Y-27333320D01*
X153346285Y-27333320D01*
X153475533Y-27626123D01*
X154175806Y-27894388D01*
X154925435Y-27874250D01*
X155524467Y-27626123D01*
X155653715Y-27333320D01*
X154500000Y-26179605D01*
X153346285Y-27333320D01*
X150007711Y-27333320D01*
X150005830Y-25675806D01*
X152605612Y-25675806D01*
X152625750Y-26425435D01*
X152873877Y-27024467D01*
X153166680Y-27153715D01*
X154320395Y-26000000D01*
X154679605Y-26000000D01*
X155833320Y-27153715D01*
X156126123Y-27024467D01*
X156375574Y-26373305D01*
X157614674Y-26373305D01*
X157901043Y-27066372D01*
X158430839Y-27597093D01*
X159123405Y-27884672D01*
X159873305Y-27885326D01*
X160566372Y-27598957D01*
X161097093Y-27069161D01*
X161384672Y-26376595D01*
X161385326Y-25626695D01*
X161098957Y-24933628D01*
X160569161Y-24402907D01*
X159876595Y-24115328D01*
X159126695Y-24114674D01*
X158433628Y-24401043D01*
X157902907Y-24930839D01*
X157615328Y-25623405D01*
X157614674Y-26373305D01*
X156375574Y-26373305D01*
X156394388Y-26324194D01*
X156374250Y-25574565D01*
X156126123Y-24975533D01*
X155833320Y-24846285D01*
X154679605Y-26000000D01*
X154320395Y-26000000D01*
X153166680Y-24846285D01*
X152873877Y-24975533D01*
X152605612Y-25675806D01*
X150005830Y-25675806D01*
X150004686Y-24666680D01*
X153346285Y-24666680D01*
X154500000Y-25820395D01*
X155653715Y-24666680D01*
X155524467Y-24373877D01*
X154824194Y-24105612D01*
X154074565Y-24125750D01*
X153475533Y-24373877D01*
X153346285Y-24666680D01*
X150004686Y-24666680D01*
X150002144Y-22427000D01*
X153425247Y-22427000D01*
X166148000Y-22402248D01*
X166148000Y-25052321D01*
X166148000Y-25052321D01*
G37*
X166148000Y-25052321D02*
X166098957Y-24933628D01*
X165569161Y-24402907D01*
X164876595Y-24115328D01*
X164126695Y-24114674D01*
X163433628Y-24401043D01*
X162902907Y-24930839D01*
X162615328Y-25623405D01*
X162614674Y-26373305D01*
X162901043Y-27066372D01*
X163430839Y-27597093D01*
X164123405Y-27884672D01*
X164873305Y-27885326D01*
X165566372Y-27598957D01*
X166097093Y-27069161D01*
X166148000Y-26946564D01*
X166148000Y-31250000D01*
X166158006Y-31299410D01*
X166186447Y-31341035D01*
X166228841Y-31368315D01*
X166275000Y-31377000D01*
X170598000Y-31377000D01*
X170598000Y-32104570D01*
X169025510Y-32104570D01*
X168790193Y-32148848D01*
X168574069Y-32287920D01*
X168429079Y-32500120D01*
X168378070Y-32752010D01*
X168378070Y-34750990D01*
X168422348Y-34986307D01*
X168561420Y-35202431D01*
X168773620Y-35347421D01*
X169025510Y-35398430D01*
X170598000Y-35398430D01*
X170598000Y-44625000D01*
X170608006Y-44674410D01*
X170636447Y-44716035D01*
X170678841Y-44743315D01*
X170725000Y-44752000D01*
X194125000Y-44752000D01*
X194174410Y-44741994D01*
X194214803Y-44714803D01*
X195489803Y-43439803D01*
X195517666Y-43397789D01*
X195527000Y-43350000D01*
X195527000Y-40133110D01*
X203808524Y-40133110D01*
X203929845Y-40363000D01*
X205123000Y-40363000D01*
X205123000Y-39169181D01*
X204893108Y-39048514D01*
X204368642Y-39294817D01*
X203978355Y-39723076D01*
X203808524Y-40133110D01*
X195527000Y-40133110D01*
X195527000Y-39152606D01*
X198352606Y-36327000D01*
X214648105Y-36327000D01*
X214672895Y-66348000D01*
X213360000Y-66348000D01*
X213360000Y-64550000D01*
X213298342Y-64240026D01*
X213203671Y-64098342D01*
X213122756Y-63977243D01*
X211922756Y-62777244D01*
X211659974Y-62601658D01*
X211350000Y-62540000D01*
X209029546Y-62540000D01*
X208869147Y-62299946D01*
X208539974Y-62080000D01*
X208869147Y-61860054D01*
X209191054Y-61378285D01*
X209304093Y-60810000D01*
X209191054Y-60241715D01*
X208869147Y-59759946D01*
X208539974Y-59540000D01*
X208869147Y-59320054D01*
X209191054Y-58838285D01*
X209304093Y-58270000D01*
X209191054Y-57701715D01*
X208869147Y-57219946D01*
X208539974Y-57000000D01*
X208869147Y-56780054D01*
X209191054Y-56298285D01*
X209304093Y-55730000D01*
X209191054Y-55161715D01*
X208869147Y-54679946D01*
X208528447Y-54452298D01*
X208671358Y-54385183D01*
X209061645Y-53956924D01*
X209231476Y-53546890D01*
X209110155Y-53317000D01*
X207917000Y-53317000D01*
X207917000Y-53337000D01*
X207663000Y-53337000D01*
X207663000Y-53317000D01*
X207643000Y-53317000D01*
X207643000Y-53063000D01*
X207663000Y-53063000D01*
X207663000Y-53043000D01*
X207917000Y-53043000D01*
X207917000Y-53063000D01*
X209110155Y-53063000D01*
X209231476Y-52833110D01*
X209061645Y-52423076D01*
X208671358Y-51994817D01*
X208528447Y-51927702D01*
X208869147Y-51700054D01*
X209191054Y-51218285D01*
X209304093Y-50650000D01*
X209191054Y-50081715D01*
X208869147Y-49599946D01*
X208528447Y-49372298D01*
X208671358Y-49305183D01*
X209061645Y-48876924D01*
X209231476Y-48466890D01*
X209110155Y-48237000D01*
X207917000Y-48237000D01*
X207917000Y-48257000D01*
X207663000Y-48257000D01*
X207663000Y-48237000D01*
X207643000Y-48237000D01*
X207643000Y-47983000D01*
X207663000Y-47983000D01*
X207663000Y-47963000D01*
X207917000Y-47963000D01*
X207917000Y-47983000D01*
X209110155Y-47983000D01*
X209231476Y-47753110D01*
X209061645Y-47343076D01*
X208671358Y-46914817D01*
X208528447Y-46847702D01*
X208869147Y-46620054D01*
X209191054Y-46138285D01*
X209304093Y-45570000D01*
X209191054Y-45001715D01*
X208869147Y-44519946D01*
X208539974Y-44300000D01*
X208869147Y-44080054D01*
X209191054Y-43598285D01*
X209304093Y-43030000D01*
X209191054Y-42461715D01*
X208869147Y-41979946D01*
X208539974Y-41760000D01*
X208869147Y-41540054D01*
X209191054Y-41058285D01*
X209304093Y-40490000D01*
X209191054Y-39921715D01*
X208875865Y-39450000D01*
X209585294Y-39450000D01*
X209755781Y-40307098D01*
X210241289Y-41033711D01*
X210967902Y-41519219D01*
X211825000Y-41689706D01*
X212682098Y-41519219D01*
X213408711Y-41033711D01*
X213894219Y-40307098D01*
X214064706Y-39450000D01*
X213894219Y-38592902D01*
X213408711Y-37866289D01*
X212682098Y-37380781D01*
X211825000Y-37210294D01*
X210967902Y-37380781D01*
X210241289Y-37866289D01*
X209755781Y-38592902D01*
X209585294Y-39450000D01*
X208875865Y-39450000D01*
X208869147Y-39439946D01*
X208387378Y-39118039D01*
X207819093Y-39005000D01*
X207760907Y-39005000D01*
X207192622Y-39118039D01*
X206710853Y-39439946D01*
X206521655Y-39723101D01*
X206521645Y-39723076D01*
X206131358Y-39294817D01*
X205606892Y-39048514D01*
X205377000Y-39169181D01*
X205377000Y-40363000D01*
X205397000Y-40363000D01*
X205397000Y-40617000D01*
X205377000Y-40617000D01*
X205377000Y-40637000D01*
X205123000Y-40637000D01*
X205123000Y-40617000D01*
X203929845Y-40617000D01*
X203808524Y-40846890D01*
X203978355Y-41256924D01*
X204368642Y-41685183D01*
X204511553Y-41752298D01*
X204170853Y-41979946D01*
X203848946Y-42461715D01*
X203735907Y-43030000D01*
X203848946Y-43598285D01*
X204170853Y-44080054D01*
X204500026Y-44300000D01*
X204170853Y-44519946D01*
X203848946Y-45001715D01*
X203735907Y-45570000D01*
X203848946Y-46138285D01*
X204170853Y-46620054D01*
X204500026Y-46840000D01*
X204170853Y-47059946D01*
X203848946Y-47541715D01*
X203735907Y-48110000D01*
X203848946Y-48678285D01*
X204170853Y-49160054D01*
X204500026Y-49380000D01*
X204170853Y-49599946D01*
X203848946Y-50081715D01*
X203735907Y-50650000D01*
X203848946Y-51218285D01*
X204170853Y-51700054D01*
X204500026Y-51920000D01*
X204170853Y-52139946D01*
X203848946Y-52621715D01*
X203735907Y-53190000D01*
X203848946Y-53758285D01*
X204170853Y-54240054D01*
X204500026Y-54460000D01*
X204170853Y-54679946D01*
X203848946Y-55161715D01*
X203735907Y-55730000D01*
X203848946Y-56298285D01*
X204170853Y-56780054D01*
X204511553Y-57007702D01*
X204368642Y-57074817D01*
X203978355Y-57503076D01*
X203808524Y-57913110D01*
X203929845Y-58143000D01*
X205123000Y-58143000D01*
X205123000Y-58123000D01*
X205377000Y-58123000D01*
X205377000Y-58143000D01*
X205397000Y-58143000D01*
X205397000Y-58397000D01*
X205377000Y-58397000D01*
X205377000Y-58417000D01*
X205123000Y-58417000D01*
X205123000Y-58397000D01*
X203929845Y-58397000D01*
X203808524Y-58626890D01*
X203978355Y-59036924D01*
X204368642Y-59465183D01*
X204511553Y-59532298D01*
X204170853Y-59759946D01*
X203848946Y-60241715D01*
X203735907Y-60810000D01*
X203848946Y-61378285D01*
X204170853Y-61860054D01*
X204500026Y-62080000D01*
X204170853Y-62299946D01*
X203848946Y-62781715D01*
X203735907Y-63350000D01*
X203848946Y-63918285D01*
X204170853Y-64400054D01*
X204500026Y-64620000D01*
X204170853Y-64839946D01*
X203848946Y-65321715D01*
X203735907Y-65890000D01*
X203848946Y-66458285D01*
X204170853Y-66940054D01*
X204500026Y-67160000D01*
X204170853Y-67379946D01*
X203848946Y-67861715D01*
X203735907Y-68430000D01*
X203754456Y-68523254D01*
X200211491Y-72066219D01*
X199871057Y-72206883D01*
X199607808Y-72469673D01*
X199465162Y-72813201D01*
X199464838Y-73185167D01*
X199606883Y-73528943D01*
X199869673Y-73792192D01*
X200213201Y-73934838D01*
X200585167Y-73935162D01*
X200585559Y-73935000D01*
X200600000Y-73935000D01*
X200957809Y-73863827D01*
X201261145Y-73661145D01*
X201665000Y-73257290D01*
X201665000Y-87450000D01*
X201736173Y-87807809D01*
X201938855Y-88111145D01*
X203238855Y-89411145D01*
X203542191Y-89613827D01*
X203763443Y-89657837D01*
X203796838Y-89835317D01*
X203935910Y-90051441D01*
X204148110Y-90196431D01*
X204400000Y-90247440D01*
X206100000Y-90247440D01*
X206335317Y-90203162D01*
X206551441Y-90064090D01*
X206696431Y-89851890D01*
X206707841Y-89795546D01*
X206710853Y-89800054D01*
X207192622Y-90121961D01*
X207760907Y-90235000D01*
X207819093Y-90235000D01*
X208387378Y-90121961D01*
X208869147Y-89800054D01*
X209191054Y-89318285D01*
X209304093Y-88750000D01*
X209191054Y-88181715D01*
X208869147Y-87699946D01*
X208539974Y-87480000D01*
X208869147Y-87260054D01*
X209191054Y-86778285D01*
X209304093Y-86210000D01*
X209191054Y-85641715D01*
X208869147Y-85159946D01*
X208528447Y-84932298D01*
X208671358Y-84865183D01*
X209061645Y-84436924D01*
X209231476Y-84026890D01*
X209110155Y-83797000D01*
X207917000Y-83797000D01*
X207917000Y-83817000D01*
X207663000Y-83817000D01*
X207663000Y-83797000D01*
X207643000Y-83797000D01*
X207643000Y-83543000D01*
X207663000Y-83543000D01*
X207663000Y-83523000D01*
X207917000Y-83523000D01*
X207917000Y-83543000D01*
X209110155Y-83543000D01*
X209231476Y-83313110D01*
X209061645Y-82903076D01*
X208671358Y-82474817D01*
X208528447Y-82407702D01*
X208869147Y-82180054D01*
X209191054Y-81698285D01*
X209304093Y-81130000D01*
X209191054Y-80561715D01*
X208869147Y-80079946D01*
X208539974Y-79860000D01*
X208869147Y-79640054D01*
X209191054Y-79158285D01*
X209304093Y-78590000D01*
X209191054Y-78021715D01*
X208869147Y-77539946D01*
X208539974Y-77320000D01*
X208869147Y-77100054D01*
X209191054Y-76618285D01*
X209304093Y-76050000D01*
X209191054Y-75481715D01*
X208869147Y-74999946D01*
X208528447Y-74772298D01*
X208671358Y-74705183D01*
X209061645Y-74276924D01*
X209231476Y-73866890D01*
X209110155Y-73637000D01*
X207917000Y-73637000D01*
X207917000Y-73657000D01*
X207663000Y-73657000D01*
X207663000Y-73637000D01*
X207643000Y-73637000D01*
X207643000Y-73383000D01*
X207663000Y-73383000D01*
X207663000Y-73363000D01*
X207917000Y-73363000D01*
X207917000Y-73383000D01*
X209110155Y-73383000D01*
X209231476Y-73153110D01*
X209061645Y-72743076D01*
X208671358Y-72314817D01*
X208528447Y-72247702D01*
X208869147Y-72020054D01*
X209029546Y-71780000D01*
X209984488Y-71780000D01*
X210440000Y-72235513D01*
X210440000Y-90314487D01*
X210264488Y-90490000D01*
X204590000Y-90490000D01*
X204280026Y-90551658D01*
X204148635Y-90639451D01*
X204017243Y-90727244D01*
X203364488Y-91380000D01*
X182464944Y-91380000D01*
X182758711Y-91183711D01*
X183244219Y-90457098D01*
X183414706Y-89600000D01*
X183244219Y-88742902D01*
X182758711Y-88016289D01*
X182032098Y-87530781D01*
X181175000Y-87360294D01*
X180317902Y-87530781D01*
X179591289Y-88016289D01*
X179105781Y-88742902D01*
X178935294Y-89600000D01*
X179105781Y-90457098D01*
X179591289Y-91183711D01*
X179885056Y-91380000D01*
X179705512Y-91380000D01*
X179613032Y-91287520D01*
X179572757Y-91227244D01*
X177610000Y-89264488D01*
X177610000Y-76935512D01*
X178540000Y-76005513D01*
X178540000Y-78512559D01*
X178415162Y-78813201D01*
X178414838Y-79185167D01*
X178556883Y-79528943D01*
X178819673Y-79792192D01*
X179163201Y-79934838D01*
X179535167Y-79935162D01*
X179878943Y-79793117D01*
X180142192Y-79530327D01*
X180284838Y-79186799D01*
X180285162Y-78814833D01*
X180160000Y-78511917D01*
X180160000Y-54485512D01*
X181035513Y-53610000D01*
X187532972Y-53610000D01*
X187713201Y-53684838D01*
X188085167Y-53685162D01*
X188428943Y-53543117D01*
X188692192Y-53280327D01*
X188834838Y-52936799D01*
X188835162Y-52564833D01*
X188695490Y-52226800D01*
X190160854Y-50761436D01*
X190292192Y-50630327D01*
X190434838Y-50286799D01*
X190435162Y-49914833D01*
X190293117Y-49571057D01*
X190030327Y-49307808D01*
X189686799Y-49165162D01*
X189314833Y-49164838D01*
X188971057Y-49306883D01*
X188707808Y-49569673D01*
X188707645Y-49570065D01*
X187362710Y-50915000D01*
X185635118Y-50915000D01*
X185635162Y-50864833D01*
X185493117Y-50521057D01*
X185230327Y-50257808D01*
X184886799Y-50115162D01*
X184514833Y-50114838D01*
X184171057Y-50256883D01*
X183907808Y-50519673D01*
X183907645Y-50520065D01*
X183512710Y-50915000D01*
X181250000Y-50915000D01*
X180892191Y-50986173D01*
X180777128Y-51063056D01*
X180671057Y-51106883D01*
X180589118Y-51188680D01*
X180588855Y-51188855D01*
X180539146Y-51238564D01*
X180407808Y-51369673D01*
X180265162Y-51713201D01*
X180264838Y-52085167D01*
X180281073Y-52124458D01*
X180265296Y-52135000D01*
X180127243Y-52227244D01*
X179167608Y-53186880D01*
X179148343Y-53090027D01*
X178972757Y-52827244D01*
X176897017Y-50751505D01*
X176843117Y-50621057D01*
X176580327Y-50357808D01*
X176236799Y-50215162D01*
X175864833Y-50214838D01*
X175521057Y-50356883D01*
X175257808Y-50619673D01*
X175115162Y-50963201D01*
X175114838Y-51335167D01*
X175256883Y-51678943D01*
X175519673Y-51942192D01*
X175863201Y-52084838D01*
X175939392Y-52084904D01*
X176119504Y-52265016D01*
X175914833Y-52264838D01*
X175571057Y-52406883D01*
X175307808Y-52669673D01*
X175165162Y-53013201D01*
X175164838Y-53385167D01*
X175215000Y-53506569D01*
X175215000Y-58999184D01*
X175214838Y-59185167D01*
X175356883Y-59528943D01*
X175619673Y-59792192D01*
X175963201Y-59934838D01*
X176335167Y-59935162D01*
X176678943Y-59793117D01*
X176942192Y-59530327D01*
X177084838Y-59186799D01*
X177085162Y-58814833D01*
X177085000Y-58814441D01*
X177085000Y-53250000D01*
X177080161Y-53225674D01*
X177590000Y-53735513D01*
X177590000Y-74664487D01*
X176227244Y-76027244D01*
X176051658Y-76290026D01*
X175990000Y-76600000D01*
X175990000Y-89600000D01*
X176051658Y-89909974D01*
X176163424Y-90077243D01*
X176227244Y-90172756D01*
X178386973Y-92332486D01*
X178427244Y-92392756D01*
X178797243Y-92762756D01*
X178925332Y-92848342D01*
X179060026Y-92938342D01*
X179370000Y-93000000D01*
X203700000Y-93000000D01*
X204009974Y-92938342D01*
X204272756Y-92762756D01*
X204281617Y-92753895D01*
X204419673Y-92892192D01*
X204763201Y-93034838D01*
X205135167Y-93035162D01*
X205438083Y-92910000D01*
X209994488Y-92910000D01*
X209614488Y-93290000D01*
X178935513Y-93290000D01*
X172922756Y-87277244D01*
X172885814Y-87252560D01*
X172659974Y-87101658D01*
X172350000Y-87040000D01*
X172136470Y-87040000D01*
X172519151Y-86963880D01*
X172984698Y-86652811D01*
X173081101Y-86508535D01*
X173106838Y-86645317D01*
X173245910Y-86861441D01*
X173458110Y-87006431D01*
X173710000Y-87057440D01*
X175310000Y-87057440D01*
X175545317Y-87013162D01*
X175761441Y-86874090D01*
X175906431Y-86661890D01*
X175957440Y-86410000D01*
X175957440Y-84810000D01*
X175913162Y-84574683D01*
X175774090Y-84358559D01*
X175561890Y-84213569D01*
X175310000Y-84162560D01*
X173710000Y-84162560D01*
X173474683Y-84206838D01*
X173258559Y-84345910D01*
X173113569Y-84558110D01*
X173082185Y-84713089D01*
X172984698Y-84567189D01*
X172519151Y-84256120D01*
X171970000Y-84146887D01*
X171420849Y-84256120D01*
X170955302Y-84567189D01*
X170700000Y-84949275D01*
X170444698Y-84567189D01*
X169979151Y-84256120D01*
X169430000Y-84146887D01*
X168880849Y-84256120D01*
X168415302Y-84567189D01*
X168160000Y-84949275D01*
X167904698Y-84567189D01*
X167439151Y-84256120D01*
X166890000Y-84146887D01*
X166340849Y-84256120D01*
X165875302Y-84567189D01*
X165620000Y-84949275D01*
X165364698Y-84567189D01*
X164899151Y-84256120D01*
X164350000Y-84146887D01*
X163800849Y-84256120D01*
X163335302Y-84567189D01*
X163080000Y-84949275D01*
X162824698Y-84567189D01*
X162359151Y-84256120D01*
X162107643Y-84206092D01*
X170729053Y-75703205D01*
X170730903Y-75700477D01*
X170733645Y-75698645D01*
X170833232Y-75549603D01*
X170933830Y-75401279D01*
X170934496Y-75398050D01*
X170936327Y-75395309D01*
X170971285Y-75219564D01*
X171007478Y-75043972D01*
X171006857Y-75040733D01*
X171007500Y-75037500D01*
X171007500Y-74895430D01*
X171071990Y-74895430D01*
X171307307Y-74851152D01*
X171523431Y-74712080D01*
X171668421Y-74499880D01*
X171719430Y-74247990D01*
X171719430Y-72249010D01*
X171675152Y-72013693D01*
X171536080Y-71797569D01*
X171323880Y-71652579D01*
X171071990Y-71601570D01*
X169073010Y-71601570D01*
X168837693Y-71645848D01*
X168621569Y-71784920D01*
X168476579Y-71997120D01*
X168425570Y-72249010D01*
X168425570Y-74247990D01*
X168469848Y-74483307D01*
X168608920Y-74699431D01*
X168821120Y-74844421D01*
X168917038Y-74863845D01*
X160596496Y-83070000D01*
X154993099Y-83070000D01*
X155369219Y-82507098D01*
X155539706Y-81650000D01*
X155369219Y-80792902D01*
X154883711Y-80066289D01*
X154157098Y-79580781D01*
X153300000Y-79410294D01*
X152442902Y-79580781D01*
X152402000Y-79608111D01*
X152402000Y-74882990D01*
X152641750Y-74882990D01*
X152800500Y-74724240D01*
X152800500Y-73375500D01*
X153054500Y-73375500D01*
X153054500Y-74724240D01*
X153213250Y-74882990D01*
X154053300Y-74882990D01*
X154286689Y-74786317D01*
X154465317Y-74607688D01*
X154561990Y-74374299D01*
X154561990Y-73534250D01*
X154403240Y-73375500D01*
X153054500Y-73375500D01*
X152800500Y-73375500D01*
X152780500Y-73375500D01*
X152780500Y-73121500D01*
X152800500Y-73121500D01*
X152800500Y-71772760D01*
X153054500Y-71772760D01*
X153054500Y-73121500D01*
X154403240Y-73121500D01*
X154561990Y-72962750D01*
X154561990Y-72122701D01*
X154465317Y-71889312D01*
X154286689Y-71710683D01*
X154053300Y-71614010D01*
X153213250Y-71614010D01*
X153054500Y-71772760D01*
X152800500Y-71772760D01*
X152641750Y-71614010D01*
X152402000Y-71614010D01*
X152402000Y-66375000D01*
X152391994Y-66325590D01*
X152363553Y-66283965D01*
X152321159Y-66256685D01*
X152275000Y-66248000D01*
X150051856Y-66248000D01*
X150050878Y-65385167D01*
X171864838Y-65385167D01*
X171865000Y-65385559D01*
X171865000Y-68600000D01*
X171936173Y-68957809D01*
X172138855Y-69261145D01*
X174138564Y-71260854D01*
X174269673Y-71392192D01*
X174613201Y-71534838D01*
X174985167Y-71535162D01*
X175328943Y-71393117D01*
X175592192Y-71130327D01*
X175734838Y-70786799D01*
X175735162Y-70414833D01*
X175593117Y-70071057D01*
X175330327Y-69807808D01*
X175329935Y-69807645D01*
X173735000Y-68212710D01*
X173735000Y-65200816D01*
X173735162Y-65014833D01*
X173593117Y-64671057D01*
X173330327Y-64407808D01*
X172986799Y-64265162D01*
X172614833Y-64264838D01*
X172271057Y-64406883D01*
X172007808Y-64669673D01*
X171865162Y-65013201D01*
X171864838Y-65385167D01*
X150050878Y-65385167D01*
X150030440Y-47369041D01*
X171768086Y-47369041D01*
X172007611Y-47875134D01*
X172422577Y-48251041D01*
X172810961Y-48411904D01*
X173033000Y-48289915D01*
X173033000Y-47147000D01*
X171889371Y-47147000D01*
X171768086Y-47369041D01*
X150030440Y-47369041D01*
X150029649Y-46670959D01*
X171768086Y-46670959D01*
X171889371Y-46893000D01*
X173033000Y-46893000D01*
X173033000Y-45750085D01*
X173287000Y-45750085D01*
X173287000Y-46893000D01*
X173307000Y-46893000D01*
X173307000Y-47147000D01*
X173287000Y-47147000D01*
X173287000Y-48289915D01*
X173509039Y-48411904D01*
X173897423Y-48251041D01*
X174312389Y-47875134D01*
X174415014Y-47658297D01*
X174685302Y-48062811D01*
X175150849Y-48373880D01*
X175700000Y-48483113D01*
X176249151Y-48373880D01*
X176714698Y-48062811D01*
X177025767Y-47597264D01*
X177071163Y-47369041D01*
X177768086Y-47369041D01*
X178007611Y-47875134D01*
X178422577Y-48251041D01*
X178810961Y-48411904D01*
X179033000Y-48289915D01*
X179033000Y-47147000D01*
X177889371Y-47147000D01*
X177768086Y-47369041D01*
X177071163Y-47369041D01*
X177135000Y-47048113D01*
X177135000Y-46991887D01*
X177071164Y-46670959D01*
X177768086Y-46670959D01*
X177889371Y-46893000D01*
X179033000Y-46893000D01*
X179033000Y-45750085D01*
X179287000Y-45750085D01*
X179287000Y-46893000D01*
X179307000Y-46893000D01*
X179307000Y-47147000D01*
X179287000Y-47147000D01*
X179287000Y-48289915D01*
X179509039Y-48411904D01*
X179897423Y-48251041D01*
X180312389Y-47875134D01*
X180415014Y-47658297D01*
X180685302Y-48062811D01*
X181150849Y-48373880D01*
X181700000Y-48483113D01*
X182249151Y-48373880D01*
X182714698Y-48062811D01*
X183025767Y-47597264D01*
X183071163Y-47369041D01*
X183768086Y-47369041D01*
X184007611Y-47875134D01*
X184422577Y-48251041D01*
X184810961Y-48411904D01*
X185033000Y-48289915D01*
X185033000Y-47147000D01*
X183889371Y-47147000D01*
X183768086Y-47369041D01*
X183071163Y-47369041D01*
X183135000Y-47048113D01*
X183135000Y-46991887D01*
X183071164Y-46670959D01*
X183768086Y-46670959D01*
X183889371Y-46893000D01*
X185033000Y-46893000D01*
X185033000Y-45750085D01*
X185287000Y-45750085D01*
X185287000Y-46893000D01*
X185307000Y-46893000D01*
X185307000Y-47147000D01*
X185287000Y-47147000D01*
X185287000Y-48289915D01*
X185509039Y-48411904D01*
X185897423Y-48251041D01*
X186312389Y-47875134D01*
X186415014Y-47658297D01*
X186685302Y-48062811D01*
X187150849Y-48373880D01*
X187700000Y-48483113D01*
X188249151Y-48373880D01*
X188714698Y-48062811D01*
X189025767Y-47597264D01*
X189071163Y-47369041D01*
X189768086Y-47369041D01*
X190007611Y-47875134D01*
X190422577Y-48251041D01*
X190810961Y-48411904D01*
X191033000Y-48289915D01*
X191033000Y-47147000D01*
X189889371Y-47147000D01*
X189768086Y-47369041D01*
X189071163Y-47369041D01*
X189135000Y-47048113D01*
X189135000Y-46991887D01*
X189071164Y-46670959D01*
X189768086Y-46670959D01*
X189889371Y-46893000D01*
X191033000Y-46893000D01*
X191033000Y-45750085D01*
X191287000Y-45750085D01*
X191287000Y-46893000D01*
X191307000Y-46893000D01*
X191307000Y-47147000D01*
X191287000Y-47147000D01*
X191287000Y-48289915D01*
X191509039Y-48411904D01*
X191897423Y-48251041D01*
X192312389Y-47875134D01*
X192415014Y-47658297D01*
X192685302Y-48062811D01*
X193150849Y-48373880D01*
X193700000Y-48483113D01*
X194249151Y-48373880D01*
X194714698Y-48062811D01*
X195025767Y-47597264D01*
X195135000Y-47048113D01*
X195135000Y-46991887D01*
X195025767Y-46442736D01*
X194714698Y-45977189D01*
X194249151Y-45666120D01*
X193700000Y-45556887D01*
X193150849Y-45666120D01*
X192685302Y-45977189D01*
X192415014Y-46381703D01*
X192312389Y-46164866D01*
X191897423Y-45788959D01*
X191509039Y-45628096D01*
X191287000Y-45750085D01*
X191033000Y-45750085D01*
X190810961Y-45628096D01*
X190422577Y-45788959D01*
X190007611Y-46164866D01*
X189768086Y-46670959D01*
X189071164Y-46670959D01*
X189025767Y-46442736D01*
X188714698Y-45977189D01*
X188249151Y-45666120D01*
X187700000Y-45556887D01*
X187150849Y-45666120D01*
X186685302Y-45977189D01*
X186415014Y-46381703D01*
X186312389Y-46164866D01*
X185897423Y-45788959D01*
X185509039Y-45628096D01*
X185287000Y-45750085D01*
X185033000Y-45750085D01*
X184810961Y-45628096D01*
X184422577Y-45788959D01*
X184007611Y-46164866D01*
X183768086Y-46670959D01*
X183071164Y-46670959D01*
X183025767Y-46442736D01*
X182714698Y-45977189D01*
X182249151Y-45666120D01*
X181700000Y-45556887D01*
X181150849Y-45666120D01*
X180685302Y-45977189D01*
X180415014Y-46381703D01*
X180312389Y-46164866D01*
X179897423Y-45788959D01*
X179509039Y-45628096D01*
X179287000Y-45750085D01*
X179033000Y-45750085D01*
X178810961Y-45628096D01*
X178422577Y-45788959D01*
X178007611Y-46164866D01*
X177768086Y-46670959D01*
X177071164Y-46670959D01*
X177025767Y-46442736D01*
X176714698Y-45977189D01*
X176249151Y-45666120D01*
X175700000Y-45556887D01*
X175150849Y-45666120D01*
X174685302Y-45977189D01*
X174415014Y-46381703D01*
X174312389Y-46164866D01*
X173897423Y-45788959D01*
X173509039Y-45628096D01*
X173287000Y-45750085D01*
X173033000Y-45750085D01*
X172810961Y-45628096D01*
X172422577Y-45788959D01*
X172007611Y-46164866D01*
X171768086Y-46670959D01*
X150029649Y-46670959D01*
X150015316Y-34037250D01*
X151340510Y-34037250D01*
X151340510Y-34877299D01*
X151437183Y-35110688D01*
X151615811Y-35289317D01*
X151849200Y-35385990D01*
X152689250Y-35385990D01*
X152848000Y-35227240D01*
X152848000Y-33878500D01*
X153102000Y-33878500D01*
X153102000Y-35227240D01*
X153260750Y-35385990D01*
X154100800Y-35385990D01*
X154334189Y-35289317D01*
X154512817Y-35110688D01*
X154609490Y-34877299D01*
X154609490Y-34037250D01*
X154450740Y-33878500D01*
X153102000Y-33878500D01*
X152848000Y-33878500D01*
X151499260Y-33878500D01*
X151340510Y-34037250D01*
X150015316Y-34037250D01*
X150013715Y-32625701D01*
X151340510Y-32625701D01*
X151340510Y-33465750D01*
X151499260Y-33624500D01*
X152848000Y-33624500D01*
X152848000Y-32275760D01*
X153102000Y-32275760D01*
X153102000Y-33624500D01*
X154450740Y-33624500D01*
X154609490Y-33465750D01*
X154609490Y-32625701D01*
X154512817Y-32392312D01*
X154334189Y-32213683D01*
X154100800Y-32117010D01*
X153260750Y-32117010D01*
X153102000Y-32275760D01*
X152848000Y-32275760D01*
X152689250Y-32117010D01*
X151849200Y-32117010D01*
X151615811Y-32213683D01*
X151437183Y-32392312D01*
X151340510Y-32625701D01*
X150013715Y-32625701D01*
X150007711Y-27333320D01*
X153346285Y-27333320D01*
X153475533Y-27626123D01*
X154175806Y-27894388D01*
X154925435Y-27874250D01*
X155524467Y-27626123D01*
X155653715Y-27333320D01*
X154500000Y-26179605D01*
X153346285Y-27333320D01*
X150007711Y-27333320D01*
X150005830Y-25675806D01*
X152605612Y-25675806D01*
X152625750Y-26425435D01*
X152873877Y-27024467D01*
X153166680Y-27153715D01*
X154320395Y-26000000D01*
X154679605Y-26000000D01*
X155833320Y-27153715D01*
X156126123Y-27024467D01*
X156375574Y-26373305D01*
X157614674Y-26373305D01*
X157901043Y-27066372D01*
X158430839Y-27597093D01*
X159123405Y-27884672D01*
X159873305Y-27885326D01*
X160566372Y-27598957D01*
X161097093Y-27069161D01*
X161384672Y-26376595D01*
X161385326Y-25626695D01*
X161098957Y-24933628D01*
X160569161Y-24402907D01*
X159876595Y-24115328D01*
X159126695Y-24114674D01*
X158433628Y-24401043D01*
X157902907Y-24930839D01*
X157615328Y-25623405D01*
X157614674Y-26373305D01*
X156375574Y-26373305D01*
X156394388Y-26324194D01*
X156374250Y-25574565D01*
X156126123Y-24975533D01*
X155833320Y-24846285D01*
X154679605Y-26000000D01*
X154320395Y-26000000D01*
X153166680Y-24846285D01*
X152873877Y-24975533D01*
X152605612Y-25675806D01*
X150005830Y-25675806D01*
X150004686Y-24666680D01*
X153346285Y-24666680D01*
X154500000Y-25820395D01*
X155653715Y-24666680D01*
X155524467Y-24373877D01*
X154824194Y-24105612D01*
X154074565Y-24125750D01*
X153475533Y-24373877D01*
X153346285Y-24666680D01*
X150004686Y-24666680D01*
X150002144Y-22427000D01*
X153425247Y-22427000D01*
X166148000Y-22402248D01*
X166148000Y-25052321D01*
G36*
X203848946Y-71538285D02*
X204170853Y-72020054D01*
X204500026Y-72240000D01*
X204170853Y-72459946D01*
X203848946Y-72941715D01*
X203735907Y-73510000D01*
X203848946Y-74078285D01*
X204170853Y-74560054D01*
X204500026Y-74780000D01*
X204170853Y-74999946D01*
X203848946Y-75481715D01*
X203735907Y-76050000D01*
X203848946Y-76618285D01*
X204170853Y-77100054D01*
X204511553Y-77327702D01*
X204368642Y-77394817D01*
X203978355Y-77823076D01*
X203808524Y-78233110D01*
X203929845Y-78463000D01*
X205123000Y-78463000D01*
X205123000Y-78443000D01*
X205377000Y-78443000D01*
X205377000Y-78463000D01*
X205397000Y-78463000D01*
X205397000Y-78717000D01*
X205377000Y-78717000D01*
X205377000Y-78737000D01*
X205123000Y-78737000D01*
X205123000Y-78717000D01*
X203929845Y-78717000D01*
X203808524Y-78946890D01*
X203978355Y-79356924D01*
X204368642Y-79785183D01*
X204511553Y-79852298D01*
X204170853Y-80079946D01*
X203848946Y-80561715D01*
X203735907Y-81130000D01*
X203848946Y-81698285D01*
X204170853Y-82180054D01*
X204500026Y-82400000D01*
X204170853Y-82619946D01*
X203848946Y-83101715D01*
X203735907Y-83670000D01*
X203848946Y-84238285D01*
X204170853Y-84720054D01*
X204500026Y-84940000D01*
X204170853Y-85159946D01*
X203848946Y-85641715D01*
X203735907Y-86210000D01*
X203848946Y-86778285D01*
X204170853Y-87260054D01*
X204212452Y-87287850D01*
X204164683Y-87296838D01*
X203948559Y-87435910D01*
X203932177Y-87459887D01*
X203535000Y-87062710D01*
X203535000Y-71387290D01*
X203771807Y-71150483D01*
X203848946Y-71538285D01*
X203848946Y-71538285D01*
G37*
X203848946Y-71538285D02*
X204170853Y-72020054D01*
X204500026Y-72240000D01*
X204170853Y-72459946D01*
X203848946Y-72941715D01*
X203735907Y-73510000D01*
X203848946Y-74078285D01*
X204170853Y-74560054D01*
X204500026Y-74780000D01*
X204170853Y-74999946D01*
X203848946Y-75481715D01*
X203735907Y-76050000D01*
X203848946Y-76618285D01*
X204170853Y-77100054D01*
X204511553Y-77327702D01*
X204368642Y-77394817D01*
X203978355Y-77823076D01*
X203808524Y-78233110D01*
X203929845Y-78463000D01*
X205123000Y-78463000D01*
X205123000Y-78443000D01*
X205377000Y-78443000D01*
X205377000Y-78463000D01*
X205397000Y-78463000D01*
X205397000Y-78717000D01*
X205377000Y-78717000D01*
X205377000Y-78737000D01*
X205123000Y-78737000D01*
X205123000Y-78717000D01*
X203929845Y-78717000D01*
X203808524Y-78946890D01*
X203978355Y-79356924D01*
X204368642Y-79785183D01*
X204511553Y-79852298D01*
X204170853Y-80079946D01*
X203848946Y-80561715D01*
X203735907Y-81130000D01*
X203848946Y-81698285D01*
X204170853Y-82180054D01*
X204500026Y-82400000D01*
X204170853Y-82619946D01*
X203848946Y-83101715D01*
X203735907Y-83670000D01*
X203848946Y-84238285D01*
X204170853Y-84720054D01*
X204500026Y-84940000D01*
X204170853Y-85159946D01*
X203848946Y-85641715D01*
X203735907Y-86210000D01*
X203848946Y-86778285D01*
X204170853Y-87260054D01*
X204212452Y-87287850D01*
X204164683Y-87296838D01*
X203948559Y-87435910D01*
X203932177Y-87459887D01*
X203535000Y-87062710D01*
X203535000Y-71387290D01*
X203771807Y-71150483D01*
X203848946Y-71538285D01*
G36*
X211740000Y-64885513D02*
X211740000Y-68194488D01*
X211402756Y-67857244D01*
X211270473Y-67768855D01*
X211139974Y-67681658D01*
X210830000Y-67620000D01*
X209029546Y-67620000D01*
X208869147Y-67379946D01*
X208528447Y-67152298D01*
X208671358Y-67085183D01*
X209061645Y-66656924D01*
X209231476Y-66246890D01*
X209110155Y-66017000D01*
X207917000Y-66017000D01*
X207917000Y-66037000D01*
X207663000Y-66037000D01*
X207663000Y-66017000D01*
X207643000Y-66017000D01*
X207643000Y-65763000D01*
X207663000Y-65763000D01*
X207663000Y-65743000D01*
X207917000Y-65743000D01*
X207917000Y-65763000D01*
X209110155Y-65763000D01*
X209231476Y-65533110D01*
X209061645Y-65123076D01*
X208671358Y-64694817D01*
X208528447Y-64627702D01*
X208869147Y-64400054D01*
X209029546Y-64160000D01*
X211014488Y-64160000D01*
X211740000Y-64885513D01*
X211740000Y-64885513D01*
G37*
X211740000Y-64885513D02*
X211740000Y-68194488D01*
X211402756Y-67857244D01*
X211270473Y-67768855D01*
X211139974Y-67681658D01*
X210830000Y-67620000D01*
X209029546Y-67620000D01*
X208869147Y-67379946D01*
X208528447Y-67152298D01*
X208671358Y-67085183D01*
X209061645Y-66656924D01*
X209231476Y-66246890D01*
X209110155Y-66017000D01*
X207917000Y-66017000D01*
X207917000Y-66037000D01*
X207663000Y-66037000D01*
X207663000Y-66017000D01*
X207643000Y-66017000D01*
X207643000Y-65763000D01*
X207663000Y-65763000D01*
X207663000Y-65743000D01*
X207917000Y-65743000D01*
X207917000Y-65763000D01*
X209110155Y-65763000D01*
X209231476Y-65533110D01*
X209061645Y-65123076D01*
X208671358Y-64694817D01*
X208528447Y-64627702D01*
X208869147Y-64400054D01*
X209029546Y-64160000D01*
X211014488Y-64160000D01*
X211740000Y-64885513D01*
M02*
